<?xml version="1.0" encoding="utf-8"?>
<!-- Generator: Adobe Illustrator 19.2.1, SVG Export Plug-In . SVG Version: 6.00 Build 0)  -->
<svg version="1.0" id="Слой_1" xmlns="http://www.w3.org/2000/svg" xmlns:xlink="http://www.w3.org/1999/xlink" x="0px" y="0px"
	 viewBox="0 0 395.50412 511.203186" style="enable-background:new 0 0 395.50412 511.203186;" xml:space="preserve">
<linearGradient id="SVGID_1_" gradientUnits="userSpaceOnUse" x1="197.75206" y1="511.203186" x2="197.75206" y2="-0.589661">
	<stop  offset="0" style="stop-color:#DB2127"/>
	<stop  offset="1" style="stop-color:#FF3F45"/>
</linearGradient>
<path style="fill:url(#SVGID_1_);" d="M388.277344,144.98761c-15.569397-56.913574-50.352417-98.644226-102.940491-125.36438
	C263.286255,8.41925,239.803207,1.963379,215.1129,0c-0.732666-0.058289-9.153748-0.373535-17.36084-0.589661
	C189.544968-0.373535,181.123886-0.058289,180.39122,0c-24.690308,1.963379-48.17334,8.41925-70.22393,19.62323
	C57.579216,46.343384,22.796196,88.074036,7.226799,144.98761c-13.704651,50.097229-7.819946,98.53479,16.822388,144.169312
	c23.313293,43.173096,58.622559,73.174927,104.45092,90.691833c3.106628,1.187439,4.767334,2.955811,5.961609,5.961731
	c14.558228,36.642273,29.31781,73.204895,43.79718,109.878113c3.001709,7.6026,7.411011,13.252258,15.493164,15.514587
	c1.333313,0,2.666687,0,4,0s2.666687,0,4,0c8.082153-2.262329,12.491455-7.911987,15.493164-15.514587
	c14.47937-36.673218,29.238953-73.23584,43.797195-109.878113c1.194275-3.00592,2.85498-4.774292,5.961609-5.961731
	c45.828369-17.516907,81.137634-47.518738,104.450928-90.691833C396.09729,243.5224,401.981995,195.084839,388.277344,144.98761z
	 M198.598068,266.96875c-0.283752-0.001465-0.563049-0.020996-0.846008-0.025757
	c-0.282959,0.004761-0.562256,0.024292-0.846008,0.025757c-39.066101,0.199097-71.246208-31.962341-71.269035-71.227722
	c-0.022888-39.254883,32.086784-71.390564,71.211113-71.26886c0.303162,0.000916,0.601685,0.020874,0.903931,0.025635
	c0.302246-0.004761,0.600769-0.024719,0.903931-0.025635c39.124329-0.121704,71.234024,32.013977,71.211136,71.26886
	C269.844299,235.006409,237.664169,267.167847,198.598068,266.96875z"/>
</svg>
