<?xml version="1.0" encoding="utf-8"?>
<!-- Generator: Adobe Illustrator 19.2.1, SVG Export Plug-In . SVG Version: 6.00 Build 0)  -->
<svg version="1.0" id="Capa_1" xmlns="http://www.w3.org/2000/svg" xmlns:xlink="http://www.w3.org/1999/xlink" x="0px" y="0px"
	 viewBox="0 0 596.001038 596.866333" style="enable-background:new 0 0 596.001038 596.866333;" xml:space="preserve">
<polygon style="fill:#D4F0FF;" points="578.767029,16 152.767029,16 135.767029,30 135.767029,178.762512 453.767029,184 
	455.767029,348 555.767029,348 585.767029,328 585.767029,40 "/>
<g>
	<polygon style="fill:#B3DAF5;" points="155.258026,178.569489 155.258026,179.386993 158.305695,179.43718 	"/>
	<path style="fill:#B3DAF5;" d="M453.436615,320.44693h88.650177c6.315125,0,10.558167-4.243011,10.558167-10.558258V48.557327
		C552.644958,42.242683,548.401917,38,542.086792,38H179.034653c-6.310364,0-10.550095,4.242683-10.550095,10.557327v131.047501
		l276.365692,4.551773l1.82132,149.349442h8.514099L453.436615,320.44693z"/>
</g>
<path style="fill:#FFFFFF;" d="M447.767029,188l-75.39502-5.340576l-349.60498,2.670288l-8,18.670288v299l25,12l191.5,4
	c0,0,102.5,66,102.5,59s3-64,3-64l85,1l26-6l12-28V211L447.767029,188z"/>
<polygon style="opacity:0.05;fill:#2A3038;" points="475,11 424,11 178,518 231.267029,519 326.5,576.213013 336.767029,514 
	445.711182,517 459.767029,499 455.767029,348 519,344 570,343 585.767029,328 585.767029,40 578.767029,16 546,11 "/>
<path style="fill:#2A3038;" d="M560.542053,357.525024c9.574158,0,17.960327-3.460938,24.925598-10.286804
	c7.088196-6.936157,10.533386-15.1698,10.533386-25.172363V35.098999c-0.000793-9.760925-3.444946-17.875793-10.529175-24.808167
	C578.501892,3.462097,570.114197,0,560.541016,0H161.876038c-20.282837,0-36.171021,15.417297-36.171021,35.098999V175l24.585999,7
	V35.098999c0-6.934082,4.65564-11.592957,11.585022-11.592957h398.666016c6.934631,0,11.593933,4.658875,11.593933,11.592957
	v286.966858c0,6.934753-4.659302,11.593994-11.593933,11.593994h-97.346375l3.19635,23.865173H560.542053z"/>
<path style="fill:#2A3038;" d="M434.117188,169.162964H35.460022c-10.016479,0-18.466492,3.521362-25.115295,10.466248
	C3.480042,186.786377,0,195.43457,0,205.334961v286.615051c0,9.807495,3.460144,18.316711,10.284241,25.291199
	c6.598511,6.741455,15.06897,10.15979,25.175781,10.15979h180.288025h1.296326h0.259155h0.518494l0.453186,0.251892
	l0.226562,0.125977l1.132935,0.629639l123.157349,68.457825v-61.465332v-5v-1v-2h2h1h5h83.323975
	c10.107117,0,18.574341-3.417847,25.166504-10.158508c6.830444-6.980103,10.293518-15.489502,10.293518-25.29248V205.334961
	c0-10.032837-3.385559-18.442932-10.35022-25.71106C452.575928,172.682434,444.128174,169.162964,434.117188,169.162964z
	 M445.711182,491.950012c-0.002869,6.930298-4.662659,11.585999-11.595154,11.585999h-83.323975h-31.505005v31.86499v7.546997
	v8.560364v1.712158v3.424316l-2.982544-1.682312l-1.491272-0.841125l-7.456116-4.205383l-75.674866-42.679688l-7.110474-3.700317
	h-8.82373H35.460022c-6.934753,0-11.593994-4.656067-11.593994-11.585999V205.334961
	c0-6.304504,3.584961-12.665955,11.593994-12.665955h398.657166c5.770935,0,11.593994,3.916443,11.593994,12.665955V491.950012z"/>
<path style="fill:#F36C6D;" d="M357.619019,379.704956H214.315063c-7.23053,0-13.113037,5.882507-13.113037,13.113037
	c0,7.151184,5.759949,12.752991,13.113037,12.752991h143.302979c7.270386,0,12.752991-5.482605,12.752991-12.752991
	C370.371033,385.464905,364.769714,379.704956,357.619019,379.704956z"/>
<path style="fill:#F36C6D;" d="M357.619019,291.713989H111.958008c-7.270386,0-12.752991,5.482605-12.752991,12.752991
	s5.482605,12.752991,12.752991,12.752991h245.661011c7.270386,0,12.752991-5.482605,12.752991-12.752991
	S364.889404,291.713989,357.619019,291.713989z"/>
</svg>
