<?xml version="1.0" encoding="utf-8"?>
<!-- Generator: Adobe Illustrator 19.2.1, SVG Export Plug-In . SVG Version: 6.00 Build 0)  -->
<svg version="1.0" id="Capa_1" xmlns="http://www.w3.org/2000/svg" xmlns:xlink="http://www.w3.org/1999/xlink" x="0px" y="0px"
	 viewBox="0 0 596.001038 596.866333" style="enable-background:new 0 0 596.001038 596.866333;" xml:space="preserve">
<polygon style="fill:#D4F0FF;" points="468.767029,95.433167 342.767029,91 319.767029,62 292.767029,62 261.000549,78.716583 
	248.767029,89 141.767029,95.433167 117.000549,95.433167 104.767029,122.433167 104.767029,504 113.767029,527.433167 
	149.767029,539 446.767029,539 479.000549,539 490.767029,517 490.767029,113 "/>
<g>
	<path style="fill:#B3DAF5;" d="M243.784149,180.811142v-4.59462h-4.59462h-44.108261h-4.594604v4.59462v264.649536v4.594635
		h4.594604H400.91983h4.594604v-4.594635V180.811142v-4.59462h-4.594604h-44.108276h-4.594604v4.59462
		c0,13.68074-11.130096,24.810883-24.810883,24.810883h-58.811035
		C254.914291,205.622025,243.784149,194.491882,243.784149,180.811142z"/>
	<path style="fill:#B3DAF5;" d="M327.406067,185.405746h4.594604v-4.594604v-58.81102
		C332.000671,103.252403,316.74826,88,298.000549,88s-34.000122,15.252403-34.000122,34.000122v58.81102v4.594604h4.594604
		H327.406067z"/>
	<path style="fill:#B3DAF5;" d="M150.973007,117.40551c-10.640625,0-19.297363,8.656731-19.297363,19.297356V489.56897
		c0,10.640625,8.656738,19.297363,19.297363,19.297363h294.055054c10.640656,0,19.297363-8.656738,19.297363-19.297363V136.702866
		c0-10.640625-8.656708-19.297356-19.297363-19.297356h-88.216522h-4.594604v4.594612v29.405502v4.59462h4.594604h58.811035
		c5.573639,0,10.108124,4.534485,10.108124,10.108139v294.055054c0,5.573608-4.534485,10.108154-10.108124,10.108154H180.378525
		c-5.573608,0-10.108154-4.534546-10.108154-10.108154V166.108383c0-5.573654,4.534546-10.108139,10.108154-10.108139h58.811005
		h4.59462v-4.59462v-29.405502v-4.594612h-4.59462H150.973007z"/>
</g>
<polygon style="fill:#FFFFFF;" points="245.767029,157.162964 169.767029,157.162964 169.767029,470 185.767029,470 415.000549,474 
	425.767029,474 425.767029,157.162964 351.767029,152 342.767029,91 325.662292,69.433167 298.002563,62 278.767029,62 
	256.767029,84 246.767029,122.433167 "/>
<path style="fill:#2A3038;" d="M298.002563,95.433167c-6.06543,0-11,4.93457-11,11s4.93457,11,11,11s11-4.93457,11-11
	S304.067993,95.433167,298.002563,95.433167z"/>
<polygon style="opacity:0.05;fill:#2A3038;" points="425.767029,88 214.767029,539 446.767029,539 485.186951,527.433167 
	490.767029,508.866333 490.767029,146 484.767029,101.433167 451.767029,88 "/>
<polygon style="opacity:0.05;fill:#2A3038;" points="325.662292,69.433167 268.595032,185.405746 332.000671,185.405746 
	345.767029,175.433167 345.767029,101.433167 335.000549,69.433167 "/>
<path style="fill:#F36C6D;" d="M370.838318,273.595215c-2.361328-2.361816-5.499023-3.662598-8.836914-3.662598
	s-6.476562,1.300781-8.837891,3.662598l-71.163086,71.162598l-39.163086-39.163086
	c-2.361328-2.361328-5.499512-3.661133-8.836426-3.661133s-6.475586,1.300781-8.837891,3.662109
	c-2.361328,2.362305-3.662109,5.500977-3.662109,8.837891s1.300781,6.475586,3.662598,8.837891l48,48
	c2.361328,2.361328,5.499512,3.662109,8.836914,3.662109c3.336426,0,6.475098-1.300781,8.837891-3.663086l80-80.000488
	C375.711365,286.396973,375.711365,278.468262,370.838318,273.595215z"/>
<path style="fill:#2A3038;" d="M245.775513,79.433167h-2.871948H138.000549c-23.710327,0-43,19.289673-43,43v384
	c0,23.710327,19.289673,43,43,43h320c23.710327,0,43-19.289673,43-43v-384c0-23.710327-19.289673-43-43-43H353.097473h-2.871887
	l-1.447083-2.480774c-5.140259-8.812439-12.439392-16.199097-21.108398-21.361389
	c-8.96228-5.336914-19.221924-8.157837-29.669556-8.157837c-10.447571,0-20.707214,2.820923-29.669495,8.157837
	c-8.669128,5.162292-15.968262,12.54895-21.108521,21.361389L245.775513,79.433167z M357.000549,138.433167v-32v-5h5h96
	c11.579468,0,21,9.420532,21,21v384c0,11.579468-9.420532,21-21,21h-320c-11.579468,0-21-9.420532-21-21v-384
	c0-11.579468,9.420532-21,21-21h96h5v5v32v5h-5h-64c-6.065369,0-11,4.93457-11,11v320c0,6.065369,4.934631,11,11,11h256
	c6.06543,0,11-4.934631,11-11v-320c0-6.06543-4.93457-11-11-11h-64h-5V138.433167z M261.000549,170.433167v-64
	c0-20.401855,16.598145-37,37-37s37,16.598145,37,37v64v5h-5h-64h-5V170.433167z M266.000549,197.433167h64
	c14.887878,0,27-12.112183,27-27v-5h5h48h5v5v288v5h-5h-224h-5v-5v-288v-5h5h48h5v5
	C239.000549,185.320984,251.112732,197.433167,266.000549,197.433167z"/>
</svg>
