<?xml version="1.0" encoding="utf-8"?>
<!-- Generator: Adobe Illustrator 19.2.1, SVG Export Plug-In . SVG Version: 6.00 Build 0)  -->
<svg version="1.0" id="Capa_1" xmlns="http://www.w3.org/2000/svg" xmlns:xlink="http://www.w3.org/1999/xlink" x="0px" y="0px"
	 viewBox="0 0 596.001038 596.866333" style="enable-background:new 0 0 596.001038 596.866333;" xml:space="preserve">
<path style="fill:#D4F0FF;" d="M361.700012,107L294,99l-71,16l-55,29l-43,45.569489L104.799988,237L84,309.999969L94,359
	l24,55.099976L174.300018,478l48.549988,31c0,0,71.750031,13,76.950012,13S372,516,372,516l46-33l47-37l29.800049-48L514,328.219971
	L505,259l-19-53.100037L439,150l-35.099976-29L361.700012,107z"/>
<path style="fill:#B3DAF5;" d="M299.800049,482.281708c94.996399,0,172.281708-77.285248,172.281708-172.281708
	s-77.285309-172.281708-172.281708-172.281708S127.518288,215.00354,127.518288,310S204.803589,482.281708,299.800049,482.281708z"
	/>
<path style="fill:#D4F0FF;" d="M299.799988,268.099976c-31.374756,0-56.899963,25.525269-56.899963,56.900024
	s25.525208,56.899963,56.899963,56.899963S356.700012,356.374756,356.700012,325S331.174744,268.099976,299.799988,268.099976z
	 M299.799988,353.58786c-15.763367,0-28.58786-12.824493-28.58786-28.58786c0-15.763428,12.824493-28.587921,28.58786-28.587921
	c15.763428,0,28.587921,12.824493,28.587921,28.587921C328.387909,340.763367,315.563416,353.58786,299.799988,353.58786z"/>
<polygon style="opacity:0.05;fill:#2A3038;" points="408.900024,125.131058 228.394852,510 299.800018,522 372,516 418,483 460,445 
	494.800049,398 511.696045,310.5 505,259 486,205.899963 446,157 "/>
<circle style="fill:#F36C6D;" cx="299" cy="310" r="43"/>
<path style="fill:#2A3038;" d="M299.799988,253.099976c-31.374756,0-56.899963,25.525208-56.899963,56.900024
	c0,31.374756,25.525208,56.899963,56.899963,56.899963c31.374817,0,56.900024-25.525208,56.900024-56.899963
	C356.700012,278.625183,331.174805,253.099976,299.799988,253.099976z M299.799988,346.099976
	c-19.905579,0-36.099976-16.194397-36.099976-36.099976c0-19.90564,16.194397-36.100037,36.099976-36.100037
	c19.90564,0,36.100037,16.194397,36.100037,36.100037C335.900024,329.905579,319.705627,346.099976,299.799988,346.099976z"/>
<path style="fill:#2A3038;" d="M299.800049,89.200012C178.050537,89.200012,79.000061,188.250488,79.000061,310
	s99.050476,220.799988,220.799988,220.799988h151.200012c11.21875,0,33.776978-3.354736,56.133179-8.347839
	c26.303589-5.874756,39.115051-11.046814,41.847839-13.354614c0.575562-5.366882-3.079895-10.387695-8.454285-11.355957
	c-3.165283-0.588806-6.42627-0.884705-9.720276-0.884705c-11.138916,0-21.637878,3.24231-31.791199,6.37793l-0.06543,0.020203
	c-4.582764,1.425781-39.162048,4.383911-67.361572,6.613831l-18.508972,1.463684l-18.509033,1.463623l15.270935-10.560486
	l15.270935-10.560547c28.845642-19.947998,52.840149-46.787537,69.389526-77.617249
	C511.575317,382.251465,520.599976,346.268921,520.599976,310C520.599976,188.250488,421.549561,89.200012,299.800049,89.200012z
	 M299.800049,510c-110.280457,0-200.000061-89.719666-200.000061-200s89.719604-200,200.000061-200
	c110.280334,0,200,89.719604,200,200S410.080383,510,299.800049,510z"/>
<path style="fill:#2A3038;" d="M299.799988,419.099976c-9.042969,0-16.399963,7.356995-16.399963,16.400024
	c0,9.042969,7.356995,16.399963,16.399963,16.399963c9.04303,0,16.400024-7.356995,16.400024-16.399963
	C316.200012,426.45697,308.843018,419.099976,299.799988,419.099976z"/>
<path style="fill:#2A3038;" d="M425.299988,293.599976c-9.042969,0-16.399963,7.356995-16.399963,16.400024
	c0,9.042969,7.356995,16.399963,16.399963,16.399963c9.04303,0,16.400024-7.356995,16.400024-16.399963
	C441.700012,300.95697,434.343018,293.599976,425.299988,293.599976z"/>
<path style="fill:#2A3038;" d="M174.299988,293.599976c-9.042969,0-16.399963,7.356995-16.399963,16.400024
	c0,9.042969,7.356995,16.399963,16.399963,16.399963c9.04303,0,16.400024-7.356995,16.400024-16.399963
	C190.700012,300.95697,183.343018,293.599976,174.299988,293.599976z"/>
<path style="fill:#2A3038;" d="M299.799988,168.099976c-9.042969,0-16.399963,7.356995-16.399963,16.400024
	c0,9.042969,7.356995,16.399963,16.399963,16.399963c9.04303,0,16.400024-7.356995,16.400024-16.399963
	C316.200012,175.45697,308.843018,168.099976,299.799988,168.099976z"/>
</svg>
