<?xml version="1.0" encoding="utf-8"?>
<!-- Generator: Adobe Illustrator 19.2.1, SVG Export Plug-In . SVG Version: 6.00 Build 0)  -->
<svg version="1.0" id="Слой_1" xmlns="http://www.w3.org/2000/svg" xmlns:xlink="http://www.w3.org/1999/xlink" x="0px" y="0px"
	 viewBox="0 0 453 363" style="enable-background:new 0 0 453 363;" xml:space="preserve">
<rect x="11.666667" y="10.666667" style="fill:#CAE5F8;" width="430" height="231.333328"/>
<rect x="11.666667" y="242" style="fill:#FFFFFF;" width="429.147797" height="42"/>
<path style="fill:#B3DAF5;" d="M414.109955,223.218246h1.817169h0.908569v-0.881088v-1.762161V34.489307
	c-0.006042-2.46331-2.078033-4.46833-4.619263-4.469568H40.7812c-2.53978,0.002258-4.610008,2.009378-4.614891,4.475863v186.079391
	v1.762161v0.881088h0.908592h1.817184H414.109955z"/>
<polygon style="fill:#F36C6D;" points="274.333344,353.333344 263,284.666656 186.896973,284.666656 177,353.333344 "/>
<rect x="186.896973" y="284.666656" style="opacity:0.1;fill:#2A3038;enable-background:new    ;" width="80.769684" height="33.918365"/>
<polygon style="opacity:0.05;fill:#2A3038;enable-background:new    ;" points="441.666656,10.666667 157,284 385.666656,284 
	430.333344,283.333344 441.666656,279.333344 445.666656,250.23999 445.666656,25.333334 "/>
<polygon style="fill:#2A3038;" points="212.485474,147.755432 211.779053,148.460449 211.072632,147.755432 209.659851,146.345398 
	188.115356,124.844666 173.754456,139.180847 211.778992,177.135254 287.013733,102.036804 272.654663,87.700928 
	213.898315,146.345337 "/>
<path style="fill:#2A3038;" d="M430.899719,0.999939h-0.00061H22.099976C10.48938,1.00415,1.024231,10.453491,1,22.063965
	v250.026062c0.022522,11.612793,9.488159,21.06073,21.100403,21.065002h154.462585h1.14032l-0.148865,1.130615l-6.434021,48.859863
	l-0.114441,0.869507h-0.876953h-27.528992c-4.95813,0-8.991882,4.033813-8.991882,8.992004s4.033752,8.992004,8.991882,8.992004
	h167.799988c4.958191,0,8.992004-4.033813,8.992004-8.992004s-4.033813-8.992004-8.992004-8.992004h-27.530029h-0.876892
	l-0.114502-0.869507l-6.434021-48.859924l-0.148865-1.130554h1.140442h154.463867
	c11.612366-0.004272,21.077454-9.454834,21.099976-21.066956V22.061951C451.97644,10.450073,442.510925,1.00354,430.899719,0.999939
	z M263.819275,344.015015h-1.140259h-72.361023h-1.14032l0.148926-1.130493l6.434998-48.860107l0.114502-0.869385h0.876892
	h59.492004h0.876953l0.114502,0.869385l6.43396,48.860107L263.819275,344.015015z M22.099121,276.170898
	c-0.000061,0-0.000061,0-0.000122,0l0.000549-0.999878c-1.697083-0.000916-3.080322-1.382202-3.083557-3.079102V253.23999v-1h1
	h412.964111h1v1v18.850037c-0.003235,1.693054-1.383911,3.076843-3.077698,3.080994H22.099976l-0.000732,0.999878H22.099121z
	 M433.984009,22.05957v211.196411v1h-1H20.018005h-1v-1V22.061951c0.003235-1.695068,1.385376-3.07843,3.080994-3.079956h408.801025
	C432.596069,18.982849,433.980042,20.363464,433.984009,22.05957z"/>
</svg>
