<?xml version="1.0" encoding="utf-8"?>
<!-- Generator: Adobe Illustrator 19.2.1, SVG Export Plug-In . SVG Version: 6.00 Build 0)  -->
<svg version="1.0" id="Слой_1" xmlns="http://www.w3.org/2000/svg" xmlns:xlink="http://www.w3.org/1999/xlink" x="0px" y="0px"
	 viewBox="0 0 453 363" style="enable-background:new 0 0 453 363;" xml:space="preserve">
<polygon style="fill:#B3DAF5;" points="321,32 303,45.172363 282,62.7677 288,79.035248 373,163 396.981628,144 410,123.752411 
	396.981628,97.5 "/>
<polygon style="fill:#F9DDCA;" points="274,62.7677 197.288208,55 173.416382,55 138.930328,71 68,138.667648 115.059479,189 
	95,214.552567 92,230.240845 115.059479,243.57431 176.050705,309.919342 186.669464,309.919342 212,284.489349 252,330 265,330 
	282,305 346.054596,243.57431 346.054596,230.240845 334,214 346,196.296448 373,163 "/>
<polygon style="opacity:0.05;fill:#2A3038;" points="275,160 183,255.539764 247.740356,319.333344 265,330 275,315.294128 
	346.054596,243.57431 346.054596,230.240845 319.666656,201.953125 "/>
<path style="fill:#2A3038;" d="M338.513611,207.734863l39.59375-39.59375l28.516785-28.516785
	c8.697815-8.700317,8.697327-22.855713-0.001343-31.554504l-72.534607-72.534546C329.87384,31.320923,324.270691,29,318.310913,29
	c-5.960083,0-11.562683,2.320862-15.775757,6.535095l-17.046021,17.044739c-1.981201,1.98114-3.550781,4.301575-4.665161,6.896973
	l-0.626587,1.459534l-0.626709,1.459595l-1.563599-0.279968l-1.563538-0.279907l-78.073792-13.977722l-0.015381-0.002747
	l-0.014465-0.00177l-0.084106-0.015808l-0.007446-0.001465l-0.00769-0.001343l-0.00293-0.000732l-0.061951-0.012268
	c-4.122498-0.813354-8.327942-1.225891-12.499451-1.226196c-30.565735-0.000366-57.137634,21.756897-63.182129,51.733826
	l-3.678467,18.246887c-1.859253,9.221741-0.007568,18.627869,5.213989,26.485718
	c5.221497,7.857788,13.175964,13.209229,22.39801,15.068542c2.302917,0.463989,4.651794,0.69928,6.98114,0.69928
	c16.726318,0,31.266907-11.906555,34.574341-28.311218l1.895081-9.404724l0.35321-1.753052l0.35321-1.753174l1.781616,0.155762
	l1.781616,0.155762l33.257751,2.907959l0.72522,0.063416l0.725281,0.063416l0.514709,0.514771l0.514832,0.514832
	l92.883118,92.883057l16.927185,16.927307c4.206787,4.206848,4.206909,11.053101,0.000305,15.261353
	c-2.035522,2.035522-4.745361,3.156372-7.630615,3.156372c-2.884949,0-5.594666-1.12085-7.629944-3.156067l-45.343018-45.343018
	c-1.149658-1.149597-2.678467-1.782776-4.304932-1.782776c-1.626221,0-3.15448,0.633057-4.303406,1.782471
	c-1.147705,1.147705-1.779602,2.676331-1.779541,4.304749c0,1.628357,0.631836,3.156982,1.779114,4.304321l45.342896,45.342896
	c2.037903,2.037903,3.160278,4.747925,3.160278,7.630859c0,2.882019-1.122375,5.591553-3.160278,7.629456
	c-2.036194,2.035339-4.745972,3.156128-7.630493,3.156128c-2.88501,0-5.594666-1.12085-7.629883-3.156128l-45.342834-45.342896
	c-1.149719-1.149658-2.678589-1.782776-4.304932-1.782776c-1.62616,0-3.154602,0.632996-4.30365,1.782593
	c-1.149963,1.149963-1.783081,2.67865-1.783081,4.304504c0,1.626038,0.633179,3.154724,1.782959,4.304443l45.342773,45.342957
	c2.035461,2.034607,3.156616,4.744324,3.156616,7.629639c0,2.885193-1.121033,5.595215-3.156616,7.630676
	c-2.037781,2.037903-4.747314,3.160339-7.629456,3.160339c-2.882874,0-5.592896-1.122375-7.630798-3.1604l-45.342957-45.342896
	c-1.149719-1.149658-2.678528-1.782837-4.304932-1.782837c-1.62616,0-3.154419,0.633057-4.303467,1.782593
	c-1.147705,1.147644-1.779541,2.67627-1.77948,4.304688c0,1.628357,0.631897,3.156921,1.779175,4.30426l45.342896,45.343018
	c4.20697,4.206848,4.207031,11.05304,0.000122,15.261414c-2.035339,2.035461-4.745117,3.156311-7.630432,3.156311
	c-2.884949,0-5.594666-1.12085-7.629944-3.156006L92.394043,158.232971l-21.186646-21.186829
	c-1.149719-1.149658-2.678589-1.782776-4.304932-1.782776c-1.62616,0-3.154541,0.632996-4.303589,1.782593
	c-2.373657,2.373657-2.373657,6.235535-0.000244,8.609009L83.7854,166.841675l21.641968,21.64209l1.414246,1.414185
	l1.414307,1.414246l-1.414307,1.414246l-1.414246,1.414185l-11.29541,11.295288
	c-3.784058,3.78418-5.868042,8.815308-5.868042,14.166565c0,5.352478,2.083923,10.383484,5.867859,14.166199l4.147827,4.147888
	c2.983643,2.983582,6.72937,4.917969,10.832336,5.593994l1.4151,0.233154l1.4151,0.233154l0.233154,1.4151l0.233154,1.4151
	c0.676025,4.10321,2.610352,7.848389,5.593811,10.830688l4.147949,4.149414c2.911194,2.911255,6.760803,4.891602,10.839294,5.57605
	l1.411377,0.236877l1.411377,0.236877l0.231323,1.412231l0.231323,1.412231c0.672852,4.10791,2.608459,7.858643,5.597656,10.846741
	l4.147888,4.147888c2.983704,2.983582,6.729492,4.917969,10.832397,5.593994l1.4151,0.233154l1.4151,0.233154l0.233154,1.4151
	l0.233154,1.4151c0.675903,4.102905,2.610352,7.848694,5.593994,10.832397l4.147522,4.147461
	c3.777161,3.777161,8.808228,5.857361,14.166504,5.857361s10.389343-2.0802,14.166504-5.857361l11.29541-11.295349
	l1.414124-1.414246l1.414307-1.414368l1.414246,1.414368l1.414185,1.414307l29.042114,29.042175
	C248.555908,331.611084,254.323303,334,260.457886,334c6.134521,0,11.901917-2.388916,16.239624-6.726685
	c3.678711-3.678772,6.01001-8.562744,6.564514-13.752136l0.17157-1.604675l0.171448-1.604614l1.604614-0.171509l1.604736-0.171509
	c5.189209-0.554504,10.073669-2.885925,13.753662-6.56488c3.671875-3.671936,5.999939-8.559448,6.555054-13.762024
	l0.171204-1.605164l0.171265-1.605286l1.605286-0.171265l1.605347-0.171265
	c5.202454-0.555115,10.089478-2.882568,13.760803-6.553894c3.671997-3.671997,6-8.559509,6.555237-13.762207l0.171265-1.605164
	l0.171326-1.605225l1.605164-0.171326l1.605103-0.171265c5.203918-0.555176,10.09137-2.883118,13.762146-6.554993
	c4.330566-4.330688,6.715454-10.097961,6.715454-16.239807s-2.384888-11.909241-6.715271-16.239624l-9.793823-9.793823
	l-1.414246-1.414124l-1.414307-1.414246l1.414307-1.414246L338.513611,207.734863z M118.002502,229.306458
	c-1.481445,1.482361-3.454895,2.298889-5.556396,2.298889c-2.101685,0-4.075562-0.816467-5.557861-2.299011l-4.147461-4.147339
	c-3.064148-3.064148-3.064148-8.049988-0.000061-11.114258l10.504211-10.504211l1.414246-1.414246l1.414185-1.414124
	l1.414185,1.414185l1.414246,1.414185l9.604858,9.605042l1.414246,1.414185l1.414246,1.414246l-1.414246,1.414185
	l-1.414246,1.414185L118.002502,229.306458z M141.87439,253.178284c-1.483643,1.482666-3.457642,2.298889-5.558899,2.298889
	c-2.101746,0-4.074951-0.816772-5.556213-2.299805l-4.14801-4.14801c-1.482788-1.482788-2.299377-3.456238-2.299377-5.556885
	c0-2.100952,0.816772-4.074219,2.299866-5.556396l10.503662-10.503662l1.414124-1.414185l1.414185-1.414368l1.414307,1.414307
	l1.414185,1.414246l9.60498,9.605042l1.414124,1.414062l1.414185,1.414124l-1.414062,1.414185l-1.414062,1.414246
	L141.87439,253.178284z M165.740662,277.047424c-1.481995,1.481995-3.455261,2.298279-5.556335,2.298279
	c-2.100952,0-4.074219-0.816223-5.556335-2.298279l-4.147644-4.147644c-1.484314-1.484314-2.301758-3.457581-2.301758-5.556396
	c0-2.098694,0.817383-4.07196,2.301575-5.556274l10.504333-10.504333l1.414246-1.414246l1.414185-1.414124l1.414185,1.414185
	l1.414185,1.414185l9.603516,9.603638l1.414185,1.414185l1.414307,1.414246l-1.414307,1.414185l-1.414185,1.414185
	L165.740662,277.047424z M201.530823,288.999512l-1.414246,1.414185l-10.504211,10.504089
	c-1.48114,1.482239-3.454651,2.298889-5.556335,2.298889c-2.101501,0-4.075317-0.816406-5.557678-2.298889l-4.147583-4.147583
	c-1.483215-1.483032-2.300049-3.456604-2.300049-5.557068s0.816833-4.073975,2.300049-5.557129l10.50415-10.504089
	l1.414124-1.414185l1.414185-1.414307l1.414307,1.414246l1.414185,1.414246l9.604858,9.604858l1.414246,1.414246l1.414246,1.414246
	L201.530823,288.999512z M294.095825,61.187805l17.04657-17.046448c1.91449-1.914612,4.459839-2.968994,7.167114-2.968994
	c2.706482,0,5.252075,1.054199,7.167847,2.968384l72.5354,72.535217c1.914551,1.914551,2.968872,4.460388,2.968872,7.168518
	c0,2.709045-1.054382,5.255371-2.968872,7.169861l-21.384644,21.384583l-1.414185,1.414246l-1.414185,1.414246l-1.414246-1.414246
	l-1.414246-1.414246l-76.874695-76.874695c-1.914551-1.914429-2.968994-4.460266-2.968994-7.168518
	C291.127563,65.649231,292.181763,63.103638,294.095825,61.187805z M329.902161,199.124939l-1.414307,1.414124l-1.414246,1.414062
	l-1.414062-1.414124l-1.414185-1.414185l-88.346924-88.346985c-1.010925-1.010864-2.350891-1.635559-3.773132-1.758972
	l-45.9021-4.012878c-0.177246-0.015991-0.354248-0.023376-0.536194-0.023376c-2.883057,0-5.390076,2.05481-5.961243,4.885803
	l-3.678467,18.24646c-2.165649,10.74231-11.687744,18.539124-22.641296,18.539124c-1.526428,0-3.064819-0.15387-4.572449-0.457458
	c-6.049805-1.219055-11.262329-4.721436-14.677551-9.862061c-3.415405-5.140808-4.624451-11.303345-3.404297-17.352478
	l3.678345-18.245361c4.902344-24.317261,26.45105-41.967773,51.238098-41.968933c3.45813,0,6.943909,0.349487,10.360718,1.038818
	l0.142273,0.026428l77.96167,13.958008l0.61792,0.110718l0.617798,0.110657l0.443787,0.443787l0.443848,0.443848l9.23291,9.23291
	l76.874695,76.874695l1.414307,1.414307l1.414185,1.414246l-1.414246,1.414246l-1.414246,1.414185L329.902161,199.124939z"/>
<circle style="fill:#2A3038;" cx="377.021179" cy="127.056595" r="8.087555"/>
</svg>
