<?xml version="1.0" encoding="utf-8"?>
<!-- Generator: Adobe Illustrator 19.2.1, SVG Export Plug-In . SVG Version: 6.00 Build 0)  -->
<svg version="1.0" id="Capa_1" xmlns="http://www.w3.org/2000/svg" xmlns:xlink="http://www.w3.org/1999/xlink" x="0px" y="0px"
	 viewBox="0 0 426.770233 539.077026" style="enable-background:new 0 0 426.770233 539.077026;" xml:space="preserve">
<rect x="145.847198" y="12" style="fill:#FFE1AE;" width="87" height="224"/>
<path style="fill:#F36C6D;" d="M330.847198,12v34l-19.055054,33.943451L301.170197,91l14.838501,35.785881l20.916565,9.0196
	h19.921936c0,0,18-13.805481,18-17.805481s10-38.056549,10-38.056549l-11.910126-28.623646l-22.089874-28.85783L330.847198,12z"/>
<polygon style="fill:#F36C6D;" points="57.847202,126.785881 13.847204,109 26.312231,159 65.847206,135.805481 "/>
<polygon style="fill:#FFFFFF;" points="324.926178,134 258.847198,236 301.170197,233 336.925262,140 "/>
<polygon style="fill:#FFFFFF;" points="65.847206,135.805481 26.312231,169 65.847206,236 118.847206,236 "/>
<polygon style="fill:#D3EDFF;" points="324.926178,236 36.698215,236 31.847204,486 47.2822,511 70.577217,527 288.847198,527 
	314.46225,512 324.926178,490 "/>
<path style="fill:#B3DAF5;" d="M249.799271,261.998596c-0.194748-0.019531-0.273026-0.009766-0.409958,0h-19.759766H149.73175
	h-19.973999H69.833969h-9.987408v209.731903c0,16.52182,13.439587,29.961456,29.96146,29.961456h179.770447
	c16.521881,0,29.961456-13.439636,29.961456-29.961456V261.998596h-9.75351c-0.155609,0-0.312164,0-0.467773,0H249.799271z"/>
<path style="opacity:0.05;fill:#2A3038;enable-background:new    ;" d="M140.868134,453.416016
	c-39.472099,0-76.376945-10.63623-107.823853-29.107422L31.847204,486L47.2822,511l23.295048,16h218.269958l25.615051-15
	l10.463928-22V346.063049C290.016571,409.908142,220.697601,453.416016,140.868134,453.416016z"/>
<path style="fill:#2A3038;" d="M78.617249,537.077026h202.153015c29.860107,0,54.154053-24.293457,54.155029-54.154175v-56.15387v-2
	h2h11.229919c42.245667,0,76.615051-34.369751,76.615051-76.615967c0-42.245667-34.369385-76.61499-76.615051-76.61499h-11.229919
	h-2v-2v-33.692017c0-5.090027-4.141052-9.231018-9.231079-9.231018h-6.208008h-2.893066l1.022034-2.706543l28.647034-75.863037
	l0.412537-1.092224l1.153931-0.177856c7.630066-1.175964,14.588867-4.392883,20.682983-9.561646
	c17.636963-14.917664,24.99884-43.90509,18.32135-72.13324c-7.430115-31.328064-29.901917-53.701599-61.653076-61.382568
	c-0.726074-0.178833-1.461975-0.268555-2.195679-0.268555c-2.964539-0.000244-5.778381,1.467407-7.527283,3.925964
	c-2.18512,3.106506-2.247864,7.184082-0.15387,10.379517c12.367615,18.848999,5.211182,30.371399-8.044983,47.107971
	l-0.060669,0.07666c-4.726868,5.972473-9.191589,11.613831-11.838074,17.894226
	c-5.05719,11.998779-5.337402,24.574341-0.789001,35.410278c2.12085,5.073975,5.258667,9.697571,9.327332,13.745056
	l1.073364,1.06781l-0.736328,1.322815l-50.780029,91.228088l-0.571777,1.027283h-1.17572h-4.628967h-2v-2V11.231018
	C245.078247,6.140991,240.937256,2,235.847229,2h-89.846008c-5.089966,0-9.231018,4.140991-9.231079,9.231018V224.61499v2h-2
	h-4.626099h-1.17688l-0.571533-1.028748L75.55188,130.4552c-0.062561-0.116943-0.126282-0.230652-0.191895-0.342285h-0.925781
	l-0.000427-0.076904h-0.065552v-1.181335l-0.289368-0.288757l0.036316-0.117249
	c-0.624878-0.665955-1.350098-1.237549-2.164795-1.705322l-55.96814-33.580322
	c-1.455994-0.875183-3.107178-1.337341-4.776245-1.337402c-1.849243,0-3.630127,0.558594-5.149963,1.615417
	c-2.98645,2.027649-4.521606,5.61377-3.929321,9.148438l11.198303,67.177673c0.153381,1.066345,0.470947,2.048645,0.950806,2.964661
	l25.495117,50.98877l1.447205,2.894409h-3.236084h-4.287842c-5.089966,0-9.231018,4.140991-9.231018,9.231018v247.077026
	C24.463196,512.78363,48.756592,537.077026,78.617249,537.077026z M334.925293,404.307007V292v-2h2h11.229919
	c32.066223,0,58.154053,26.087341,58.154053,58.153015c0,32.066223-26.08783,58.153992-58.154053,58.153992h-11.229919h-2
	V404.307007z M312.378723,89.982422c1.630493-3.916565,5.275085-8.523132,9.133606-13.400208l0.222351-0.281006
	c8.288208-10.451294,19.637207-24.762207,18.414917-43.067017l-0.273926-4.102783l3.396606,2.317444
	c12.971802,8.850159,21.818726,21.952026,25.584412,37.88916c4.964172,20.937073-0.190613,43.5578-12.257385,53.785645
	c-4.46051,3.758423-9.672058,5.66217-15.494507,5.66217c-4.271118,0-8.911804-1.037781-13.792969-3.084412
	c-1.603821-0.680054-3.065369-1.411438-4.351501-2.176819l-0.10907-0.065002l-0.100098-0.078247
	c-0.463806-0.362732-0.902405-0.657593-1.341003-0.901428c-0.137146-0.077393-0.279907-0.148376-0.405334-0.21106l-0.12915-0.064575
	l-0.11853-0.082458c-4.262817-2.965271-7.347961-6.674683-9.169739-11.02533
	C308.94696,104.790283,309.220581,97.489136,312.378723,89.982422z M275.666748,223.642273l44.089905-79.20697l0.844055-1.516357
	l1.620239,0.621887c1.177856,0.452148,2.26062,0.833801,3.310059,1.166809l2.011963,0.638367l-0.745789,1.974609
	l-29.458923,78.001038l-0.488464,1.293335h-1.382568h-18.052979h-3.402283L275.666748,223.642273z M155.232239,224.61499V22.461914
	v-2h2h67.38501h2v2v22.460999v2h-2h-33.692017c-5.090027,0-9.231079,4.141113-9.231079,9.231079
	c0,5.090027,4.141052,9.231018,9.231079,9.231018h33.692017h2v2v22.457947v2h-2H213.38623
	c-5.090027,0-9.231018,4.140991-9.231018,9.230957c0,5.090027,4.140991,9.231079,9.231018,9.231079h11.231018h2v2v22.461914v2h-2
	h-33.692017c-5.090027,0-9.231079,4.141113-9.231079,9.231079c0,5.090027,4.141052,9.231018,9.231079,9.231018h33.692017h2v2
	v22.461975v2h-2H213.38623c-5.090027,0-9.231018,4.140991-9.231018,9.231018s4.140991,9.231018,9.231018,9.231018h11.231018h2v2
	v22.461975v2h-2h-67.38501h-2V224.61499z M146.001221,245.076904h89.846008h22.148315
	c0.121033-0.008423,0.209045-0.012634,0.310547-0.012634c0.089355,0,0.188599,0.003052,0.310791,0.012634h44.35144h0.526001
	h10.967896h2v2v235.846008c0,19.680664-16.011353,35.692078-35.691956,35.692078H78.616211
	c-19.680603,0-35.692017-16.011414-35.692017-35.692078V247.076904v-2h2h11.231018h67.38501H146.001221z M29.06958,151.964722
	l-0.540222-3.2453l-4.190002-25.171082l-0.711304-4.272827l3.713684,2.229797l20.969971,12.591003l2.549744,1.530884
	l-2.379517,1.783936l-16.779968,12.580078L29.06958,151.964722z M34.909363,172.711426l-0.746643-1.493225l1.335815-1.001404
	l27.122986-20.334106l1.834412-1.375244l1.113586,2.004028l40.63501,73.13208l1.651001,2.971436h-3.399292H63.097229h-1.236084
	l-0.552795-1.105591L34.909363,172.711426z"/>
</svg>
