<?xml version="1.0" encoding="utf-8"?>
<!-- Generator: Adobe Illustrator 19.2.1, SVG Export Plug-In . SVG Version: 6.00 Build 0)  -->
<svg version="1.0" id="Capa_1" xmlns="http://www.w3.org/2000/svg" xmlns:xlink="http://www.w3.org/1999/xlink" x="0px" y="0px"
	 viewBox="0 0 426.770233 539.077026" style="enable-background:new 0 0 426.770233 539.077026;" xml:space="preserve">
<rect x="74" y="140.537964" style="fill:#FFFFFF;" width="280" height="198.462036"/>
<rect x="36" y="100.813477" style="fill:#B3DAF5;" width="358" height="39.724487"/>
<polygon style="opacity:0.05;fill:#2A3038;" points="332,99 318,140 394,140.537964 394,100.813477 "/>
<polygon style="opacity:0.05;fill:#2A3038;" points="276,138 187.451599,339 354,339 354,140.537964 "/>
<polygon style="fill:#F36C6D;" points="251,239.679749 195,202 195,276 "/>
<path style="fill:#2A3038;" d="M258.952637,233.702393l-60.327454-40.218201c-1.185181-0.791016-2.56311-1.208618-3.986084-1.208618
	c-1.178223,0-2.35083,0.294373-3.391052,0.851379c-2.34198,1.253235-3.796448,3.681091-3.796448,6.336548v80.435059
	c0,2.654663,1.454712,5.082703,3.796448,6.336609c1.038696,0.556396,2.21051,0.850403,3.389221,0.850403
	c1.423523,0,2.802734-0.417786,3.988647-1.20813l60.325684-40.217102c2.004211-1.335388,3.200317-3.570435,3.200317-5.979309
	S260.955933,235.03717,258.952637,233.702393z M238.264404,242.175964l-2.496338,1.664062l-26.169128,17.444824l-3.109314,2.072754
	l-4.664001,3.10907v-5.605286v-3.736877v-34.889526v-3.736877v-5.605286l4.664001,3.10907l3.109314,2.072693l26.169128,17.444763
	l2.496399,1.664185l3.744446,2.496216L238.264404,242.175964z"/>
<path style="fill:#2A3038;" d="M221.934387,390.757629v-38.347046v-2v-3h3h2h128.574341
	c3.962952,0,7.187012-3.22406,7.187012-7.187012V151.324158v-2v-3h3h2h28.030518c3.962952,0,7.187073-3.22406,7.187073-7.187012
	V98.309631c0-3.962952-3.224121-7.187012-7.187073-7.187012H33.768433c-3.962891,0-7.187012,3.22406-7.187012,7.187012v40.826233
	c0,3.962952,3.224121,7.187073,7.187012,7.187073H61.79895h2h3v3v2v188.900635c0,3.962952,3.22406,7.187012,7.187012,7.187012
	h128.574402h2h3v3v2v38.347046v1.34259v2.014038l-1.864014,0.762573l-1.242615,0.508423
	c-10.32843,4.22583-17.002197,14.146179-17.002197,25.273376c0,15.050964,12.244873,27.295776,27.295898,27.295776
	c15.050903,0,27.295776-12.244812,27.295776-27.295776c0-11.127197-6.673767-21.047546-17.002197-25.273376l-1.242554-0.508423
	l-1.864075-0.762573v-2.014038V390.757629z M45.955444,131.948914h-3v-0.998779h-0.999878v-0.999329l-1.000122,0.000366v-3.001038
	v-0.001221v-16.452332v-2v-3h3h2h337.583801h2h3v3v2v16.452332v2v3h-3h-2H45.955444z M227.669067,420.659912
	c0,7.125122-5.796631,12.921753-12.921631,12.921753c-7.125122,0-12.921814-5.796631-12.921814-12.921753
	c0-7.125061,5.796692-12.921692,12.921814-12.921692C221.872437,407.73822,227.669067,413.534851,227.669067,420.659912z
	 M86.172974,333.037903h-2h-3v-3v-2V151.324158v-2v-3h3h2h257.148743h2h3v3v2v176.713745v2v3h-3h-2H86.172974z"/>
</svg>
