<?xml version="1.0" encoding="utf-8"?>
<!-- Generator: Adobe Illustrator 19.2.1, SVG Export Plug-In . SVG Version: 6.00 Build 0)  -->
<svg version="1.0" id="Слой_1" xmlns="http://www.w3.org/2000/svg" xmlns:xlink="http://www.w3.org/1999/xlink" x="0px" y="0px"
	 viewBox="0 0 312.243408 259.309143" style="enable-background:new 0 0 312.243408 259.309143;" xml:space="preserve">
<g>
	<path style="fill:#FFCAD0;" d="M40.598633,248.732727c6.301819,5.987793,15.643188,9.738525,26.100098,10.576416v-16.163025
		c-10.025879-1.017944-22.817322-5.587402-22.817322-18.032043v-45.247498v-4.5h4.5h18.61554v-16.108215h-18.61554h-4.5v-4.5
		V34.192505c0-12.442932,12.790039-17.011719,22.815125-18.02948V0C56.240112,0.83783,46.899719,4.588562,40.598816,10.576172
		l-3.099426,2.945312l-3.099854-2.944885C28.09668,4.588684,18.755493,0.837891,8.299316,0v16.162964
		c10.025818,1.017761,22.817322,5.586609,22.817322,18.029541v120.565857v4.5h-4.5H8v16.108215h18.616638h4.5v4.5v45.238708
		c0,12.444641-12.791504,17.014099-22.817322,18.031982v16.163147c10.45575-0.837341,19.797363-4.585571,26.101746-10.569397
		l3.099609-2.941895L40.598633,248.732727z"/>
	<path style="fill:#2A3038;" d="M32.598633,248.732727c6.301819,5.987793,15.643188,9.738525,26.100098,10.576416v-16.163025
		c-10.025879-1.017944-22.817322-5.587402-22.817322-18.032043v-45.247498v-4.5h4.5h18.61554v-16.108215h-18.61554h-4.5v-4.5
		V34.192505c0-12.442932,12.790039-17.011719,22.815125-18.02948V0C48.240112,0.83783,38.899719,4.588562,32.598816,10.576172
		l-3.099426,2.945312l-3.099854-2.944885C20.09668,4.588684,10.755493,0.837891,0.299316,0v16.162964
		c10.025818,1.017761,22.817322,5.586609,22.817322,18.029541v120.565857v4.5h-4.5H0v16.108215h18.616638h4.5v4.5v45.238708
		c0,12.444641-12.791504,17.014099-22.817322,18.031982v16.163147c10.45575-0.837341,19.797363-4.585571,26.101746-10.569397
		l3.099609-2.941895L32.598633,248.732727z"/>
	<polygon style="fill:#CEEBFF;" points="204.830261,13.987874 141.163589,182.321213 278.830261,182.321213 213.830261,13.987874 	
		"/>
	<path style="fill:#2A3038;" d="M147.408936,190.984848h1.378113h121.09436h1.378113l0.490784,1.307907l22.15033,59.028458
		h18.342773L220.142883,9.987874h-21.61676l-92.100464,241.333344h18.342773l22.149719-59.028458L147.408936,190.984848z
		 M153.43634,173.16008l53.857483-143.484238l1.862915-4.962952l1.873169,4.958984l54.200562,143.484177l1.042175,2.75882h-2.909424
		H155.305176h-2.902832L153.43634,173.16008z"/>
	<polygon style="fill:#B3DAF5;" points="163.844727,167.721161 166.164169,167.721161 252.505554,167.721161 254.830261,167.721161 
		253.997528,165.516815 210.689774,50.868954 209.193069,46.906586 207.704544,50.872124 164.670914,165.520035 	"/>
</g>
</svg>
