<?xml version="1.0" encoding="utf-8"?>
<!-- Generator: Adobe Illustrator 19.2.1, SVG Export Plug-In . SVG Version: 6.00 Build 0)  -->
<svg version="1.0" id="Слой_1" xmlns="http://www.w3.org/2000/svg" xmlns:xlink="http://www.w3.org/1999/xlink" x="0px" y="0px"
	 viewBox="0 0 44.09082 41.032227" style="enable-background:new 0 0 44.09082 41.032227;" xml:space="preserve">
<g>
	<path style="fill:#FF7D84;" d="M10.712402,27.90332v-3.014648H7.103027V5.609375c0-2.066406,2.554688-2.487305,3.337891-2.566406
		l0.224609-0.023438V0l-0.27002,0.021484c-1.702637,0.136719-3.203613,0.74707-4.227539,1.71875L5.856445,2.037109
		L5.544922,1.740234c-1.024414-0.97168-2.525879-1.582031-4.228027-1.71875L1.046875,0v3.019531l0.224609,0.023438
		c0.783203,0.079102,3.338379,0.5,3.338379,2.566406v19.279297H1v3.014648h3.609863v7.517578
		c0,2.066406-2.555176,2.487305-3.338379,2.566406l-0.224609,0.023438v3.019531l0.27002-0.021484
		c1.703125-0.136719,3.20459-0.746094,4.227539-1.717773l0.312012-0.295898l0.311523,0.295898v0.000977
		c1.024414,0.97168,2.525879,1.582031,4.228027,1.71875l0.27002,0.021484v-3.020508l-0.224609-0.023438
		c-0.783203-0.079102-3.338379-0.5-3.338379-2.566406V27.90332H10.712402z"/>
	<path style="fill:#2A3038;" d="M9.712402,27.90332v-3.014648H6.103027V5.609375c0-2.066406,2.554688-2.487305,3.337891-2.566406
		l0.224609-0.023438V0l-0.27002,0.021484c-1.702637,0.136719-3.203613,0.74707-4.227539,1.71875L4.856445,2.037109
		L4.544922,1.740234c-1.024414-0.97168-2.525879-1.582031-4.228027-1.71875L0.046875,0v3.019531l0.224609,0.023438
		c0.783203,0.079102,3.338379,0.5,3.338379,2.566406v19.279297H0v3.014648h3.609863v7.517578
		c0,2.066406-2.555176,2.487305-3.338379,2.566406l-0.224609,0.023438v3.019531l0.27002-0.021484
		c1.703125-0.136719,3.20459-0.746094,4.227539-1.717773l0.312012-0.295898l0.311523,0.295898v0.000977
		c1.024414,0.97168,2.525879,1.582031,4.228027,1.71875l0.27002,0.021484v-3.020508l-0.224609-0.023438
		c-0.783203-0.079102-3.338379-0.5-3.338379-2.566406V27.90332H9.712402z"/>
</g>
<g>
	<polygon style="fill:#CEEBFF;" points="30.140324,7.191216 22.97961,27.183121 38.463249,27.183121 31.152573,7.191216 	"/>
	<polygon style="fill:#B3DAF5;" points="25.530602,25.449163 25.791473,25.449163 35.502457,25.449163 35.763924,25.449163 
		35.670265,25.187366 30.799356,11.571353 30.631018,11.100767 30.4636,11.57173 25.623524,25.187748 	"/>
	<path style="fill:#2A3038;" d="M32.330078,4.49707H28.94873L17.188477,36.923828h3.334473l2.803711-7.861526h14.625
		l2.804199,7.861526h3.334961L32.330078,4.49707z M36.983398,26.115549h-12.68811l6.323364-17.726616v-0.00096l6.364258,17.726614
		L36.983398,26.115549z"/>
</g>
</svg>
