<?xml version="1.0" encoding="utf-8"?>
<!-- Generator: Adobe Illustrator 19.2.1, SVG Export Plug-In . SVG Version: 6.00 Build 0)  -->
<svg version="1.0" id="Слой_1" xmlns="http://www.w3.org/2000/svg" xmlns:xlink="http://www.w3.org/1999/xlink" x="0px" y="0px"
	 viewBox="0 0 131.009521 131.996887" style="enable-background:new 0 0 131.009521 131.996887;" xml:space="preserve">
<circle style="fill:#D3EDFF;" cx="74.289551" cy="74.558777" r="54.700439"/>
<circle style="fill:#B3DAF5;" cx="74.289551" cy="74.558777" r="47.944336"/>
<circle style="fill:#FFFFFF;" cx="74.289551" cy="74.558777" r="33.942627"/>
<circle style="fill:#F36C6D;" cx="73.665871" cy="74.770912" r="15.051982"/>
<polygon style="fill:#F36C6D;" points="17.698914,3.528748 15.009521,14.278748 3.759521,19.028748 28.009521,44.778748 
	39.259521,39.528748 44.759521,27.528748 20.009521,3.528748 "/>
<polygon style="opacity:0.05;fill:#2A3038;" points="100.638611,26.614441 55.176189,125.862083 74.289551,129.259216 
	92.842857,126.551819 111.842857,114.195412 124.176186,94.862083 128.98999,74.558777 125.631943,55.648769 118.25351,42.009644 
	109.649986,32.827732 "/>
<g>
	<path style="fill:#2A3038;" d="M73.903809,84.369873c-0.084167,0.002869-0.168396,0.003967-0.252197,0.003967
		c-4.112549,0-7.788086-2.608887-9.145996-6.491943c-0.375793-1.079529-1.393616-1.803467-2.533508-1.803467
		c-0.298767,0-0.595459,0.050537-0.881897,0.150269l-0.076843,0.028076c-1.440796,0.521729-2.175537,2.090088-1.663208,3.505554
		l0.014893,0.039124l0.028564,0.082458c1.974121,6.189453,7.664307,10.348022,14.159241,10.348022
		c0.098877,0,0.196777-0.000916,0.296021-0.00293l0.0354-0.000671l0.035339,0.000977
		c0.124939,0.003418,0.249817,0.005127,0.374451,0.005127c3.887817,0,7.601929-1.664307,10.190002-4.566101
		c2.871399-3.095337,4.514038-7.095886,4.645203-11.286499c0.026489-6.441101-4.099487-12.134094-10.267639-14.125671
		c-0.318054-0.107666-0.625793-0.158813-0.93573-0.158813h-0.000061c-1.167664-0.000122-2.199036,0.695923-2.637451,1.776428
		c-0.464294,1.433289,0.252258,2.991211,1.644287,3.570618c3.962036,1.445312,6.533508,5.243042,6.402161,9.46106
		c-0.020752,2.57074-1.101074,5.109741-2.963379,6.931519c-1.778687,1.643982-4.051392,2.53302-6.430481,2.53302
		L73.903809,84.369873z"/>
	<path style="fill:#2A3038;" d="M73.876892,105.464722c-17.010193-0.111816-30.828857-14.035095-30.812378-31.037415
		c0.049988-3.957031,0.787659-7.82074,2.192627-11.501465l0.011292-0.029602l0.012573-0.029114
		c0.270935-0.628723,0.280823-1.325317,0.027832-1.961426c-0.252991-0.636169-0.738586-1.135742-1.367249-1.406677
		c-0.080444-0.034668-0.162476-0.065063-0.245911-0.091309l-0.074585-0.023438l-0.071777-0.031128
		c-0.319275-0.138245-0.655151-0.208374-0.998474-0.208374c-1.004883,0-1.912292,0.595703-2.311584,1.517578
		c-0.039062,0.09021-0.072815,0.182617-0.101074,0.276733L40.12323,60.98877l-0.018311,0.048523
		c-1.620117,4.293457-2.433105,8.797119-2.416382,13.385986c0,20.112915,16.234314,36.471497,36.188965,36.471497
		c9.533264-0.002197,18.751831-3.981995,25.291565-10.918945c6.849976-6.989685,10.564453-16.200928,10.479492-25.958008
		c-0.000061-20.120483-16.234375-36.479065-36.189026-36.479065c-0.198303-0.003113-0.372437-0.004517-0.545837-0.004517
		c-4.53949-0.000122-8.937866,0.949951-13.073059,2.823792l-0.05304,0.024048l-0.054749,0.019836
		c-0.597412,0.216614-1.074707,0.652893-1.343933,1.228455c-0.269287,0.575623-0.298218,1.221619-0.081665,1.81897
		c0.039246,0.108276,0.086792,0.2146,0.141357,0.31604l0.056519,0.105042l0.039185,0.112732
		c0.325806,0.936951,1.21051,1.566528,2.201599,1.566528c0.259277,0,0.516907-0.043884,0.765686-0.130371
		c0.118591-0.041199,0.234741-0.092468,0.345154-0.152344l0.158325-0.085815l0.174133-0.045837
		c3.795593-1.000427,7.708923-1.584656,11.631287-1.73645l1.552856-0.060059l0.000366,0.110107
		c16.307556,0.885315,29.327698,14.483276,29.31781,30.980713c0.028748,8.2677-3.091797,16.1297-8.786865,22.131592
		L95.882202,96.5849l-0.023438,0.022583c-5.911804,5.711731-13.694641,8.857361-21.914856,8.857361L73.876892,105.464722z"/>
	<path style="fill:#2A3038;" d="M33.487488,115.143433c10.556458,10.710754,25.235352,16.853455,40.273254,16.853455
		l0.113708-0.000122c14.849426,0,29.202209-5.99353,40.41748-16.876465c10.743835-10.897522,16.689331-25.358032,16.71759-40.694336
		c-0.10675-15.293701-6.052734-29.757446-16.742615-40.713684c-10.505981-10.705627-25.138733-16.847656-40.143311-16.848022
		l-0.234741,0.000488l-0.488708-0.002075c-9.56427-0.000183-18.982178,2.555054-27.235474,7.389404l-0.993774,0.582092
		l-0.819031-0.809753L20.957153,0.893005C20.247253,0.347046,19.376648,0.033325,18.482666,0
		c-0.840393,0.394836-1.499084,1.104431-1.828064,1.979553l-3.767334,10.120483l-0.237732,0.638733l-0.637512,0.241028
		L1.962036,16.779785C1.093811,17.113281,0.388184,17.779297,0,18.625427c0.029968,0.90625,0.339966,1.78772,0.886841,2.513794
		l22.966187,23.13269l0.795166,0.800964l-0.549316,0.985962c-6.166626,11.067383-8.524353,23.552917-6.818237,36.106873
		S24.590942,106.123169,33.487488,115.143433z M18.032166,13.164062l1.252014-3.375l0.816589-2.201294l1.654175,1.666138
		l19.267029,19.406006l0.676025,0.680847l-0.334656,0.89917l-1.255981,3.375l-0.818054,2.198181l-1.652344-1.664612
		l-19.263-19.406006l-0.675049-0.680054L18.032166,13.164062z M9.161011,21.91449l-1.630005-1.641968l2.164246-0.817932
		l3.350037-1.265991l0.909668-0.34375l0.68512,0.690125l19.263,19.405029l1.630005,1.642029l-2.164307,0.817871l-3.349976,1.265991
		l-0.909729,0.34375l-0.685059-0.690125L9.161011,21.91449z M29.014893,48.388184l0.264832-0.475769l0.508362-0.195068
		l8.793945-3.375l0.913086-0.350403l0.688965,0.694031l31.40802,31.640015c0.509888,0.540649,1.163452,0.822754,1.867676,0.822754
		c0.646118,0,1.261108-0.24408,1.731812-0.687439c0.036682-0.034546,0.072388-0.070251,0.106995-0.106995
		c1.12677-1.19635,1.12677-3.07074-0.000061-4.267151L43.918945,40.475464l-0.710571-0.71582l0.394897-0.928101l3.768982-8.859009
		l0.197083-0.463257l0.436584-0.250549c7.860046-4.510376,16.804626-6.912964,25.866821-6.947937l0.33075-0.001099
		c13.571289-0.000549,26.818054,5.544556,36.343567,15.213318c9.687561,9.72467,15.187439,23.182617,15.083435,36.917114
		c0.104065,13.714233-5.397644,27.173645-15.094421,36.904419c-9.837646,9.697815-22.850281,15.094788-36.650452,15.206177
		l-0.337769,0.001099c-13.571655,0-26.818115-5.545044-36.342896-15.213379
		c-9.635071-9.956848-14.987-23.057983-15.079407-36.899658C22.212708,65.327637,24.595032,56.327942,29.014893,48.388184z"/>
</g>
</svg>
