<?xml version="1.0" encoding="utf-8"?>
<!-- Generator: Adobe Illustrator 19.2.1, SVG Export Plug-In . SVG Version: 6.00 Build 0)  -->
<svg version="1.0" id="Слой_1" xmlns="http://www.w3.org/2000/svg" xmlns:xlink="http://www.w3.org/1999/xlink" x="0px" y="0px"
	 viewBox="0 0 289 369" style="enable-background:new 0 0 289 369;" xml:space="preserve">
<rect x="88.333336" y="8.333333" style="fill:#F36C6D;" width="112.666664" height="33.333332"/>
<polygon style="fill:#CEEBFF;" points="259.666656,24.876007 201,24.876007 201,41.666668 88.333336,41.666668 88.333336,25 
	27.666666,25 14.012024,33.271336 6.333333,49.666668 6.333333,331.666656 14.012024,350.333344 25.666666,357.666656 
	40.617004,362.333344 255,362.333344 265.666656,358.333344 274.986023,348.333344 281,333 281,54.333332 274.986023,35.734009 "/>
<path style="fill:#B3DAF5;" d="M265.197815,321.286316h-0.000946V64.151566
	c-0.011139-11.362232-9.264145-20.618301-20.627686-20.633205h-41.053741h-0.925003v0.925007v15.139614H86.404785V44.442406
	v-0.925007h-0.925011H44.42395c-11.362858,0.014397-20.615875,9.270466-20.62649,20.634167V322.21225
	c0.010614,11.362793,9.263632,20.618469,20.626547,20.632355h0.000565h0.000565h200.148895
	c11.36235-0.014404,20.615387-9.270081,20.626556-20.632355L265.197815,321.286316z M48.407288,267.10672h76.554604v12.041748
	H48.407288V267.10672z M203.365616,313.10556H48.407288v-12.041779h154.958328V313.10556z M240.587936,176.300522h-20.89534
	c-1.62204,0-3.121338,0.809723-4.009827,2.164719l-7.223068,10.974258c-3.088196,4.703568-8.291138,7.538727-13.910355,7.584
	h-0.175873c-5.560089,0-10.750839-2.74176-13.885895-7.33519l-0.200821-0.29335
	c-0.486847-0.711044-1.157166-1.279236-1.938553-1.643051c-0.641922-0.298828-1.324219-0.450424-2.02774-0.450424
	c-1.863968,0-3.576614,1.091507-4.363693,2.781982l-3.860489,8.32547c-2.689835,5.927917-8.633911,9.758255-15.143234,9.758255
	l-0.102982-0.000107c-0.52359,0-1.060059-0.025696-1.602783-0.077133c-7.122971-0.610138-13.053268-5.684982-14.758575-12.635071
	l-8.393784-33.102646c-0.440323-1.726715-1.789276-3.061829-3.520508-3.48436
	c-0.375443-0.091629-0.760201-0.138107-1.143501-0.138107c-2.222069,0-4.14238,1.509415-4.67009,3.671814l-7.571304,31.211914
	c-1.235306,5.09935-4.845795,9.391968-9.658051,11.482773c-2.137505,0.92868-4.392715,1.399597-6.70298,1.399597
	c-6.714722,0-12.782097-3.978653-15.457359-10.1362l-7.463867-17.170914c-0.763367-1.756409-2.494034-2.891953-4.409653-2.892853
	H48.407288v-12.041763h19.095573c6.709869,0.000397,12.771599,3.977417,15.443245,10.132248l7.464203,17.172607
	c0.596825,1.369507,1.819702,2.398285,3.271294,2.751877c0.374603,0.091232,0.758629,0.137466,1.141357,0.137466
	c2.223145,0,4.143677-1.510239,4.670486-3.673553l7.573624-31.222702c1.747543-7.576263,8.397507-12.86734,16.171555-12.866943
	l0.1045,0.000336l0.109138-0.000061l0.179367-0.000961c7.690544,0,14.323174,5.221863,16.131981,12.708588l8.394791,33.102646
	c0.358063,1.403824,1.316666,2.559753,2.62999,3.171417c0.641983,0.298996,1.324341,0.450592,2.028259,0.450592
	c1.863785,0,3.576279-1.091339,4.363464-2.781631l3.857391-8.318756c1.274872-2.750961,3.271622-5.109726,5.774414-6.821198
	c2.814545-1.924591,6.096451-2.941742,9.490982-2.941406c5.574219,0.000504,10.777496,2.743408,13.920242,7.339264
	l0.200531,0.291611c0.354279,0.517487,0.799393,0.954758,1.322876,1.299606c0.788208,0.519241,1.701981,0.793686,2.642624,0.793686
	c1.624588,0,3.127487-0.809097,4.020554-2.164719l7.221375-10.974487c3.115631-4.749802,8.36702-7.585526,14.071991-7.585526
	h20.884842V176.300522z"/>
<polygon style="opacity:0.05;fill:#2A3038;" points="235,25 94.707031,362.333344 227.666672,362.333344 259.666656,361 
	277.666656,349.666656 281,333 281,54.333332 281,39.666668 271,31.383972 259.666656,24.876007 "/>
<g>
	<g>
		<rect x="40.617004" y="273.099976" style="fill:#2A3038;" width="82.760986" height="13.018005"/>
	</g>
	<g>
		<path style="fill:#2A3038;" d="M198.433838,184.313904c-1.016907,0-2.004761-0.296692-2.856873-0.858032
			c-0.565918-0.372803-1.047119-0.84552-1.430115-1.404968l-0.216797-0.315247
			c-3.397522-4.968445-9.022644-7.933716-15.048767-7.934265c-3.669739-0.000366-7.217712,1.099243-10.260437,3.179871
			c-2.705688,1.85022-4.864319,4.400208-6.242554,7.374207l-4.170105,8.993164
			c-0.851013,1.827332-2.702332,3.007141-4.717224,3.007141c-0.760986,0-1.498657-0.163879-2.192688-0.487122
			c-1.4198-0.661255-2.456116-1.910889-2.843201-3.428528l-9.075378-35.786316
			c-1.955444-8.093689-9.125793-13.738892-17.439819-13.738892l-0.193909,0.001038l-0.117981,0.000061l-0.112976-0.000366
			c-8.404297-0.000427-15.593384,5.719604-17.482605,13.910095l-8.187622,33.753967
			c-0.569519,2.338684-2.645752,3.971375-5.049133,3.971375c-0.413757,0-0.828918-0.049988-1.233887-0.148621
			c-1.569275-0.382263-2.891296-1.494446-3.536499-2.974976l-8.069336-18.564819
			c-2.888245-6.653809-9.441406-10.953247-16.695251-10.953674H40.617004v13.018005h20.638
			c2.070923,0.000977,3.941895,1.228577,4.767151,3.12738l8.06897,18.562988
			c2.892151,6.656738,9.451416,10.957947,16.71051,10.957947c2.497559,0,4.935608-0.509094,7.246399-1.513062
			c5.202393-2.260315,9.105591-6.90094,10.44104-12.413696l8.18512-33.74231c0.570496-2.337708,2.646484-3.969482,5.048706-3.969482
			c0.414368,0,0.830322,0.050232,1.236206,0.149292c1.871582,0.456787,3.329895,1.900146,3.805908,3.766846l9.07428,35.786316
			c1.843567,7.51355,8.254639,12.999817,15.955078,13.659424c0.586731,0.055603,1.166687,0.083374,1.732727,0.083374
			l0.111328,0.000122c7.037048,0,13.463013-4.140869,16.370911-10.549377l4.173462-9.000427
			c0.850891-1.827515,2.702393-3.007507,4.717468-3.007507c0.760559,0,1.498169,0.163879,2.192139,0.486938
			c0.844727,0.393311,1.569397,1.007568,2.095703,1.776245l0.217102,0.317139
			c3.389221,4.96582,9.000793,7.929871,15.011658,7.929871h0.190125c6.074768-0.04895,11.699524-3.113953,15.038086-8.198853
			l7.808655-11.863953c0.96051-1.464844,2.58136-2.34021,4.3349-2.34021h22.589355v-13.02301h-22.578003
			c-6.16748,0-11.844604,3.065613-15.21283,8.2005l-7.806824,11.864197
			C201.81488,183.439209,200.190125,184.313904,198.433838,184.313904z"/>
	</g>
	<g>
		<path style="fill:#2A3038;" d="M36.312012,18.367004C16.85968,18.392151,1.018188,34.239258,1,53.692932v278.980042
			C1.017151,352.126831,16.858582,367.974854,36.313293,368h216.372742c19.454468-0.024048,35.296814-15.872131,35.313965-35.327881
			V53.690979c-0.018738-19.453186-15.861084-35.299927-35.315247-35.323975h-44.384766h-1v-1V1H81.695007v16.367004v1h-1H36.312012z
			 M94.707031,34.734009V15.018005v-1h1h97.583984h1v1v19.716003v1h-1H95.707031h-1V34.734009z M207.299988,48.752014V32.38501v-1h1
			h44.382019c12.28479,0.016113,22.287964,10.022583,22.299988,22.305969v277.981018h0.001038l0.002991,1.000977
			c-0.012085,12.283447-10.015259,22.28949-22.298767,22.305054H36.312012h-0.00061h-0.00061
			c-12.284119-0.015015-22.287292-10.021057-22.298767-22.305054V53.690979
			c0.011475-12.284973,10.014648-22.291443,22.298706-22.307007h44.384277h1v1v16.368042H207.299988z"/>
	</g>
	<g>
		<rect x="40.617004" y="309.809998" style="fill:#2A3038;" width="167.520996" height="13.018005"/>
	</g>
</g>
</svg>
