<?xml version="1.0" encoding="utf-8"?>
<!-- Generator: Adobe Illustrator 19.2.1, SVG Export Plug-In . SVG Version: 6.00 Build 0)  -->
<svg version="1.0" id="Слой_1" xmlns="http://www.w3.org/2000/svg" xmlns:xlink="http://www.w3.org/1999/xlink" x="0px" y="0px"
	 viewBox="0 0 512 502" style="enable-background:new 0 0 512 502;" xml:space="preserve">
<g>
	<path style="fill:#D3EDFF;" d="M232,142.666672h-68L142,164l-27.283531-21.333328H72.666664l30,66.666656
		c0,0,92.666664,2,97.333336,0S232,142.666672,232,142.666672z"/>
	<path style="fill:#B3DAF5;" d="M190.533859,204.125122L211.666672,164h-42.00856l-17.063339,16.198959
		c-1.50206,1.426773-3.499939,2.212692-5.624908,2.212692c-2.123749,0-4.120392-0.78476-5.622864-2.209991L124.282028,164H101.66671
		l21.132805,40.125122H190.533859z"/>
	<rect x="107.666664" y="213.333328" style="fill:#F36C6D;" width="88.273438" height="29.236471"/>
	<path style="fill:#D3EDFF;" d="M202,247.333328H100.666664L68,276.666656l-42,66.666687l-10.666667,47.333313v50.666687
		c0,0,21.333336,29.333313,23.333336,31.333313s64.666672,16.666687,64.666672,16.666687h114.253258L264,474.666656
		l27.333344-33.333313c0,0,3.333313-54.666687,0-58.666687c-3.333344-4-40.000015-81.333313-40.000015-81.333313
		l-36.666656-45.392914L202,247.333328z"/>
	<path style="fill:#B3DAF5;" d="M40.333843,407.788422c0,27.339203,8.890411,43.305664,28.826572,51.768738
		c14.322617,6.079773,33.887047,9.599945,91.506287,9.599945s77.183655-3.520172,91.506271-9.599945
		C272.109131,451.094086,281,435.127625,281,407.788422c0-22.169281-7.972839-50.286285-21.873535-77.142517
		c-15.03035-29.03775-35.505112-53.722351-57.653137-69.505219l-0.502426-0.358154h-80.608414l-0.503334,0.358154
		c-22.147118,15.782867-42.621887,40.467468-57.652245,69.505219C48.306225,357.502136,40.333843,385.619141,40.333843,407.788422z"
		/>
	<path style="fill:#2A3038;" d="M273.813141,320.519531c-17.259766-32.232422-40.440903-60.043945-65.272446-78.311523
		l-0.849121-0.624512v-27.791992l33.859375-67.719727c0.65918-1.317871,1.007324-2.793457,1.007324-4.26709
		c-0.000488-5.258301-4.279785-9.536133-9.538574-9.536133h-69.731934c-2.546875,0.000977-4.941406,0.993164-6.741699,2.794434
		l-16.501465,16.500488l-16.500008-16.5c-1.800781-1.801758-4.195801-2.793945-6.744141-2.794922H70.313637
		c-1.474121,0-2.949707,0.348145-4.267578,1.007324c-2.275875,1.138184-3.973629,3.097168-4.779781,5.515625
		s-0.623047,5.004395,0.515137,7.280273l33.860348,67.719727v27.791992l-0.849121,0.624512
		c-24.831543,18.267578-48.012691,46.079102-65.272461,78.311523c-17.316895,32.337891-26.853516,65.773438-26.853516,94.145508
		c0,38.727539,14.728026,62.415039,46.350586,74.545898C77.143227,500,115.028481,500,151.666672,500
		s74.523438,0,102.649902-10.789062c31.621567-12.130859,46.350082-35.818359,46.350082-74.545898
		C300.666656,386.291992,291.129547,352.856445,273.813141,320.519531z M192.25798,202h-81.182625l-25.328613-50.656738h27.105469
		l20.453133,20.454102c1.800781,1.799316,4.193848,2.790039,6.739258,2.790039c2.546875,0,4.941406-0.992188,6.741699-2.793457
		l20.451172-20.450684h50.349121L192.25798,202z M188.616867,221.074707v15.791016h-73.900398v-15.791016H188.616867z
		 M107.606117,256.327148l0.543457-0.386719h87.034187l0.54248,0.386719
		c23.913574,17.041016,46.020508,43.693359,62.249008,75.045898c15.008789,28.99707,23.617188,59.355469,23.617188,83.291992
		c0,29.518555-9.599609,46.757812-31.124985,55.895508c-15.464355,6.564453-36.588379,10.365234-98.800781,10.365234
		S68.330238,477.125,52.865887,470.560547c-21.525393-9.137695-31.124514-26.376953-31.124514-55.895508
		c0-23.936523,8.60791-54.294922,23.616701-83.291992C61.58659,300.020508,83.69352,273.368164,107.606117,256.327148z"/>
</g>
<polygon style="fill:#D3EDFF;" points="418.333344,12 325,12 292.333344,42 256,8.666667 196.333328,13.333333 
	244.333328,106.666664 373.666656,106.666664 "/>
<rect x="244.333328" y="106.666664" style="fill:#F59899;" width="126.666664" height="44.676594"/>
<path style="fill:#B3DAF5;" d="M327.757477,32h-2.403839l-1.699768,1.559578l-22.645203,20.777569
	c-1.408569,1.293034-3.281586,2.005199-5.274017,2.005199c-1.990936,0-3.862946-0.711193-5.27124-2.002647l-0.003815-0.003483
	l-22.64328-20.776546L266.116547,32h-2.403931h-26.102142h-9.390121l4.199402,7.7061l26.529922,48.683762l1.604004,2.943474h3.5867
	h89.719238h3.5867l1.604004-2.943474L385.580261,39.7061L389.779633,32h-9.390106H327.757477z"/>
<polygon style="fill:#D3EDFF;" points="371,154.666672 244.333328,154.666672 182.333328,212 133.666672,306.666656 115.049805,382 
	126,440.666656 165.666672,474.666656 231.666672,489.333344 313.666656,489.333344 413,486.666656 469,464.666656 
	495.666656,425.333344 502.333344,376.666656 492,313.333344 455.666656,243.333328 423.666656,202 389.779633,168 "/>
<path style="fill:#B3DAF5;" d="M142.333328,378.092499c0,38.190338,12.742569,60.554993,41.316864,72.51593
	C203.483444,458.910431,230.352539,463.716797,309,463.716797s105.516541-4.806366,125.349823-13.108368
	c28.57428-11.960938,41.316833-34.325592,41.316833-72.51593c0-30.164734-10.946472-68.317261-30.032684-104.674988
	c-20.616882-39.273514-48.746582-72.689331-79.207458-94.091965l-1.660553-1.166763h-2.039185H255.273224h-2.039185
	l-1.660568,1.166763c-30.460815,21.402634-58.590515,54.818451-79.207397,94.091965
	C153.279861,309.775238,142.333328,347.927765,142.333328,378.092499z"/>
<polygon style="fill:#F36C6D;" points="266.222229,119.333336 266.222229,124.777779 266.222229,137.222229 266.222229,142.666672 
	271.666656,142.666672 346.333344,142.666672 351.777771,142.666672 351.777771,137.222229 351.777771,124.777779 
	351.777771,119.333336 346.333344,119.333336 271.666656,119.333336 "/>
<path style="opacity:0.05;fill:#2A3038;" d="M492,313.333313l-36.333313-70l-16.050049-20.731262
	C396.361267,351.929565,286.627563,448.72052,150.645569,461.791504l15.021118,12.875183l66,14.666626h82L413,486.666687l56-22
	l26.666687-39.333374l6.666626-48.666626L492,313.333313z"/>
<path style="fill:#2A3038;" d="M473.520081,258.987183c-23.477051-43.842041-54.966736-81.641602-88.668335-106.435791
	L382,150.453308v-3.540405v-36.131897v-1.652527l0.739014-1.477966l46.312012-92.625
	c0.622009-1.243896,0.950684-2.636108,0.9505-4.026367C430.001038,6.036987,425.963684,2,421.001587,2H421h-96
	c-2.402893,0.000427-4.662903,0.936951-6.362488,2.637024l-20.687744,20.687744L293,30.274475l-4.949707-4.949707
	L267.363281,4.637756C265.662903,2.936951,263.402954,2.000427,260.998962,2H197
	c-1.391602-0.000244-2.783936,0.32843-4.027832,0.950317c-4.438477,2.219543-6.243835,7.636353-4.024353,12.074951
	l46.313171,92.625244L236,109.128479v1.652527v36.131897v3.540405l-2.851746,2.098083
	c-33.701599,24.794189-65.191223,62.59375-88.668335,106.435791C120.955505,302.917786,108,348.255249,108,386.64801
	c0,51.380493,19.434082,82.766113,61.160339,98.772339C207.167603,500,258.936035,500,309,500
	c50.064026,0,101.832458,0,139.839661-14.579651C490.565918,469.414124,510,438.028503,510,386.64801
	C510,348.255249,497.044495,302.917786,473.520081,258.987183z M216.630005,30.130493L211.564758,20h11.326233H254.375h2.899597
	l2.050232,2.050354l27.312012,27.312988l0.004578,0.004578c1.698669,1.697754,3.956665,2.63269,6.358093,2.63269
	c2.403259,0,4.662476-0.936218,6.36145-2.636047l27.314331-27.314331L328.725525,20H331.625h63.484009h11.326233
	l-5.065247,10.130493l-32,64L367.435242,98h-4.326233H254.890991h-4.326233l-1.934753-3.869507L216.630005,30.130493z M364,116v7v16
	v7h-7h-96h-7v-7v-16v-7h7h96H364z M446.634094,467.402405C424.857178,476.647583,395.354919,482,309,482
	s-115.857178-5.352417-137.634094-14.597595C139.991333,454.082581,126,429.177124,126,386.64801
	c0-33.591736,12.019287-76.078735,32.975952-116.567017c22.637329-43.735352,53.523743-80.94751,86.969727-104.781677
	L247.768982,164h2.239014h117.984009h2.239014l1.823303,1.299316c33.446045,23.834167,64.332458,61.046326,86.969788,104.781677
	C479.980774,310.569275,492,353.056274,492,386.64801C492,429.177124,478.008667,454.082581,446.634094,467.402405z"/>
</svg>
