<?xml version="1.0" encoding="utf-8"?>
<!-- Generator: Adobe Illustrator 19.2.1, SVG Export Plug-In . SVG Version: 6.00 Build 0)  -->
<svg version="1.0" id="Слой_1" xmlns="http://www.w3.org/2000/svg" xmlns:xlink="http://www.w3.org/1999/xlink" x="0px" y="0px"
	 viewBox="0 0 490 489.439941" style="enable-background:new 0 0 490 489.439941;" xml:space="preserve">
<path style="fill:#DAF0FF;" d="M270,21.5l-44.5,3l-24.5,12l-20,21L165,79l-45.5,10L95,110l-19.5,32.5l-10.5,19L39,179l-16,16.5v29
	l24,27l113,5.5h249.5l35-9.199951L466,224.5V192c0,0-24-24.5-26.5-26s-16-15-16-15l-25-42l-48-17.5l-9-9l-24-36.5L270,21.5z"/>
<path style="fill:#B3DAF5;" d="M441.13504,204.34668c0-16.097794-13.603638-30.210022-32.350861-33.564957
	c-3.809235-0.702118-7.86554-2.215866-7.86554-11.231903v-0.100983l-0.002228-0.101028
	c-0.326172-14.785385-7.391479-28.540894-19.894501-38.732841c-12.029449-9.805817-27.834656-15.206078-44.504425-15.206078
	c-7.618652,0-12.730286-3.39978-13.022614-8.661369l-0.001434-0.025833l-0.001617-0.025833
	C321.54541,64.903755,291.051392,40,254.069321,40c-31.42955,0-59.050995,18.267464-67.185318,44.429558
	c-1.277084,3.993416-4.948425,6.680069-9.146439,6.688232c-21.102341,0.04937-41.052017,7.046249-56.174286,19.701591
	c-15.58461,13.042549-24.224678,30.493164-24.328514,49.137436l-0.00016,0.025604v0.025452l0.000053,0.510208
	c-0.022308,5.190308-4.103172,9.394897-9.279556,9.571823c-10.083984,0.332336-19.637856,3.821075-26.901608,9.823532
	c-7.859848,6.495102-12.188465,15.139755-12.188465,24.341537c0,9.565506,4.496918,18.436493,12.662445,24.978729
	c7.550148,6.049194,17.481148,9.411011,27.963745,9.466202l0.02404,0.000168h0.024155h310.921204
	C422.88858,238.700073,441.13504,223.289185,441.13504,204.34668z"/>
<path style="opacity:0.05;fill:#2A3038;" d="M360,95c0,0-139.5,162-137,162s180,2,180,2l48.5-9l19.5-40l-15-33c0,0-20-17-22-18.5
	S422,136,421,134s-27.5-28.5-27.5-28.5L360,95z"/>
<circle style="fill:#F59899;" cx="240.066223" cy="417.266174" r="49.433777"/>
<circle style="fill:#F36C6D;" cx="240.066223" cy="417.266174" r="32.108765"/>
<path style="fill:#2A3038;" d="M452.275452,406.299988H310.5h-7.481812l-2.111633-7.177734
	c-6.161804-20.945007-22.352356-37.10321-43.309631-43.223206l-7.196899-2.101624v-7.497437v-67.800049v-10h10h154.299988
	C450.706543,268.499939,480,242.34668,480,210.199951c0-23.072571-15.25592-43.992615-38.86615-53.296265l-5.181213-2.041626
	l-0.992554-5.479858c-6.311584-34.847534-38.32605-62.503235-77.853333-67.253723l-6.598938-0.793091l-1.823914-6.391235
	c-5.18042-18.153381-17.171082-34.600586-33.763-46.311829c-17.269226-12.189392-38.058716-18.632385-60.120911-18.632385
	c-18.823059,0-37.166138,4.916016-53.046265,14.216492c-15.586182,9.128418-27.797791,21.876526-35.314697,36.86615
	l-2.447449,4.880554l-5.428955,0.5802c-47.630981,5.090332-86.423096,37.99054-94.335327,80.007141l-1.174194,6.235229
	l-6.141357,1.593689C43.464905,157.868774,31.42157,165.2995,23,175.302795c-8.504639,10.102051-13,22.16925-13,34.897156
	c0,32.146729,29.293457,58.299988,65.299988,58.299988H219.5h10v10v67.800049v7.497437l-7.196899,2.101624
	c-20.957336,6.119995-37.147888,22.278198-43.309631,43.223206l-2.111572,7.177734h-7.481873H27.599976
	c-5.745544-0.000183-10.410706,4.661804-10.414856,10.392456c-0.004211,5.734436,4.657776,10.40332,10.392456,10.407532h141.822449
	h7.503418l2.097839,7.204285c3.915649,13.447327,11.921021,24.94281,23.150574,33.243408
	c10.879395,8.041931,24.273499,12.470825,37.714722,12.470825c5.981628,0,11.959045-0.857361,17.766235-2.54834
	c20.933655-6.09552,37.070374-22.2323,43.165955-43.165894l2.097778-7.204285h7.503479h141.799988h0.013184l0.038757,0.000061
	c5.719055,0,10.384033-4.654053,10.398071-10.374634c0.006836-2.777893-1.068542-5.392273-3.028015-7.361328
	C457.662476,407.394958,455.053467,406.306763,452.275452,406.299988z M75.299988,247.800049h-0.026367l-0.026245-0.000183
	c-11.442749-0.060242-22.283386-3.72998-30.525085-10.333252c-8.913452-7.141479-13.822266-16.825012-13.822266-27.266663
	c0-10.044617,4.725098-19.481079,13.304871-26.571106c7.929077-6.552246,18.358032-10.360535,29.365662-10.723328
	c5.650513-0.193115,10.105164-4.782837,10.129517-10.448547l-0.000061-0.556946v-0.027771l0.000183-0.027954
	c0.113342-20.35199,9.5448-39.401001,26.556885-53.638184c16.507385-13.814514,38.284363-21.452271,61.31958-21.506165
	c4.58252-0.008911,8.590149-2.94165,9.984192-7.300842c8.879395-28.558411,39.030823-48.499084,73.339172-48.499084
	c40.369446,0,73.656555,27.184814,75.78125,61.888916l0.00177,0.028198l0.001587,0.028198
	c0.319092,5.74353,5.898926,9.454712,14.215393,9.454712c18.196655,0,35.449524,5.894897,48.580811,16.598877
	c13.648254,11.125488,21.360718,26.14093,21.716736,42.280579l0.002441,0.110291v0.110229
	c0,9.841858,4.427856,11.494263,8.585999,12.260681c20.464355,3.662231,35.314026,19.067078,35.314026,36.639343
	c0,20.677551-19.917725,37.5-44.400024,37.5H75.299988z M239.91925,459.199951h-0.009583h-0.009644
	c-23.43457,0-42.5-19.06543-42.5-42.5c0-23.434509,19.06543-42.5,42.5-42.5c23.434509,0,42.5,19.065491,42.5,42.5
	C282.354858,440.098083,263.298096,459.154785,239.91925,459.199951z"/>
</svg>
