<?xml version="1.0" encoding="utf-8"?>
<!-- Generator: Adobe Illustrator 19.2.1, SVG Export Plug-In . SVG Version: 6.00 Build 0)  -->
<svg version="1.0" id="Слой_1" xmlns="http://www.w3.org/2000/svg" xmlns:xlink="http://www.w3.org/1999/xlink" x="0px" y="0px"
	 viewBox="0 0 416 404" style="enable-background:new 0 0 416 404;" xml:space="preserve">
<path style="fill:#CEEBFF;" d="M384.333344,17.86499l-20.087952-6.198323L319,8.333333H67.708969L41,13.099162L23.666666,25
	L11,43.666668L8.333333,64.683472v287.649872l9.560649,20l13.772684,13.799652L47,393.666656h301.330994l24.00235-3.333313
	l17.333313-8.666687l8.439362-14L407.666656,353L405,55.98291c0,0-3.333344-16.316242-4-18.98291
	S384.333344,17.86499,384.333344,17.86499z"/>
<g>
	<path style="fill:#B3DAF5;" d="M316.358246,224.126892c-11.598114,0.000732-21.044525,9.43689-21.057495,21.034683
		c-0.011536,10.354904,7.490784,18.996384,17.349854,20.754654v0.330872l3.69104-0.002136
		c11.601959-0.006683,21.056305-9.45108,21.075348-21.058838C337.417664,233.586914,327.981567,224.139832,316.358246,224.126892z"
		/>
	<path style="fill:#B3DAF5;" d="M99.677544,180.938095c-11.598869,0.000336-21.045334,9.436951-21.057655,21.035767
		c-0.005974,5.624832,2.178856,10.915298,6.151962,14.896912c3.091125,3.097702,6.977043,5.114624,11.19883,5.860275v0.327484
		l3.691269-0.002365c11.599434-0.00737,21.053268-9.450226,21.074211-21.055511
		C120.738579,190.399078,111.302025,180.950424,99.677544,180.938095z"/>
	<path style="fill:#B3DAF5;" d="M208.018692,81.972153c-11.597641,0.000732-21.043533,9.436386-21.056534,21.033684
		c-0.012894,11.61097,9.422821,21.06768,21.033676,21.080681h0.003204h0.003098
		c11.600784-0.00676,21.054794-9.45018,21.074432-21.057213C229.076569,91.431282,219.640854,81.9851,208.018692,81.972153z"/>
	<path style="fill:#B3DAF5;" d="M344.00354,32.185707H71.995377C50.353333,32.197472,32.716141,49.81406,32.679161,71.46241
		v261.075592c0.035854,21.643066,17.672989,39.261383,39.316048,39.274292h0.001068h0.001129h272.008331
		c21.643188-0.012909,39.279816-17.631287,39.315094-39.280426V71.456161
		C383.284485,49.814117,365.647675,32.197472,344.00354,32.185707z M130.962219,219.207977
		c-4.596786,8.336792-12.165024,14.38446-21.310455,17.029099l-2.664177,0.77037v2.773315v79.68042
		c0,4.040863-3.287575,7.32843-7.328453,7.32843c-4.040932,0-7.328499-3.287567-7.328499-7.32843v-79.68042v-2.773315
		l-2.664124-0.77037c-11.821213-3.418381-20.919472-12.516586-24.337799-24.337738
		c-5.45929-18.879196,5.458603-38.679993,24.337799-44.139328l2.664124-0.770416v-2.773331V84.535919
		c0-4.040939,3.287567-7.328506,7.328499-7.328506c4.040878,0,7.328453,3.287567,7.328453,7.328506v79.680344v2.773331
		l2.664124,0.770416c11.82132,3.41832,20.919533,12.516586,24.337791,24.337799
		C136.634155,201.24324,135.55899,210.87117,130.962219,219.207977z M239.30983,120.215744
		c-4.5961,8.345917-12.16716,14.402466-21.318604,17.053986l-2.662277,0.771378v2.771851l0.000168,178.616394
		c-0.03624,3.967987-3.293869,7.225555-7.258926,7.261719l-0.071823,0.000336c-4.003281,0-7.290009-3.257751-7.32637-7.228394
		V140.812958v-2.771851l-2.662323-0.771378c-15.182739-4.399033-25.768646-18.511292-25.743149-34.318436
		c0.031815-19.637337,16.032532-35.6129,35.668457-35.612228l0.074478,0.000061l0.055725-0.000061
		c15.780289,0,29.868561,10.586021,34.260178,25.74321C244.976883,102.233673,243.90593,111.869827,239.30983,120.215744z
		 M347.645691,262.400299c-4.597504,8.336426-12.166138,14.383514-21.311798,17.027313l-2.66452,0.770264v2.773529
		l0.000153,36.458862c-0.036224,3.967987-3.293823,7.225616-7.25885,7.261749l-0.071838,0.000336
		c-4.003326,0-7.29007-3.257782-7.326416-7.228424v-36.494385v-2.773041l-2.663849-0.770569
		c-11.818909-3.418793-20.916046-12.51593-24.334808-24.334763c-5.460938-18.879257,5.455566-38.681458,24.334808-44.142426
		l2.663849-0.770599v-2.773087l-0.000183-122.839195c0.036255-3.967987,3.293884-7.225555,7.258942-7.261749l0.071777-0.000336
		c4.003326,0,7.290039,3.25779,7.326416,7.228424V207.40506v2.773544l2.66452,0.770309
		c11.823853,3.417984,20.923462,12.517609,24.3414,24.3414C353.319153,244.43602,352.243256,254.063797,347.645691,262.400299z"/>
</g>
<circle style="fill:#F59899;" cx="208.333328" cy="95.016808" r="30.333334"/>
<circle style="fill:#F36C6D;" cx="207.871628" cy="94.555099" r="15.676322"/>
<circle style="fill:#F59899;" cx="326.333344" cy="249.0168" r="30.333334"/>
<circle style="fill:#F36C6D;" cx="325.453766" cy="248.475189" r="15.679648"/>
<circle style="fill:#F59899;" cx="91.333336" cy="202.0168" r="30.333334"/>
<circle style="fill:#F36C6D;" cx="90.64222" cy="201.707916" r="15.446914"/>
<g>
	<path style="fill:#2A3038;" d="M218.833801,131.810974c9.923218-2.875122,18.132751-9.442444,23.116455-18.492188
		s6.144958-19.498535,3.269836-29.421692c-4.761963-16.435425-20.03833-27.914185-37.149414-27.914185l-0.060425,0.000061
		l-0.08075-0.000061c-21.29187-0.000732-38.641968,17.322083-38.676453,38.615479
		c-0.027649,17.140198,11.450989,32.442566,27.914124,37.212585l2.886841,0.836426v3.005615v193.716003
		c0.039429,4.305481,3.603333,7.837952,7.944214,7.837952l0.077881-0.000366c4.299438-0.039185,7.831787-3.571472,7.871094-7.874084
		l-0.000183-193.679504V132.6474L218.833801,131.810974z M208.002319,117.515991h-0.003357h-0.003479
		c-12.590027-0.014099-22.821472-10.268311-22.807495-22.858459c0.014099-12.575317,10.256592-22.806702,22.832275-22.807495
		c12.602295,0.014038,22.83374,10.256836,22.83374,22.832947C230.832703,107.26886,220.581421,117.508667,208.002319,117.515991z"/>
	<path style="fill:#2A3038;" d="M53.296936,212.734253c3.706604,12.818054,13.572144,22.683533,26.390259,26.390198
		l2.888794,0.835327v3.007202v86.400024c0,4.381653,3.564819,7.946472,7.946533,7.946472
		c4.381653,0,7.946472-3.564819,7.946472-7.946472V242.96698v-3.007202l2.888855-0.835327
		c9.916687-2.867676,18.123169-9.425354,23.107605-18.46521s6.150269-19.479736,3.282593-29.396423
		c-3.706543-12.818115-13.572021-22.683655-26.390259-26.390259l-2.888794-0.835388v-3.007202V74.630005
		c0-4.381714-3.564819-7.946533-7.946472-7.946533c-4.381714,0-7.946533,3.564819-7.946533,7.946533v86.399963v3.007202
		l-2.888794,0.835388C59.215881,170.792297,47.377258,192.262939,53.296936,212.734253z M90.54248,179.161987
		c12.604797,0.013367,22.837158,10.25885,22.834534,22.838806c-0.022705,12.583984-10.273804,22.823181-22.85144,22.831177
		l-4.002563,0.002563v-0.355103c-4.57782-0.808533-8.791443-2.995544-12.14325-6.354492
		c-4.308167-4.317383-6.677246-10.054016-6.670776-16.153198C67.722351,189.394775,77.965454,179.162354,90.54248,179.161987z"/>
	<path style="fill:#2A3038;" d="M336.313232,285.957336c9.916931-2.86676,18.12384-9.423828,23.10907-18.463257
		c4.985291-9.039551,6.151917-19.479248,3.285095-29.39624c-3.706177-12.820923-13.573181-22.687927-26.394165-26.394165
		l-2.889221-0.835266v-3.007446V74.625977c-0.039429-4.305481-3.603333-7.838013-7.944275-7.838013l-0.07782,0.000366
		c-4.299438,0.039246-7.831787,3.571533-7.871094,7.874146l0.000183,133.198486v3.006958l-2.888489,0.835571
		c-20.471375,5.921509-32.308472,27.393677-26.387024,47.865051c3.707092,12.815552,13.571411,22.679871,26.387024,26.386963
		l2.888489,0.835571v3.006897v39.572021c0.039429,4.305481,3.603333,7.838013,7.944275,7.838013l0.077881-0.000366
		c4.299438-0.039185,7.831726-3.571533,7.871033-7.874146l-0.000183-39.533508v-3.007446L336.313232,285.957336z
		 M325.478333,271.662964l-4.002319,0.002319v-0.358765c-10.690491-1.906555-18.8255-11.276794-18.812988-22.504944
		c0.014038-12.575867,10.25708-22.8078,22.833313-22.808594c12.603516,0.014038,22.835388,10.257812,22.834656,22.835205
		C348.310364,261.414856,338.058716,271.655701,325.478333,271.662964z"/>
	<path style="fill:#2A3038;" d="M2,60.461182v283.078796C2.055115,375.751892,28.311768,401.97998,60.530518,402h294.942505
		c32.216187-0.02002,58.472412-26.248108,58.526978-58.466736V60.453979C413.942871,28.245056,387.686707,2.01947,355.470581,2
		H60.528015C28.314331,2.01947,2.057678,28.245056,2,60.461182z M355.473022,17.86499
		c23.469421,0.012756,42.593567,19.115051,42.632996,42.582214v283.092773
		c-0.038269,23.474854-19.162231,42.579041-42.630615,42.593018H60.528015h-0.001221h-0.00116
		c-23.468262-0.013977-42.592773-19.118103-42.631653-42.586365V60.453979
		c0.0401-23.473999,19.164673-42.576233,42.631836-42.588989H355.473022z"/>
</g>
</svg>
