<?xml version="1.0" encoding="utf-8"?>
<!-- Generator: Adobe Illustrator 19.2.1, SVG Export Plug-In . SVG Version: 6.00 Build 0)  -->
<svg version="1.0" id="Слой_1" xmlns="http://www.w3.org/2000/svg" xmlns:xlink="http://www.w3.org/1999/xlink" x="0px" y="0px"
	 viewBox="0 0 598 685" style="enable-background:new 0 0 598 685;" xml:space="preserve">
<polygon style="fill:#D1E9F9;" points="121,102.535797 64,102.535797 23,127 11,163 11,613 53,665 107,665 403,665 436,665 471,628 
	477,582 191,583 142.531006,566.468994 128,527 "/>
<path style="fill:#B3DAF5;" d="M122.65506,126.773743c-1.453278-1.41008-3.396622-2.195702-5.415504-2.195702
	c-0.078087,0-0.15641,0.00119-0.234673,0.003563l-23.154274,0.697502c-12.75737,0.03418-24.874565,5.428795-34.131123,15.198967
	c-8.89994,9.394043-14.004398,21.913605-14.004398,34.348831v424.722229c0,26.29895,23.962975,50.249817,50.275093,50.249817
	l318.734741-0.000916c26.312103,0,50.275085-23.950867,50.275085-50.249878c0-4.29541-3.481995-7.777405-7.777405-7.777405
	H202.234451c-19.241119,0-38.863052-8.664551-53.834656-23.771973c-14.860382-14.995361-23.383362-34.456848-23.383362-53.39447
	v-382.24884C125.016434,130.252075,124.164589,128.23848,122.65506,126.773743z"/>
<path style="fill:#F79899;" d="M465.97171,12C463,12,430,12,430,12v112.578041L453,168l30,22h101v-37L465.97171,12z"/>
<path style="fill:#F36C6D;" d="M486.83844,179.570877h59.836548c2.845764,0,5.434021-1.648209,6.637512-4.226837
	c1.203613-2.578796,0.804688-5.621155-1.022949-7.80246L452.225616,48.118797c-1.419373-1.693977-3.48999-2.62088-5.616089-2.62088
	c-0.83725,0-1.683411,0.143845-2.501343,0.441208c-2.894867,1.052532-4.821991,3.803738-4.821991,6.884102v59.964523
	c0,11.816544,5.12619,28.018646,13.05957,41.276901c9.843323,16.449722,22.02121,25.509033,34.290527,25.509033
	C486.703979,179.573685,486.771271,179.572723,486.83844,179.570877z"/>
<polygon style="fill:#FFFFFF;" points="584,190 507,190 465,184 430,144 430,12 200,12 151,24 123,67 123,499 130,545 159,575 
	203,583 492,583 559,574 584,527 "/>
<polygon style="opacity:0.05;fill:#2A3038;" points="477,177.711777 241.316635,583 529,580 569.286011,554.662292 583,484 584,190 
	484,185 "/>
<g>
	<path style="fill:#2A3038;" d="M452.000061,307.205994h-196.71405c-7.621399,0-13.82196,6.200562-13.82196,13.822021
		c0,7.621399,6.200562,13.82196,13.82196,13.82196h196.71405c7.621399,0,13.82196-6.200562,13.82196-13.82196
		C465.822021,313.406555,459.62146,307.205994,452.000061,307.205994z"/>
	<path style="fill:#2A3038;" d="M255.045288,443.959229l0.093323,0.000183l0.093079-0.000183
		c0.018127-0.000122,0.036255-0.000244,0.054321-0.000244h196.71405c0.017517,0,0.034973,0.000122,0.052551,0.000244
		l0.100342,0.000305c7.567566,0,13.766418-6.157959,13.81842-13.727295c0.052246-7.621277-6.105652-13.864136-13.72699-13.916504
		l-0.094666-0.000305l-0.096252,0.000305c-0.017761,0.000122-0.035645,0.000244-0.053406,0.000244h-196.71405
		c-0.017761,0-0.035522-0.000122-0.053284-0.000244l-0.097229-0.000305c-7.568542-0.000244-13.767456,6.158447-13.818542,13.728699
		c-0.024902,3.691956,1.389282,7.172546,3.982178,9.800781C247.892151,442.473083,251.353271,443.934204,255.045288,443.959229z"/>
	<path style="fill:#2A3038;" d="M1.000061,604.625977c0,19.478455,8.766968,39.496338,24.053101,54.921021
		C40.453674,675.087219,60.637451,684,80.429016,684h327.857056c19.791077,0,39.974548-8.912781,55.375-24.453003
		c15.28595-15.424683,24.052979-35.442688,24.052979-54.921021c0-4.418335,3.581665-8,8-8h21.856995
		c19.791565,0,39.975342-8.912781,55.375854-24.453064C588.233032,556.748108,597,536.729858,597,517.250977V150.807251L471.55072,1
		H189.71405c-19.791565,0-39.975098,8.912903-55.375366,24.453247c-15.285767,15.424744-24.052673,35.44342-24.052673,54.922729
		c0,4.345581-3.468872,7.896362-7.813171,7.997803l-25.267029,0.590027c-0.062317,0.001404-0.124756,0.002197-0.187134,0.002197
		c-19.846313-0.000916-38.859436,8.53186-53.536743,24.026306c-14.287598,15.08313-22.481873,35.041138-22.481873,54.756714
		V604.625977z M444.000061,37.320007c0-3.364258,2.104736-6.369019,5.266418-7.518555
		c0.893311-0.324768,1.817444-0.481873,2.731873-0.481873c2.322021,0,4.583496,1.012329,6.133667,2.862427L567.41803,162.611023
		c1.996094,2.382324,2.431763,5.705078,1.117249,8.521545c-1.314453,2.816284-4.141235,4.616394-7.249268,4.616394h-65.351196
		c-0.073364,0.002014-0.146851,0.003052-0.220764,0.003052c-13.400085,0-26.700317-9.894226-37.450806-27.859985
		c-8.664551-14.480164-14.263184-32.175476-14.263184-45.081055V37.320007z M138.000061,80.375
		c0-27.051086,24.648743-51.687012,51.713989-51.687012h218.572021c2.131409,0,4.174622,0.850586,5.676514,2.362915
		c1.501892,1.512451,2.338135,3.561523,2.323242,5.692871c-0.346436,49.656677-0.003662,87.416016-0.000122,87.791565
		c0.000244,0.024902,0.000366,0.049744,0.000366,0.074646c0,19.620239,8.715393,39.586365,23.911621,54.778564
		c15.28833,15.284424,35.523254,24.050415,55.516357,24.050415h65.57196c4.418335,0,8,3.581665,8,8v305.812012
		c0,27.051147-24.649231,51.687012-51.714966,51.687012H189.71405c-27.065247,0-51.713989-24.635315-51.713989-51.685974V80.375z
		 M28.715027,167.749023c0-12.791138,5.250549-25.669006,14.405212-35.331909
		c9.521484-10.049805,21.985474-15.598816,35.107971-15.633972l23.816956-0.717468
		c0.080505-0.002441,0.161072-0.003662,0.241394-0.003662c2.07666,0,4.075623,0.808105,5.570496,2.258545
		c1.552734,1.506653,2.428955,3.577881,2.428955,5.741455v393.188965c0,19.479675,8.766907,39.498108,24.052612,54.922668
		c15.400085,15.539795,35.583618,24.452332,55.375427,24.452332h262.286011c4.418335,0,8,3.581665,8,8
		c0,27.051697-24.648804,51.688049-51.713989,51.688049l-327.857056,0.000977c-27.065186,0-51.713989-24.636353-51.713989-51.687988
		V167.749023z"/>
</g>
</svg>
