<?xml version="1.0" encoding="utf-8"?>
<!-- Generator: Adobe Illustrator 19.2.1, SVG Export Plug-In . SVG Version: 6.00 Build 0)  -->
<svg version="1.0" id="Слой_1" xmlns="http://www.w3.org/2000/svg" xmlns:xlink="http://www.w3.org/1999/xlink" x="0px" y="0px"
	 viewBox="0 0 512 512" style="enable-background:new 0 0 512 512;" xml:space="preserve">
<g>
	<circle style="fill:#B3DAF5;" cx="255.748703" cy="255.748703" r="248.584641"/>
	<circle style="fill:#FFFFFF;" cx="255.748703" cy="255.748688" r="217.024734"/>
	<path style="fill:#2A3038;" d="M256.000977,1.004395C187.887695,1.004883,123.851074,27.530273,75.687988,75.693848
		C27.524902,123.85791,1.000488,187.89502,1.001465,256.008301c0.000488,68.112793,26.525879,132.149902,74.689453,180.312988
		c48.164062,48.163086,112.201172,74.686523,180.314453,74.686523c68.112793-0.000977,132.149902-26.525391,180.312988-74.689453
		s74.686523-112.201172,74.686523-180.314453c-0.000977-68.11377-26.525391-132.149902-74.689453-180.312988
		S324.114258,1.003418,256.000977,1.004395z M426.416016,426.419922
		c-45.464844,45.573242-105.955078,70.713867-170.328613,70.791016c-0.098145,0-0.197266,0-0.29541,0
		c-64.263184,0-124.697754-24.989258-170.201172-70.384766c-45.573242-45.464844-70.713867-105.955078-70.790039-170.328613
		C14.724121,192.124023,39.720215,131.57373,85.18457,86.000977l0.408203-0.408203
		c45.501465-45.388184,105.937988-70.375977,170.192383-70.375977c0.105957,0,0.203125,0,0.309082,0.000488
		c64.373535,0.080078,124.862793,25.223633,170.324707,70.799316c45.382812,45.495605,70.375977,105.941406,70.375,170.202148
		C496.793945,320.479492,471.799805,380.924805,426.416016,426.419922z"/>
	<path style="fill:#2A3038;" d="M250.918945,464.953125c-49.594727-1.208008-97.271973-20.086914-134.248535-53.15918
		c-1.305176-1.1875-2.964355-1.828125-4.708984-1.828125c-0.112305,0-0.225098,0.00293-0.338379,0.007812
		c-1.867676,0.088867-3.588867,0.899414-4.847168,2.282227c-1.258789,1.382812-1.902832,3.172852-1.814941,5.041016
		c0.088379,1.867188,0.898438,3.588867,2.28125,4.847656l0.079102,0.070312
		c44.408691,39.723633,101.614746,59.772461,161.088867,56.459961c59.474609-3.3125,114.100586-29.586914,153.814453-73.984375
		c35.292969-39.455078,55.438477-90.329102,56.726562-143.25c1.289062-52.921875-16.358398-104.71582-49.69043-145.841309
		c-2.451172-2.973145-6.869141-3.400879-9.847656-0.949707c-2.9375,2.418457-3.394531,6.803223-1.018555,9.774902
		c35.144531,43.369141,51.297852,97.834961,45.481445,153.358887c-5.816406,55.524414-32.90625,105.459961-76.280273,140.608398
		C349.052734,449.625,300.507812,466.143555,250.918945,464.953125z"/>
	<path style="fill:#2A3038;" d="M256.069763,34.004272c-30.951111,0-60.962341,6.264526-89.200012,18.619629
		c-29.221863,12.785828-54.908936,31.423889-76.347656,55.396423c-35.124268,39.275696-55.174316,89.915161-56.456665,142.59021
		c-1.282288,52.674927,16.279907,104.230042,49.451416,145.168335c1.143921,1.40979,2.843933,2.218994,4.663452,2.218994
		c1.388733,0,2.694275-0.463684,3.775574-1.341003c1.244568-1.009766,2.021484-2.443787,2.187439-4.037842
		c0.166077-1.594055-0.298584-3.157349-1.308411-4.401917C62.665161,350.922546,46.032837,303.968201,46,256.001343
		C46,140.205627,140.205627,46,256,46l0.143494-0.000061c51.683044-0.000732,101.350403,18.988281,139.852783,53.469177
		c1.1203,1.02063,2.554565,1.576355,4.05127,1.576355c1.68573,0,3.303162-0.714111,4.437561-1.959167
		c2.228149-2.445557,2.05127-6.247925-0.394287-8.476074l-0.078186-0.070007
		c-40.767639-36.458496-93.298706-56.532593-147.929321-56.53595l-0.006775-0.999756
		c-0.002258,0-0.004517,0.000061-0.006775,0.000061V34.004272z"/>
</g>
<path style="fill:#FFFFFF;" d="M451.523438,353.621185L413.038086,349L384,360.5l-25.168945,21.752045L349,413v22.596191
	l9.831055,31.181488L381,486l23.428223,13.333344l27.852539,6.674469l19.242676-6.674469L474.331055,482l18.837891-22
	l6.164398-32.496094c0,0,5.333344-30.508179,0-34.506042S482,371,482,371L451.523438,353.621185z"/>
<polygon style="fill:#F36C6D;" points="404.428223,392.997864 404.428223,454.743774 418,454.743774 467.773438,425.998566 456,414 
	"/>
<path style="fill:#2A3038;" d="M502.372986,458.271912C506.770325,448.02063,509,437.145996,509,425.950195
	c0-11.136536-2.229614-21.980591-6.627014-32.231018c-8.765442-20.435181-23.571899-35.241272-44.008057-44.00708
	c-10.253235-4.398804-21.09729-6.629089-32.23114-6.629089c-11.135437,0-22.008423,2.229553-32.316833,6.626709
	c-20.62677,8.797546-35.523926,23.604431-44.277771,44.00946C345.200073,403.832581,343,414.676697,343,425.950195
	c0,11.331909,2.200134,22.206543,6.539246,32.321899c8.77948,20.464294,23.67804,35.304199,44.281738,44.107483
	C404.141907,506.772217,415.014404,509,426.133789,509c11.114807,0,21.960449-2.229248,32.235718-6.625854
	C478.775024,493.601013,493.580994,478.76239,502.372986,458.271912z M452.877686,489.748413
	c-8.500854,3.701477-17.250122,5.501587-26.743896,5.501587c-12.487061,0-24.18634-3.124634-34.772766-9.28717
	c-10.595764-6.187317-19.085144-14.677307-25.234741-25.235535c-6.167725-10.579956-9.295227-22.280945-9.295227-34.7771
	c0-12.422363,3.126831-24.06189,9.293579-34.595398c6.204834-10.601746,14.695068-19.091797,25.234558-25.234131
	c10.57489-6.167297,22.274963-9.294495,34.774597-9.294495c12.421997,0,24.06189,3.12677,34.596375,9.293518
	c10.538513,6.169495,18.998291,14.658325,25.144409,25.230591c6.167297,10.608459,9.294373,22.249512,9.294373,34.599915
	c-0.000977,9.364929-1.853821,18.427002-5.506958,26.934631c-3.697754,8.615906-8.649475,16.065613-14.717529,22.141724
	C468.87146,481.085449,461.447998,486.037781,452.877686,489.748413z"/>
<path style="fill:#2A3038;" d="M419.537659,462.712769l0.057739-0.032898c4.588135-2.617065,11.52179-6.572021,20.826904-11.969482
	l26.572266-15.413086c1.491943-0.864502,2.691956-2.05481,3.777161-3.746399c1.035156-1.609131,1.559326-3.492798,1.559326-5.600708
	c0-2.462646-0.7677-4.706299-2.220215-6.488403c-0.918945-1.12677-1.939697-2.005066-3.120178-2.684448
	c-0.631104-0.363586-1.90271-1.104614-3.816467-2.22052l-0.076599-0.044678
	c-4.492554-2.618958-12.01178-7.002319-22.942322-13.321716l-26.662903-15.411011
	c-1.753967-1.013489-3.565186-1.527405-5.383362-1.527405c-1.808838,0-3.640625,0.508057-5.444458,1.51001
	c-3.422607,1.901672-5.634277,5.577637-5.634277,9.364929v61.824219c0,4.069275,1.876099,7.301514,5.425476,9.34729
	c1.686035,0.973755,3.565857,1.446655,5.748352,1.446655c0.309814,0,0.626587-0.009583,0.947754-0.028687
	c1.391663-0.081055,2.811768-0.56958,4.223328-1.452271C414.030396,465.854675,415.938843,464.764832,419.537659,462.712769z
	 M411.038086,448.350586v-44.524414v-3.464661l3.000244,1.732727l12.866211,7.430664
	c5.391968,3.11377,9.994263,5.749268,13.796204,7.925964c3.655823,2.093689,6.532288,3.741028,8.694641,5.002197l3.135803,1.829102
	l2.961121,1.727295l-2.960876,1.727722l-1.71875,1.00293c-7.784729,4.541443-14.917847,8.666199-20.649353,11.98053
	l-0.055725,0.032227c-5.834167,3.374817-11.344788,6.562439-16.058716,9.323486l-3.010803,1.763489V448.350586z"/>
<polygon style="fill:#D2EFFF;" points="371,186.333328 141.666672,186.333328 139,343.083008 144.333328,349 359.666656,349 
	371,343.083008 "/>
<g>
	<path style="fill:#B3DAF5;" d="M159.017792,255.916687v75.5849c0,1.20636,1.018646,2.22406,2.224075,2.22406H350.5271
		c1.205444,0,2.224091-1.017761,2.224091-2.22406v-75.5849h-67.452789v6.664185c0,6.132263-4.988159,11.120422-11.120392,11.120422
		h-36.587036c-6.132187,0-11.120407-4.988159-11.120407-11.120422v-6.664185H159.017792z"/>
	<rect x="239.815109" y="238.818787" style="fill:#B3DAF5;" width="32.138828" height="21.538879"/>
	<path style="fill:#B3DAF5;" d="M352.75119,202.557388c0-1.205444-1.018646-2.224091-2.224091-2.224091H161.241867
		c-1.205429,0-2.224075,1.017776-2.224075,2.224091v40.014755h67.452835v-5.978302
		c0-6.132233,4.988159-11.120392,11.120392-11.120392h36.58699c6.132233,0,11.120392,4.988159,11.120392,11.120392v5.978302
		h67.452789V202.557388z"/>
</g>
<polygon style="fill:#FFFFFF;" points="250.333328,227.666672 231,227.666672 231,263.666656 273.94751,267.666656 281,259.529999 
	281,227.666672 "/>
<path style="fill:#2A3038;" d="M362.268494,177.05899h-27.600006v-26.710999c0-6.893005-5.606995-12.5-12.5-12.5H189.600494
	c-6.893005,0-12.5,5.606995-12.5,12.5v26.710999h-27.599991c-9.649002,0-17.5,7.851013-17.5,17.5V339.5
	c0,9.648987,7.850998,17.5,17.5,17.5h212.76799c9.649017,0,17.5-7.851013,17.5-17.5V194.55899
	C379.768494,184.908997,371.917511,177.05899,362.268494,177.05899z M192.100494,152.847992h127.569v24.210999h-127.569V152.847992z
	 M149.500504,192.05899h212.76799c1.355011,0,2.5,1.144989,2.5,2.5v44.979004H288.94751v-6.720001
	c0-6.893005-5.606995-12.5-12.5-12.5h-41.126007c-6.89299,0-12.5,5.606995-12.5,12.5v6.720001h-75.820999V194.55899
	C147.000504,193.203003,148.145508,192.05899,149.500504,192.05899z M273.94751,235.319v24.210999h-36.126007V235.319
	C237.821503,235.319,273.94751,235.319,273.94751,235.319z M362.268494,342h-212.76799c-1.354996,0-2.5-1.143982-2.5-2.5v-84.96199
	h75.820999v7.490982c0,6.893005,5.606995,12.5,12.5,12.5h41.125977c6.893005,0,12.5-5.606995,12.5-12.5v-7.490982h75.821014V339.5
	C364.768494,340.855988,363.623505,342,362.268494,342z"/>
</svg>
