<?xml version="1.0" encoding="utf-8"?>
<!-- Generator: Adobe Illustrator 19.2.1, SVG Export Plug-In . SVG Version: 6.00 Build 0)  -->
<svg version="1.0" id="Слой_1" xmlns="http://www.w3.org/2000/svg" xmlns:xlink="http://www.w3.org/1999/xlink" x="0px" y="0px"
	 viewBox="0 0 283.990265 232.354645" style="enable-background:new 0 0 283.990265 232.354645;" xml:space="preserve">
<path style="fill:#2A3038;" d="M257.365997,203.569641H26.660261l-0.08313-0.000549l-0.063965,0.000427
	c-2.6922,0.03241-4.86084,2.253662-4.82843,4.951416c0.032043,2.665588,2.226135,4.834167,4.890991,4.834167l0.066284-0.000427
	l230.709274-0.000061c2.705261,0,4.912842-2.197266,4.920959-4.898071
	C262.266815,205.76416,260.065887,203.569641,257.365997,203.569641z"/>
<path style="fill:#2A3038;" d="M257.365997,222.569641H26.660261l-0.08313-0.000549l-0.063965,0.000427
	c-2.6922,0.03241-4.86084,2.253662-4.82843,4.951416c0.032043,2.665588,2.226135,4.834167,4.890991,4.834167l0.066284-0.000427
	l230.709274-0.000061c2.705261,0,4.912842-2.197266,4.920959-4.898071
	C262.266815,224.76416,260.065887,222.569641,257.365997,222.569641z"/>
<circle style="fill:#F59899;" cx="26.843975" cy="76.206528" r="23.843975"/>
<circle style="fill:#F36C6D;" cx="26.843975" cy="76.206528" r="13.019756"/>
<circle style="fill:#F59899;" cx="142.510635" cy="26.750488" r="23.843975"/>
<circle style="fill:#F36C6D;" cx="142.510635" cy="26.750488" r="13.019756"/>
<circle style="fill:#F59899;" cx="258.146301" cy="76.083824" r="23.843975"/>
<circle style="fill:#F36C6D;" cx="258.146301" cy="76.083824" r="13.019756"/>
<polygon style="fill:#C6E1F5;" points="142.510635,50.594463 82.68795,118.713951 29.276606,99.927795 26.466139,133.380615 
	28.354618,180.713943 257.621277,180.713943 257.621277,97.047279 200.030609,117.713951 "/>
<path style="fill:#ACD1EB;" d="M243.264954,169.881531h0.460953v-0.921356v-60.707603v-1.308632v-1.30864l-1.231995,0.441216
	l-1.231979,0.441216l-43.765137,15.673935c-0.492111,0.173599-1.005264,0.261658-1.525146,0.261658
	c-1.349625,0-2.624023-0.589165-3.494583-1.61438L143.40332,62.714806l-0.703949-0.83379l-0.703934-0.833733l-0.70401,0.833675
	l-0.703995,0.833679L91.50312,120.841476c-0.865623,1.029144-2.133598,1.619385-3.478729,1.619385
	c-0.522308,0-1.0373-0.089584-1.530647-0.266273l-43.764015-15.676796l-1.232044-0.441277l-1.232044-0.44133v1.308693v1.308693
	v60.707603v0.921356v0.921341h0.921349h0.921349h199.795166h0.93158l-0.005112-0.460281h0.434982V169.881531z"/>
<polygon style="opacity:0.05;fill:#2A3038;" points="184.021286,94.713951 141.978317,182.047287 257.621277,180.713943 
	255.687958,100.050499 204.687958,119.380615 "/>
<path style="fill:#2A3038;" d="M21.723249,103.567627v76.799988c0.006287,2.696411,2.207886,4.892029,4.907715,4.892029h230.703293
	c2.707214,0,4.914734-2.196655,4.921021-4.896729v-76.795288v-0.789917v-0.789856l0.768433-0.182922l0.768433-0.182922
	c11.85144-2.821472,20.157288-13.300476,20.19812-25.483093c0-14.579407-11.865417-26.443298-26.450012-26.443298
	c-14.584579,0-26.449997,11.865417-26.449997,26.450012c0.021729,7.466064,3.255127,14.575562,8.871033,19.502563l1.276978,1.120361
	l1.276978,1.120361l-1.599304,0.572815l-1.599304,0.572754l-35.883911,12.85199l-0.653687,0.234131l-0.653564,0.234009
	l-0.447754-0.530457l-0.447815-0.530579l-48.64209-57.636047l-0.8479-1.0047l-0.8479-1.004761l1.194641-0.548889l1.194641-0.548889
	c6.427185-2.953247,11.319763-8.232727,13.776245-14.865845s2.182861-13.825745-0.770325-20.252991
	C161.979782,6.057251,152.527756,0.000061,142.207016,0c-3.82196-0.000061-7.53595,0.81604-11.038696,2.425476
	c-13.268066,6.09668-19.102539,21.850891-13.005981,35.118835c2.590881,5.638428,7.105103,10.208496,12.711243,12.868408
	l1.173096,0.55658l1.173157,0.55658l-0.837769,0.992065l-0.837769,0.992004l-48.772949,57.760986l-0.447571,0.530151
	l-0.447632,0.530151l-0.65332-0.233765l-0.653381-0.233765l-35.879032-12.83905l-1.599365-0.572327l-1.599426-0.572388
	l1.276672-1.120728l1.276611-1.120605c5.617126-4.931274,8.850952-12.046265,8.872375-19.520752
	c0.105896-14.595947-11.677185-26.553101-26.266356-26.658997l-0.199707-0.000671
	c-14.47821-0.000427-26.345398,11.782959-26.4505,26.267151c-0.089417,12.330505,8.215454,22.980591,20.195923,25.899109
	l0.763306,0.185974l0.763306,0.185913v0.785645V103.567627z M241.073471,76.067139
	c0.043701-9.080383,7.46637-16.468018,16.54631-16.468384l0.078857,0.000183
	c9.082275,0.043701,16.46991,7.466431,16.470642,16.546509c-0.037476,9.127136-7.488037,16.549194-16.608643,16.549194h-0.002441
	h-0.016479C248.417221,92.650696,241.029648,85.191589,241.073471,76.067139z M125.591293,26.75177
	c0.023132-9.125977,7.463196-16.548706,16.585144-16.549194c4.433777,0.020935,8.590454,1.76355,11.709106,4.906799
	c3.117249,3.141907,4.82251,7.303955,4.801575,11.719543c-0.043091,9.081299-7.465759,16.469482-16.546326,16.469482h-0.000732
	h-0.000793l-0.075378-0.000122C132.980148,43.255188,125.592026,35.832458,125.591293,26.75177z M81.755722,122.729797
	c0.535461,0.191772,1.094421,0.289001,1.661316,0.289001c1.459961,0,2.836182-0.640625,3.775696-1.757629l53.274475-63.088928
	l0.764099-0.904846l0.764099-0.904846l0.764038,0.904907l0.764038,0.904968l53.263,63.085999
	c0.944885,1.112732,2.328064,1.752197,3.792908,1.752197c0.56427,0,1.121216-0.095581,1.655334-0.283997l47.501221-17.011963
	l1.337158-0.478882l1.337158-0.478882v1.420349v1.420349v65.890015v1h-0.500305v0.500427h-0.472107l0.005554,0.499573h-1.011108
	H33.58128h-1h-0.999998v-1v-1v-65.890015v-1.42041v-1.42041l1.337217,0.479004l1.337219,0.478943L81.755722,122.729797z
	 M9.858259,76.152588c-0.036926-9.156738,7.38324-16.636902,16.540833-16.673889l0.0672-0.000061
	c9.121214-0.000793,16.570921,7.419434,16.607725,16.540894c0.036987,9.157532-7.383179,16.637939-16.54077,16.674988
	l-0.054688,0.000122h-0.001099h-0.019653C17.336714,92.694641,9.89012,85.273926,9.858259,76.152588z"/>
</svg>
