<?xml version="1.0" encoding="utf-8"?>
<!-- Generator: Adobe Illustrator 19.2.1, SVG Export Plug-In . SVG Version: 6.00 Build 0)  -->
<svg version="1.0" id="Слой_1" xmlns="http://www.w3.org/2000/svg" xmlns:xlink="http://www.w3.org/1999/xlink" x="0px" y="0px"
	 viewBox="0 0 256.125854 286.094727" style="enable-background:new 0 0 256.125854 286.094727;" xml:space="preserve">
<polygon style="fill:#B3DAF5;" points="250.563416,259.844727 243.563416,274.17807 228.563293,280.511383 89.563812,280.511383 
	75.557861,272.511383 70.563416,259.844727 70.563416,88.511391 250.563416,88.511391 "/>
<path style="fill:#FF9D9E;" d="M160.893524,167.178055l-6.995148-9.622513l-12.334961-5.377487c0,0-10.333328,2-11.333328,2
	s-7.825058,7-7.825058,7l-5.17495,11l2.565758,15.666672l12.767578,16l16,13.333328l12.330109,11l11.00322-8
	c0,0,11.333344-12.333328,12.333344-13c1-0.666656,13.333328-14.333328,13.333328-14.333328s6.333328-11,6.333328-12.666672
	c0-1.666656,0-15,0-15l-11.666656-10.333328l-10.333344-4.333328l-15.100906,7.044144L160.893524,167.178055z"/>
<path style="fill:#F36C6D;" d="M193.37886,177.838791c0-8.423416-6.350082-15.276352-14.155426-15.276352
	c-7.806686,0-14.157913,6.852936-14.157913,15.276352c0,2.370331-1.873413,4.298752-4.176147,4.298752
	c-2.303192,0-4.177017-1.928421-4.177017-4.298752c0-8.423416-6.350082-15.276352-14.15538-15.276352
	c-7.801697,0-14.148788,6.852936-14.148788,15.276352c0,5.356979,3.381714,11.733032,10.338501,19.492477
	c5.240097,5.844681,12.213577,12.083496,19.635803,17.567139l2.507355,1.852448l2.50766-1.852127
	c7.424072-5.483505,14.399048-11.721909,19.64006-17.566071C189.996216,189.573166,193.37886,183.196701,193.37886,177.838791z"/>
<path style="fill:#2A3038;" d="M209.278748,175.654907c0-15.597351-11.963196-28.286743-26.66803-28.286743
	c-6.773621,0-13.23761,2.711243-18.201111,7.634155l-3.521301,3.492554l-3.520996-3.492859
	c-4.962463-4.922791-11.425598-7.63385-18.198853-7.63385h-0.000061c-14.701538,0-26.662109,12.689392-26.662109,28.286743
	c0,11.112305,7.8526,24.083923,23.339661,38.554382c11.00061,10.278625,21.894165,17.588379,22.352478,17.894531
	c0.802429,0.535217,1.733521,0.81897,2.690186,0.81897c0.95636,0,1.88678-0.283447,2.690796-0.819702
	c0.45697-0.304993,11.33667-7.598633,22.355164-17.89209C201.424744,199.741882,209.278748,186.769836,209.278748,175.654907z
	 M163.860229,219.563354l-2.971069,2.194397l-2.970703-2.194763c-8.793823-6.497009-17.055969-13.888733-23.264404-20.813477
	c-8.242371-9.193359-12.249023-16.747681-12.249023-23.094604c0-9.980042,7.52002-18.099365,16.763428-18.099365
	c9.247681,0,16.77124,8.119324,16.77124,18.099365c0,2.80835,2.220093,5.09314,4.948914,5.09314
	c2.728271,0,4.947876-2.28479,4.947876-5.09314c0-9.980042,7.524902-18.099365,16.774231-18.099365
	c9.247742,0,16.771301,8.119324,16.771301,18.099365c0,6.348022-4.007751,13.902832-12.252319,23.096252
	C180.920166,205.675293,172.65625,213.066528,163.860229,219.563354z"/>
<path style="fill:#2A3038;" d="M65.661133,255.649521c0,16.787491,13.377258,30.445206,29.820068,30.445206h130.825562
	c7.936462,0,15.411682-3.161835,21.048523-8.903046c5.656189-5.760834,8.770996-13.411224,8.770569-21.541916V88.457443
	c0-2.819145-2.220032-5.112717-4.948853-5.112717H70.607056c-2.728271,0-4.947876,2.293571-4.947876,5.112717v23.305679v5.019226h-5
	H29.818054c-7.93634,0-15.411438,3.161949-21.048279,8.903358C3.113709,131.446838-0.000854,139.097351,0,147.227982v32.932205
	c0,16.787491,13.377197,30.445129,29.820068,30.445129h30.841064h5v5.019226V255.649521z M75.557861,98.590424v-5.019218h5
	h160.671204h5v5.019218v157.059097c0,11.148056-8.937134,20.217697-19.922302,20.217697H95.480225
	c-10.985229,0-19.922363-9.069641-19.922363-20.217697V98.590424z M65.65918,132.028046v63.32962v5.019211h-5H29.818054
	c-10.985168,0-19.922302-9.069641-19.922302-20.217743v-32.932632c0-11.148026,8.937134-20.217674,19.922302-20.217674H60.65918h5
	V132.028046z"/>
<path style="opacity:0.05;fill:#2A3038;" d="M236.229065,255.649536V98.590454v-5.019226h-5h-17.216431l-92.739197,182.295959
	h95.033325C227.291931,275.867188,236.229065,266.797546,236.229065,255.649536z"/>
<path style="fill:#F36C6D;" d="M208.346619,16c-3.555664,0-6.448242,2.958008-6.448242,6.594238v33.30957
	c0,3.63623,2.892578,6.594238,6.448242,6.594238s6.449219-2.958008,6.449219-6.594238v-33.30957
	C214.795837,18.958008,211.902283,16,208.346619,16z"/>
<path style="fill:#F36C6D;" d="M160.346619,0c-3.555664,0-6.448242,2.958008-6.448242,6.594238v33.30957
	c0,3.63623,2.892578,6.594238,6.448242,6.594238s6.449219-2.958008,6.449219-6.594238V6.594238
	C166.795837,2.958008,163.902283,0,160.346619,0z"/>
<path style="fill:#F36C6D;" d="M113.346619,17c-3.555664,0-6.448242,2.958008-6.448242,6.594238v33.30957
	c0,3.63623,2.892578,6.594238,6.448242,6.594238s6.449219-2.958008,6.449219-6.594238v-33.30957
	C119.795837,19.958008,116.902283,17,113.346619,17z"/>
</svg>
