<?xml version="1.0" encoding="utf-8"?>
<!-- Generator: Adobe Illustrator 19.2.1, SVG Export Plug-In . SVG Version: 6.00 Build 0)  -->
<svg version="1.0" id="Слой_1" xmlns="http://www.w3.org/2000/svg" xmlns:xlink="http://www.w3.org/1999/xlink" x="0px" y="0px"
	 viewBox="0 0 406.005981 415.808228" style="enable-background:new 0 0 406.005981 415.808228;" xml:space="preserve">
<polygon style="fill:#F36C6D;" points="132.505981,11.995224 189.005981,47.939514 132.505981,86.995224 128.005981,83.582855 
	128.005981,14.995224 "/>
<polygon style="fill:#F36C6D;" points="276.005981,328.495239 218.005981,367.872162 276.005981,405.995239 "/>
<path style="fill:#2A3038;" d="M284.070007,408.629395v-30.570251v-3h3c65.581543,0,118.935974-53.488586,118.935974-119.234985
	c0.002869-1.920166-0.740479-3.72229-2.09314-5.078857c-1.3526-1.356628-3.152527-2.105286-5.068298-2.108154h-0.000549
	c-3.951111,0.003906-7.164856,3.223999-7.161011,7.178101c0,57.834961-46.929199,104.879944-104.612976,104.879944h-3v-3v-30.571045
	c0-2.654419-1.451599-5.085693-3.78833-6.345093c-1.031067-0.555542-2.195312-0.849304-3.366516-0.849304
	c-1.416748,0-2.786865,0.417725-3.96228,1.208008l-60.973831,40.752625c-1.598389,1.068604-2.685181,2.696167-3.059814,4.58252
	c-0.374634,1.886292,0.00769,3.805664,1.076599,5.404419c0.525757,0.786316,1.190796,1.452148,1.976624,1.978943
	l60.964554,40.745728c1.181213,0.78894,2.552734,1.206238,3.965698,1.206238c2.401672,0,4.63031-1.190063,5.96167-3.18335
	C283.657043,411.438171,284.073975,410.05658,284.070007,408.629395z M269.747009,346.163147v43.41803v5.613037l-4.666931-3.118774
	l-32.485001-21.708984l-3.732422-2.494324l3.732422-2.494263l32.485001-21.708984l4.666931-3.118774V346.163147z"/>
<path style="fill:#2A3038;" d="M194.032715,41.962585l-60.96283-40.747192C131.887939,0.417786,130.521973,0,129.108643,0
	c-1.168762-0.000061-2.330261,0.294067-3.358948,0.850708c-2.360352,1.259155-3.815674,3.686951-3.813721,6.344299V37.75824v3h-3
	C53.354431,40.75824,0,94.25177,0,160.004211c0,3.948853,3.212646,7.161499,7.161499,7.161499s7.161499-3.212646,7.161499-7.161499
	c0-57.826599,46.929199-104.872009,104.612976-104.872009h3v3v30.552002c-0.007324,1.923523,0.730286,3.723877,2.077026,5.080994
	c1.346741,1.357178,3.141479,2.108643,5.053406,2.115906c1.447632,0.000122,2.822388-0.416809,4.003235-1.205566
	l60.967041-40.757324c3.292908-2.209106,4.17572-6.690735,1.963928-9.987671
	C195.476318,43.148926,194.814148,42.486816,194.032715,41.962585z M173.409851,50.439453l-32.484009,21.709045l-4.66687,3.118896
	v-5.613159v-43.42804v-5.614563l4.667419,3.120667L173.4104,45.451294l3.730896,2.494507L173.409851,50.439453z"/>
<path style="fill:#FFFFFF;" d="M222.505981,140.995224l-50.5,6l-39,15.268326l-60,43.55304l25.60376,23.678635l37.649231,25.5
	l32.247009,9.889236l51.5,8.110779l39.893005-10l43.106995-22.000015l39-34c0,0-29.5-26.5-31-27s-41.258972-24-41.258972-24
	l-20.442184-9L222.505981,140.995224z"/>
<circle style="fill:#D3EDFF;" cx="206.404099" cy="208.543076" r="64.452148"/>
<circle style="fill:#B3DAF5;" cx="206.404099" cy="208.543076" r="50.012039"/>
<g>
	<path style="fill:#2A3038;" d="M203.232056,186.950439c-4.856567,0.645813-9.33667,2.868042-12.834351,6.411255
		c-4.167969,4.222229-6.442261,9.81488-6.40387,15.74762c0.078613,12.168396,10.040894,22.068054,22.207581,22.068054
		l0.147034-0.000549c11.21051-0.072449,20.495178-8.534241,21.887573-19.381226
		C215.184143,210.359497,204.750183,199.987244,203.232056,186.950439z"/>
	<path style="fill:#2A3038;" d="M207.487976,136.986572c-68.340637,0-119.696777,46.247009-138.604797,66.130554
		c-2.551697,2.679199-2.551697,6.873962-0.001587,9.551514c18.899963,19.88623,70.235657,66.134155,138.606384,66.134155
		c68.364136,0,119.70575-46.248108,138.606384-66.132019c2.551514-2.679565,2.551514-6.874573,0.001831-9.552246
		C327.194214,183.233276,275.853394,136.986572,207.487976,136.986572z M140.413757,248.591003
		c-24.050354-11.730225-42.872925-27.430481-54.42804-38.535828l-2.25116-2.163452l2.251709-2.163025
		c11.918335-11.448975,31.324402-27.5672,56.092163-39.336548l8.688416-4.128601l-4.80127,8.335632
		c-13.172729,22.869812-13.76178,50.499817-1.575684,73.910278l4.200684,8.069641L140.413757,248.591003z M230.275696,262.842346
		l-0.418396,0.212524l-0.463318,0.074524c-7.237183,1.164551-14.623596,1.755066-21.953979,1.755066
		c-8.768372,0-17.579712-0.84259-26.189209-2.504395l-0.456299-0.088074l-0.408203-0.221985
		c-18.917175-10.286316-30.668762-30.635193-30.668762-53.105713c0-25.704712,15.450989-48.459534,38.447815-56.622559
		l0.288025-0.102234l0.302734-0.042053c6.169678-0.856995,12.456726-1.291565,18.686646-1.291626
		c4.702454,0,9.457092,0.248108,14.133301,0.737305l0.303223,0.031738l0.290649,0.092102
		c23.666992,7.497986,40.196289,31.018433,40.196289,57.197327C262.366211,231.794312,249.769958,252.942749,230.275696,262.842346z
		 M328.993164,210.057312c-12.419067,11.934509-32.65564,28.644226-58.536072,40.474854l-0.594055,0.271545h-0.653198h-2.955994
		l-0.609192,0.278442l0.156494-0.278442h-1.718872l2.510376-4.46991c13.601135-24.198669,12.990479-53.903687-1.593506-77.522949
		l-5.100159-8.259827l8.871033,3.9422c26.609619,11.825012,47.436829,28.952148,60.223022,41.237732l2.251221,2.163086
		L328.993164,210.057312z"/>
</g>
</svg>
