<?xml version="1.0" encoding="utf-8"?>
<!-- Generator: Adobe Illustrator 19.2.1, SVG Export Plug-In . SVG Version: 6.00 Build 0)  -->
<svg version="1.0" id="Слой_1" xmlns="http://www.w3.org/2000/svg" xmlns:xlink="http://www.w3.org/1999/xlink" x="0px" y="0px"
	 viewBox="0 0 512 512" style="enable-background:new 0 0 512 512;" xml:space="preserve">
<g>
	<circle style="fill:#B3DAF5;" cx="255.748703" cy="255.748703" r="248.584641"/>
	<circle style="fill:#FFFFFF;" cx="255.748703" cy="255.748688" r="217.024734"/>
	<path style="fill:#2A3038;" d="M256.000977,1.004395C187.887695,1.004883,123.851074,27.530273,75.687988,75.693848
		C27.524902,123.85791,1.000488,187.89502,1.001465,256.008301c0.000488,68.112793,26.525879,132.149902,74.689453,180.312988
		c48.164062,48.163086,112.201172,74.686523,180.314453,74.686523c68.112793-0.000977,132.149902-26.525391,180.312988-74.689453
		s74.686523-112.201172,74.686523-180.314453c-0.000977-68.11377-26.525391-132.149902-74.689453-180.312988
		S324.114258,1.003418,256.000977,1.004395z M426.416016,426.419922
		c-45.464844,45.573242-105.955078,70.713867-170.328613,70.791016c-0.098145,0-0.197266,0-0.29541,0
		c-64.263184,0-124.697754-24.989258-170.201172-70.384766c-45.573242-45.464844-70.713867-105.955078-70.790039-170.328613
		C14.724121,192.124023,39.720215,131.57373,85.18457,86.000977l0.408203-0.408203
		c45.501465-45.388184,105.937988-70.375977,170.192383-70.375977c0.105957,0,0.203125,0,0.309082,0.000488
		c64.373535,0.080078,124.862793,25.223633,170.324707,70.799316c45.382812,45.495605,70.375977,105.941406,70.375,170.202148
		C496.793945,320.479492,471.799805,380.924805,426.416016,426.419922z"/>
	<path style="fill:#2A3038;" d="M250.918945,464.953125c-49.594727-1.208008-97.271973-20.086914-134.248535-53.15918
		c-1.305176-1.1875-2.964355-1.828125-4.708984-1.828125c-0.112305,0-0.225098,0.00293-0.338379,0.007812
		c-1.867676,0.088867-3.588867,0.899414-4.847168,2.282227c-1.258789,1.382812-1.902832,3.172852-1.814941,5.041016
		c0.088379,1.867188,0.898438,3.588867,2.28125,4.847656l0.079102,0.070312
		c44.408691,39.723633,101.614746,59.772461,161.088867,56.459961c59.474609-3.3125,114.100586-29.586914,153.814453-73.984375
		c35.292969-39.455078,55.438477-90.329102,56.726562-143.25c1.289062-52.921875-16.358398-104.71582-49.69043-145.841309
		c-2.451172-2.973145-6.869141-3.400879-9.847656-0.949707c-2.9375,2.418457-3.394531,6.803223-1.018555,9.774902
		c35.144531,43.369141,51.297852,97.834961,45.481445,153.358887c-5.816406,55.524414-32.90625,105.459961-76.280273,140.608398
		C349.052734,449.625,300.507812,466.143555,250.918945,464.953125z"/>
	<path style="fill:#2A3038;" d="M256.069763,34.004272c-30.951111,0-60.962341,6.264526-89.200012,18.619629
		c-29.221863,12.785828-54.908936,31.423889-76.347656,55.396423c-35.124268,39.275696-55.174316,89.915161-56.456665,142.59021
		c-1.282288,52.674927,16.279907,104.230042,49.451416,145.168335c1.143921,1.40979,2.843933,2.218994,4.663452,2.218994
		c1.388733,0,2.694275-0.463684,3.775574-1.341003c1.244568-1.009766,2.021484-2.443787,2.187439-4.037842
		c0.166077-1.594055-0.298584-3.157349-1.308411-4.401917C62.665161,350.922546,46.032837,303.968201,46,256.001343
		C46,140.205627,140.205627,46,256,46l0.143494-0.000061c51.683044-0.000732,101.350403,18.988281,139.852783,53.469177
		c1.1203,1.02063,2.554565,1.576355,4.05127,1.576355c1.68573,0,3.303162-0.714111,4.437561-1.959167
		c2.228149-2.445557,2.05127-6.247925-0.394287-8.476074l-0.078186-0.070007
		c-40.767639-36.458496-93.298706-56.532593-147.929321-56.53595l-0.006775-0.999756
		c-0.002258,0-0.004517,0.000061-0.006775,0.000061V34.004272z"/>
</g>
<polygon style="fill:#F59899;" points="303.5,146.5 281,146.5 262.5,146.5 250.5,152.481674 236.5,159.5 229,175 229,197.5 
	225,215.50119 206.5,219 206.5,254 226.5,256.213867 228,361.5 241,365.5 263,365.5 271,363 273.5,256.213867 
	300.597961,255.551422 306.5,215.50119 272.5,215.50119 271.5,199.5 275,186.5 285,183 306.5,184.5 306.5,148 "/>
<path style="fill:#F36C6D;" d="M292.127472,250.907379h1.418671l0.145447-1.411133l2.250092-21.83403l0.17865-1.733551h-1.742798
	h-23.900116c-2.600983,0-4.717133-2.116089-4.717133-4.717133v-20.228577c0-10.408066,7.169312-14.101074,13.308624-14.101074
	h15.473755h1.572388v-1.572388v-20.859848v-1.566055l-1.566071-0.006317l-23.731079-0.095917
	c-13.174744,0-22.958664,4.21666-29.080231,12.533096c-6.340927,8.617798-7.025482,19.389923-7.025482,23.621246v22.275833
	c0,2.601044-2.116074,4.717133-4.717087,4.717133h-12.963394h-1.572388v1.572372v21.833969v1.572372h1.572388h12.964172
	c2.601059,0,4.717133,2.116089,4.717133,4.717133v91.124603v1.572357h1.572372h27.902573h1.572388v-1.572357v-91.124542
	c0-2.601105,2.116119-4.717194,4.717133-4.717194H292.127472z"/>
<path style="fill:#2A3038;" d="M221.890427,363.862c0,2.889832,2.351028,5.240845,5.240829,5.240845h44.978607
	c2.889801,0,5.240845-2.351013,5.240845-5.240845V262.620392v-1.746948h1.746948h23.366302
	c2.695801,0.000061,4.937042-2.022125,5.213379-4.703644l3.939362-38.233612c0.143463-1.392532-0.263916-2.757538-1.147064-3.843674
	c-0.883179-1.08609-2.136505-1.76326-3.529022-1.906784c-0.177612-0.01828-0.358368-0.027557-0.537292-0.027557h-27.305664
	h-1.746948v-1.746948v-15.486649c0-3.634323,1.287323-5.184967,4.304504-5.184967h24.179474
	c2.889862,0,5.240845-2.351028,5.240845-5.240829V147.37619c0-2.878281-2.341644-5.229309-5.21991-5.240829L272.509247,142
	c-22.627075,0.002396-34.663559,9.894745-40.775299,18.193542c-8.566147,11.640152-9.84523,25.330856-9.84523,32.455658v17.761169
	v1.746948h-1.746948h-14.40094c-2.889801,0-5.240829,2.350967-5.240829,5.240829v38.233612
	c0,2.889816,2.351028,5.240829,5.240829,5.240829h14.402649h1.746948v1.746948V363.862z M212.728622,250.391785h-1.746948v-1.746948
	V224.38678v-1.746933h1.746948h14.402634c2.889816,0,5.240845-2.351044,5.240845-5.240845v-24.748947
	c0-4.701157,0.760559-16.669235,7.805435-26.24379c6.801239-9.239761,17.671402-13.924591,32.308823-13.924591l26.365814,0.106567
	l1.739929,0.007034v1.739914v23.175812v1.746933h-1.746948h-17.191711c-6.820892,0-14.786163,4.103043-14.786163,15.666641
	v22.474426c0,2.889801,2.351013,5.240845,5.240845,5.240845h26.553558h1.936279l-0.198486,1.92601l-2.499878,24.258118
	l-0.161591,1.56781h-1.576202h-24.05365c-2.889801,0-5.240814,2.351028-5.240814,5.240891v101.241562v1.746948h-1.746948h-31.000443
	h-1.746948v-1.746948V255.632614c0-2.889801-2.351028-5.240829-5.240829-5.240829H212.728622z"/>
</svg>
