<?xml version="1.0" encoding="utf-8"?>
<!-- Generator: Adobe Illustrator 19.2.1, SVG Export Plug-In . SVG Version: 6.00 Build 0)  -->
<svg version="1.0" id="Слой_1" xmlns="http://www.w3.org/2000/svg" xmlns:xlink="http://www.w3.org/1999/xlink" x="0px" y="0px"
	 viewBox="0 0 512 512" style="enable-background:new 0 0 512 512;" xml:space="preserve">
<g>
	<circle style="fill:#B3DAF5;" cx="255.748703" cy="255.748703" r="248.584641"/>
	<circle style="fill:#FFFFFF;" cx="255.748703" cy="255.748688" r="217.024734"/>
	<path style="fill:#2A3038;" d="M256.000977,1.004395C187.887695,1.004883,123.851074,27.530273,75.687988,75.693848
		C27.524902,123.85791,1.000488,187.89502,1.001465,256.008301c0.000488,68.112793,26.525879,132.149902,74.689453,180.312988
		c48.164062,48.163086,112.201172,74.686523,180.314453,74.686523c68.112793-0.000977,132.149902-26.525391,180.312988-74.689453
		s74.686523-112.201172,74.686523-180.314453c-0.000977-68.11377-26.525391-132.149902-74.689453-180.312988
		S324.114258,1.003418,256.000977,1.004395z M426.416016,426.419922
		c-45.464844,45.573242-105.955078,70.713867-170.328613,70.791016c-0.098145,0-0.197266,0-0.29541,0
		c-64.263184,0-124.697754-24.989258-170.201172-70.384766c-45.573242-45.464844-70.713867-105.955078-70.790039-170.328613
		C14.724121,192.124023,39.720215,131.57373,85.18457,86.000977l0.408203-0.408203
		c45.501465-45.388184,105.937988-70.375977,170.192383-70.375977c0.105957,0,0.203125,0,0.309082,0.000488
		c64.373535,0.080078,124.862793,25.223633,170.324707,70.799316c45.382812,45.495605,70.375977,105.941406,70.375,170.202148
		C496.793945,320.479492,471.799805,380.924805,426.416016,426.419922z"/>
	<path style="fill:#2A3038;" d="M250.918945,464.953125c-49.594727-1.208008-97.271973-20.086914-134.248535-53.15918
		c-1.305176-1.1875-2.964355-1.828125-4.708984-1.828125c-0.112305,0-0.225098,0.00293-0.338379,0.007812
		c-1.867676,0.088867-3.588867,0.899414-4.847168,2.282227c-1.258789,1.382812-1.902832,3.172852-1.814941,5.041016
		c0.088379,1.867188,0.898438,3.588867,2.28125,4.847656l0.079102,0.070312
		c44.408691,39.723633,101.614746,59.772461,161.088867,56.459961c59.474609-3.3125,114.100586-29.586914,153.814453-73.984375
		c35.292969-39.455078,55.438477-90.329102,56.726562-143.25c1.289062-52.921875-16.358398-104.71582-49.69043-145.841309
		c-2.451172-2.973145-6.869141-3.400879-9.847656-0.949707c-2.9375,2.418457-3.394531,6.803223-1.018555,9.774902
		c35.144531,43.369141,51.297852,97.834961,45.481445,153.358887c-5.816406,55.524414-32.90625,105.459961-76.280273,140.608398
		C349.052734,449.625,300.507812,466.143555,250.918945,464.953125z"/>
	<path style="fill:#2A3038;" d="M256.069763,34.004272c-30.951111,0-60.962341,6.264526-89.200012,18.619629
		c-29.221863,12.785828-54.908936,31.423889-76.347656,55.396423c-35.124268,39.275696-55.174316,89.915161-56.456665,142.59021
		c-1.282288,52.674927,16.279907,104.230042,49.451416,145.168335c1.143921,1.40979,2.843933,2.218994,4.663452,2.218994
		c1.388733,0,2.694275-0.463684,3.775574-1.341003c1.244568-1.009766,2.021484-2.443787,2.187439-4.037842
		c0.166077-1.594055-0.298584-3.157349-1.308411-4.401917C62.665161,350.922546,46.032837,303.968201,46,256.001343
		C46,140.205627,140.205627,46,256,46l0.143494-0.000061c51.683044-0.000732,101.350403,18.988281,139.852783,53.469177
		c1.1203,1.02063,2.554565,1.576355,4.05127,1.576355c1.68573,0,3.303162-0.714111,4.437561-1.959167
		c2.228149-2.445557,2.05127-6.247925-0.394287-8.476074l-0.078186-0.070007
		c-40.767639-36.458496-93.298706-56.532593-147.929321-56.53595l-0.006775-0.999756
		c-0.002258,0-0.004517,0.000061-0.006775,0.000061V34.004272z"/>
</g>
<path style="fill:#F59899;" d="M286,290l-18-16.5l-12-13l15.291016-15.5L282,231.5l7-15.99884L284,194l-4-9.5l14.731689-12.5
	L304,156h-61.5l-47.562988,9.940979L179,179.5L168,199l-2.5,16.50116L170,239l13.885742,14.5L202,261.5l13,3l0.5,14l-19.480408,6.5
	L180,291.5L165.5,304L155,321l-4,15.5l7.05127,14.21698L168.5,365.5l22.5,9.100708L216,380h25.5l25-8.5l21-15.5l12-19.5l-1.5-25
	L286,290z M207.07605,222.5l-3.57605-17V192l7-8.5l9.523499-3.5l10.484009,3.5L243,195.5l7,16.18335V229l-7.5,11.5h-14.911621
	L216.5,233.5L207.07605,222.5z M260.229675,342L252,350.71698L237,356h-20.5l-15-5.28302L189.5,337v-12.5l6.519592-12
	l11.056458-5.954956L230.507507,300H238l14,6.545044L263,317l3.5,16L260.229675,342z"/>
<path style="fill:#F36C6D;" d="M264.521179,281.26767l-1.196838-0.890961
	c-11.347855-8.42981-13.699005-11.705688-14.548965-13.98877c-0.208984-0.562653-0.314331-1.152405-0.313004-1.753113
	c0.010681-5.461304,1.505219-8.327332,10.825989-15.612396c11.119263-8.680283,16.996521-19.344711,16.996521-30.840256
	c0-8.644928-2.154968-16.542526-6.231934-22.838974c-1.303772-2.01358-0.992981-4.679718,0.739044-6.339523l14.550842-13.947281
	l2.999725-2.875275h-4.155212h-53.765594c-13.729446,0.047363-27.054153,4.967484-37.528534,13.861618
	c-10.019196,8.627945-15.765549,20.051392-15.765549,31.341263c0,24.661942,16.277115,42.116638,40.503189,43.433624
	c0.210464,0.011505,0.42215,0.03653,0.629135,0.07431c1.316284,0.240692,2.460037,0.979492,3.220596,2.080414
	c0.760559,1.100891,1.046829,2.432068,0.806641,3.745911c-0.227509,1.233887-0.344421,2.495605-0.347305,3.734131
	c-0.027496,2.274963,0.424545,4.483765,1.346161,6.570648c0.26796,0.600769,0.413528,1.23877,0.432556,1.896393
	c0.079727,2.761139-2.101715,5.072235-4.862747,5.152039c-26.278946,0.758209-54.415497,19.038452-54.415497,45.042633
	c0,12.252319,8.87854,20.26474,16.326752,24.828827c11.294418,6.920441,27.232758,10.731659,44.87883,10.731659
	c15.552307,0,31.029312-4.373352,42.462387-11.998535c8.503326-5.670319,18.639648-15.720398,18.639648-31.397583
	C286.748016,302.97113,281.971466,294.371613,264.521179,281.26767z M203.687012,228.432312
	c-3.987274-7.890015-5.583298-16.466064-4.494156-24.148392c1.165512-8.226471,5.436127-14.764755,11.716858-17.938416
	c2.761032-1.39502,5.80661-2.10228,9.052261-2.10228c4.057495,0,8.325012,1.143204,12.34108,3.305908
	c6.831238,3.680038,12.78923,10.051834,16.77623,17.941513c8.675415,17.170853,5.502411,35.659195-7.222473,42.089813
	c-2.792786,1.408554-5.922302,2.153122-9.050262,2.153122l-0.091415-0.000168
	C221.619797,249.733414,210.225571,241.372269,203.687012,228.432312z M254.884567,344.76059
	c-7.38707,5.341309-17.120987,8.282867-27.408524,8.282867c-10.289642,0-20.023453-2.941528-27.408203-8.282684
	c-7.872604-5.694916-12.208237-13.422119-12.208237-21.758179c0-8.336151,4.335632-16.063385,12.208176-21.758179
	c7.384033-5.341187,17.117844-8.282684,27.408264-8.282684c10.289688,0,20.023499,2.941559,27.40831,8.282745
	c7.873093,5.694611,12.209,13.421753,12.209,21.758118C267.093353,331.338348,262.757385,339.065521,254.884567,344.76059z"/>
<g>
	<path style="fill:#2A3038;" d="M257.822876,304.628906c-8.146454-5.892029-18.884125-9.136963-30.23497-9.136963
		c-11.3517,0-22.089371,3.244873-30.23494,9.136902c-8.684433,6.282135-13.467209,14.806244-13.467209,24.002136
		c0,9.195801,4.782776,17.71994,13.46727,24.002167c8.146362,5.891968,18.884018,9.136902,30.234879,9.136902
		c11.348495,0,22.086273-3.244965,30.235214-9.137146c8.684784-6.282379,13.467865-14.806519,13.467865-24.001923
		C271.290985,319.434875,266.507935,310.910797,257.822876,304.628906z M250.258865,344.407562
		c-6.191223,4.068695-14.244217,6.309387-22.675568,6.309387c-8.431366,0-16.484344-2.240692-22.675522-6.309418
		c-6.429733-4.225464-9.970779-9.828369-9.970779-15.77655c0-11.971802,14.950195-22.085938,32.646301-22.085938
		c17.696152,0,32.646347,10.114136,32.646347,22.085968C260.229645,334.579224,256.68866,340.182129,250.258865,344.407562z"/>
	<path style="fill:#2A3038;" d="M313.611328,154.671127c-0.846069-2.105499-2.858215-3.465775-5.126465-3.4664h-77.641144
		c-17.791992,0.06897-35.063797,6.455093-48.626678,17.981842c-13.484192,11.615173-21.22316,27.269287-21.22316,42.940598
		c0,14.91626,4.583038,28.325119,13.25354,38.776871c8.604218,10.371719,20.592316,17.077072,34.668274,19.39119l1.477203,0.242859
		l0.064301,1.495636c0.018951,0.440826,0.048126,0.885468,0.086639,1.321655l0.155365,1.759216l-1.751068,0.229309
		c-16.259491,2.12915-30.834854,8.686523-42.150345,18.963165C154.216003,305.733307,147,320.703857,147,335.380188
		c0,29.134247,33.044235,50.28009,78.571838,50.28009c38.564941,0,78.454834-22.04071,78.454834-58.924744
		c0-23.651794-7.034882-36.527222-28.951202-52.987671l-1.343292-1.000336c-3.7146-2.650726-7.321075-5.594727-10.689117-8.728302
		l-1.391815-1.294952l1.338196-1.350311c2.025391-2.043854,4.223785-3.94986,6.533966-5.665115
		c15.009674-11.719223,22.962067-26.495392,22.962067-42.703995c0.094635-8.963882-1.887268-17.960815-5.731323-26.037582
		l-0.571625-1.201019l0.960236-0.920395l25.166718-24.123199C313.94751,159.152023,314.458588,156.776642,313.611328,154.671127z
		 M291.422577,165.426834l-16.051483,15.385635c-1.910675,1.831024-2.253479,4.772156-0.815216,6.993347
		c4.497406,6.945847,6.874603,15.657944,6.874603,25.194427c0,12.681107-6.483429,24.445358-18.74939,34.020905
		c-10.282043,8.036346-11.930756,11.197937-11.942505,17.222504c-0.00145,0.662659,0.114746,1.313202,0.345276,1.933868
		c0.937592,2.518585,3.531265,6.132324,16.049408,15.431519l1.320312,0.982849
		c19.249969,14.455353,24.519104,23.941742,24.519104,44.137177c0,17.294006-11.181702,28.380554-20.562012,34.635681
		c-12.612122,8.41156-29.685318,13.235931-46.841599,13.235931c-19.465958,0-37.047989-4.204254-49.507233-11.838379
		c-8.216385-5.034851-18.010559-13.873596-18.010559-27.389496c0-28.686035,31.0383-48.851532,60.027466-49.687988
		c3.045746-0.087982,5.452164-2.637482,5.364243-5.68335c-0.021027-0.725433-0.181564-1.42923-0.477142-2.091949
		c-1.016693-2.302155-1.515366-4.73877-1.485016-7.248322c0.003143-1.366241,0.132156-2.758118,0.383102-4.119293
		c0.264984-1.44931-0.050827-2.917725-0.889816-4.132202c-0.839005-1.214447-2.100739-2.029449-3.55275-2.294952
		c-0.228348-0.041687-0.461853-0.069305-0.694016-0.08194c-26.724579-1.452881-44.680328-20.707687-44.680328-47.913055
		c0-12.454224,6.338943-25.055786,17.391479-34.573547c11.554565-9.811432,26.253494-15.238983,41.398926-15.291199h59.310486
		h4.583771L291.422577,165.426834z"/>
	<path style="fill:#2A3038;" d="M232.91275,179.207947c-4.430252-2.385727-9.137924-3.646851-13.613876-3.646851
		c-3.580353,0-6.940048,0.780212-9.985794,2.319077c-6.928482,3.500961-11.639572,10.713608-12.925247,19.788452
		c-1.201477,8.47464,0.559158,17.93512,4.957642,26.63884c7.21286,14.274506,19.782227,23.497986,32.02182,23.497986
		l0.100845,0.000168c3.450546,0,6.902847-0.82135,9.983673-2.375229c14.037231-7.093796,17.537476-27.488861,7.967316-46.430557
		C247.02092,190.296448,240.448502,183.267532,232.91275,179.207947z M245.559067,222.596085
		c-0.485535,6.209885-3.071167,10.937286-7.093979,12.969986c-1.505127,0.76059-3.189545,1.14621-5.006393,1.14621
		c-7.927734,0-17.077347-7.151138-22.250183-17.390289c-3.339523-6.607376-4.75354-13.934525-3.87941-20.102524
		c0.453934-3.200119,1.962723-8.945892,6.968613-11.475372c1.525085-0.757828,3.219055-1.155487,4.909805-1.155487
		l0.125977,0.000732l0.025925,0.00029l0.025909,0.001007c2.908981,0.114899,5.785645,0.933716,8.318985,2.36792
		c5.452118,2.938828,10.51236,8.423325,13.849976,15.028671C244.559067,209.933517,246.018723,216.716171,245.559067,222.596085z"/>
	<path style="fill:#2A3038;" d="M389.534698,202.781601h-29.472504h-1.842041v-1.842041v-29.472488
		c0-3.047104-2.479004-5.526093-5.526093-5.526093s-5.526093,2.478989-5.526093,5.526093v29.472488v1.842041h-1.842041h-29.472473
		c-3.047119,0-5.526093,2.478989-5.526093,5.526093c0,3.047089,2.478973,5.526093,5.526093,5.526093h29.472473h1.842041v1.842026
		v29.472504c0,3.047089,2.479004,5.526093,5.526093,5.526093s5.526093-2.479004,5.526093-5.526093v-29.472504v-1.842026h1.842041
		h29.472504c3.047089,0,5.526093-2.479004,5.526093-5.526093C395.060791,205.26059,392.581787,202.781601,389.534698,202.781601z"/>
</g>
</svg>
