<?xml version="1.0" encoding="utf-8"?>
<!-- Generator: Adobe Illustrator 19.2.1, SVG Export Plug-In . SVG Version: 6.00 Build 0)  -->
<svg version="1.0" id="Слой_1" xmlns="http://www.w3.org/2000/svg" xmlns:xlink="http://www.w3.org/1999/xlink" x="0px" y="0px"
	 viewBox="0 0 375 375" style="enable-background:new 0 0 375 375;" xml:space="preserve">
<path style="fill:#D3EDFF;" d="M276,32l-59.333328-21.333332h-29.16716H158l-32.666664,10.666668L93.333336,38l-28,22L41.333332,82
	l-14.666666,30l-8.703653,34L8,176l2.666667,44.666672l9.999999,37.999985l28.666666,42.666687
	c0,0,27.333332,27.333313,29.333332,28.666656S104,346,104,346l31.333328,11.034973L162,363.333344L206.666672,366l44.666656-14
	l34.000015-12.666656L324,300.666656l23.333344-35.333313L362.666656,228L368,187.492981
	c0,0-6.594635-23.492981-10.963989-25.492981s-25.702667-6.666672-25.702667-6.666672s-44.666687,2-52,2
	C272,157.333328,226.666672,160,226.666672,160L208,169.333328L204,196l16,21.333328L297.333344,218l-4.666687,21.333328
	l-20,27.333328l-33.333328,22.666687l-35.333328,14l-44-2l-44-22.666687c0,0-32.666664-35.999985-32.666664-38.666656
	s-14.666672-48-14.666672-48L82,138l29.333336-42l41.333336-18l40-6L228,80.666664l28.666656,8.666672l18.666687-6l11.333313-16
	V44.666668L276,32z"/>
<path style="fill:#B3DAF5;" d="M343.320801,188.824997c-0.008209-11.574631-9.431458-21.004196-21.009918-21.019974h-91.423706
	c-11.588547,0.004852-21.012421,9.436768-21.007568,21.025208c0.004837,11.57869,9.428772,21.002731,21.008759,21.007584H299.7771
	l-2.566101,9.327805c-6.778198,24.669754-21.144684,45.812958-41.546387,61.143921
	c-19.767883,14.854614-44.192627,23.035461-68.774948,23.035461c-10.219269,0-20.446487-1.386292-30.397644-4.120392
	c-24.388336-6.700836-45.383575-20.874847-60.716003-40.989685s-23.435699-44.115646-23.433846-69.407959
	c0-63.125938,51.360374-114.48259,114.4907-114.48259c18.914566,0.001297,37.715378,4.74115,54.357697,13.700554
	c3.039078,1.655594,6.474716,2.530716,9.935486,2.530716l0.063385-0.000053c11.579025,0,21.007187-9.42038,21.016983-20.999634
	c0.00647-7.736607-4.217407-14.828018-11.027527-18.509136c-22.773422-12.259781-48.481689-18.741764-74.345856-18.745144
	c-86.294243,0-156.49971,70.207993-156.49971,156.50528c0,86.290131,70.20546,156.49234,156.49971,156.49234
	C273.120697,345.319305,343.320801,275.117096,343.320801,188.824997z"/>
<g>
	<g>
		<path style="fill:#2A3038;" d="M187.505981,373C289.78772,373,373,289.785034,373,187.5
			c-0.027039-21.324341-17.400757-38.698486-38.728882-38.726013h-99.038086c-21.354187,0-38.727051,17.372864-38.727051,38.72699
			c0,21.354187,17.372864,38.72699,38.727051,38.72699h48.674988h4.567932l-1.81488,4.191956
			c-1.226746,2.833374-2.591919,5.647766-4.057556,8.365112c-18.891907,35.025452-55.371643,56.783752-95.203186,56.783752
			c-17.765381,0-35.472961-4.486145-51.208191-12.973389c-25.40509-13.70282-43.953369-36.478821-52.228027-64.132324
			c-8.274658-27.653442-5.285217-56.874084,8.417664-82.279053c18.892944-35.027466,55.372742-56.785767,95.203369-56.783813
			c17.766785,0.000854,35.474243,4.486938,51.208008,12.973389c5.652893,3.057251,12.010681,4.672363,18.389099,4.672363
			c14.258179,0,27.324951-7.783142,34.101013-20.312134c10.158325-18.78302,3.141663-42.328613-15.641418-52.487061
			C248.65094,9.696899,218.172668,2.003357,187.505798,2C85.217529,2.000122,2,85.214966,2,187.5S85.217651,373,187.505981,373z
			 M187.505981,17.950989c28.019775,0.003662,55.870667,7.025879,80.542114,20.307434
			c7.377686,3.987915,11.953613,11.670349,11.946594,20.051758c-0.01062,12.544312-10.224548,22.749817-22.768616,22.749817
			l-0.068665,0.000061c-3.749207,0-7.471191-0.948059-10.76355-2.741638
			c-18.029358-9.706116-38.397095-14.841003-58.888062-14.842407c-68.391846,0-124.032776,55.636902-124.032776,124.023987
			c-0.002014,27.400269,8.776611,53.401367,25.386902,75.192688c16.610291,21.79126,39.355347,37.146606,65.776306,44.405884
			c10.780518,2.961975,21.860107,4.463806,32.931091,4.463806c26.631104,0,53.091492-8.862671,74.506897-24.955322
			c22.102051-16.608704,37.665894-39.514038,45.009033-66.239868l2.779968-10.105225h-74.630188
			c-12.545105-0.005249-22.754456-10.214722-22.759705-22.758423c-0.005249-12.55426,10.204041-22.772278,22.758423-22.777527
			h99.043274c12.543457,0.01709,22.752075,10.232544,22.760986,22.771851c0,93.484009-76.050842,169.537109-169.530029,169.537109
			c-93.486328,0-169.542969-76.053101-169.542969-169.534973C17.963013,94.010376,94.019653,17.950989,187.505981,17.950989z"/>
	</g>
</g>
</svg>
