<?xml version="1.0" encoding="utf-8"?>
<!-- Generator: Adobe Illustrator 19.2.1, SVG Export Plug-In . SVG Version: 6.00 Build 0)  -->
<svg version="1.0" id="Слой_1" xmlns="http://www.w3.org/2000/svg" xmlns:xlink="http://www.w3.org/1999/xlink" x="0px" y="0px"
	 viewBox="0 0 316.566284 159.446045" style="enable-background:new 0 0 316.566284 159.446045;" xml:space="preserve">
<circle style="fill:#F36C6D;" cx="165.525604" cy="105.985741" r="19.093649"/>
<circle style="fill:#F36C6D;" cx="282.705566" cy="27.078949" r="19.093649"/>
<circle style="fill:#F36C6D;" cx="28.547396" cy="55.522919" r="19.093649"/>
<g>
	<path style="fill:#2A3038;" d="M310.683289,109.229492c-4.49292-5.641541-10.913757-9.19574-18.079834-10.007996
		c-1.005981-0.114014-2.029114-0.171814-3.041138-0.171814c-5.429382,0-10.673706,1.612183-15.166016,4.662231l-2.237,1.518799
		l-2.243164-1.509644l-24.347488-16.385681l-10.325867,7.524536l27.048599,18.198853l2.510803,1.689331l-0.94281,2.87561
		c-4.639038,14.149536,3.098267,29.435181,17.247742,34.07428c1.754333,0.575134,3.574341,0.970947,5.409363,1.176392
		l0.446411,0.049988c0.878296,0.085144,1.763672,0.128235,2.638184,0.128235c13.724365,0,25.241516-10.301453,26.789856-23.962097
		C317.203125,121.924438,315.176086,114.870972,310.683289,109.229492z"/>
	<path style="fill:#2A3038;" d="M128.005966,49.891724l2.438721-2.157593l2.607544,1.950195
		c4.696228,3.512451,10.278931,5.369019,16.144348,5.369019c5.480713,0,10.764465-1.642761,15.279968-4.750732l2.242188-1.543274
		l2.258423,1.519348l23.875549,16.062195l10.326843-7.525757l-26.66217-17.940979l-2.498108-1.680969l0.924316-2.865601
		c4.575867-14.185791-3.24231-29.449463-17.42804-34.025269c-2.702393-0.871704-5.496765-1.313721-8.305481-1.313721
		c-11.767883,0-22.103882,7.531738-25.719849,18.74176c-1.618958,5.019104-1.73761,10.360413-0.34314,15.446472l0.658752,2.402649
		l-1.865845,1.650818l-22.423584,19.8396l12.884338,4.628418L128.005966,49.891724z"/>
	<path style="fill:#2A3038;" d="M71.394272,99.984192l-12.890987-4.62793l-14.338623,12.68335l-2.075378,1.835815l-2.44812-1.297668
		c-3.888123-2.060852-8.251343-3.150146-12.618164-3.150146c-10.03595,0-19.187256,5.502991-23.882629,14.36145
		c-6.972412,13.154236-1.943054,29.528381,11.211243,36.500793c3.006593,1.593567,6.245545,2.594421,9.626893,2.974731
		l0.463806,0.052185c0.881592,0.085815,1.770264,0.129272,2.648071,0.129272c13.701172,0,25.209229-10.282898,26.768799-23.918945
		c0.556641-4.867432-0.223022-9.796692-2.254639-14.254822l-1.227356-2.693298l2.216736-1.961182L71.394272,99.984192z"/>
	<path style="fill:#2A3038;" d="M265.079529,50.838989l2.082764-1.518005l2.243103,1.269287
		c4.061035,2.297913,8.656982,3.512573,13.290894,3.512573c9.74408,0,18.774597-5.261719,23.567444-13.731934
		c3.557739-6.287476,4.454102-13.584045,2.523926-20.545654c-1.930176-6.96167-6.455811-12.754944-12.743286-16.312683
		C291.983948,1.215027,287.387939,0.000366,282.753235,0c-9.74353-0.000732-18.773865,5.260986-23.567139,13.731873
		c-4.088272,7.224854-4.614639,16.109558-1.408081,23.766602l1.221069,2.915833l-2.554688,1.861816l-64.724014,47.171021
		l-3.047546,2.221069l-2.396667-2.911499c-5.149048-6.255432-12.75531-9.843262-20.868347-9.843628
		c-6.233215-0.000305-12.322266,2.186096-17.145447,6.156311c-1.967346,1.619385-3.693909,3.50708-5.131653,5.610474
		l-1.744446,2.552002l-2.909485-1.044556L57.95879,63.279236l-3.010315-1.08075l0.392151-3.174316
		c0.013184-0.106567,0.028442-0.212891,0.044189-0.319397c0.006836-0.046631,0.014587-0.093201,0.019836-0.140442
		c1.683167-14.82135-8.996704-28.237732-23.805908-29.919556c-1.02533-0.116455-2.064392-0.175537-3.088623-0.175537
		c-13.736512,0-25.266113,10.310364-26.818848,23.982788c-0.814758,7.173889,1.212952,14.235596,5.709595,19.884399
		c4.496582,5.648743,10.923767,9.208313,18.097656,10.02301l0.0177,0.002014l0.040955,0.004883
		c0.961243,0.108093,1.978394,0.165161,2.984314,0.165161c7.163513,0,13.911743-2.777344,19.001587-7.820312l1.792297-1.775818
		l2.374634,0.852478l84.106018,30.19397l2.482483,0.891235l0.158691,2.632874
		c0.858582,14.246216,12.697815,25.405762,26.953003,25.405762c0.547974,0,1.104919-0.016785,1.655334-0.049927
		c13.13324-0.791504,23.744629-10.85437,25.231506-23.927246c0.111755-1.020142,0.166992-2.074219,0.162476-3.116394
		l-0.009033-2.04541l1.653015-1.204712L265.079529,50.838989z M267.787842,25.416016
		c0.85022-7.610596,7.256897-13.347046,14.902893-13.347046c0.557922,0,1.12323,0.031555,1.680176,0.093811
		c3.984192,0.445068,7.556641,2.4151,10.059204,5.54718s3.63562,7.051208,3.19043,11.035461
		c-0.849854,7.607056-7.256592,13.343506-14.902527,13.343506c-0.557922,0-1.12323-0.031555-1.680176-0.093811
		C272.813599,41.059875,266.878296,33.623474,267.787842,25.416016z M43.465137,57.186646
		c-0.848572,7.609741-7.256348,13.348267-14.904968,13.348267c-0.557068,0-1.121399-0.031433-1.677368-0.093445
		c-8.225281-0.936829-14.161195-8.372437-13.255189-16.577942c0.84906-7.613953,7.256837-13.352539,14.905396-13.3526
		c0.55719,0,1.121521,0.031494,1.677429,0.093506C38.436451,41.52179,44.382557,48.960571,43.465137,57.186646z
		 M180.352829,107.568298c-0.849365,7.608276-7.256592,13.345703-14.903748,13.345703
		c-0.557312,0-1.122131-0.031494-1.678772-0.093628l-0.020874-0.002319l-0.034241-0.004028
		c-8.170837-0.929749-14.106018-8.365906-13.197449-16.572632c0.84967-7.611206,7.256714-13.348572,14.903687-13.349304
		c0.558105,0,1.122498,0.031494,1.679138,0.093689C175.326096,91.903931,181.270981,99.342834,180.352829,107.568298z"/>
</g>
<path style="fill:#B3DAF5;" d="M28.614428,117.606697c-0.569378-0.063515-1.147381-0.095772-1.718071-0.095772
	c-7.833874,0.000061-14.396899,5.877686-15.266531,13.676117c-0.927957,8.404312,5.151773,16.020065,13.576342,16.979599
	c0.569439,0.063507,1.147444,0.095703,1.718008,0.095703c7.833935,0,14.396961-5.877563,15.266094-13.671677
	C43.129913,126.165291,37.039745,118.54628,28.614428,117.606697z"/>
<path style="fill:#B3DAF5;" d="M151.129227,12.799009c-0.569382-0.063514-1.147385-0.095772-1.718079-0.095772
	c-7.833862,0.000063-14.396896,5.877687-15.266525,13.676113c-0.927963,8.404314,5.151779,16.020075,13.57634,16.979601
	c0.569443,0.063515,1.147446,0.095707,1.718002,0.095707c7.833939,0,14.396973-5.87756,15.266098-13.671673
	C165.644714,21.357607,159.554535,13.738594,151.129227,12.799009z"/>
<path style="fill:#B3DAF5;" d="M292.129211,110.799446c-0.569366-0.063515-1.147369-0.095772-1.718048-0.095772
	c-7.833893,0.000069-14.396912,5.877693-15.266541,13.676117c-0.927948,8.404312,5.151764,16.020081,13.576355,16.979599
	c0.569427,0.063522,1.14743,0.095703,1.717987,0.095703c7.833954,0,14.396973-5.877548,15.266113-13.671669
	C306.644714,119.358047,300.554535,111.739037,292.129211,110.799446z"/>
</svg>
