<?xml version="1.0" encoding="utf-8"?>
<!-- Generator: Adobe Illustrator 19.2.1, SVG Export Plug-In . SVG Version: 6.00 Build 0)  -->
<svg version="1.0" id="Слой_1" xmlns="http://www.w3.org/2000/svg" xmlns:xlink="http://www.w3.org/1999/xlink" x="0px" y="0px"
	 viewBox="0 0 1942 385" style="enable-background:new 0 0 1942 385;" xml:space="preserve">
<g>
	<path style="fill:#E8EBF5;" d="M22,386c1.845741-4.012756,5.380219-1.168152,8.015711-1.973999
		c0.341722,0.224091,0.453091,0.44458,0.335308,0.662109c-0.116596,0.215363-0.23283,0.323364-0.349907,0.323364
		C30.000679,385.340973,30.000309,385.670502,30,386C27.333334,386,24.666666,386,22,386z"/>
	<path style="fill:#CED4E8;" d="M183.021378,383.055176c20.499557-0.032928,41.019012,0.501251,61.494476-0.217957
		c41.466476-1.456451,82.935226-0.39679,124.398361-0.905823c25.090393-0.308044,49.936462-2.597198,74.448669-8.428619
		c12.872742-3.062408,25.985962-5.180634,39.057648-7.314423c7.485016-1.221802,14.841064,1.102875,22.188782,2.23645
		c19.794128,3.053772,39.549683,6.35788,59.317932,9.578583c3.757996,0.612244,7.599854,0.965363,11.237061,2.013885
		c9.52655,2.746277,17.919312-1.597382,26.641235-3.864624c6.585693-1.711914,13.157227-3.505005,19.649963-5.534363
		c2.627258-0.821106,4.87439-0.636658,7.154419,0.694794c0.287537,0.167908,0.586365,0.317627,0.885498,0.464355
		c20.962097,10.281494,20.923706,10.062164,43.574219,6.097351c16.950439-2.967072,34.023682-5.22702,51.028442-7.890259
		c22.566223-3.534332,45.119812-7.149048,67.677124-10.740326c14.876404-2.368408,29.750793-4.749756,44.623352-7.14212
		c2.331116-0.374969,4.187012,0.553314,6.01062,1.853577c10.550415,7.522186,21.318359,14.756836,31.614014,22.611328
		c5.108276,3.897095,10.142639,4.45932,16.13446,3.285187c20.635376-4.043518,41.324707-7.811523,61.993103-11.68692
		c4.540039-0.851288,8.9422,0.588074,13.356384,1.065155c18.759033,2.027466,37.475464,4.457733,56.195435,6.835114
		c11.819641,1.501068,23.627991,3.099945,35.420227,4.801758c3.731445,0.538483,6.806763-0.620697,9.897461-2.474091
		c16.962891-10.172363,34.013062-20.200409,50.912231-30.476868c2.531372-1.539337,4.182495-1.563385,6.639771,0.031464
		c15.615356,10.135284,31.385986,20.031342,47.005249,30.160828c3.653687,2.369568,6.628784,2.725159,10.935547,0.846466
		c39.760254-17.343994,79.673096-34.337891,119.538818-51.440247c2.662231-1.142181,5.053589-1.500366,8.016846-0.143158
		c18.44043,8.445801,37.098022,16.422424,55.468018,25.015411c5.915771,2.767242,10.231323,3.18219,16.130737-0.954163
		c34.424683-24.137146,69.261841-47.685425,103.897339-71.523438c2.428223-1.671112,4.277344-1.572998,6.796875-0.297729
		c19.619141,9.930023,39.325928,19.686676,58.955078,29.596985c2.400635,1.211975,4.317139,1.3974,6.954468,0.330963
		c8.622925-3.486633,17.492065-6.363251,26.12439-9.8284c2.968506-1.19162,4.857788,0.342407,6.906128,1.512817
		c7.50415,4.287811,14.984009,8.630035,22.302734,13.223236c2.4646,1.546722,4.172485,1.668579,6.717651,0.070282
		c21.67627-13.61145,43.479248-27.020874,65.202271-40.558258c21.581665-13.449341,43.117065-26.973022,64.664062-40.477722
		c1.779663-1.115402,3.420532-1.316269,5.611328-0.774109c16.258545,4.023575,32.593628,7.737595,48.85437,11.75238
		c2.935669,0.724854,4.919434,0.273727,7.185303-1.746094c19.837524-17.68338,39.817139-35.207443,59.687866-52.853653
		c10.685181-9.488907,21.285278-19.075226,31.825195-28.725189c3.064087-2.805389,5.65918-4.030457,9.92981-1.669174
		c7.851318,4.34111,16.020386,8.187134,24.318237,11.605118c3.684082,1.517487,4.473511,3.471115,4.466919,7.076248
		C1941.969849,232.146286,1942,286.14563,1942,340.144897c0,11.311371,0,22.622742,0,34.549164
		c-4.261841-1.843414-8.309326-3.02887-11.742554-5.190186c-8.618286-5.425598-17.33667-5.346344-27.08252-3.267639
		c-26.883179,5.733917-53.965942,10.529358-80.939453,15.848572c-2.980225,0.587708-5.46582,0.06665-8.13562-1.014648
		c-17.251099-6.987213-34.647339-13.63147-51.755005-20.951233c-7.078491-3.028687-13.627441-1.434845-20.42395-0.066223
		c-38.492188,7.751099-76.987427,15.487122-115.455688,23.35498c-2.418335,0.494629-4.513794,0.457703-6.789917-0.316559
		c-9.917847-3.37384-19.879028-6.621307-29.791382-10.010803c-2.621948-0.896545-4.921631-1.119843-7.626221,0.160278
		c-6.906128,3.268738-14.177124,5.798309-20.955688,9.294983c-5.459839,2.816406-10.450195,2.058533-15.766724,0.177826
		c-19.117676-6.762756-38.311157-13.315765-57.365356-20.251343c-4.411499-1.605682-8.265869-0.020813-12.158813,0.822693
		c-30.289917,6.563354-60.546509,13.286713-90.753052,20.223236c-6.907593,1.586273-13.450317,0.592163-20.039917-0.976379
		c-18.554321-4.416595-37.128662-8.765167-55.592651-13.536926c-7.020264-1.81427-13.494995,0.555603-20.087891,1.477417
		c-20.323608,2.841675-40.564575,6.278717-60.82666,9.55365c-16.041382,2.592743-32.019165,5.178253-48.406616,5.097015
		c-12.915405-0.064056-25.510864-1.482544-37.871582-4.896973c-14.017822-3.872131-27.71582-5.328522-41.831055,0.242676
		c-10.735107,4.237122-22.240967,5.04657-33.837646,4.554688c-8.817383-0.373993-17.663452-0.113708-26.49646-0.066193
		c-19.77948,0.106384-39.433899-1.593414-59.062561-3.845032c-18.009949-2.065887-35.82135-0.840637-53.842468,1.514191
		c-28.879395,3.773621-57.956909,5.177399-86.299927-4.436371c-4.670715-1.58432-9.546265-1.469635-14.343567-1.118011
		c-17.04541,1.249237-34.108643,2.133972-51.170837,3.095947c-16.393433,0.924316-32.779724,2.009796-49.177429,2.932892
		c-66.572388,3.747589-133.194519,1.198975-199.790222,1.642151c-12.336609,0.082092-24.688568-2.512054-37.037811-3.8302
		c-8.46933-0.904053-16.827667,0.819794-25.222778,1.361115c-9.093231,0.586334-18.14621,1.822571-27.287048,1.758606
		c-1.069275,0.665558-2.263641,0.444519-3.412567,0.444214c-83.278412-0.021729-166.556854,0.070801-249.835419-0.0383
		C182.971924,384.285492,182.717438,383.824432,183.021378,383.055176z"/>
	<path style="fill:#DDE1F0;" d="M183.018387,383.98761c84.671341,0.014709,169.342667,0.029388,254.014267,0.044373
		c-1.345825,1.439667-3.113525,0.936676-4.719238,0.936829c-127.105835,0.012329-254.2117,0.001465-381.317566-0.007629
		c-0.325424-0.213623-0.433056-0.426331-0.323952-0.63855c0.108681-0.211456,0.217484-0.317444,0.327457-0.317444
		c7.97649-1.080231,15.995136-1.121002,24.021389-0.974121c2.323273,0.767761,4.645378,0.788025,6.966187-0.010956
		c10.023109,0.202271,19.97567-1.74765,30.017181-0.983978c0.316551,0.312469,0.670273,0.573761,1.068588,0.774719
		c2.125626,0.494049,4.33564-0.135712,6.447792,0.493134c0.150841,0.044922,0.373558,0.276855,0.397766,0.253174
		c0.279091-0.273193,0.186325-0.506989-0.244827-0.674408c-0.083862-0.369507,0.026459-0.651489,0.324036-0.860199
		c13.324646-0.706055,26.650375-1.368927,40.001907-1.010559c0.328568,0.212494,0.437561,0.424438,0.328003,0.636414
		c-0.109207,0.211395-0.218689,0.317352-0.329483,0.317352c-7.261841,0-14.523682,0-21.785507,0
		c-0.002808,0.355652-0.005615,0.711334-0.008423,1.066986c8.272888,0,16.545761,0,24.818649,0
		c4.863358,1.05484,9.790802,0.180481,14.677429,0.494324C179.474609,383.641052,181.313034,383.074097,183.018387,383.98761z"/>
	<path style="fill:#DFE3F1;" d="M310,377.007751c13.876678-1.398682,27.820984-0.50708,41.698364-1.210785
		c6.768585-0.34317,13.52713-0.729553,20.305939-0.759186c0.325317,0.211273,0.433075,0.421844,0.324371,0.632294
		c-0.108368,0.209747-0.216888,0.314911-0.326691,0.314911c-13.877014,1.356537-27.819702,0.519135-41.696594,1.220184
		c-6.767853,0.341919-13.527802,0.70993-20.305389,0.768433c-0.328033-0.21463-0.437012-0.429108-0.328094-0.643951
		C309.78064,377.115234,309.889618,377.007751,310,377.007751z"/>
	<path style="fill:#DFE3F1;" d="M235,379.007751c13.875671-1.398468,27.819244-0.504456,41.695251-1.211914
		c6.767944-0.345032,13.527283-0.713196,20.304749-0.769806c0.328033,0.214783,0.437042,0.429382,0.328094,0.644348
		c-0.108765,0.214569-0.217743,0.322144-0.328094,0.322144c-13.876984,1.345032-27.818878,0.51239-41.695312,1.212799
		c-6.767578,0.341583-13.527344,0.709747-20.304688,0.76828c-0.328018-0.21463-0.437042-0.429138-0.328094-0.643951
		C234.780609,379.115234,234.889618,379.007751,235,379.007751z"/>
	<path style="fill:#DFE3F1;" d="M159.99791,381.965759c0.00119-0.318024,0.001694-0.636017,0.00148-0.953918
		c13.875549-1.405365,27.819412-0.50882,41.695618-1.216034c6.768005-0.34491,13.527451-0.713165,20.304993-0.769775
		c0.328018,0.214783,0.437027,0.429382,0.328079,0.644348c-0.108704,0.2146-0.217728,0.322144-0.328079,0.322144
		c-13.877502,1.345184-27.819672,0.514557-41.696915,1.211853C173.535202,381.544464,166.776108,381.926178,159.99791,381.965759z"
		/>
	<path style="fill:#DCE0F0;" d="M372.001984,375.984985c-0.000854-0.31601-0.000122-0.63205,0.002289-0.947632
		c4.474457-0.014618,8.949615-0.083496,13.423096-0.026215c3.114807,0.039886,5.691925,0.208191,7.789215-3.346008
		c2.356171-3.992981,5.820312-0.390625,8.781799,0.328766l0.008362,0.009766c-0.377075,1.253601-0.716248,2.520172-1.138885,3.75824
		c-0.98703,2.891602-3.821106,4.460327-5.777985,2.88739c-5.249573-4.219727-11.072693-2.097778-16.638092-2.611877
		C376.31842,375.840332,374.152863,375.992188,372.001984,375.984985z"/>
	<path style="fill:#E4E7F3;" d="M416.986176,362.984741c5.365417-5.29303,12.333008-8.136658,18.636261-11.953613
		c8.012939-4.852295,15.65036-10.399933,24.365936-14.044556l0.025757,0.029053
		c-5.364929,5.293854-12.33316,8.136597-18.636719,11.952881c-8.013428,4.851501-15.648804,10.402618-24.365967,14.044403
		L416.986176,362.984741z"/>
	<path style="fill:#DDE2F1;" d="M374.018829,218.992584c-1.91391-5.124893-5.389771-5.775269-10.27301-1.044632
		c1.325836-3.224655,2.33667-5.550995,2.418884-8.231079c0.082977-2.705017,2.215179-3.958038,4.897736-3.651947
		c2.742218,0.312897,4.41391,2.165131,3.794189,4.74852c-0.683014,2.847443-0.236206,5.468658,0.151459,8.186584
		C374.67569,219.347107,374.345947,219.344589,374.018829,218.992584z"/>
	<path style="fill:#DDE2F1;" d="M1573.994019,194.000137c0.384033-2.718033,0.833252-5.339386,0.150269-8.186722
		c-0.619385-2.582626,1.050537-4.436264,3.793823-4.74855c2.682373-0.305344,4.814209,0.947067,4.897827,3.652054
		c0.082886,2.679596,1.092163,5.006531,2.417969,8.231659c-4.882446-4.731796-8.359253-4.081223-10.272583,1.044098
		C1574.654907,194.351608,1574.325684,194.337631,1573.994019,194.000137z"/>
	<path style="fill:#E3E7F3;" d="M900.997559,350.995056c7.186218-4.780121,15.394531-7.410461,23.21167-10.824432
		c5.847595-2.553833,11.359009-6.033508,17.783691-7.18161l0.019287,0.022797
		c-7.198975,4.759064-15.400085,7.408813-23.221619,10.817719c-5.849121,2.549255-11.354431,6.04425-17.785706,7.172913
		L900.997559,350.995056z"/>
	<path style="fill:#DCE0F0;" d="M1546.002197,260.989014c3.218262-2.052765,8.83728-1.003296,9.019409-6.979599
		c0.324463-0.343628,0.651978-0.364609,0.983276-0.009644c0.161621,2.569351-1.606812,4.888809-0.373535,7.731827
		c1.185425,2.733185,0.178223,5.42038-3.092896,6.111633c-3.071411,0.649048-5.06958-0.77597-5.578369-4.054413
		c-0.148193-0.954895-0.637207-1.856873-0.969849-2.783142L1546.002197,260.989014z"/>
	<path style="fill:#DCE0F0;" d="M393.978607,279.009308c0.181519,5.976715,5.80127,4.92627,9.018982,6.979706l0.013641,0.015869
		c-0.06485,0.1521-0.139801,0.300781-0.193054,0.456848c-1.083801,3.175751-1.386719,7.532043-6.345337,6.347961
		c-4.587952-1.095642-3.430664-4.609314-2.706055-8.026276c0.380219-1.792694-0.473816-3.847137-0.770508-5.783386
		C393.327057,278.653046,393.65448,278.656128,393.978607,279.009308z"/>
	<path style="fill:#DCE0F0;" d="M1050,363.993652c3.755127-2.620056,7.984985-3.360413,12.605835-2.612335
		c0.107422,1.180603-1.821167,2.085327-1.6521,3.884796c0.229126,2.440002-1.047485,4.153748-3.48938,4.624634
		c-2.618286,0.504913-4.52478-0.6026-5.375488-3.164551c-0.363159-1.09317-0.984375-1.645752-2.073486-1.771301
		c-0.297729-0.208893-0.398926-0.420807-0.304565-0.636108C1049.805786,364.102142,1049.901855,363.993652,1050,363.993652z"/>
	<path style="fill:#DCE0F0;" d="M658,326.997559c-0.000732,0.324341-0.005066,0.648651-0.013184,0.972534
		c-1.82666,0.023926-3.44043-0.092682-4.334351,2.294098c-1.036682,2.768188-3.554504,3.416901-6.228882,2.273712
		c-2.895752-1.237762-3.328125-4.719635-2.470337-6.37674c1.263733-2.441101,4.611816-3.181641,7.190308-1.24823
		C653.987366,326.295471,655.687988,327.292633,658,326.997559z"/>
	<path style="fill:#DDE1F1;" d="M880.004883,350.989227c1.467224,1.282898,3.03717,1.518799,4.996582,1.088287
		c2.889709-0.634918,4.327393,1.922363,6.219788,3.413605c-1.608643,1.900238-1.670593,5.2659-5.071472,5.463837
		c-3.231201,0.188049-4.922119-1.330963-5.18042-4.620972c-0.140625-1.791534-0.640991-3.554871-0.979126-5.330902
		L880.004883,350.989227z"/>
	<path style="fill:#DCE0F0;" d="M483.986786,327.960022c-2.033112,2.771027-4.319916,4.325958-7.684357,1.891632
		c-2.432159-1.759796-4.069946,1.449493-6.300751,1.15567l-0.009003-0.010986
		c1.973846-2.405212,4.813507-3.746857,6.117462-7.157043c1.328979-3.475616,5.86087-2.138275,7.895477,2.151855
		C484.583832,326.653015,484.592743,327.309479,483.986786,327.960022z"/>
	<path style="fill:#DADEEF;" d="M1127,298.009277c-3.248047,1.962677-7.053955-0.490051-10.538818,1.140228
		c2.700317-2.72467-0.278442-9.724152,6.809448-9.029083c4.049438,0.397156,3.811401,3.850098,3.730103,6.876251
		c0.304688,0.22525,0.405884,0.450256,0.304321,0.675323C1127.203735,297.896759,1127.102295,298.009277,1127,298.009277z"/>
	<path style="fill:#DCE0F0;" d="M829,294.003662c0.000671-0.324982,0.004883-0.649902,0.012817-0.974457
		c2.358276,0.270782,3.466492-1.178711,4.651306-2.95636c1.616638-2.425598,4.066345-2.877991,6.479187-1.216583
		c2.255615,1.553162,2.58844,3.960785,1.118164,6.121979c-1.808533,2.658539-4.468079,2.888824-6.828491,0.790558
		C832.77002,294.290527,831.050415,293.853912,829,294.003662z"/>
	<path style="fill:#DBE0F0;" d="M1749.995117,109.993011c-0.171387-2.841095,0.376343-5.380524,3.67688-5.891205
		c3.091187-0.478294,4.980713,1.047432,5.368164,4.210762c0.228882,1.86853,2.509521,2.031898,2.968506,3.684181l-0.008911,0.010315
		c-1.401611,0.162918-2.712402-1.49897-4.139526-0.291534c-2.878418,2.435684-5.377197,1.089302-7.859131-0.692101
		c-0.306885-0.227203-0.40979-0.455498-0.309448-0.685196C1749.791992,110.108177,1749.892944,109.993011,1749.995117,109.993011z"
		/>
	<path style="fill:#DBE0F0;" d="M186.991806,136.996353c0.45903-1.652496,2.740494-1.815628,2.969254-3.683365
		c0.387466-3.163498,2.275406-4.689453,5.366592-4.211273c3.299286,0.510376,3.85083,3.047546,3.678207,5.889694
		c0.303787,0.231613,0.403778,0.461685,0.300583,0.690491c-0.102737,0.227859-0.205154,0.341934-0.307968,0.341934
		c-2.481705,1.781113-4.98024,3.12738-7.858353,0.691956c-1.427017-1.207535-2.737274,0.455215-4.138718,0.292145
		L186.991806,136.996353z"/>
	<path style="fill:#DBE0F0;" d="M1299.006226,291.014282c0.539917-0.993195,0.968994-2.069763,1.641357-2.963348
		c1.770752-2.352966,4.083008-2.821564,6.511719-1.19223c2.181763,1.463623,2.788696,4.11377,1.567017,6.008911
		c-1.347412,2.089996-3.975952,3.023407-6.588379,1.518951c-1.130493-0.650909-2.097046-1.586304-3.137939-2.392487
		c-0.286133-0.219574-0.380249-0.437775-0.283325-0.655029C1298.813232,291.12265,1298.909546,291.014282,1299.006226,291.014282z"
		/>
	<path style="fill:#DDE1F0;" d="M617,311.998993c0.009216-1.647095-0.121094-3.309479,0.057861-4.937927
		c0.330994-3.011658,2.255005-4.346863,5.141113-3.977783c2.721497,0.348083,3.975159,2.191345,3.752625,4.880676
		c-0.230164,2.781403-1.966553,3.98645-4.654724,4.028473c-1.432495,0.0224-2.867554-0.985474-4.296875,0.008789V311.998993z"/>
	<path style="fill:#DCE0F0;" d="M1814.014648,138.000992c-0.008423,1.152924,0.027588,2.308212-0.033447,3.458328
		c-0.174316,3.279587-2.036133,4.823166-5.191772,4.449463c-2.722412-0.322388-3.984009-2.203064-3.734009-4.887222
		c0.286377-3.073883,2.304199-4.199814,5.15686-3.94873c0.947388,0.083389,1.856323,0.604172,2.782837,0.924942
		C1813.336304,137.587448,1813.676147,137.567093,1814.014648,138.000992z"/>
	<path style="fill:#D9DDEF;" d="M580.976868,367.00238c0.234924,2.6698-0.242737,5.054596-3.214233,5.845184
		c-4.124756,1.097351-5.262878-2.189087-6.744324-4.884003c-0.296265-0.207642-0.397522-0.418945-0.304443-0.634155
		c0.093689-0.216827,0.188843-0.325378,0.286133-0.325378c0.825012-0.422852,0.983032-1.177734,0.997559-2.004028
		c0.33429-0.41803,0.670288-0.419342,1.007935-0.004028c2.326477-1.34906,4.657715-1.318146,6.993347-0.024109
		C580.734375,365.451447,580.301147,366.493988,580.976868,367.00238z"/>
	<path style="fill:#DCE0F0;" d="M136.003052,162.998169c1.255661-0.325836,2.518906-0.948486,3.765427-0.916656
		c2.720978,0.069458,4.206329,1.667618,4.205154,4.429504c-0.001068,2.49086-1.300751,4.080414-3.759445,4.413025
		c-2.642807,0.357513-4.554291-0.783737-5.087128-3.487198c-0.282333-1.432449-0.115768-2.9534-0.151855-4.434387
		C135.316055,162.579285,135.658676,162.577835,136.003052,162.998169z"/>
	<path style="fill:#DBE0F0;" d="M1377.009766,340.000641c-0.327026,0.907806-1.02771,1.702179-0.601685,2.809875
		c1.276855,3.319031-0.678833,4.765503-3.458984,5.092957c-3.678223,0.433167-5.096436-2.058746-5.079834-5.235809
		c0.015625-2.983978,2.473267-3.532684,4.826172-3.590668c1.091675-0.026855,2.199341,0.593384,3.299683,0.920227
		C1376.334717,339.57663,1376.672974,339.577606,1377.009766,340.000641z"/>
	<path style="fill:#DBE0F0;" d="M1488.978516,220.998215c0.008301-0.661697,0.022949-1.323395,0.023804-1.985107
		c0.004517-3.515976,1.796753-5.351517,5.261719-4.906204c3.018188,0.387909,4.364136,2.698685,3.559204,5.426208
		c-1.022705,3.465744-3.466797,4.633224-6.824829,2.473862C1490.497192,221.326187,1489.458496,221.721512,1488.978516,220.998215z"
		/>
	<path style="fill:#DBE0F0;" d="M458.002167,247.006958c-3.357727,2.158875-5.802246,0.993134-6.824585-2.473801
		c-0.804169-2.727127,0.539734-5.038757,3.558868-5.4263c3.46463-0.444717,5.257568,1.39032,5.262573,4.906174
		c0.000946,0.661728,0.014801,1.323425,0.022766,1.985138C459.541992,246.721649,458.503113,246.325806,458.002167,247.006958z"/>
	<path style="fill:#DBDFF0;" d="M962.008118,329.019775c-2.341431,2.946442-4.678772,2.963013-7.011963-0.009705
		c-0.561279-0.566315-1.616821-0.884857-1.018738-2.032349c0.017883-3.165619,1.497498-5.069763,4.769226-4.916412
		c3.723083,0.174469,4.384399,2.838196,4.309509,5.915771C962.921204,328.540131,962.362854,328.677643,962.008118,329.019775z"/>
	<path style="fill:#DBDFF0;" d="M330.997406,258.99295c1.991638-1.892059,3.994843-0.83316,5.99704-0.023468
		c0.947968,0.808624,0.0336,2.224152,0.987732,3.030762c0.059967,3.213715-1.45932,5.060516-4.727539,4.938934
		c-3.027557-0.11261-4.32431-2.003052-4.231995-4.93924C329.664795,260.98703,329.63858,259.535187,330.997406,258.99295z"/>
	<path style="fill:#DBDFF0;" d="M1181.014526,344.013428c-0.504761,2.979767-2.381348,4.294342-5.25415,3.902405
		c-2.721436-0.371277-3.872559-2.225647-3.738037-4.916046c0.642944-1.012482,0.615845-2.46521,1.975464-3.006866
		c2.33252-1.649109,4.371094-1.5336,6.00708,1.000214C1180.505371,341.945099,1181.5625,342.710999,1181.014526,344.013428z"/>
	<path style="fill:#DBDFF0;" d="M1612.004883,233.96907c2.002319-0.808456,4.005615-1.868713,5.997192,0.023819
		c1.359985,0.541656,1.332275,1.995377,1.976562,3.007401c0.066162,3.217407-1.457397,5.059097-4.724243,4.938858
		c-3.028687-0.111496-4.321655-2.006134-4.235107-4.939255C1611.971069,236.192291,1611.058472,234.778397,1612.004883,233.96907z"
		/>
	<path style="fill:#E6E9F4;" d="M387.986938,263.022064c-2.984955-9.010727-5.96991-18.021454-8.954865-27.032196
		c0.358765-0.306,0.374908-0.944214,0.980377-1.010956c2.985565,9.0103,5.9711,18.020615,8.956635,27.030914
		C388.609283,262.315765,388.592773,262.954834,387.986938,263.022064z"/>
	<path style="fill:#E3E7F3;" d="M27.19257,51.104588c6.084812,6.030373,12.169621,12.060749,18.254433,18.091122
		c0.30159-0.295815,0.60318-0.591637,0.90477-0.887451c-6.07143-6.025372-12.14286-12.050743-18.214293-18.076111
		C27.82251,50.522961,27.50754,50.813774,27.19257,51.104588z"/>
	<path style="fill:#E3E7F3;" d="M22.959106,44.678936c-6.087872-6.024815-12.175744-12.049633-18.263615-18.074451
		c-0.284286,0.287205-0.568571,0.574409-0.852856,0.861612c6.085576,6.04162,12.171152,12.083239,18.256727,18.124853
		C22.385944,45.286945,22.672525,44.982941,22.959106,44.678936z"/>
	<path style="fill:#E6E9F4;" d="M1560.032104,237.009766c2.984741-9.010574,5.969482-18.021164,8.954224-27.031738
		c0.606567,0.066727,0.622681,0.706253,0.982422,1.012497c-2.985107,9.010193-5.970337,18.020386-8.955566,27.030563
		C1560.40686,237.954758,1560.390747,237.316162,1560.032104,237.009766z"/>
	<path style="fill:#E3E6F3;" d="M90.707466,115.994164c-6.030388-6.048546-12.060776-12.097099-18.091164-18.145653
		c-0.32943,0.320221-0.658859,0.640442-0.988297,0.960663c6.043358,5.985779,12.086716,11.971565,18.130066,17.957344
		C90.074539,116.509064,90.391006,116.251617,90.707466,115.994164z"/>
	<path style="fill:#E3E6F3;" d="M68.975807,92.64122c-6.073536-6.032433-12.147068-12.064873-18.2206-18.097305
		c-0.304085,0.307465-0.608166,0.614937-0.912251,0.922401c6.08942,6.035851,12.178841,12.071709,18.268265,18.107559
		C68.399414,93.262993,68.687607,92.952103,68.975807,92.64122z"/>
	<path style="fill:#E3E7F3;" d="M114.008278,139.716919c-6.090614-6.048584-12.181229-12.097176-18.271851-18.145767
		c-0.303238,0.300667-0.606476,0.601334-0.909714,0.902c6.079727,6.010719,12.159454,12.021416,18.239182,18.032127
		C113.380028,140.242493,113.694153,139.979706,114.008278,139.716919z"/>
	<path style="fill:#E3E7F3;" d="M136.003052,162.998169c-0.342422,0.001419-0.68483,0.002838-1.027557,0.004272
		c-5.352402-5.821655-10.704498-11.643326-15.114471-16.440216C124.771317,151.173508,130.685486,156.7724,136.003052,162.998169z"
		/>
	<path style="fill:#E4E7F3;" d="M483.986786,327.960022c0.006226-0.656219,0.012451-1.312469,0.018768-1.968781
		c7.789673,4.424133,16.602905,6.799652,24.007202,11.995056l-0.02124,0.025208
		c-6.740723-1.279541-12.150269-5.713379-18.542725-7.831085C487.58725,329.563721,485.805237,328.706818,483.986786,327.960022z"/>
	<path style="fill:#E3E7F3;" d="M962.008118,329.019775c0.348938-0.347351,0.697876-0.694702,1.047424-1.042358
		c8.377625,2.398468,16.299622,5.885956,23.954834,10.011658l-0.016907,0.020691
		c-7.34729-1.480499-13.773499-5.379974-20.720703-7.914185C964.872742,329.584839,963.566711,328.845367,962.008118,329.019775z"/>
	<path style="fill:#E4E7F3;" d="M296.480682,228.814362c5.038086,5.094666,10.076202,10.189316,15.114288,15.283981
		c0.439209-0.420639,0.878418-0.841293,1.317627-1.261948c-5.00531-5.079102-10.01062-10.158188-15.01593-15.237289
		C297.424683,228.004196,296.952698,228.409271,296.480682,228.814362z"/>
	<path style="fill:#E4E7F3;" d="M272.752258,204.978607c-5.025635-5.097672-10.05127-10.195328-15.076904-15.292984
		c-0.572357,0.554504-1.144714,1.108994-1.717056,1.663498c5.015457,5.107651,10.03093,10.215302,15.046371,15.322968
		C271.587219,206.10759,272.169739,205.543091,272.752258,204.978607z"/>
	<path style="fill:#E4E7F3;" d="M252.122253,186.561813c-4.940582-5.185349-9.881165-10.370682-14.821732-15.556015
		c-0.336151,0.325928-0.672302,0.651855-1.008438,0.977783c5.030731,5.106827,10.061478,10.213654,15.092224,15.32048
		C251.63028,187.056641,251.876266,186.809219,252.122253,186.561813z"/>
	<path style="fill:#E4E7F3;" d="M1691.797119,165.102829c-5.011597,5.114441-10.023193,10.228882-15.03479,15.343338
		c0.280151,0.279312,0.560303,0.55864,0.840332,0.837952c5.030029-5.096085,10.059937-10.192184,15.089966-15.288284
		C1692.394165,165.698166,1692.095703,165.400497,1691.797119,165.102829z"/>
	<path style="fill:#E4E7F3;" d="M571,367.004028c0.002625,0.32016,0.008606,0.640259,0.018127,0.9599
		c-7.234192-3.869873-15.261353-6.144348-22.030334-10.950256l0.02063-0.024994
		C556.773438,359.373138,563.999573,362.940765,571,367.004028z"/>
	<path style="fill:#E4E7F3;" d="M1050,363.993652c0.002808,0.32077,0.007812,0.64151,0.015137,0.961731
		c-7.180786-3.670715-15.173828-5.542603-22.024902-9.943726l0.016724-0.021423
		C1035.753662,356.976044,1042.996826,360.19162,1050,363.993652z"/>
	<path style="fill:#E4E7F3;" d="M1637.915771,217.616135c4.762695-4.69043,9.525391-9.380859,14.288086-14.071289
		c-0.299438-0.306305-0.598755-0.612595-0.898193-0.918884c-4.659424,4.781647-9.318848,9.563293-13.978394,14.344955
		C1637.523438,217.185989,1637.719604,217.401062,1637.915771,217.616135z"/>
	<path style="fill:#E4E7F3;" d="M1657.869141,198.597382c4.766602-4.655609,9.533325-9.311218,14.299927-13.966827
		c-0.289185-0.30043-0.578369-0.600861-0.867554-0.901291c-4.697754,4.680573-9.395386,9.36116-14.09314,14.041733
		C1657.428589,198.046463,1657.648926,198.32193,1657.869141,198.597382z"/>
	<path style="fill:#E4E7F3;" d="M276.919403,209.420959c4.653076,4.799957,9.306122,9.599915,13.959167,14.399872
		c0.350922-0.336365,0.701843-0.672729,1.052734-1.009094c-4.72818-4.748627-9.45636-9.497238-14.18457-14.245865
		C277.470978,208.850906,277.19519,209.135925,276.919403,209.420959z"/>
	<path style="fill:#E4E7F3;" d="M1425.908203,288.619232c4.804932-4.659882,9.609741-9.319763,14.414673-13.979675
		c-0.4104-0.419647-0.820801-0.839325-1.231201-1.258972c-4.804932,4.659912-9.609741,9.319855-14.414551,13.979797
		C1425.087524,287.779999,1425.497803,288.199615,1425.908203,288.619232z"/>
	<path style="fill:#E4E7F3;" d="M1730.389648,127.70546c-4.672607,4.792374-9.345215,9.584747-14.017822,14.377136
		c0.411865,0.402756,0.823608,0.805527,1.235474,1.208298c4.666626-4.798264,9.333374-9.596527,14-14.394775
		C1731.201416,128.499222,1730.795532,128.102341,1730.389648,127.70546z"/>
	<path style="fill:#E4E7F3;" d="M232.304153,167.415131c-4.6203-4.8013-9.240585-9.6026-13.860886-14.4039
		c-0.481064,0.455536-0.962143,0.911057-1.443222,1.366592c4.620438,4.773087,9.240891,9.546158,13.861328,14.319229
		C231.3423,168.269745,231.823227,167.842438,232.304153,167.415131z"/>
	<path style="fill:#E4E7F3;" d="M1697.062134,161.761444c4.656372-4.774414,9.312744-9.548828,13.969116-14.323257
		c-0.262939-0.272507-0.525879-0.545013-0.788696-0.817535c-4.66333,4.73671-9.32666,9.473419-13.98999,14.210129
		C1696.522461,161.141006,1696.792236,161.451218,1697.062134,161.761444z"/>
	<path style="fill:#E4E7F3;" d="M509.230927,299.069916c4.789581,4.633148,9.579132,9.266296,14.368744,13.899414
		c0.255188-0.244812,0.510376-0.489624,0.765503-0.734436c-4.728455-4.656464-9.45697-9.312958-14.185486-13.969452
		C509.863434,298.5336,509.54718,298.801758,509.230927,299.069916z"/>
	<path style="fill:#E3E7F3;" d="M330.997406,258.99295c-0.658417,1.00235-1.316833,2.0047-1.975006,3.00705
		c-1.308594-4.450958-5.613434-6.358276-8.237518-9.694244c-1.284973-1.633606-3.292633-2.659302-4.442688-5.464066
		C322.412231,250.232986,325.027924,256.697632,330.997406,258.99295z"/>
	<path style="fill:#E4E7F3;" d="M198.998474,136.023834c0.002411-0.344086,0.004837-0.688156,0.007324-1.032333
		c4.887466,4.65715,9.774872,9.314392,14.662277,13.971649c-0.359482,0.381012-0.718948,0.762039-1.078415,1.143066
		C208.059265,145.412079,203.52887,140.717957,198.998474,136.023834z"/>
	<path style="fill:#E3E7F3;" d="M1619.978638,237.000275c-0.658813-1.002411-1.317627-2.004822-1.976562-3.007309
		c4.299316-1.212021,6.175171-5.312866,9.346558-7.872955c1.524536-1.230713,2.860718-2.694687,5.109497-3.325302
		c-2.004517,2.088211-4.120728,4.082031-5.984375,6.289124C1624.273071,231.69017,1620.754761,233.230255,1619.978638,237.000275z"
		/>
	<path style="fill:#E4E7F3;" d="M475.05542,263.395538c4.46936,4.282806,8.938721,8.565582,13.408112,12.848389
		c0.157837-0.164551,0.315704-0.329132,0.473541-0.493683c-4.38501-4.407562-8.77005-8.815125-13.15506-13.222656
		C475.539825,262.816895,475.297607,263.106201,475.05542,263.395538z"/>
	<path style="fill:#E4E7F3;" d="M1874.648926,74.030182c-4.449341,4.323456-8.898682,8.646912-13.348145,12.970375
		c0.20166,0.213326,0.40332,0.426659,0.60498,0.639992c4.532349-4.273376,9.064575-8.546745,13.596802-12.820122
		C1875.218018,74.557014,1874.933472,74.293602,1874.648926,74.030182z"/>
	<path style="fill:#E4E7F3;" d="M492.138458,281.200958c4.42572,4.360657,8.85144,8.721283,13.277191,13.081909
		c0.248871-0.250427,0.497742-0.500885,0.746613-0.751312c-4.496094-4.294647-8.992157-8.589294-13.488251-12.883942
		C492.495483,280.832062,492.316986,281.01651,492.138458,281.200958z"/>
	<path style="fill:#E4E7F3;" d="M1443.546753,269.245148c4.484619-4.301056,8.969238-8.602081,13.453857-12.903137
		c-0.41394-0.437546-0.827881-0.875107-1.241943-1.312668c-4.458008,4.335342-8.916016,8.67067-13.374023,13.006027
		C1442.771973,268.438629,1443.159424,268.841888,1443.546753,269.245148z"/>
	<path style="fill:#E4E7F3;" d="M1749.995117,109.993027c0.001953,0.343277,0.004028,0.686562,0.005981,1.030121
		c-4.317261,4.532784-8.634399,9.0653-12.95166,13.597816c-0.378174-0.35965-0.756226-0.719299-1.134277-1.078941
		C1740.608398,119.025688,1745.301758,114.509361,1749.995117,109.993027z"/>
	<path style="fill:#E4E7F3;" d="M1894.245483,51.802814c4.486694-4.265579,8.973267-8.531158,13.459961-12.796741
		c-0.241699-0.250793-0.483398-0.501583-0.725098-0.752377c-4.463379,4.339569-8.926758,8.679134-13.390137,13.018703
		C1893.808594,51.449203,1894.026978,51.626011,1894.245483,51.802814z"/>
	<path style="fill:#E4E7F3;" d="M527.50177,317.771606c4.301575,4.49588,8.603088,8.991791,12.904602,13.487701
		c0.320679-0.313385,0.641357-0.62677,0.961975-0.940155c-4.42804-4.362457-8.856079-8.724884-13.28418-13.087341
		C527.890015,317.411743,527.695923,317.591675,527.50177,317.771606z"/>
	<path style="fill:#E4E7F3;" d="M1142.625854,312.652618c4.337646,4.418732,8.675415,8.837433,13.013062,13.256165
		c0.467041-0.439636,0.934082-0.879242,1.401123-1.318878c-4.324829-4.40564-8.64978-8.81131-12.974731-13.21698
		C1143.585449,311.7995,1143.105713,312.226074,1142.625854,312.652618z"/>
	<path style="fill:#E4E7F3;" d="M1404.434204,310.740112c-4.53833,4.255035-9.07666,8.51004-13.614868,12.765076
		c0.248535,0.251648,0.497192,0.503265,0.74585,0.754913c4.538452-4.254883,9.076904-8.509766,13.615356-12.764648
		C1404.931763,311.243652,1404.682983,310.991882,1404.434204,310.740112z"/>
	<path style="fill:#E4E7F3;" d="M544.226624,336.072968c4.431641,4.364166,8.863342,8.728363,13.295044,13.092529
		c0.27179-0.266785,0.543579-0.533569,0.815369-0.800354c-4.422424-4.36731-8.844849-8.734619-13.267273-13.101929
		C544.788696,335.533142,544.507629,335.80304,544.226624,336.072968z"/>
	<path style="fill:#E4E7F3;" d="M1460.630493,251.333389c4.408936-4.362534,8.817993-8.725082,13.226929-13.087616
		c-0.39209-0.416824-0.784302-0.833633-1.176392-1.250443c-4.443359,4.31781-8.886841,8.63562-13.330322,12.95343
		C1459.777344,250.410309,1460.203857,250.871841,1460.630493,251.333389z"/>
	<path style="fill:#E4E7F3;" d="M1421.459106,292.75174c-4.440552,4.362396-8.880981,8.724792-13.321411,13.087189
		c0.345703,0.366974,0.691406,0.733948,1.036987,1.100922c4.479248-4.350128,8.958496-8.700256,13.437744-13.050354
		C1422.228027,293.510223,1421.843506,293.130981,1421.459106,292.75174z"/>
	<path style="fill:#E4E7F3;" d="M1923.754639,22.197496c-4.485962,4.266012-8.971802,8.532024-13.457764,12.798037
		c0.146729,0.154346,0.293457,0.308689,0.440308,0.463032c4.562134-4.238836,9.12439-8.477673,13.686646-12.716511
		C1924.200806,22.560535,1923.977661,22.379015,1923.754639,22.197496z"/>
	<path style="fill:#E4E7F3;" d="M1927.647339,17.354521c4.551392-4.24516,9.102661-8.49032,13.654053-12.73548
		c-0.316284-0.324511-0.63269-0.649021-0.948975-0.973531c-4.551636,4.244856-9.103271,8.489711-13.654907,12.734566
		C1927.014038,16.704891,1927.330688,17.029705,1927.647339,17.354521z"/>
	<path style="fill:#E3E7F3;" d="M1173.997803,339.99292c-0.658691,1.002289-1.317383,2.004608-1.975708,3.006897
		c-1.184326-4.278931-5.248413-6.133087-7.834595-9.232819c-1.137573-1.363525-2.671265-2.396606-3.636108-4.017334
		c2.96106,0.408752,4.229858,3.000244,6.265259,4.56192C1169.23877,336.170013,1170.546875,339.437408,1173.997803,339.99292z"/>
	<path style="fill:#E4E7F3;" d="M1600.91272,218.418015c-3.322021-5.050552-6.643921-10.10112-9.965942-15.151672
		c0.35083-0.233688,0.70166-0.467392,1.05249-0.70108c3.36731,5.067795,6.734497,10.135605,10.101807,15.2034
		C1601.704956,217.985123,1601.308838,218.201569,1600.91272,218.418015z"/>
	<path style="fill:#E4E7F3;" d="M358.068848,228.224503c-3.362427,5.104324-6.724823,10.208633-10.08725,15.312958
		c1.779785-6.090225,5.790131-10.790268,8.995056-15.987427C357.340729,227.774857,357.704773,227.99968,358.068848,228.224503z"/>
	<path style="fill:#E4E7F3;" d="M458.002167,247.006958c0.432739-0.817245,1.187469-0.989929,2.019379-1.008789
		c4.040466,3.846283,8.080719,7.692596,12.120941,11.53891c-0.308411,0.331238-0.616791,0.662476-0.925171,0.993713
		c-2.69986-2.638382-5.354401-5.325485-8.117462-7.89592C461.57254,249.214035,460.514252,247.06604,458.002167,247.006958z"/>
	<path style="fill:#E4E7F3;" d="M1828.112061,121.802666c4.313477-3.81134,8.626953-7.622688,12.94043-11.434036
		c-0.405518-0.429771-0.810913-0.859543-1.216431-1.289314c-4.161011,3.982147-8.322021,7.964287-12.483154,11.946434
		C1827.605957,121.284721,1827.859009,121.543694,1828.112061,121.802666z"/>
	<path style="fill:#E4E7F3;" d="M1488.978516,220.998215c0.831909,0.018661,1.586426,0.192032,2.019897,1.008682
		c-4.152222,1.101547-5.992798,4.979156-8.939331,7.52211c-1.461182,1.261078-2.558105,2.944458-4.407471,3.859894
		C1480.739502,228.601501,1484.592163,224.554092,1488.978516,220.998215z"/>
	<path style="fill:#E4E7F3;" d="M1845.567383,104.259178c4.088745-4.039398,8.17749-8.078804,12.266235-12.118202
		c-0.24646-0.260544-0.493042-0.521088-0.739502-0.781631c-4.129028,4.001427-8.258057,8.002853-12.387085,12.004272
		C1844.993774,103.66214,1845.28064,103.960655,1845.567383,104.259178z"/>
	<path style="fill:#E4E7F3;" d="M1878.65686,69.372063c4.118652-4.017021,8.237305-8.03405,12.355957-12.051071
		c-0.353027-0.373913-0.706055-0.747826-1.059082-1.121738c-4.105957,3.998299-8.211914,7.996601-12.317871,11.9949
		C1877.976196,68.586792,1878.316528,68.979424,1878.65686,69.372063z"/>
	<path style="fill:#E5E9F4;" d="M380.012451,234.978912c-0.327026,0.337128-0.654053,0.674225-0.980743,1.011139
		c-1.670837-5.665894-3.342041-11.331604-5.013092-16.997375c0.329865,0.005814,0.659546,0.008286,0.98938,0.007355
		C377.320038,224.124695,378.887482,229.482513,380.012451,234.978912z"/>
	<path style="fill:#E5E9F4;" d="M1560.032104,237.009781c0.326782,0.33696,0.653687,0.673904,0.980835,1.011063
		c-1.128174,5.496063-2.689575,10.856186-5.008057,15.978943c-0.328003-0.000732-0.655884,0.002411-0.983521,0.009521
		C1556.691772,248.342865,1558.361938,242.676315,1560.032104,237.009781z"/>
	<path style="fill:#E5E9F4;" d="M387.986938,263.022064c0.327637-0.337524,0.655243-0.675049,0.982483-1.012421
		c1.669647,5.666595,3.33963,11.333038,5.009399,16.999573c-0.327606-0.006897-0.654999-0.01001-0.982483-0.009186
		C390.990082,273.77951,388.975861,268.561523,387.986938,263.022064z"/>
	<path style="fill:#E5E9F4;" d="M1569.96875,210.990524c-0.327393-0.337311-0.654785-0.674652-0.982178-1.012238
		c0.988403-5.539551,3.006958-10.756027,5.007568-15.978165c0.329224,0.000977,0.658447-0.00145,0.987305-0.007355
		C1573.310425,199.658615,1571.639648,205.32457,1569.96875,210.990524z"/>
	<path style="fill:#E4E7F3;" d="M573.005493,364.995972c-0.335938,0.001343-0.671936,0.002686-1.007935,0.004028
		c-4.093689-3.089447-7.407837-6.947784-10.88208-10.648163c0.292114-0.307495,0.58429-0.615021,0.876404-0.922516
		C565.663086,357.284882,569.33429,361.140411,573.005493,364.995972z"/>
	<path style="fill:#E4E7F3;" d="M734.401245,312.752686c6.48291-1.542145,12.96582-3.084229,19.448669-4.626404
		c-0.068909-0.346832-0.137817-0.693695-0.206787-1.040466c-6.469666,1.478058-12.939392,2.956146-19.409058,4.434235
		C734.289795,311.930939,734.34552,312.341797,734.401245,312.752686z"/>
	<path style="fill:#E4E7F3;" d="M685.939453,322.348511c6.015259-1.460846,12.030518-2.921722,18.045837-4.382629
		c-0.053711-0.221588-0.107422-0.443237-0.161133-0.664825c-6.075012,1.322601-12.150024,2.645264-18.224976,3.967896
		C685.712585,321.628784,685.825989,321.988647,685.939453,322.348511z"/>
	<path style="fill:#E4E7F3;" d="M710.141052,317.537476c6.057373-1.382172,12.114746-2.764374,18.172119-4.146606
		c-0.077087-0.344543-0.154175-0.689117-0.231201-1.033661c-6.039673,1.47702-12.079285,2.954041-18.118958,4.431061
		C710.022339,317.037994,710.081726,317.28772,710.141052,317.537476z"/>
	<path style="fill:#E4E7F3;" d="M759.99762,307.423126c6.104492-1.204773,12.208984-2.409454,18.313477-3.614166
		c-0.091431-0.438934-0.182922-0.877899-0.274414-1.316803c-6.06012,1.383179-12.1203,2.766357-18.180481,4.149567
		C759.90332,306.902222,759.9505,307.162628,759.99762,307.423126z"/>
	<path style="fill:#E4E7F3;" d="M784.424316,303.180908c6.063538-1.385284,12.127136-2.770599,18.190674-4.155914
		c-0.078491-0.372681-0.157043-0.745331-0.235535-1.118011c-6.061218,1.375824-12.122437,2.751648-18.183655,4.127472
		C784.271973,302.416626,784.348083,302.798767,784.424316,303.180908z"/>
	<path style="fill:#E4E7F3;" d="M662.947937,327.897217c-0.455811-0.804657-0.195007-1.53363,0.236938-2.244873
		c5.416504-1.334412,10.832947-2.66864,16.249329-4.002838c0.113159,0.438232,0.226257,0.876434,0.339417,1.314636
		c-3.67688,0.854889-7.370422,1.645386-11.024109,2.590149C666.729919,326.076508,664.350037,325.812012,662.947937,327.897217z"/>
	<path style="fill:#E4E7F3;" d="M824.291321,294.498444c-0.179688,0.283844-0.359436,0.567719-0.539185,0.851593
		c-4.807373,1.786713-9.843018,2.502533-14.831787,3.438324c-0.101868-0.411682-0.203735-0.823486-0.305603-1.235168
		C813.840271,296.534943,819.065796,295.516693,824.291321,294.498444z"/>
	<path style="fill:#E4E7F3;" d="M1127,298.009277c0.000244-0.337524,0.000488-0.675018,0.000732-1.012573
		c3.890625,3.675568,7.78125,7.351166,11.671753,11.026794c-0.353882,0.367859-0.707764,0.735748-1.061646,1.103607
		C1134.073853,305.421173,1130.536865,301.71524,1127,298.009277z"/>
	<path style="fill:#E4E7F3;" d="M1814.014648,138.001007c-0.339844-0.001083-0.679565-0.002136-1.019531-0.003265
		c3.677368-3.890259,7.354736-7.780472,11.032104-11.670677c0.366333,0.353783,0.732788,0.707558,1.099121,1.06134
		C1821.422485,130.925934,1817.718506,134.46347,1814.014648,138.001007z"/>
	<path style="fill:#E3E7F3;" d="M999.006104,342.990784c6.001892,1.521423,11.79834,3.542023,17.003662,6.99884l-0.015869,0.019531
		c-6.001648-1.522034-11.798584-3.541351-17.003662-6.998749L999.006104,342.990784z"/>
	<path style="fill:#E3E7F3;" d="M1377.009766,340.00061c-0.338135-0.001068-0.676392-0.002197-1.014648-0.003357
		c3.677246-3.89032,7.354492-7.780609,11.031738-11.670898c0.366455,0.354004,0.73291,0.708008,1.099487,1.062012
		C1384.420776,332.925751,1380.71521,336.463165,1377.009766,340.00061z"/>
	<path style="fill:#E3E7F3;" d="M1273.009766,303.011658c-4.884399,3.361725-10.284302,5.544891-16.00293,6.999329
		l-0.016602-0.022644c4.885376-3.359406,10.283081-5.547729,16.00293-6.999329L1273.009766,303.011658z"/>
	<path style="fill:#E3E7F3;" d="M1288.987305,296.96579c-5.508667,1.532257-10.21167,5.193634-15.977661,6.045715
		c0.000122,0.000153-0.016357-0.022217-0.016479-0.022369c4.499512-3.402588,9.87561-4.926025,14.996826-6.995911
		C1289.044922,295.576599,1289.199097,296.083496,1288.987305,296.96579z"/>
	<path style="fill:#E3E7F3;" d="M1240.990234,316.988342c4.883911-3.360687,10.282837-5.544312,16.000122-6.999847
		c-0.000122-0.000153,0.016357,0.022217,0.016479,0.022369c-4.881592,3.365845-10.283203,5.543213-16,6.999939
		L1240.990234,316.988342z"/>
	<path style="fill:#E4E8F3;" d="M1612.004883,233.96907c-0.03894,1.104568,0.174805,2.291306-0.98584,3.030869
		c0.521484-3.341232-1.891968-5.419479-3.32251-7.957275c-1.148438-2.037506-3.232056-3.652084-3.415161-7.32312
		C1607.4198,226.232941,1610.349976,229.680313,1612.004883,233.96907z"/>
	<path style="fill:#E4E7F3;" d="M337.982178,262.000244c-1.16095-0.738922-0.948639-1.925415-0.987671-3.030396
		c1.655273-4.289276,4.585602-7.737015,7.435303-11.269775C343.62677,253.092438,337.572632,256.090302,337.982178,262.000244z"/>
	<path style="fill:#E3E7F3;" d="M1241.006836,317.010803c-4.88147,3.366089-10.283447,5.542847-16,7.000183l-0.016602-0.022644
		c4.883911-3.360687,10.282837-5.544312,16.000122-6.999847C1240.990234,316.988342,1241.006836,317.010803,1241.006836,317.010803z
		"/>
	<path style="fill:#E3E7F3;" d="M1192.986328,337.988068c4.888794-3.354858,10.284058-5.551422,16.006836-6.998871
		l0.016602,0.022461c-4.884155,3.362762-10.2854,5.543213-16.003052,7.000549L1192.986328,337.988068z"/>
	<path style="fill:#E3E7F3;" d="M1208.993164,330.989197c4.880981-3.365112,10.28186-5.542145,15.997192-7.000702
		c-0.000122-0.000153,0.016357,0.022217,0.016479,0.022369c-4.880371,3.366699-10.282959,5.539795-15.997192,7.000641
		C1209.009766,331.011658,1208.993164,330.989197,1208.993164,330.989197z"/>
	<path style="fill:#DADFEF;" d="M50.999371,384.005188c0.000263,0.318939-0.000874,0.637909-0.00346,0.956421
		c-6.998306,0.016266-13.996563,0.032959-20.994812,0.049744c-0.000935-0.328674,0.003815-0.657349,0.014439-0.985657
		C37.010265,384.019073,44.004818,384.012146,50.999371,384.005188z"/>
	<path style="fill:#E3E7F3;" d="M521.00824,343.987793c5.600647,1.048431,10.304016,4.020172,15.003967,6.999359l-0.020203,0.023834
		c-5.601624-1.045959-10.304016-4.020081-15.004944-6.997437L521.00824,343.987793z"/>
	<path style="fill:#DADFEF;" d="M183.018387,383.98761c-6.653229-0.574982-13.420471,1.236145-19.996109-0.95517
		c6.666458,0.007416,13.332565,0.014526,19.998886,0.022186C183.008575,383.365936,183.007584,383.676758,183.018387,383.98761z"/>
	<path style="fill:#E4E7F3;" d="M1181.014526,344.013428c-0.336548-1.006714-0.673096-2.013428-1.009644-3.020203
		c2.596069,1.61853,4.724976-0.176666,6.948975-1.011993c1.987549-0.746521,3.723389-2.221527,6.032715-1.993011
		c-0.000244-0.000153,0.02002,0.023682,0.02002,0.023834C1189.578979,341.150909,1184.881592,341.752472,1181.014526,344.013428z"/>
	<path style="fill:#E3E7F3;" d="M536.012207,350.987152c4.927612,0.710938,8.94989,3.382233,12.996094,6.001678
		c0.000122-0.000153-0.020203,0.024475-0.020386,0.024658c-4.926575-0.713593-8.950378-3.38147-12.99585-6.002625
		C535.992004,351.010986,536.012207,350.987152,536.012207,350.987152z"/>
	<path style="fill:#E4E7F3;" d="M953.977417,326.977722c0.3396,0.677399,0.679199,1.354767,1.018799,2.032227
		c-4.798401-0.191986-8.295593,3.838074-12.984131,4.001709c0.000122,0.000153-0.019043-0.022369-0.019104-0.022522
		C945.415833,329.844971,950.12262,329.260712,953.977417,326.977722z"/>
	<path style="fill:#E3E7F3;" d="M520.987061,344.01355c-4.927002-0.712067-8.949524-3.382385-12.995453-6.002197
		c-0.000092,0.000153,0.020813-0.024689,0.020966-0.024872c4.926086,0.71402,8.949036,3.383179,12.995605,6.001465
		C521.00824,343.987793,520.987061,344.01355,520.987061,344.01355z"/>
	<path style="fill:#E4E7F3;" d="M596.912964,342.195312c-1.921509,2.786316-3.843079,5.572601-5.764648,8.358917
		c-0.322327-0.213959-0.644653-0.427917-0.96698-0.641876c1.876038-2.860107,3.752136-5.720184,5.628235-8.580292
		C596.177368,341.619812,596.545166,341.907562,596.912964,342.195312z"/>
	<path style="fill:#E3E6F3;" d="M998.990234,343.010406c-4.352478-0.818726-8.436829-2.280609-11.996704-5.000763
		c-0.000061,0.000122,0.016541-0.020264,0.016724-0.020416c4.35199,0.819824,8.437256,2.279175,11.995789,5.001678
		C999.006104,342.990784,998.990234,343.010406,998.990234,343.010406z"/>
	<path style="fill:#E3E6F3;" d="M1027.990234,355.011658c-4.351807-0.820953-8.43811-2.278534-11.996277-5.002625
		c-0.000061,0.000122,0.015564-0.019135,0.015686-0.019287c4.3526,0.818909,8.437378,2.280151,11.997192,5.00061
		C1028.006958,354.990234,1027.990234,355.011658,1027.990234,355.011658z"/>
	<path style="fill:#E5E8F4;" d="M1288.987305,296.96582c-0.332397-0.324127-0.664673-0.648254-0.997192-0.972473
		c3.671875-1.659821,7.343994-3.31958,11.015991-4.979187c-0.004639,0.326752-0.006714,0.653412-0.006104,0.97998
		C1295.662476,293.651337,1292.324829,295.308563,1288.987305,296.96582z"/>
	<path style="fill:#E4E7F3;" d="M607.425354,325.809937c-1.503174,3.125122-2.963928,6.30069-5.913635,8.42691
		C602.814209,330.98645,604.715637,328.132568,607.425354,325.809937z"/>
	<path style="fill:#E3E7F3;" d="M580.976868,367.00238c-0.793274-0.451477-0.95929-1.2052-0.978027-2.030212
		c1.314819-2.784119,3.045898-5.261261,5.369629-7.345123C584.829468,361.21817,581.269531,363.340057,580.976868,367.00238z"/>
	<path style="fill:#E4E7F3;" d="M1085.983154,333.985992c1.105103-3.740936,4.282959-5.669586,6.997314-8.00351l0.0354,0.031311
		c-1.105225,3.740509-4.281494,5.670776-6.996338,8.004333L1085.983154,333.985992z"/>
	<path style="fill:#E3E7F3;" d="M1086.019531,334.018127c-0.781616,3.577606-4.072021,5.004883-6.369019,7.285217
		c1.120728-3.279907,3.708496-5.314148,6.332886-7.3172C1085.983154,333.985992,1086.019531,334.018127,1086.019531,334.018127z"/>
	<path style="fill:#E3E7F3;" d="M1092.980469,325.982483c0.679077-3.666199,4.244141-4.858856,6.3125-7.335693
		c-1.064453,3.32901-3.651367,5.364502-6.277344,7.366821C1093.015869,326.013794,1092.980469,325.982483,1092.980469,325.982483z"
		/>
	<path style="fill:#DFE3F1;" d="M297,377.992523c0-0.322388,0-0.644775,0-0.966827c4.333344-0.005829,8.666656-0.011993,13-0.018066
		c0,0.322296,0,0.644501,0,0.966309C305.666656,377.979919,301.333344,377.986206,297,377.992523z"/>
	<path style="fill:#DFE3F1;" d="M222,379.992523c0-0.322388,0-0.644775,0-0.966827c4.333328-0.005829,8.666672-0.011993,13-0.018066
		c0,0.322296,0,0.644501,0,0.966309C230.666672,379.979919,226.333328,379.986206,222,379.992523z"/>
	<path style="fill:#E3E7F3;" d="M1065.950684,357.596161c0.51001-2.923035,2.357422-4.482086,4.907471-5.450684
		C1069.22229,353.962372,1067.586548,355.779266,1065.950684,357.596161z"/>
	<path style="fill:#E3E7F3;" d="M155.015854,157.015442c-1.879257,2.345428-4.327438,3.768158-7.207352,4.492188
		c2.022476-2.104095,4.145981-4.044205,7.180252-4.52272L155.015854,157.015442z"/>
	<path style="fill:#E3E7F3;" d="M154.988754,156.984909c2.169098-2.462784,4.729858-4.298904,8-5.000015l0.0271,0.030548
		c-2.170151,2.461304-4.73259,4.29483-8.000214,4.999802C155.015854,157.015442,154.988754,156.984909,154.988754,156.984909z"/>
	<path style="fill:#E3E7F3;" d="M171.015854,147.015442c-2.170151,2.461304-4.73259,4.29483-8.000214,4.999802
		c0.000214,0.000198-0.026627-0.029953-0.026749-0.030151c2.168991-2.462921,4.729691-4.299133,7.999863-5.000183
		L171.015854,147.015442z"/>
	<path style="fill:#E3E7F3;" d="M170.988754,146.984909c2.169144-2.462692,4.729813-4.298935,8-4.999954l0.027084,0.030487
		c-2.170166,2.461258-4.732574,4.294861-8.000198,4.999802C171.015854,147.015442,170.988754,146.984909,170.988754,146.984909z"/>
	<path style="fill:#E3E7F3;" d="M178.988754,141.984955c2.1707-2.460266,4.722855-4.308578,8.003159-4.988556
		c-0.000107-0.000046,0.009476,0.011337,0.009491,0.011444c-2.152023,2.482498-4.721985,4.29834-7.985779,5.007401
		C179.015839,142.015442,178.988754,141.984955,178.988754,141.984955z"/>
	<path style="fill:#E4E7F3;" d="M1072.505981,349.111633c0.998535-2.443909,2.813477-4.035278,5.50415-6.198761
		C1076.782349,346.41333,1074.65332,347.819519,1072.505981,349.111633z"/>
	<path style="fill:#E3E7F3;" d="M1794.010132,131.985413c3.035034,0.477097,5.158813,2.417252,7.181274,4.522018
		c-2.879395-0.724274-5.328857-2.144363-7.206055-4.492462L1794.010132,131.985413z"/>
	<path style="fill:#E3E7F3;" d="M1786.010132,126.98539c3.270996,0.699791,5.832275,2.535027,7.999878,5.000206
		c0.000122-0.000183-0.024292,0.028992-0.024414,0.029175c-3.268433-0.704025-5.830566-2.53801-8.000244-4.999748
		L1786.010132,126.98539z"/>
	<path style="fill:#E3E7F3;" d="M1778.010132,121.98539c3.270874,0.700073,5.832275,2.535011,7.999878,5.000191
		c0.000122-0.000191-0.024292,0.029053-0.024414,0.029251c-3.268311-0.704262-5.830566-2.537971-8.000244-4.999809
		L1778.010132,121.98539z"/>
	<path style="fill:#E3E7F3;" d="M1770.010132,116.985382c3.270874,0.700089,5.832275,2.535011,7.999878,5.000198
		c0.000122-0.000191-0.024292,0.029053-0.024414,0.029251c-3.268311-0.704308-5.830566-2.53791-8.000244-4.999817
		L1770.010132,116.985382z"/>
	<path style="fill:#E3E7F3;" d="M1769.985352,117.015015c-3.26416-0.709076-5.834717-2.523918-7.985596-5.008041
		c0,0.000092,0.008667-0.010147,0.008789-0.010185c3.279907,0.680328,5.832886,2.526299,8.001465,4.988785
		C1770.010132,116.985382,1769.985352,117.015015,1769.985352,117.015015z"/>
	<path style="fill:#E3E6F3;" d="M1108.490112,308.189301c0.832886-2.532288,2.887573-4.00412,4.961548-5.459198
		C1112.749268,305.37558,1110.674561,306.830048,1108.490112,308.189301z"/>
	<path style="fill:#E4E7F3;" d="M1101.951416,316.597015c0.510742-2.922791,2.36145-4.47879,4.907593-5.451111
		C1105.223145,312.962952,1103.58728,314.779999,1101.951416,316.597015z"/>
	<path style="fill:#E4E7F3;" d="M870.01709,336.98288c2.608765,1.662231,4.10321,4.119781,4.999329,7.004395l-0.033508,0.029633
		c-2.604004-1.665527-4.098083-4.12326-4.999207-7.004211L870.01709,336.98288z"/>
	<path style="fill:#E3E7F3;" d="M847.983887,306.016693c-2.599854-1.216522-3.198303-3.955811-4.523499-6.14447
		c2.368103,1.385742,3.858643,3.445374,4.555115,6.11618L847.983887,306.016693z"/>
	<path style="fill:#E3E7F3;" d="M848.015503,305.988403c2.607788,1.660736,4.099609,4.118896,5.000916,6.998962l-0.033447,0.029785
		c-2.609802-1.659912-4.099304-4.119751-4.99884-7.000671C847.983887,306.016693,848.015503,305.988403,848.015503,305.988403z"/>
	<path style="fill:#E3E7F3;" d="M869.983704,337.012695c-2.543579-1.258362-3.344543-3.841553-4.465027-6.184265
		c2.313416,1.425995,3.800781,3.486481,4.498169,6.154663C870.01709,336.98288,869.983704,337.012695,869.983704,337.012695z"/>
	<path style="fill:#E3E7F3;" d="M853.016418,312.987366c2.54364,1.25824,3.344482,3.841461,4.464844,6.184204
		c-2.3125-1.426666-3.801025-3.486237-4.498108-6.154663C852.982971,313.017151,853.016418,312.987366,853.016418,312.987366z"/>
	<path style="fill:#E3E7F3;" d="M875.016418,343.987274c2.605286,1.662659,4.110718,4.108826,4.988403,7.002106
		c0.000061-0.000153-0.014343,0.013641-0.014465,0.013672c-2.625244-1.643616-4.095764-4.114746-5.007202-6.986389
		C874.98291,344.016907,875.016418,343.987274,875.016418,343.987274z"/>
	<path style="fill:#E3E7F3;" d="M1317.011719,298.983521c2.956543,0.519867,4.386841,2.872589,6.004761,5.000061l-0.027832,0.032684
		c-2.962036-0.513153-4.390503-2.868774-6.006104-4.999481L1317.011719,298.983521z"/>
	<path style="fill:#E3E7F3;" d="M1323.016479,303.983582c2.720459,0.351562,3.869385,2.533783,5.193115,4.514526
		c-2.386475-0.73288-3.884033-2.512756-5.220825-4.482056C1322.988647,304.016266,1323.016479,303.983582,1323.016479,303.983582z"
		/>
	<path style="fill:#E3E7F3;" d="M1316.982544,299.016785c-2.721802-0.347748-3.872437-2.528198-5.192871-4.512604
		c2.384521,0.733551,3.879883,2.516052,5.221924,4.479553C1317.011719,298.983521,1316.982544,299.016785,1316.982544,299.016785z"
		/>
	<path style="fill:#E3E7F3;" d="M637.987427,320.016205c-2.956543-0.518921-4.389343-2.868317-6.004761-4.998352l0.030212-0.034241
		c2.956055,0.519806,4.389893,2.867767,6.003967,4.999237L637.987427,320.016205z"/>
	<path style="fill:#E4E7F3;" d="M409.018311,281.018188c-1.620728,2.12207-3.037537,4.489807-6.007233,4.986633
		c0.000153,0.000061-0.013458-0.015533-0.013458-0.015686c1.595062-2.148743,3.037964-4.479401,5.988556-5.006622
		L409.018311,281.018188z"/>
	<path style="fill:#E3E7F3;" d="M415.016876,276.016937c-1.610596,2.133698-3.045685,4.477936-5.99881,5.001007
		c0.000244,0.000244-0.031555-0.034973-0.031738-0.035217c1.615112-2.128784,3.046692-4.477814,6.001007-4.998749
		L415.016876,276.016937z"/>
	<path style="fill:#E3E7F3;" d="M1353.987549,330.016357c-2.724121-0.347717-3.872192-2.533508-5.197266-4.514923
		c2.387939,0.732056,3.88269,2.517822,5.227051,4.481415L1353.987549,330.016357z"/>
	<path style="fill:#E3E7F3;" d="M1360.012329,334.983673c2.783325,0.276245,3.790283,2.627441,5.229614,4.475739
		c-2.417847-0.695526-3.910278-2.484009-5.259033-4.442566L1360.012329,334.983673z"/>
	<path style="fill:#E3E7F3;" d="M443.982605,251.982681c1.509644-1.671906,3.019257-3.343826,4.5289-5.015732
		c0.316284,0.320877,0.632568,0.641769,0.948853,0.962646c-1.643066,1.53981-2.663361,3.719315-5.44751,4.087097
		L443.982605,251.982681z"/>
	<path style="fill:#E3E7F3;" d="M1359.98291,335.016846c-2.949951-0.526215-4.384521-2.869019-5.995239-5.000702
		c-0.000122,0.000214,0.029175-0.032837,0.029419-0.033051c2.954102,0.521362,4.387207,2.865845,5.995117,5.000793
		C1360.012329,334.983673,1359.98291,335.016846,1359.98291,335.016846z"/>
	<path style="fill:#E3E7F3;" d="M1510.987793,232.015793c-2.956299-0.519562-4.38562-2.874252-6.00708-4.998047l0.033936-0.035583
		c2.957031,0.518997,4.389893,2.867462,6.001831,5.000809L1510.987793,232.015793z"/>
	<path style="fill:#E4E7F3;" d="M1504.980713,227.017746c-2.716431-0.355927-3.871582-2.529938-5.191284-4.514618
		c2.387573,0.731522,3.881104,2.517059,5.224976,4.479263C1505.014648,226.982162,1504.980713,227.017746,1504.980713,227.017746z"
		/>
	<path style="fill:#E3E7F3;" d="M1534.01123,250.984909c2.957153,0.518417,4.387085,2.87233,6.006836,4.998032l-0.030029,0.033997
		c-2.959106-0.516739-4.392578-2.864746-6.002808-5.00061L1534.01123,250.984909z"/>
	<path style="fill:#E3E7F3;" d="M1545.990234,261.005676c-2.96814-0.499115-4.389526-2.859161-6.002075-4.988953
		c-0.000122,0.000214,0.029419-0.03334,0.029663-0.033569c2.946899,0.530701,4.391235,2.857391,5.984375,5.005981
		C1546.002197,260.989014,1545.990234,261.005676,1545.990234,261.005676z"/>
	<path style="fill:#E3E7F3;" d="M444.012848,252.016693c-1.613678,2.130234-3.045563,4.478729-6.000763,4.998383l-0.028076-0.031464
		c1.609528-2.134903,3.044617-4.47908,5.99884-5.000702C443.982605,251.982681,444.012848,252.016693,444.012848,252.016693z"/>
	<path style="fill:#DDE1F1;" d="M901.004883,351.002441c-1.644653,1.620453-3.631897,2.503326-5.981873,2.606232
		c1.677307-1.545288,3.523926-2.727112,5.974548-2.613556C900.997559,350.995056,901.004883,351.002441,901.004883,351.002441z"/>
	<path style="fill:#E3E6F3;" d="M1523.100342,241.81839c2.491577,1.002258,3.573364,2.063812,4.537964,4.091171
		C1525.355347,245.259094,1524.377075,244.089386,1523.100342,241.81839z"/>
	<path style="fill:#E3E6F3;" d="M438.012085,257.015076c-0.925171,1.60675-2.128967,2.921417-4.103058,3.432953
		c0.843872-1.686035,1.741119-3.316559,4.075195-3.464203C437.984009,256.983612,438.012085,257.015076,438.012085,257.015076z"/>
	<path style="fill:#DADFEF;" d="M112.013069,383.024414c-0.005714-0.329651-0.008728-0.659332-0.008987-0.988647
		c2.664513-0.004303,5.328987-0.009003,7.993431-0.013458c0.002029,0.331146,0.003548,0.662018,0.004524,0.99292
		C117.33992,383.779633,114.676903,383.758698,112.013069,383.024414z"/>
	<path style="fill:#E3E6F3;" d="M1533.985229,251.016327c-2.284912-0.098129-3.217773-1.835358-5.428955-4.229599
		c3.302856,1.058182,4.416504,2.581924,5.454834,4.19838C1534.01123,250.984909,1533.985229,251.016327,1533.985229,251.016327z"/>
	<path style="fill:#E3E6F3;" d="M1517.838867,237.514786c1.758545,0.376404,2.894653,1.350739,3.708008,3.353668
		C1519.392822,240.343491,1518.505249,239.01976,1517.838867,237.514786z"/>
	<path style="fill:#E3E6F3;" d="M1334.765381,313.932892c-2.400513-0.646545-3.3479-1.862549-4.515991-3.861603
		C1332.63501,310.7117,1333.580444,311.929962,1334.765381,313.932892z"/>
	<path style="fill:#E3E6F3;" d="M631.982666,315.017853c-2.260498-0.128418-3.233154-1.817047-5.338562-4.200104
		c3.214539,1.026123,4.327148,2.552307,5.368591,4.166077C632.012878,314.983612,631.982666,315.017853,631.982666,315.017853z"/>
	<path style="fill:#E3E6F3;" d="M1511.016479,231.982971c2.252319,0.137863,3.279541,1.759872,5.039795,4.105591
		c-2.91626-0.932709-4.027832-2.459198-5.068359-4.072968C1510.987793,232.015793,1511.016479,231.982971,1511.016479,231.982971z"
		/>
	<path style="fill:#E3E6F3;" d="M1340.160034,318.485779c-1.756836-0.37738-2.894043-1.349945-3.705811-3.353638
		C1338.6073,315.657379,1339.494751,316.980316,1340.160034,318.485779z"/>
	<path style="fill:#E3E7F3;" d="M638.016846,319.982849c2.25116,0.13913,3.279541,1.759949,5.041199,4.104065
		c-2.917786-0.930328-4.02948-2.457092-5.070496-4.070923C637.987427,320.016205,638.016846,319.982849,638.016846,319.982849z"/>
	<path style="fill:#E3E6F3;" d="M1342.795898,320.623688c1.803589,0.116119,2.640625,1.289795,3.56958,2.462341
		C1343.720581,324.182251,1343.910034,321.410126,1342.795898,320.623688z"/>
	<path style="fill:#E3E6F3;" d="M427.500183,265.070648c1.016388-0.970337,2.032776-1.940704,3.453552-3.297119
		C430.955719,264.441498,429.425385,265.024261,427.500183,265.070648z"/>
	<path style="fill:#E3E6F3;" d="M421.249176,270.925415c1.166992-1.997772,2.117554-3.210815,4.51651-3.861053
		C424.578796,269.068481,423.635681,270.289825,421.249176,270.925415z"/>
	<path style="fill:#E3E6F3;" d="M414.987335,275.983978c0.927307-1.604675,2.129211-2.921417,4.104004-3.43219
		c-0.844238,1.685577-1.740143,3.317352-4.074677,3.464935C415.016876,276.016937,414.987335,275.983978,414.987335,275.983978z"/>
	<path style="fill:#E3E6F3;" d="M407.013733,369.013336c-1.080078,1.983002-2.942535,2.655884-5.00708,2.990265
		c0.000092,0.000061-0.00824-0.009552-0.00824-0.009644c1.060211-2.004669,2.936096-2.655212,4.991913-3.007019
		L407.013733,369.013336z"/>
	<path style="fill:#E2E6F3;" d="M412.014008,366.013367c-1.07666,1.983826-2.946228,2.645782-5.000458,2.999817
		c0.000183,0.000153-0.02301-0.025909-0.023132-0.026062c1.073425-1.98877,2.940887-2.654297,4.999908-3.000549
		L412.014008,366.013367z"/>
	<path style="fill:#E3E6F3;" d="M417.011444,363.012909c-1.075378,1.983826-2.944611,2.645172-4.99762,3.000275
		c0.000183,0.000183-0.023285-0.026276-0.023407-0.026428c1.071289-1.989471,2.940491-2.650726,4.995941-3.001831
		C416.986176,362.984741,417.011444,363.012909,417.011444,363.012909z"/>
	<path style="fill:#E3E6F3;" d="M464.986755,333.986938c1.080597-1.981323,2.942169-2.655304,5.006012-2.99054
		c-0.000092-0.000061,0.008881,0.010742,0.008881,0.010834c-1.061249,2.003204-2.934265,2.657928-4.992218,3.005463
		L464.986755,333.986938z"/>
	<path style="fill:#DADFEF;" d="M81.986946,383.020111c-2.319977,1.543945-4.642273,1.532166-6.966499,0.010651
		C77.342819,383.027405,79.664886,383.023743,81.986946,383.020111z"/>
	<path style="fill:#E3E6F3;" d="M465.00943,334.012695c-1.070282,1.990723-2.940216,2.65094-4.995483,3.002716
		c0.000183,0.000214-0.025299-0.028503-0.025421-0.028656c1.076263-1.982971,2.944977-2.645325,4.998413-2.999634
		C464.986755,333.986938,465.00943,334.012695,465.00943,334.012695z"/>
	<path style="fill:#DDE1F0;" d="M617,312.001221c-0.052002,1.610291-0.898926,2.686646-2.689148,3.641632
		c0.126221-2.073029,1.337402-2.90564,2.689148-3.64386V312.001221z"/>
	<path style="fill:#E3E6F2;" d="M860.303955,323.288208c1.448486,0.93634,2.442566,1.490204,2.300049,3.091949
		C861.220825,325.984283,860.435181,325.271851,860.303955,323.288208z"/>
	<path style="fill:#FEFEFE;" d="M112.013069,383.024414c2.662971-0.003174,5.325951-0.006348,7.988945-0.009369
		c0.625595,0.061035,1.251167,0.121887,1.876747,0.182739C118.574883,383.452515,115.238556,385.037445,112.013069,383.024414z"/>
	<path style="fill:#FBFBFD;" d="M396.749298,376.856079c-1.592865,0.003845-2.546021-0.827698-2.590302-2.357391
		c-0.03714-1.284943,0.764069-2.207306,2.099152-2.31781c1.596222-0.13208,2.531342,0.799927,2.583801,2.320984
		C398.886505,375.793549,398.051392,376.604706,396.749298,376.856079z"/>
	<path style="fill:#FBFBFD;" d="M370.595001,212.906662c-1.596191-0.261368-2.55069-1.048813-2.412628-2.65033
		c0.11496-1.333618,1.034576-2.136383,2.318085-2.094299c1.520233,0.049835,2.440918,0.986404,2.319733,2.582458
		C372.717163,212.102188,371.739929,212.674149,370.595001,212.906662z"/>
	<path style="fill:#FBFBFD;" d="M1580.887817,185.532166c-0.247437,1.474731-1.036011,2.42775-2.637451,2.285217
		c-1.333862-0.118744-2.133179-1.040268-2.087769-2.323288c0.053833-1.520325,0.992676-2.444565,2.588623-2.307907
		C1580.089111,183.300751,1580.723999,184.226013,1580.887817,185.532166z"/>
	<path style="fill:#FBFBFD;" d="M1551.740967,265.853271c-1.593384,0.000275-2.543945-0.832733-2.582153-2.363373
		c-0.032104-1.28476,0.772339-2.204071,2.107056-2.309387c1.594849-0.125885,2.52832,0.807068,2.574463,2.328949
		C1553.879639,264.800201,1553.046143,265.610992,1551.740967,265.853271z"/>
	<path style="fill:#FBFBFD;" d="M397.480408,290.888855c-1.478729-0.240326-2.435089-1.026733-2.299713-2.629181
		c0.112732-1.334778,1.032074-2.139282,2.316071-2.099274c1.52063,0.047363,2.453308,0.983398,2.322479,2.579437
		C399.709778,290.075195,398.786499,290.719452,397.480408,290.888855z"/>
	<path style="fill:#FBFBFD;" d="M1058.909668,365.402679c-0.262329,1.598267-1.048828,2.554657-2.652222,2.417725
		c-1.335815-0.114166-2.13855-1.035095-2.097412-2.319c0.048584-1.521484,0.985596-2.443695,2.583374-2.322723
		C1058.101685,363.281494,1058.675537,364.258453,1058.909668,365.402679z"/>
	<path style="fill:#FBFBFD;" d="M651.889709,328.523529c-0.242737,1.477905-1.029846,2.434357-2.632874,2.296814
		c-1.335083-0.114594-2.139099-1.03537-2.09668-2.319672c0.05011-1.519958,0.985779-2.452454,2.58374-2.319946
		C651.082214,326.291718,651.720825,327.217896,651.889709,328.523529z"/>
	<path style="fill:#FBFBFD;" d="M885.480286,358.887634c-1.478088-0.240265-2.433838-1.026367-2.298584-2.628052
		c0.112671-1.334167,1.031372-2.138214,2.314941-2.098206c1.520081,0.047424,2.452026,0.983093,2.32135,2.578339
		C887.708618,358.074524,886.785645,358.718262,885.480286,358.887634z"/>
	<path style="fill:#FBFBFD;" d="M479.749176,328.85614c-1.592804,0.003815-2.546173-0.827698-2.590393-2.357391
		c-0.03714-1.284821,0.764099-2.207428,2.099213-2.317993c1.596283-0.132111,2.531281,0.799988,2.583832,2.321136
		C481.886414,327.793793,481.051331,328.604767,479.749176,328.85614z"/>
	<path style="fill:#FBFBFD;" d="M1124.892944,294.532318c-0.249146,1.476471-1.038818,2.432495-2.643066,2.28949
		c-1.335571-0.119049-2.137451-1.042694-2.091797-2.327728c0.054077-1.52243,0.994873-2.449402,2.593628-2.312317
		C1124.091553,292.296631,1124.727783,293.224213,1124.892944,294.532318z"/>
	<path style="fill:#FBFBFD;" d="M839.889709,292.532349c-0.248413,1.475037-1.036865,2.429626-2.639648,2.286621
		c-1.334473-0.119049-2.134766-1.041138-2.089172-2.324951c0.054016-1.521179,0.993652-2.446228,2.590637-2.309448
		C839.090271,290.299316,839.725586,291.225311,839.889709,292.532349z"/>
	<path style="fill:#FBFBFD;" d="M1756.890869,108.523811c-0.243164,1.477875-1.03064,2.434753-2.634033,2.297226
		c-1.335449-0.114548-2.139771-1.035568-2.097168-2.320343c0.050293-1.520226,0.985718-2.453529,2.584473-2.320641
		C1756.082642,106.29129,1756.721924,107.217384,1756.890869,108.523811z"/>
	<path style="fill:#FBFBFD;" d="M194.741211,135.854599c-1.594131,0.000275-2.545135-0.83316-2.583359-2.364578
		c-0.032104-1.285339,0.772675-2.205292,2.107941-2.310715c1.595673-0.125961,2.529678,0.807755,2.576004,2.3302
		C196.881088,134.800735,196.047211,135.612122,194.741211,135.854599z"/>
	<path style="fill:#FBFBFD;" d="M1306.909668,290.405273c-0.262573,1.597473-1.050903,2.55368-2.653809,2.415741
		c-1.334839-0.114838-2.138672-1.03595-2.09668-2.320831c0.049683-1.521942,0.987183-2.443787,2.585205-2.322388
		C1306.103638,288.281036,1306.675659,289.259827,1306.909668,290.405273z"/>
	<path style="fill:#FBFBFD;" d="M620.974976,305.14624c1.869873-0.003418,2.822083,0.8284,2.865173,2.357056
		c0.036133,1.283875-0.765198,2.204803-2.099731,2.315155c-1.597046,0.132019-2.512756-0.800323-2.585022-2.321686
		C619.092041,306.163666,620.049622,305.485748,620.974976,305.14624z"/>
	<path style="fill:#FBFBFD;" d="M1809.252441,143.856155c-1.305664-0.250412-2.138306-1.063049-2.093628-2.354843
		c0.052612-1.52153,0.986694-2.452698,2.583862-2.320282c1.336426,0.110779,2.136353,1.03421,2.099121,2.3181
		C1811.797607,143.028732,1810.842651,143.859406,1809.252441,143.856155z"/>
	<path style="fill:#FBFBFD;" d="M578.861145,368.254486c0.002197,1.593109-0.832214,2.547638-2.363647,2.591339
		c-1.286621,0.036652-2.210388-0.766815-2.320923-2.104492c-0.132324-1.600616,0.80365-2.534637,2.326904-2.586243
		C577.796997,366.111267,578.610901,366.946259,578.861145,368.254486z"/>
	<path style="fill:#FBFBFD;" d="M139.746826,168.856613c-1.591354,0.003418-2.544128-0.828506-2.587997-2.358383
		c-0.036835-1.285034,0.763855-2.207352,2.09964-2.317413c1.596527-0.131561,2.53212,0.80011,2.583023,2.321548
		C141.884644,167.792206,141.053619,168.60791,139.746826,168.856613z"/>
	<path style="fill:#FBFBFD;" d="M1374.909424,343.40625c-0.262207,1.596375-1.050293,2.552979-2.653442,2.414825
		c-1.334839-0.115021-2.138672-1.035736-2.09668-2.320953c0.049683-1.522308,0.987061-2.443695,2.585205-2.32251
		C1374.104004,341.280701,1374.676636,342.258789,1374.909424,343.40625z"/>
	<path style="fill:#FBFBFD;" d="M1495.890991,218.532104c-0.248535,1.4758-1.037476,2.431015-2.640869,2.287903
		c-1.334717-0.11911-2.135986-1.040802-2.09021-2.325882c0.054199-1.521896,0.993774-2.44754,2.591675-2.310654
		C1495.090942,216.298203,1495.726562,217.224686,1495.890991,218.532104z"/>
	<path style="fill:#FBFBFD;" d="M457.890717,243.523544c-0.24295,1.477509-1.02948,2.434723-2.633362,2.297562
		c-1.33606-0.114243-2.139496-1.035461-2.098328-2.319717c0.048798-1.521713,0.987061-2.451996,2.584076-2.320892
		C457.08194,241.290421,457.721222,242.216965,457.890717,243.523544z"/>
	<path style="fill:#FBFBFD;" d="M960.891418,326.532349c-0.24884,1.475861-1.037842,2.431183-2.641602,2.288147
		c-1.335205-0.119171-2.136292-1.041962-2.090637-2.326508c0.054016-1.522095,0.994568-2.447723,2.592529-2.310822
		C960.091309,324.297943,960.727051,325.224518,960.891418,326.532349z"/>
	<path style="fill:#FBFBFD;" d="M335.891388,262.53241c-0.248657,1.476196-1.037964,2.431213-2.641571,2.288086
		c-1.335022-0.119202-2.136139-1.041779-2.090546-2.326538c0.054016-1.522125,0.994263-2.447998,2.592194-2.310791
		C335.090668,260.298126,335.726593,261.225006,335.891388,262.53241z"/>
	<path style="fill:#FBFBFD;" d="M1178.90979,343.40506c-0.262451,1.597748-1.050537,2.554535-2.653809,2.416412
		c-1.334839-0.115021-2.138794-1.035889-2.096924-2.321198c0.049683-1.522278,0.986938-2.444336,2.585327-2.322968
		C1178.103882,341.280487,1178.676025,342.25946,1178.90979,343.40506z"/>
	<path style="fill:#FBFBFD;" d="M1615.788818,235.151123c1.263672,0.241898,2.098022,1.05426,2.054443,2.345947
		c-0.051392,1.521469-0.993408,2.499817-2.580688,2.31279c-1.538452-0.181274-2.347778-1.227295-2.038818-2.790909
		C1613.476685,235.739166,1614.4021,235.100494,1615.788818,235.151123z"/>
</g>
</svg>
