<?xml version="1.0" encoding="utf-8"?>
<!-- Generator: Adobe Illustrator 19.2.1, SVG Export Plug-In . SVG Version: 6.00 Build 0)  -->
<svg version="1.0" id="Capa_1" xmlns="http://www.w3.org/2000/svg" xmlns:xlink="http://www.w3.org/1999/xlink" x="0px" y="0px"
	 viewBox="0 0 344.239136 297.186951" style="enable-background:new 0 0 344.239136 297.186951;" xml:space="preserve">
<rect x="139.239136" y="74.210625" style="fill:#F59899;" width="64.666664" height="215.333328"/>
<rect x="208.239136" y="140.877289" style="fill:#B3DAF5;" width="60.666668" height="148.666672"/>
<rect x="74.572472" y="161.877289" style="fill:#B3DAF5;" width="61.666668" height="127.666664"/>
<polygon style="opacity:0.05;fill:#2A3038;" points="268.572479,143.210632 264.907959,140.877289 208.239136,291.877289 
	272.239136,291.877289 272.239136,143.543961 "/>
<polygon style="opacity:0.05;fill:#2A3038;" points="136.239136,161.877289 74.572472,291.877289 137.572464,291.877289 "/>
<path style="fill:#2A3038;" d="M13.161248,6.580594C13.161248,2.952002,10.209186,0,6.580654,0C2.952062,0,0,2.952002,0,6.580594
	v284.015869c0,3.628601,2.952062,6.580597,6.580654,6.580597h66.030655h0.043358l0.043289,0.000977
	c0.07016,0.001526,0.139351,0.00473,0.208168,0.008911h66.124222h66.238953h66.11937
	c0.07077-0.004303,0.138672-0.007385,0.207489-0.008911l0.043304-0.000977h0.043304h65.975769
	c3.628601,0,6.580597-2.951996,6.580597-6.580597c-0.001709-3.626892-2.955048-6.579193-6.583374-6.579193h-55.61264h-3.973938
	v-3.973907V140.623352c0-3.628586-2.952057-6.580597-6.580658-6.580597h-55.667435h-3.973923v-3.973923v-55.43248
	c0-3.628654-2.952072-6.58065-6.580658-6.58065h-66.227722c-3.62854,0-6.580597,2.951996-6.580597,6.58065v76.091278v3.973923
	h-3.973923H72.802681c-3.628586,0-6.580589,2.952011-6.580589,6.580597v118.761154v3.973907h-3.973923H17.135168h-3.97392v-3.973907
	V6.580594z M211.847168,280.041901V151.176529v-3.973923h3.973923h45.11293h3.973938v3.973923v128.865372v3.973938h-3.973938
	h-45.11293h-3.973923V280.041901z M145.620834,280.043304V85.190865v-3.973915h3.973923h45.118637h3.973923v3.973915v55.432487
	v139.419952v3.973907h-3.973923h-45.118637h-3.973923V280.043304z M79.383339,280.043304V171.83667v-3.973923h3.973923h45.118584
	h3.973907v3.973923v108.206635v3.973907h-3.973907H83.357262h-3.973923V280.043304z"/>
<polygon style="fill:#F36C6D;" points="149.402359,89.29908 149.402359,92.956276 149.402359,272.277863 149.402359,275.935059 
	152.809891,275.935059 191.49823,275.935059 194.905807,275.935059 194.905807,272.277863 194.905807,143.97049 
	194.905807,92.956276 194.905807,89.29908 191.49823,89.29908 152.809891,89.29908 "/>
</svg>
