<?xml version="1.0" encoding="utf-8"?>
<!-- Generator: Adobe Illustrator 19.2.1, SVG Export Plug-In . SVG Version: 6.00 Build 0)  -->
<svg version="1.0" id="Слой_1" xmlns="http://www.w3.org/2000/svg" xmlns:xlink="http://www.w3.org/1999/xlink" x="0px" y="0px"
	 viewBox="0 0 1135.353516 428" style="enable-background:new 0 0 1135.353516 428;" xml:space="preserve">
<g>
	<rect x="537.479004" y="426" style="fill:#CFD5E9;" width="15.067383" height="2"/>
	<rect x="502.315918" y="426" style="fill:#CFD5E9;" width="15.067871" height="2"/>
	<rect x="467.151855" y="426" style="fill:#CFD5E9;" width="15.068359" height="2"/>
	<rect x="431.986816" y="426" style="fill:#CFD5E9;" width="15.068848" height="2"/>
	<rect x="396.819824" y="426" style="fill:#CFD5E9;" width="15.069336" height="2"/>
	<rect x="361.649902" y="426" style="fill:#CFD5E9;" width="15.070801" height="2"/>
	<rect x="326.477051" y="426" style="fill:#CFD5E9;" width="15.071777" height="2"/>
	<rect x="291.300781" y="426" style="fill:#CFD5E9;" width="15.07373" height="2"/>
	<rect x="256.117676" y="426" style="fill:#CFD5E9;" width="15.076172" height="2"/>
	<rect x="220.926758" y="426" style="fill:#CFD5E9;" width="15.07959" height="2"/>
	<rect x="185.721191" y="426" style="fill:#CFD5E9;" width="15.086426" height="2"/>
	<rect x="150.490723" y="426" style="fill:#CFD5E9;" width="15.098145" height="2"/>
	<rect x="115.19873" y="426" style="fill:#CFD5E9;" width="15.132812" height="2"/>
	<path style="fill:#CFD5E9;" d="M95.052246,427.015625c-5.105469-0.59668-10.126953-1.476562-14.924805-2.614746l0.461914-1.946289
		c4.722168,1.120605,9.666504,1.986816,14.695312,2.574707L95.052246,427.015625z"/>
	<path style="fill:#CFD5E9;" d="M60.943848,418.048828c-4.680664-2.038086-9.202148-4.410645-13.438965-7.051758l1.058105-1.697266
		c4.153809,2.589355,8.587891,4.916016,13.179688,6.915039L60.943848,418.048828z"/>
	<path style="fill:#CFD5E9;" d="M31.522461,398.595215c-3.642578-3.486328-7.047363-7.296387-10.120117-11.32373l1.589844-1.212891
		c3.009766,3.944824,6.345215,7.676758,9.913086,11.092285L31.522461,398.595215z"/>
	<path style="fill:#CFD5E9;" d="M10.819336,370.025879c-2.184082-4.511719-4.071289-9.257324-5.608887-14.104004l1.90625-0.604492
		c1.509277,4.755859,3.360352,9.411133,5.502441,13.837402L10.819336,370.025879z"/>
	<path style="fill:#CFD5E9;" d="M0.889648,336.164062C0.299316,331.460938,0,326.658691,0,321.890625l0.003418-0.87793l2,0.016602
		L2,321.890625c0,4.685547,0.293945,9.403809,0.874023,14.024414L0.889648,336.164062z"/>
	<path style="fill:#CFD5E9;" d="M3.891113,301.246582l-1.966797-0.363281c0.920898-4.982422,2.181152-9.930664,3.745117-14.70752
		l1.900391,0.62207C6.033691,291.490234,4.795898,296.351562,3.891113,301.246582z"/>
	<path style="fill:#CFD5E9;" d="M15.448242,268.570801l-1.753906-0.960938c2.441895-4.458008,5.211914-8.751465,8.233398-12.76123
		l1.597656,1.204102C20.561523,259.985352,17.844238,264.196777,15.448242,268.570801z"/>
	<path style="fill:#CFD5E9;" d="M36.972168,241.472656l-1.327148-1.496094c3.771484-3.346191,7.836914-6.437988,12.083984-9.190918
		l1.087891,1.678711C44.653809,235.162109,40.668945,238.193359,36.972168,241.472656z"/>
	<path style="fill:#CFD5E9;" d="M66.436035,223.356934l-0.744141-1.856445c4.61377-1.850098,9.46875-3.420898,14.430176-4.669434
		l0.488281,1.939453C75.73584,219.99707,70.966797,221.540527,66.436035,223.356934z"/>
	<path style="fill:#CFD5E9;" d="M100.217773,215.516602l-0.172363-1.992188C104.063965,213.17627,108.220703,213,112.398926,213
		h2.761719v2h-2.761719C108.277832,215,104.179688,215.173828,100.217773,215.516602z"/>
	<path style="fill:#CFD5E9;" d="M1025.124023,215c-0.012695,0-0.025391,0-0.038086,0H1014.75v-2h10.335938
		c0.012695,0,0.026367,0,0.039062,0c1.566406,0,3.141602-0.025879,4.682617-0.07666l0.066406,1.999023
		C1028.310547,214.973633,1026.712891,215,1025.124023,215z"/>
	<rect x="979.503906" y="213" style="fill:#CFD5E9;" width="15.094727" height="2"/>
	<rect x="944.291992" y="213" style="fill:#CFD5E9;" width="15.083984" height="2"/>
	<rect x="909.097656" y="213" style="fill:#CFD5E9;" width="15.079102" height="2"/>
	<rect x="873.915039" y="213" style="fill:#CFD5E9;" width="15.074219" height="2"/>
	<rect x="838.738281" y="213" style="fill:#CFD5E9;" width="15.072266" height="2"/>
	<rect x="803.564453" y="213" style="fill:#CFD5E9;" width="15.071289" height="2"/>
	<rect x="768.394531" y="213" style="fill:#CFD5E9;" width="15.070312" height="2"/>
	<rect x="733.228516" y="213" style="fill:#CFD5E9;" width="15.069336" height="2"/>
	<rect x="698.063477" y="213" style="fill:#CFD5E9;" width="15.069336" height="2"/>
	<rect x="662.898438" y="213" style="fill:#CFD5E9;" width="15.069336" height="2"/>
	<rect x="627.737305" y="213" style="fill:#CFD5E9;" width="15.067383" height="2"/>
	<rect x="592.632812" y="213" style="fill:#CFD5E9;" width="15.05957" height="2"/>
	<rect x="557.401367" y="213" style="fill:#CFD5E9;" width="15.117188" height="2"/>
	<rect x="522.239746" y="213" style="fill:#CFD5E9;" width="15.067871" height="2"/>
	<rect x="487.078125" y="213" style="fill:#CFD5E9;" width="15.067383" height="2"/>
	<rect x="451.914551" y="213" style="fill:#CFD5E9;" width="15.067871" height="2"/>
	<rect x="416.750488" y="213" style="fill:#CFD5E9;" width="15.068359" height="2"/>
	<rect x="381.585449" y="213" style="fill:#CFD5E9;" width="15.068848" height="2"/>
	<rect x="346.41748" y="213" style="fill:#CFD5E9;" width="15.069824" height="2"/>
	<rect x="311.24707" y="213" style="fill:#CFD5E9;" width="15.070801" height="2"/>
	<rect x="276.072266" y="213" style="fill:#CFD5E9;" width="15.072754" height="2"/>
	<rect x="240.891602" y="213" style="fill:#CFD5E9;" width="15.075684" height="2"/>
	<rect x="205.703613" y="213" style="fill:#CFD5E9;" width="15.079102" height="2"/>
	<rect x="170.502441" y="213" style="fill:#CFD5E9;" width="15.084473" height="2"/>
	<rect x="135.275879" y="213" style="fill:#CFD5E9;" width="15.09668" height="2"/>
	<path style="fill:#CFD5E9;" d="M1049.947266,212.745117l-0.373047-1.964844
		c4.951172-0.938965,9.805664-2.190918,14.428711-3.720703l0.628906,1.898438
		C1059.924805,210.515625,1054.984375,211.790039,1049.947266,212.745117z"/>
	<path style="fill:#CFD5E9;" d="M1083.131836,200.800781l-0.982422-1.741699
		c4.327148-2.442383,8.486328-5.228027,12.360352-8.279297l1.238281,1.571289
		C1091.792969,195.465332,1087.548828,198.308105,1083.131836,200.800781z"/>
	<path style="fill:#CFD5E9;" d="M1110.271484,178.266113l-1.53125-1.286133c3.161133-3.765137,6.083008-7.828125,8.68457-12.076172
		l1.705078,1.044434C1116.476562,170.280762,1113.496094,174.425293,1110.271484,178.266113z"/>
	<path style="fill:#CFD5E9;" d="M1128.004883,147.771484l-1.871094-0.706055c1.737305-4.607422,3.186523-9.40918,4.305664-14.271484
		l1.949219,0.448242C1131.249023,138.191895,1129.774414,143.080078,1128.004883,147.771484z"/>
	<path style="fill:#CFD5E9;" d="M1135.191406,113.216797l-1.998047-0.105469c0.106445-2.016113,0.160156-4.062988,0.160156-6.083496
		c0-2.94043-0.113281-5.911133-0.337891-8.830078l1.994141-0.15332c0.228516,2.969727,0.34375,5.992188,0.34375,8.983398
		C1135.353516,109.083008,1135.298828,111.165527,1135.191406,113.216797z"/>
	<path style="fill:#CFD5E9;" d="M1129.775391,78.592773c-1.246094-4.835938-2.825195-9.594727-4.694336-14.144043l1.849609-0.759766
		c1.90332,4.633789,3.512695,9.47998,4.782227,14.404785L1129.775391,78.592773z"/>
	<path style="fill:#CFD5E9;" d="M1115.821289,46.898926c-2.746094-4.158691-5.814453-8.117676-9.121094-11.76709l1.482422-1.342773
		c3.374023,3.724609,6.505859,7.764648,9.308594,12.008301L1115.821289,46.898926z"/>
	<path style="fill:#CFD5E9;" d="M1091.94043,21.905762c-3.982422-2.884277-8.25-5.498535-12.68457-7.770508l0.912109-1.780273
		c4.524414,2.318848,8.880859,4.986816,12.945312,7.930664L1091.94043,21.905762z"/>
	<path style="fill:#CFD5E9;" d="M1060.813477,6.835449c-4.670898-1.359863-9.566406-2.447266-14.551758-3.231934l0.310547-1.975586
		c5.069336,0.797852,10.048828,1.903809,14.799805,3.287598L1060.813477,6.835449z"/>
	<path style="fill:#CFD5E9;" d="M1026.432617,2.006348C1025.984375,2.001953,1025.536133,2,1025.085938,2h-13.71875V0h13.71875
		c0.456055,0,0.912109,0.001953,1.366211,0.006348L1026.432617,2.006348z"/>
	<rect x="976.101562" style="fill:#CFD5E9;" width="15.101562" height="2"/>
	<rect x="940.879883" style="fill:#CFD5E9;" width="15.086914" height="2"/>
	<rect x="905.680664" style="fill:#CFD5E9;" width="15.080078" height="2"/>
	<rect x="870.493164" style="fill:#CFD5E9;" width="15.075195" height="2"/>
	<rect x="835.3125" style="fill:#CFD5E9;" width="15.073242" height="2"/>
	<rect x="800.137695" style="fill:#CFD5E9;" width="15.072266" height="2"/>
	<rect x="764.966797" style="fill:#CFD5E9;" width="15.070312" height="2"/>
	<rect x="729.799805" style="fill:#CFD5E9;" width="15.069336" height="2"/>
	<rect x="694.632812" style="fill:#CFD5E9;" width="15.068359" height="2"/>
	<rect x="659.46875" style="fill:#CFD5E9;" width="15.068359" height="2"/>
	<rect x="624.305664" style="fill:#CFD5E9;" width="15.068359" height="2"/>
	<rect x="589.144531" style="fill:#CFD5E9;" width="15.067383" height="2"/>
	<rect x="553.982422" style="fill:#CFD5E9;" width="15.066895" height="2"/>
	<rect x="518.820801" style="fill:#CFD5E9;" width="15.067383" height="2"/>
	<rect x="483.615723" style="fill:#CFD5E9;" width="15.073242" height="2"/>
	<rect x="448.538086" style="fill:#CFD5E9;" width="15.015625" height="2"/>
	<rect x="413.376465" style="fill:#CFD5E9;" width="15.067383" height="2"/>
	<rect x="378.213379" style="fill:#CFD5E9;" width="15.067871" height="2"/>
	<rect x="343.048828" style="fill:#CFD5E9;" width="15.068848" height="2"/>
	<rect x="307.883301" style="fill:#CFD5E9;" width="15.068848" height="2"/>
	<rect x="272.715332" style="fill:#CFD5E9;" width="15.069824" height="2"/>
	<rect x="237.544434" style="fill:#CFD5E9;" width="15.070801" height="2"/>
	<rect x="202.369629" style="fill:#CFD5E9;" width="15.072754" height="2"/>
	<rect x="167.188477" style="fill:#CFD5E9;" width="15.075195" height="2"/>
	<rect x="132.000488" style="fill:#CFD5E9;" width="15.078125" height="2"/>
	<rect x="96.799316" style="fill:#CFD5E9;" width="15.083984" height="2"/>
	<rect x="61.577148" style="fill:#CFD5E9;" width="15.094727" height="2"/>
	<rect x="26.304688" style="fill:#CFD5E9;" width="15.121582" height="2"/>
</g>
</svg>
