<?xml version="1.0" encoding="utf-8"?>
<!-- Generator: Adobe Illustrator 19.2.1, SVG Export Plug-In . SVG Version: 6.00 Build 0)  -->
<svg version="1.0" id="Слой_1" xmlns="http://www.w3.org/2000/svg" xmlns:xlink="http://www.w3.org/1999/xlink" x="0px" y="0px"
	 viewBox="0 0 453 363" style="enable-background:new 0 0 453 363;" xml:space="preserve">
<rect x="11.666667" y="10.666667" style="fill:#CAE5F8;" width="430" height="231.333328"/>
<rect x="11.666667" y="242" style="fill:#FFFFFF;" width="429.147797" height="42"/>
<path style="fill:#B3DAF5;" d="M423.211578,227.904648h1.905334h0.952667v-0.923828v-1.847656V30.019739
	c-0.006348-2.582815-2.178864-4.685108-4.843384-4.686405H31.77121c-2.662992,0.002367-4.833658,2.106861-4.838776,4.693003
	v195.106827v1.847656v0.923828h0.952671h1.905344H423.211578z"/>
<polygon style="fill:#F36C6D;" points="274.333344,353.333344 263,284.666656 186.896973,284.666656 177,353.333344 "/>
<rect x="186.896973" y="284.666656" style="opacity:0.1;fill:#2A3038;" width="80.769691" height="33.918354"/>
<polygon style="opacity:0.05;fill:#2A3038;" points="441.666656,10.666667 157,284 385.666656,284 430.333344,283.333344 
	441.666656,279.333344 445.666656,250.23999 445.666656,25.333334 "/>
<polygon style="fill:#2A3038;" points="212.485474,147.755432 211.779053,148.460449 211.072632,147.755432 209.659851,146.345398 
	188.115356,124.844666 173.754456,139.180847 211.778992,177.135254 287.013733,102.036804 272.654663,87.700928 
	213.898315,146.345337 "/>
<path style="fill:#2A3038;" d="M276.436096,291.155029h154.463928c10.51123-0.003845,19.07959-8.559021,19.099976-19.070862
	V22.061951c-0.021362-10.506653-8.589966-19.058777-19.100891-19.062012H22.099976
	C11.59021,3.003784,3.021912,11.557739,3,22.068176v250.021851c0.020386,10.507751,8.589111,19.061157,19.101135,19.065002
	h154.461853h2.28064h1.14032l-0.148865,1.130615l-0.297791,2.261108l-6.434021,48.859863l-0.228943,1.739014l-0.114502,0.869385
	h-0.876953h-1.753845h-27.528992c-3.855408,0-6.991943,3.136597-6.991943,6.992004s3.136536,6.992004,6.991943,6.992004h167.799988
	c3.855408,0,6.992004-3.136597,6.992004-6.992004s-3.136597-6.992004-6.992004-6.992004h-27.530029h-1.753784h-0.876953
	l-0.114502-0.869385l-0.229065-1.738953l-6.43396-48.859985l-0.297791-2.261108l-0.148804-1.130554h1.14032H276.436096z
	 M17.018005,235.255981v-2V22.061951c0.005371-2.799377,2.283875-5.077393,5.079163-5.079956h408.802856
	c2.796875,0.001404,5.077332,2.277039,5.083984,5.072815v211.201172v2v1h-1h-2H20.018005h-2h-1V235.255981z M264.959656,346.015015
	h-2.28064h-72.361023h-2.280701h-1.14032l0.148926-1.130554l0.297791-2.261108l6.434998-48.860107l0.229004-1.73877
	l0.114502-0.869446h0.876953h1.753845h59.492004h1.753906h0.876953l0.114441,0.869446l0.229004,1.73877l6.434021,48.860168
	l0.297729,2.261047l0.148926,1.130554H264.959656z M22.099976,277.171021H22.09845
	c-2.797241-0.001465-5.077148-2.278198-5.082458-5.075317V253.23999v-2v-1h1h2h412.964111h2h1v1v2v18.850037
	c-0.005371,2.795776-2.281006,5.074219-5.072876,5.080994H22.099976z"/>
</svg>
