<?xml version="1.0" encoding="utf-8"?>
<!-- Generator: Adobe Illustrator 19.2.1, SVG Export Plug-In . SVG Version: 6.00 Build 0)  -->
<svg version="1.0" id="Слой_1" xmlns="http://www.w3.org/2000/svg" xmlns:xlink="http://www.w3.org/1999/xlink" x="0px" y="0px"
	 viewBox="0 0 512 512" style="enable-background:new 0 0 512 512;" xml:space="preserve">
<g>
	<circle style="fill:#B3DAF5;" cx="255.748703" cy="255.748703" r="248.584641"/>
	<circle style="fill:#FFFFFF;" cx="255.748703" cy="255.748688" r="217.024734"/>
	<path style="fill:#2A3038;" d="M256.000977,1.004395C187.887695,1.004883,123.851074,27.530273,75.687988,75.693848
		C27.524902,123.85791,1.000488,187.89502,1.001465,256.008301c0.000488,68.112793,26.525879,132.149902,74.689453,180.312988
		c48.164062,48.163086,112.201172,74.686523,180.314453,74.686523c68.112793-0.000977,132.149902-26.525391,180.312988-74.689453
		s74.686523-112.201172,74.686523-180.314453c-0.000977-68.11377-26.525391-132.149902-74.689453-180.312988
		S324.114258,1.003418,256.000977,1.004395z M426.416016,426.419922
		c-45.464844,45.573242-105.955078,70.713867-170.328613,70.791016c-0.098145,0-0.197266,0-0.29541,0
		c-64.263184,0-124.697754-24.989258-170.201172-70.384766c-45.573242-45.464844-70.713867-105.955078-70.790039-170.328613
		C14.724121,192.124023,39.720215,131.57373,85.18457,86.000977l0.408203-0.408203
		c45.501465-45.388184,105.937988-70.375977,170.192383-70.375977c0.105957,0,0.203125,0,0.309082,0.000488
		c64.373535,0.080078,124.862793,25.223633,170.324707,70.799316c45.382812,45.495605,70.375977,105.941406,70.375,170.202148
		C496.793945,320.479492,471.799805,380.924805,426.416016,426.419922z"/>
	<path style="fill:#2A3038;" d="M250.918945,464.953125c-49.594727-1.208008-97.271973-20.086914-134.248535-53.15918
		c-1.305176-1.1875-2.964355-1.828125-4.708984-1.828125c-0.112305,0-0.225098,0.00293-0.338379,0.007812
		c-1.867676,0.088867-3.588867,0.899414-4.847168,2.282227c-1.258789,1.382812-1.902832,3.172852-1.814941,5.041016
		c0.088379,1.867188,0.898438,3.588867,2.28125,4.847656l0.079102,0.070312
		c44.408691,39.723633,101.614746,59.772461,161.088867,56.459961c59.474609-3.3125,114.100586-29.586914,153.814453-73.984375
		c35.292969-39.455078,55.438477-90.329102,56.726562-143.25c1.289062-52.921875-16.358398-104.71582-49.69043-145.841309
		c-2.451172-2.973145-6.869141-3.400879-9.847656-0.949707c-2.9375,2.418457-3.394531,6.803223-1.018555,9.774902
		c35.144531,43.369141,51.297852,97.834961,45.481445,153.358887c-5.816406,55.524414-32.90625,105.459961-76.280273,140.608398
		C349.052734,449.625,300.507812,466.143555,250.918945,464.953125z"/>
	<path style="fill:#2A3038;" d="M256.069763,34.004272c-30.951111,0-60.962341,6.264526-89.200012,18.619629
		c-29.221863,12.785828-54.908936,31.423889-76.347656,55.396423c-35.124268,39.275696-55.174316,89.915161-56.456665,142.59021
		c-1.282288,52.674927,16.279907,104.230042,49.451416,145.168335c1.143921,1.40979,2.843933,2.218994,4.663452,2.218994
		c1.388733,0,2.694275-0.463684,3.775574-1.341003c1.244568-1.009766,2.021484-2.443787,2.187439-4.037842
		c0.166077-1.594055-0.298584-3.157349-1.308411-4.401917C62.665161,350.922546,46.032837,303.968201,46,256.001343
		C46,140.205627,140.205627,46,256,46l0.143494-0.000061c51.683044-0.000732,101.350403,18.988281,139.852783,53.469177
		c1.1203,1.02063,2.554565,1.576355,4.05127,1.576355c1.68573,0,3.303162-0.714111,4.437561-1.959167
		c2.228149-2.445557,2.05127-6.247925-0.394287-8.476074l-0.078186-0.070007
		c-40.767639-36.458496-93.298706-56.532593-147.929321-56.53595l-0.006775-0.999756
		c-0.002258,0-0.004517,0.000061-0.006775,0.000061V34.004272z"/>
</g>
<polygon style="fill:#F59899;" points="344,165.011139 329.928558,160.5 269.142853,160.5 198.5,160.5 172,160.5 157,174.868271 
	157,215.50119 157,321.5 157,342.5 170.5,352.296844 182,358 327.5,358 344,352.296844 353.5,340.5 353.5,326 353.5,192.939713 
	353.5,177 "/>
<g>
	<path style="fill:#F36C6D;" d="M256,302.420685c24.133057,0,43.766693-19.633636,43.766693-43.768433
		C299.739166,234.547684,280.106323,214.91481,256,214.887283c-24.133057,0-43.766708,19.633652-43.766708,43.766708
		S231.866943,302.420685,256,302.420685z"/>
	<path style="fill:#F36C6D;" d="M209.785248,232.99765h-2.435654h-35.864563H169.9758v1.509216v90.553467
		c0.012177,10.805145,8.812714,19.605682,19.619583,19.617859h132.810959
		c10.805145-0.012177,19.605682-8.812714,19.617859-19.619598v-90.551727v-1.509216h-1.509216h-35.864563h-2.435669
		l1.084259,2.18103c7.320251,14.724274,7.320251,32.305573,0,47.029785c-4.460968,8.973114-11.32428,16.450104-19.847778,21.622498
		c-8.297241,5.035095-17.804169,7.696472-27.492889,7.696472c-8.188431,0-16.085922-1.862183-23.473236-5.534821
		c-26.080795-12.966125-36.75029-44.733124-23.784134-70.813934L209.785248,232.99765z"/>
	<polygon style="fill:#F36C6D;" points="310.331085,190.740158 308.821869,190.740158 308.821869,192.249374 308.821869,204.322906 
		308.821869,205.832138 310.331085,205.832138 322.404602,205.832138 323.913849,205.832138 323.913849,204.322906 
		323.913849,192.249374 323.913849,190.740158 322.404602,190.740158 	"/>
	<path style="fill:#F36C6D;" d="M342.0242,222.433273v-30.185638c-0.012177-10.80513-8.812714-19.605667-19.619598-19.617844
		H213.742508h-1.509216v1.509232v36.220718c0,2.49649-2.031052,4.527542-4.527542,4.527542
		c-2.496552,0-4.527603-2.031052-4.527603-4.527542v-36.220718v-1.509232h-1.509232h-6.036758h-1.509171v1.509232v36.220718
		c0,2.49649-2.031113,4.527542-4.527603,4.527542c-2.496536,0-4.527603-2.031052-4.527603-4.527542v-35.182373v-2.136856
		l-2.01384,0.714539c-7.81192,2.771683-13.067642,10.203232-13.07814,18.494324v30.183899v1.509216h1.509232h44.062531h0.675629
		l0.450073-0.503952c1.317352-1.475296,2.733383-2.891327,4.208679-4.20874c9.67572-8.640289,22.1409-13.39856,35.099213-13.398285
		c15.012924,0.00029,29.353897,6.417816,39.345688,17.607025l0.450012,0.503952h0.675659h44.062469h1.509216V222.433273z
		 M332.968994,210.359741c0,2.49649-2.031067,4.527542-4.527618,4.527542H304.29425c-2.49649,0-4.527557-2.031052-4.527557-4.527542
		v-24.147125c0-2.496552,2.031067-4.527603,4.527557-4.527603h24.147125c2.496552,0,4.527618,2.031052,4.527618,4.527603V210.359741
		z"/>
</g>
<rect x="309" y="180.5" style="fill:#FFFFFF;" width="25" height="26.5"/>
<path style="fill:#FFFFFF;" d="M284,215.50119L260.5,207l-22.5,4.011139l-20,9.857132L208.357147,241L204,263.58255L212.5,285.5
	l14,17.5c0,0,16.5,8,17.5,8s23,0,23,0l20.214294-8.5l16.428558-18L309,268.5V253l-5.357147-19.5l-11.657806-12.631729L284,215.50119
	z"/>
<path style="fill:#2A3038;" d="M359.5,186.368271c-0.019287-17.191483-14.022797-31.194977-31.216125-31.214279H183.714279
	c-17.191483,0.019302-31.194977,14.022797-31.214279,31.216141v144.569565
	c0.019302,17.191437,14.022797,31.194946,31.216141,31.214294h144.569565
	c17.191498-0.019348,31.195007-14.022858,31.214294-31.216125V186.368271z M349.642853,232.368271v98.571426
	c-0.013245,11.763977-9.59317,21.343903-21.355286,21.357147H183.714279c-11.763962-0.013245-21.343903-9.59317-21.357132-21.355286
	v-98.573288v-1.642853H164h39.040863h2.651398l-1.180298,2.374191c-14.114502,28.390625-2.500031,62.971039,25.890594,77.085541
	c8.041519,3.997894,16.638489,6.024994,25.552063,6.024994c10.546814,0,20.895691-2.897095,29.927795-8.378143
	c9.278442-5.630463,16.749542-13.769592,21.605621-23.537445c7.968567-16.02829,7.968567-35.166611,0-51.194946l-1.180298-2.374191
	h2.651398H348h1.642853V232.368271z M208.357147,258.653992c0-26.27037,21.372482-47.642853,47.642853-47.642853
	c26.241241,0.029922,47.612915,21.401611,47.642853,47.640961c0,26.272278-21.372467,47.644745-47.642853,47.644745
	S208.357147,284.924377,208.357147,258.653992z M349.642853,219.225418v1.642853H348h-47.964844h-0.735474l-0.489899-0.548584
	c-10.876709-12.180145-26.487762-19.166046-42.830292-19.166351c-14.105972-0.00029-27.675079,5.179352-38.207764,14.584869
	c-1.605957,1.434097-3.147385,2.975525-4.581421,4.581482l-0.489929,0.548584h-0.735504H164h-1.642853v-1.642853v-32.857147
	c0.011383-9.025375,5.732544-17.115082,14.236374-20.132263l2.1922-0.777817v2.326111v38.298264
	c0,2.717621,2.210938,4.928574,4.928558,4.928574c2.717636,0,4.928574-2.210953,4.928574-4.928574v-39.428574v-1.642853h1.642868
	h6.571426H198.5v1.642853v39.428574c0,2.717621,2.210953,4.928574,4.928574,4.928574s4.928574-2.210953,4.928574-4.928574
	v-39.428574v-1.642853H210h118.285706c11.763977,0.013229,21.343903,9.59317,21.357147,21.355286V219.225418z"/>
<path style="fill:#2A3038;" d="M255.998444,227.439713c-2.716873,0.0009-4.927017,2.211487-4.927017,4.928558
	c0,2.717636,2.210953,4.928574,4.928574,4.928574c11.764008,0.013245,21.343964,9.593185,21.357147,21.355286
	c0,2.719482,2.210938,4.93042,4.928558,4.93042s4.928589-2.210938,4.928589-4.928558
	C287.194977,241.462601,273.191681,227.459213,255.998444,227.439713z"/>
<path style="fill:#2A3038;" d="M339.785706,179.796844c0-2.717621-2.210938-4.928574-4.928558-4.928574h-26.285706
	c-2.717621,0-4.928589,2.210953-4.928589,4.928574v26.285721c0,2.717621,2.210968,4.928574,4.928589,4.928574h26.285706
	c2.717621,0,4.928558-2.210953,4.928558-4.928574V179.796844z M329.928558,186.368271v13.142868v1.642853h-1.642853h-13.142853
	H313.5v-1.642853v-13.142868v-1.642853h1.642853h13.142853h1.642853V186.368271z"/>
</svg>
