<?xml version="1.0" encoding="utf-8"?>
<!-- Generator: Adobe Illustrator 19.2.1, SVG Export Plug-In . SVG Version: 6.00 Build 0)  -->
<svg version="1.0" id="Слой_1" xmlns="http://www.w3.org/2000/svg" xmlns:xlink="http://www.w3.org/1999/xlink" x="0px" y="0px"
	 viewBox="0 0 317 481" style="enable-background:new 0 0 317 481;" xml:space="preserve">
<path style="fill:#B3DAF5;" d="M192,442.666656l-2.333328,20L177,467.02301l-23.333328,6.643646
	c0,0-19.734543-8.666656-19.700607-9.666656S126,440.666656,126,440.666656L128,429l-34.666664-2.666656l-3.666672-68
	l3.666672-34.666687h133.333344V425l-25.333344,6.666656L192,442.666656z"/>
<rect x="91.666664" y="402.333344" style="opacity:0.1;fill:#2A3038;" width="135" height="22.666666"/>
<rect x="91.666664" y="350.333344" style="opacity:0.1;fill:#2A3038;" width="135" height="22.666666"/>
<polygon style="fill:#F36C6D;" points="163,10.333333 133.966064,10.333333 97.791016,23 63.096703,41.666668 31,78.333336 
	17.13633,109.506348 8.333333,141 8.333333,179.666672 21.666666,222.333328 43,255 70.333336,294.333344 85.666664,320.666687 
	226.666672,320.666687 247.666672,290.333344 273,255 291.666656,227.666672 305,191.666672 305,163 305,123.666664 289,88.333336 
	265.666656,56.350586 238.333328,33.666668 209.666672,17.162903 183.753113,10.333333 "/>
<polygon style="fill:#FFFFFF;" points="110.333336,324.333344 110.333336,269.666656 86.333336,233.359558 63.096703,202.333328 
	55.666668,161.666672 67,117.666664 83,93.666664 110.333336,75 137,65.666664 167.666672,65.666664 193.666672,70.408691 
	223.666672,83.666664 241.666672,105.666664 253.896927,125 259.666656,149 259.666656,177.666672 253.896927,201 235,229.666672 
	213,259.666656 206.333328,273.666656 206.333328,322.333344 "/>
<polygon style="fill:#2A3038;" points="138.808044,176.445984 150.381287,176.445984 146.292053,187.272705 128.884888,233.359558 
	197.066162,167.109009 177.624023,167.109009 166.389038,167.109009 170.064148,156.492065 186.328613,109.506348 
	119.046631,176.445984 "/>
<path style="fill:#2A3038;" d="M118.026062,443.961975v8.024048c-0.002808,6.947266,2.699036,13.478638,7.607849,18.391418
	c4.908691,4.912598,11.436829,7.619751,18.381714,7.622559h28.96344c6.942505-0.002563,13.469604-2.709473,18.37854-7.62207
	c4.908936-4.912537,7.610962-11.442749,7.608459-18.387573v-8.028381v-8v-1h1h8h18.800049
	c4.177307-0.000488,7.5755-3.399902,7.574951-7.577942v-100.59613v-2.197021v-0.274658l0.140259-0.236084l1.122131-1.888977
	c13.779602-23.194641,29.212524-45.715881,45.869995-66.937988c21.729248-27.375793,33.634705-61.679932,33.526672-96.597351
	C315.000122,72.274109,244.794434,2,158.500061,2S2,72.263,2,158.627991
	c-0.112061,34.931091,11.776123,69.22876,33.474609,96.578247c16.651306,21.217407,32.094421,43.700134,45.903748,66.82782
	l1.131287,1.894592l0.141418,0.236877v0.275818v2.206665v100.731018c-0.000916,2.026123,0.786255,3.930176,2.216675,5.361694
	c1.430298,1.431519,3.332458,2.220398,5.356079,2.221252h18.802246h8h1v1V443.961975z M183.753113,436.265015v8v2.507996
	c0.004822,11.160767-9.072998,20.245056-20.236084,20.25h-9.309998h-0.003113
	c-5.407593-0.001953-10.490845-2.109558-14.313416-5.934631c-3.822327-3.825195-5.926392-8.910034-5.924438-14.317688v-2.505676v-8
	v-1h1h8h31.787048h8h1V436.265015z M94.545349,314.399902l-0.292114-0.480713l-2.336731-3.845886
	c-13.492554-22.206726-28.47998-43.821045-44.545837-64.242554c-19.595703-24.697388-30.333801-55.677185-30.233643-87.22937
	C17.138123,80.613342,80.553345,17.162903,158.500061,17.162903c77.942261,0,141.352966,63.46051,141.352966,141.464111
	c0.098877,31.538879-10.651428,62.523193-30.270569,87.242126c-16.052979,20.394226-31.031799,41.996155-44.517822,64.202576
	l-2.336609,3.847351l-0.292053,0.480835h-0.562622h-4.501343H102.717041h-3.109009h-4.500183H94.545349z M106.794006,419.799988h-8
	h-1v-1v-3.110718l-0.002991-49.289185V338.56897v-8v-1h1h8h103.408997h8h1v1v8v27.822021v7.583008v1v8v27.825989v8v1h-1h-8
	H106.794006z"/>
<path style="fill:#2A3038;" d="M158.5,56.350586c-60.562012,0-109.83252,47.504883-109.83252,105.889648
	c-0.079102,23.635254,8.274414,46.84082,23.514648,65.333496c11.418457,14.006348,22.009277,28.851074,31.47998,44.120605
	l0.576172,0.928711v48.04364h14.433167l-0.001526-43.028992h79.654297v43.028992h14.432617v-47.94696l0.571289-0.925781
	c9.450195-15.3125,20.032227-30.179688,31.447266-44.180176c15.267578-18.517578,23.633789-41.727539,23.557617-65.348633
	C268.333008,103.86377,219.0625,56.350586,158.5,56.350586z M233.491211,218.850586
	c-11.112305,13.589844-21.480469,27.985352-30.817383,42.786133l-1.223633,1.938477h-85.914062l-1.222656-1.9375
	c-9.338379-14.796875-19.713379-29.201172-30.841309-42.818359c-13.206543-16.023926-20.442383-36.119141-20.375-56.590332
	C63.097656,111.599121,105.89502,70.408691,158.5,70.408691c52.601562,0,95.396484,41.198242,95.396484,91.84375
	C253.961914,182.708496,246.717773,202.806641,233.491211,218.850586z"/>
<rect x="93.333336" y="367.945312" style="fill:#2A3038;" width="133.333328" height="15.34375"/>
</svg>
