<?xml version="1.0" encoding="utf-8"?>
<!-- Generator: Adobe Illustrator 19.2.1, SVG Export Plug-In . SVG Version: 6.00 Build 0)  -->
<svg version="1.0" id="Слой_1" xmlns="http://www.w3.org/2000/svg" xmlns:xlink="http://www.w3.org/1999/xlink" x="0px" y="0px"
	 viewBox="0 0 512 512" style="enable-background:new 0 0 512 512;" xml:space="preserve">
<g>
	<circle style="fill:#B3DAF5;" cx="255.748703" cy="255.748703" r="248.584641"/>
	<circle style="fill:#FFFFFF;" cx="255.748703" cy="255.748688" r="217.024734"/>
	<path style="fill:#2A3038;" d="M256.000977,1.004395C187.887695,1.004883,123.851074,27.530273,75.687988,75.693848
		C27.524902,123.85791,1.000488,187.89502,1.001465,256.008301c0.000488,68.112793,26.525879,132.149902,74.689453,180.312988
		c48.164062,48.163086,112.201172,74.686523,180.314453,74.686523c68.112793-0.000977,132.149902-26.525391,180.312988-74.689453
		s74.686523-112.201172,74.686523-180.314453c-0.000977-68.11377-26.525391-132.149902-74.689453-180.312988
		S324.114258,1.003418,256.000977,1.004395z M426.416016,426.419922
		c-45.464844,45.573242-105.955078,70.713867-170.328613,70.791016c-0.098145,0-0.197266,0-0.29541,0
		c-64.263184,0-124.697754-24.989258-170.201172-70.384766c-45.573242-45.464844-70.713867-105.955078-70.790039-170.328613
		C14.724121,192.124023,39.720215,131.57373,85.18457,86.000977l0.408203-0.408203
		c45.501465-45.388184,105.937988-70.375977,170.192383-70.375977c0.105957,0,0.203125,0,0.309082,0.000488
		c64.373535,0.080078,124.862793,25.223633,170.324707,70.799316c45.382812,45.495605,70.375977,105.941406,70.375,170.202148
		C496.793945,320.479492,471.799805,380.924805,426.416016,426.419922z"/>
	<path style="fill:#2A3038;" d="M250.918945,464.953125c-49.594727-1.208008-97.271973-20.086914-134.248535-53.15918
		c-1.305176-1.1875-2.964355-1.828125-4.708984-1.828125c-0.112305,0-0.225098,0.00293-0.338379,0.007812
		c-1.867676,0.088867-3.588867,0.899414-4.847168,2.282227c-1.258789,1.382812-1.902832,3.172852-1.814941,5.041016
		c0.088379,1.867188,0.898438,3.588867,2.28125,4.847656l0.079102,0.070312
		c44.408691,39.723633,101.614746,59.772461,161.088867,56.459961c59.474609-3.3125,114.100586-29.586914,153.814453-73.984375
		c35.292969-39.455078,55.438477-90.329102,56.726562-143.25c1.289062-52.921875-16.358398-104.71582-49.69043-145.841309
		c-2.451172-2.973145-6.869141-3.400879-9.847656-0.949707c-2.9375,2.418457-3.394531,6.803223-1.018555,9.774902
		c35.144531,43.369141,51.297852,97.834961,45.481445,153.358887c-5.816406,55.524414-32.90625,105.459961-76.280273,140.608398
		C349.052734,449.625,300.507812,466.143555,250.918945,464.953125z"/>
	<path style="fill:#2A3038;" d="M256.069763,34.004272c-30.951111,0-60.962341,6.264526-89.200012,18.619629
		c-29.221863,12.785828-54.908936,31.423889-76.347656,55.396423c-35.124268,39.275696-55.174316,89.915161-56.456665,142.59021
		c-1.282288,52.674927,16.279907,104.230042,49.451416,145.168335c1.143921,1.40979,2.843933,2.218994,4.663452,2.218994
		c1.388733,0,2.694275-0.463684,3.775574-1.341003c1.244568-1.009766,2.021484-2.443787,2.187439-4.037842
		c0.166077-1.594055-0.298584-3.157349-1.308411-4.401917C62.665161,350.922546,46.032837,303.968201,46,256.001343
		C46,140.205627,140.205627,46,256,46l0.143494-0.000061c51.683044-0.000732,101.350403,18.988281,139.852783,53.469177
		c1.1203,1.02063,2.554565,1.576355,4.05127,1.576355c1.68573,0,3.303162-0.714111,4.437561-1.959167
		c2.228149-2.445557,2.05127-6.247925-0.394287-8.476074l-0.078186-0.070007
		c-40.767639-36.458496-93.298706-56.532593-147.929321-56.53595l-0.006775-0.999756
		c-0.002258,0-0.004517,0.000061-0.006775,0.000061V34.004272z"/>
	<g>
		<polygon style="fill:#F59899;" points="198.599731,146.369446 183.666687,141 169.666687,141 160.707214,149 155,157.666687 
			155,172.333313 168.333313,180.444763 176.799866,186.333313 191,186.333313 198.599731,175.666687 205,163.666687 
			202.333313,153.666687 		"/>
		<polygon style="fill:#F59899;" points="157.666687,204.333313 157.666687,339.666687 201.666687,339.666687 205,204.333313 
			198.599731,204.333313 		"/>
		<path style="fill:#F59899;" d="M357.903931,230.333313c0,0-7.570618-12.330933-9.570618-14.832153
			c-2-2.50116-16.666626-11.167847-16.666626-11.167847l-22-5.390625l-20,5.390625l-9.333374,11.167847H273l-1.333313-11.167847H239
			l-12.666687,4.141602v131.191772h45.333374c0,0-1.333374-82.238953,0-83.45282c1.333313-1.213867,6-12.54718,6-12.54718
			l14.318359-7.333374l10.348267,1.333374l9.333374,6L319,256.213867v83.45282h44.666687c0,0-2-81.835938,0-83.917969
			S357.903931,230.333313,357.903931,230.333313z"/>
	</g>
	<g>
		<path style="fill:#F36C6D;" d="M348.147919,324.993958V260.78653c0-31.241592-14.932159-49.159546-40.968262-49.159546
			c-17.955963,0-26.118439,8.856552-31.734802,17.520218c-1.059814,1.634476-2.855255,2.610489-4.804047,2.61087
			c-1.529449,0-2.966248-0.595383-4.047699-1.676437c-1.08139-1.081375-1.677216-2.519028-1.677216-4.04808v-11.545731h-28.960953
			l0.008804,0.826645c0.243179,22.815109-0.015564,89.090347-0.100647,108.859238l-0.003571,0.821045h29.058746v-62.387268
			c0-5.37674,0.544739-9.096924,1.769867-12.068848c4.641937-11.512192,14.397003-18.385193,26.096069-18.385193
			c8.896515,0,15.98877,3.509399,20.510101,10.148834c3.821686,5.612717,5.759277,13.40625,5.759277,23.16449v59.527191H348.147919z
			"/>
		<path style="fill:#F36C6D;" d="M170.463226,171.018494c0,9.182404,6.696518,15.351837,16.663651,15.351837h0.272339
			c10.257065,0,17.172028-6.141052,17.207169-15.304306c-0.229218-9.498734-6.723297-15.399353-16.947205-15.399353
			C177.373795,155.666672,170.463226,161.83606,170.463226,171.018494z"/>
		<rect x="172.851257" y="214.487823" style="fill:#F36C6D;" width="29.107906" height="110.507744"/>
	</g>
	<g>
		<path style="fill:#2A3038;" d="M354.118164,212.674133c-10.201416-11.05986-24.614014-16.905579-41.677826-16.905579
			c-12.908417,0-23.920868,3.488815-32.731537,10.369385l-1.466064,1.145203v-1.985947
			c0-3.503433-2.850616-6.353607-6.353607-6.353607h-44.986252c-3.503433,0-6.35405,2.850174-6.35405,6.353607
			c0,0.096619,0.002213,0.19368,0.006653,0.290741c0.560638,12.31366,0.000885,133.830826-0.00621,135.030106
			c-0.00798,1.695648,0.645737,3.294678,1.840134,4.500153c1.194412,1.205505,2.786789,1.87384,4.48378,1.881805h45.01506
			c3.502991,0,6.353607-2.850616,6.353607-6.353607v-75.591797c0-4.111053,0.335052-6.923553,1.023773-8.597931
			c1.513062-3.75206,6.222412-12.494476,17.195862-12.494476c2.219513,0,6.350067,0,9.959412,3.143127
			c4.305176,3.747635,6.487457,10.854675,6.487457,21.122559v72.417633c0,3.502991,2.849731,6.353607,6.352722,6.354492h44.999084
			c3.503021,0,6.353607-2.850616,6.353607-6.353607v-77.611847C370.61377,241.477661,365.064117,224.533966,354.118164,212.674133z
			 M357.9039,334.291016h-32.289215V268.22699c0-10.829865-2.15036-19.479202-6.391724-25.708267
			c-5.017822-7.36853-12.888916-11.263306-22.76236-11.263306c-12.983765,0-23.810059,7.627792-28.961731,20.404144
			c-1.359711,3.298233-1.964233,7.427017-1.964233,13.39415v69.23819h-32.249786l0.003983-0.911194
			c0.094406-21.939819,0.381592-95.492905,0.111694-120.813385l-0.00975-0.917404h32.141205v12.813583
			c0,1.696976,0.661224,3.29248,1.861389,4.492645c1.200165,1.199722,2.794769,1.860519,4.492218,1.860519
			c2.162781-0.000443,4.155365-1.083603,5.331604-2.897598c6.233063-9.615051,15.291901-19.444183,35.219604-19.444183
			c28.895264,0,45.467102,19.885605,45.467102,54.557892V334.291016z"/>
		<path style="fill:#2A3038;" d="M211.306488,163.275024c-0.361191-17.432968-13.320145-29.608353-31.514084-29.608353
			c-0.002655,0-0.006638,0-0.009308,0c-8.929886,0-17.034988,2.988434-22.825729,8.415771
			C151.181229,147.496048,148,155.069321,148,163.407089c0,17.235321,13.121597,29.744858,31.200745,29.744858h0.302261
			c18.429276,0,31.805252-12.509537,31.805252-29.744858l-0.00177-0.13118V163.275024z M179.503006,180.444748h-0.302261
			c-11.06163,0-18.49353-6.846893-18.49353-17.037659s7.669449-17.037643,19.084305-17.037643
			c11.346619,0,18.553818,6.548615,18.808197,17.090393C198.560715,173.629333,190.886398,180.444748,179.503006,180.444748z"/>
		<path style="fill:#2A3038;" d="M202.014526,198.942703h-45.01152c-3.503433,0-6.353607,2.850174-6.353607,6.353607v135.349197
			c0,3.502991,2.850174,6.353607,6.353607,6.353607h45.01152c3.503433,0,6.353607-2.850616,6.353607-6.353607V205.29631
			C208.368134,201.792877,205.51796,198.942703,202.014526,198.942703z M195.661804,334.292786h-32.304306V211.649918h32.304306
			V334.292786z"/>
	</g>
</g>
</svg>
