<?xml version="1.0" encoding="utf-8"?>
<!-- Generator: Adobe Illustrator 19.2.1, SVG Export Plug-In . SVG Version: 6.00 Build 0)  -->
<svg version="1.0" id="Слой_1" xmlns="http://www.w3.org/2000/svg" xmlns:xlink="http://www.w3.org/1999/xlink" x="0px" y="0px"
	 viewBox="0 0 444.979187 436.5" style="enable-background:new 0 0 444.979187 436.5;" xml:space="preserve">
<rect x="10.312536" y="169.833328" style="fill:#D1ECFF;" width="250" height="256.666656"/>
<path style="fill:#B3DAF5;" d="M159.506821,274.982666l0.055649,0.000214l0.037399,0.000275h0.037308h72.152756h9.855942v-8.976074
	v-66.333084v-8.976074h-9.855942H41.349503h-9.855875v8.976074v172.12056v1.142456v8.976074v12.435913v8.976074h9.855875h190.44043
	h9.855942v-8.976074v-12.435913v-8.976074v-1.142456v-69.701843v-8.976074h-9.855942h-26.01796h-9.855881v8.976074v14.946625
	c0,5.008484-3.760834,9.08313-8.383453,9.08313c-4.622665,0-8.383453-4.074646-8.383453-9.08313v-14.946625v-8.976074h-9.855927
	h-9.656082h-0.037796l-0.037674,0.000275l-0.05217,0.000153l-0.052658-0.000153
	c-4.620056-0.032013-8.34996-4.130188-8.314514-9.135559C151.17749,279.019104,154.929398,274.9823,159.506821,274.982666z"/>
<polygon style="opacity:0.05;fill:#2A3038;" points="228.979202,168.5 91.645866,426.5 260.312531,426.5 264.312531,426.5 
	260.312531,169.833328 "/>
<circle style="fill:#F59899;" cx="372.770844" cy="283.041687" r="63.791637"/>
<circle style="fill:#F36C6D;" cx="372.770844" cy="283.041687" r="41.945343"/>
<path style="fill:#2A3038;" d="M442.737396,264.676025c-8.191711-32.443481-37.227417-55.102417-70.609619-55.102417h-0.699707
	c-32.980713,0.387024-61.671814,22.903442-69.919678,54.980042l-1.997131,7.767029h-6.032043h-2.72699h-6.565613h-11.047119
	v-10.060974V167.68512c0.009094-5.601868-4.176758-10.15387-9.331055-10.16217h-0.0177l-0.047974,0.000122h-18.840591h-11.047119
	v-10.060974V97.102295C233.855057,43.559937,190.213028,0,136.569717,0c-53.643372,0-97.2854,43.559937-97.2854,97.102295v50.360779
	v10.060974h-11.04718H9.396745H9.367326l-0.029419-0.000183c-5.132507-0.000305-9.323486,4.531189-9.337891,10.101562v0.014954
	v0.044739v213.148193v21.503601v24c-0.009521,5.602356,4.176147,10.154602,9.330566,10.163147h0.031128L263.742767,436.5h0.029358
	l0.029419,0.000122c5.13208-0.000061,9.323547-4.531555,9.337952-10.101562v-0.014587v-0.047058V402.39856v-0.014587v-0.047058
	v-21.503601v-78.126465v-10.060974h11.047119h6.565613h2.72699h6.068176l1.970947,7.806335
	c4.085571,16.180786,13.236267,30.066833,26.463013,40.157043c12.650208,9.65033,28.305786,14.964966,44.083008,14.964966
	c5.862854,0,11.754028-0.722412,17.509766-2.147034C428.79361,343.719299,452.642426,303.905823,442.737396,264.676025z
	 M58.177994,147.463074V97.102295c0-42.314758,35.166382-76.740417,78.391724-76.740417s78.391724,34.425659,78.391724,76.740417
	v50.360779v10.060974h-11.047119H69.225113H58.177994V147.463074z M254.346024,382.113831v10.060974v13.939026v10.060974h-11.04718
	H29.840591H18.793472v-10.060974v-13.939026v-10.060974v-1.280518V187.90918v-10.060974h11.047119h213.458252h11.04718v10.060974
	v74.350525v10.060974h-11.04718h-80.873596h-0.041809l-0.041931-0.000305l-0.062378-0.000244
	c-5.130676-0.000427-9.33606,4.524292-9.375427,10.086304c-0.039734,5.610352,4.140991,10.203857,9.319458,10.239746
	l0.059021,0.000183l0.058472-0.000183l0.042236-0.000305h0.042358h10.823181h11.04718v10.060974v16.753174
	c0,5.613831,4.215332,10.180969,9.396729,10.180969c5.181335,0,9.396729-4.567139,9.396729-10.180969v-16.753174v-10.060974
	h11.047119h29.162659h11.04718v10.060974v78.126465V382.113831z M372.136688,335.072632h-0.010437h-0.010376
	c-29.774963-0.026855-53.976929-23.639771-53.950195-52.637085c0.02655-28.969788,24.250183-52.540344,53.998474-52.542603h0.005981
	h0.045837c29.748291,0.026855,53.950317,23.618469,53.950317,52.589844
	C426.115814,311.464233,401.878204,335.048767,372.136688,335.072632z"/>
</svg>
