<?xml version="1.0" encoding="utf-8"?>
<!-- Generator: Adobe Illustrator 19.2.1, SVG Export Plug-In . SVG Version: 6.00 Build 0)  -->
<svg version="1.0" id="Слой_1" xmlns="http://www.w3.org/2000/svg" xmlns:xlink="http://www.w3.org/1999/xlink" x="0px" y="0px"
	 viewBox="0 0 480 519" style="enable-background:new 0 0 480 519;" xml:space="preserve">
<polygon style="fill:#FFFFFF;" points="383.660645,67.333336 85.666664,67.333336 71.666664,78.876953 71.666664,118 
	67.666664,254.666672 192.333328,373.333344 290.333344,373.333344 383.660645,280 414.333344,254.666672 414.333344,93.333336 
	401.519531,71.333336 "/>
<polygon style="opacity:0.05;fill:#2A3038;" points="357.666656,70.666664 192.333328,373.333344 283.666656,374 369,300 
	414.333344,254.666672 414.333344,93.333336 398.54306,70.666664 "/>
<polygon style="fill:#CEEBFF;" points="465.666656,217.333328 283.666656,374 195.666672,374 18.333334,212.828003 
	7.666667,229.333328 7.666667,485.333344 41,510 435.717285,512.666687 465.666656,502.666656 473.666656,479.333344 
	473.666656,222.333328 "/>
<g>
	<polygon style="fill:#B3DAF5;" points="186.812668,383.744354 64.082687,489.031708 415.917328,489.031708 293.185059,383.744354 	
		"/>
	<path style="fill:#B3DAF5;" d="M444.272461,472.103577V242.000504L303.87381,364.951508l135.925568,118.365814
		C442.967346,479.931488,444.272461,476.625885,444.272461,472.103577z"/>
	<path style="fill:#B3DAF5;" d="M35.727535,472.108124c0,4.519592,1.306019,7.826111,4.47401,11.213745l135.924622-118.371277
		L35.727535,242.000504V472.108124z"/>
</g>
<polygon style="fill:#F36C6D;" points="239.999756,13.333333 188.333328,62.666668 289,66.666664 289,54 "/>
<polygon style="fill:#F36C6D;" points="67.666664,168.666672 15,212.828003 64.082687,254.407974 67.666664,236.314941 "/>
<polygon style="fill:#F36C6D;" points="413.666656,172.666672 414.333344,254.666672 467.666656,213.666672 435.717285,184.666672 
	"/>
<path style="opacity:0.05;fill:#2A3038;" d="M349.666656,315.333344l-89.333313,195.333313h159.333313l42-7.333313
	c0,0,14.666687-19.333344,12-24c-1.91745-3.35556-0.213562-139.242981-1.333313-215.333923
	c-0.437531-29.730911-4.666687-50.332748-4.666687-50.332748L349.666656,315.333344z"/>
<g>
	<rect x="114.720032" y="249.099976" style="fill:#2A3038;" width="250.559998" height="21.135986"/>
	<rect x="114.720032" y="191.690979" style="fill:#2A3038;" width="250.559998" height="21.137024"/>
	<polygon style="fill:#2A3038;" points="365.280029,155.420959 365.280029,134.283997 114.720032,134.283997 114.720032,155.421997 
		365.280029,155.421997 	"/>
	<path style="fill:#2A3038;" d="M422.639648,161.618652V97.011719c-0.016602-21.619141-17.617188-39.234863-39.239258-39.269531
		h-78.012695L240,0.000977l-65.386719,57.741211H96.597168c-21.618652,0.034668-39.220215,17.650391-39.237305,39.270996v64.605469
		L0,211.371582v268.355957C0.015625,501.347656,17.617188,518.964844,39.240234,519h401.522461
		c21.620117-0.035156,39.22168-17.652344,39.237305-39.273438v-268.35498L422.639648,161.618652z M422.640625,189.14209
		l26.15332,22.685059l-26.15332,22.68457V189.14209z M239.983398,27.537109l33.731445,30.205078h-69.237305L239.983398,27.537109z
		 M78.47998,97.013184c0-11.017578,7.112793-18.13623,18.120117-18.13623h286.800293
		c8.974609,0,18.119141,9.152832,18.119141,18.13623v154.560059l-60.56543,54.931641H139.040039L78.47998,253.472656V97.013184z
		 M315.893555,327.640625l-38.054688,36.270508h-75.691406l-39.867188-36.270508H315.893555z M57.358887,189.14209v47.172852
		L31.172852,211.85498L57.358887,189.14209z M25.914062,491.746094c-3.394531-3.629883-4.793945-7.172852-4.793945-12.015625
		v-246.5625l150.438477,131.742188L25.914062,491.746094z M51.50293,497.864258l131.506348-112.816406h113.979004
		L428.49707,497.864258H51.50293z M458.879883,479.725586c0,4.845703-1.398438,8.387695-4.792969,12.015625L308.441406,364.911133
		l150.438477-131.743164V479.725586z"/>
</g>
</svg>
