<?xml version="1.0" encoding="utf-8"?>
<!-- Generator: Adobe Illustrator 19.2.1, SVG Export Plug-In . SVG Version: 6.00 Build 0)  -->
<svg version="1.0" id="Capa_1" xmlns="http://www.w3.org/2000/svg" xmlns:xlink="http://www.w3.org/1999/xlink" x="0px" y="0px"
	 viewBox="0 0 473 463" style="enable-background:new 0 0 473 463;" xml:space="preserve">
<g>
	<polygon style="fill:#9A7C6F;" points="282.873077,18.078613 202.995972,8.481771 165.159439,13.280192 138.102707,27.815104 
		115.911896,35.815105 93.089867,45.148438 86.48349,76.481773 102.848701,159.148438 118.914795,106.481773 138.102707,105.148438 
		207.131409,107.815102 250.172562,113.563644 278.858765,125.301758 286.006775,131.815109 293.683502,90.481773 
		293.683502,25.148438 	"/>
	<polygon style="fill:#F5D6CB;" points="285.427002,150.481766 273.263794,123.148438 225.217422,110.481773 148.943787,104.481773 
		118.914795,106.481773 102.848701,140.387787 102.848701,205.148438 127.901901,275.148438 166.961182,318.753906 
		191.560257,350.481781 224.016251,318.753906 250.172562,287.148438 268.459167,257.815094 286.006775,217.148438 
		291.119019,170.481766 	"/>
	<polygon style="fill:#B3DAF5;" points="269.660309,311.815094 337.525848,330.178711 363.350769,344.481781 379.566406,372.481781 
		379.566406,445.069336 364.551941,454.481781 16.152752,454.481781 7.807537,437.815094 10.209856,361.126953 
		33.031887,337.631836 91.288124,323.111328 120.716537,311.815094 134.023941,355.815094 148.343201,379.148438 
		171.263336,367.415039 174.768723,389.329102 171.263336,451.148438 217.382309,450.481781 208.960419,400.481781 
		222.214523,367.415039 234.666504,383.148438 	"/>
	<polygon style="fill:#FFFFFF;" points="191.560257,354.481781 162.757126,318.753906 134.023941,289.148438 121.317116,299.493164 
		150.144943,383.148438 195.939148,346.201111 237.82959,383.148438 269.660309,311.815094 254.250671,286.481781 
		234.666504,301.737305 	"/>
	<polygon style="fill:#F36C6D;" points="217.011063,454.481781 208.960419,400.481781 217.011063,367.415039 205.969254,355.047638 
		191.560257,354.481781 171.263336,367.415039 179.314407,404.481781 171.263336,457.148438 	"/>
	<path style="fill:#2A3038;" d="M388.274841,386.575195c0-29.515503-18.016266-55.129578-43.812164-62.288696l-67.585419-18.755798
		l-0.573853-0.159241l-0.096466-0.647827c-0.990753-6.654846-4.440674-12.604431-9.465118-16.323303l-4.204193-3.110229
		l-0.865021-0.639954l0.693634-0.859436c20.751282-25.710022,32.65274-62.156372,32.65274-99.993835
		c0-7.213196-0.432465-14.484009-1.28537-21.610474l-0.015411-0.128784l0.014679-0.128845
		c0.865906-7.57428,8.459625-75.779053,8.459625-137.389221c0-3.684753-2.122009-6.92218-5.280334-8.055847
		c-1.859436-0.666931-46.194656-16.335266-102.77475-16.335266c-12.758118,0-44.850937,2.30426-67.253853,23.647461
		l-0.253151,0.241211h-0.333595h-1.83297c-12.047043,0-23.662399,5.610962-31.867874,15.394287
		c-8.179749,9.752441-12.379318,22.963501-11.521721,36.245605c2.062531,31.955017,6.909821,71.20929,12.348907,100.004944
		l0.02359,0.124817l-0.005447,0.127441c-0.125916,2.972107-0.184578,5.470215-0.184578,7.861694
		c0,37.83783,11.901443,74.283813,32.652672,99.992859l0.693741,0.859436l-0.865074,0.639954l-4.204346,3.110352
		c-5.024948,3.719177-8.474686,9.669128-9.46447,16.323975l-0.09639,0.647949l-0.573982,0.159241l-67.585403,18.75592
		C18.016733,331.444519,0,357.058899,0,386.575195v52.03418C0,452.058411,9.857166,463,21.973215,463h344.328857
		c12.115814,0,21.972778-10.941589,21.972778-24.390625V386.575195z M101.6651,129.232178l-0.471497-3.793762
		c-2.200706-17.704163-3.897316-35.329773-4.906502-50.971497c-0.563484-8.736877,2.090294-17.082458,7.472641-23.499451
		c5.407745-6.448669,12.760635-10.000183,20.704109-10.000183h5.111816c1.967575,0,3.835251-0.829224,5.258911-2.334839
		c18.401627-19.453613,47.602356-21.553833,59.302841-21.553833c42.51358,0,78.575043,9.509521,92.105988,13.598145
		l0.671326,0.20282l-0.007111,0.772217c-0.290955,31.743042-2.490082,64.484375-4.283691,86.361145l-0.134369,1.638672
		l-1.248474-0.887085c-0.089294-0.063416-0.180206-0.125183-0.272675-0.184814
		c-16.220673-10.46936-55.663406-22.949036-151.456299-22.949951c-2.671219,0-5.375587,0.009705-8.134827,0.029358
		c-2.566582,0.019653-4.935654,1.454773-6.336823,3.838928c-4.773941,8.120483-8.850235,16.924866-12.115776,26.168762
		L101.6651,129.232178z M233.593399,155.196899c-9.242493-0.000305-18.444504,1.541809-27.350433,4.583557
		c-3.044128,1.038757-5.150375,3.982422-5.366013,7.49939l-0.074234,1.209717l-1.055771-0.311096
		c-1.823395-0.537354-3.710693-0.809875-5.609528-0.809875c-1.898956,0-3.786087,0.272522-5.609055,0.809875l-1.055756,0.311157
		l-0.074234-1.209778c-0.215698-3.516724-2.321457-6.460327-5.3647-7.499329
		c-8.904984-3.04126-18.10701-4.583252-27.350327-4.583252s-18.445007,1.541992-27.349625,4.583191
		c-2.807411,0.958252-4.834091,3.54248-5.2892,6.744019l-0.119972,0.844116h-0.769844h-10.82457h-1.01265l0.117943-1.116455
		c2.04895-19.393921,7.418533-37.291931,15.959587-53.196838l0.261292-0.486572l0.510368-0.001343
		c0.951126-0.002502,1.899437-0.003784,2.843361-0.003784c69.36438,0,119.710648,6.796387,141.764587,19.137207l0.309174,0.172913
		l0.125214,0.358337c3.786011,10.832275,6.347809,22.277832,7.614258,34.018677l0.120758,1.118896h-1.015167h-10.808685h-0.769775
		l-0.120087-0.844055c-0.455505-3.202393-2.482025-5.786926-5.288605-6.745056
		C252.038574,156.739258,242.837387,155.197144,233.593399,155.196899z M251.073425,174.349182v0.802185v21.063477v0.802185
		l-0.705399,0.174011c-5.543167,1.367371-11.187454,2.060669-16.776169,2.060669c-5.588745,0-11.233047-0.693298-16.776215-2.060669
		l-0.70546-0.174011v-0.802185v-21.063477v-0.802185l0.70546-0.17395c5.542892-1.367432,11.187241-2.06073,16.776215-2.06073
		c5.588928,0,11.233276,0.693298,16.776169,2.06073L251.073425,174.349182z M172.1642,174.349182v0.802185v21.063477v0.802185
		l-0.70546,0.174011c-5.543121,1.367371-11.187302,2.060669-16.775726,2.060669s-11.232605-0.693298-16.775787-2.060669
		l-0.705399-0.174011v-0.802185v-21.063477v-0.802185l0.705399-0.17395c5.542908-1.367432,11.187088-2.06073,16.775787-2.06073
		s11.23288,0.693298,16.775726,2.06073L172.1642,174.349182z M108.514381,185.309326l-0.009071-1.01001h0.909889h11.633881h0.900871
		v1v18.19574c0,3.739929,2.163597,6.991699,5.383827,8.091614c8.862602,3.025879,18.064568,4.56012,27.350121,4.56012
		c9.285538,0,18.487076-1.534241,27.348907-4.560181c3.220062-1.100342,5.383713-4.352112,5.383713-8.091553v-11.735352
		c0-4.113647,3.014984-7.460388,6.720901-7.460388c3.706177,0,6.721329,3.346741,6.721329,7.460388v11.735352
		c0,3.739868,2.163757,6.991577,5.384262,8.091614c8.862167,3.025635,18.063583,4.559753,27.348572,4.559753
		c9.285004,0,18.486908-1.534119,27.350128-4.559814c3.219727-1.100525,5.383209-4.352295,5.383209-8.091553v-18.19574v-1h0.900879
		h11.632965h0.909882l-0.009094,1.009949c-0.281677,31.362976-9.299377,60.827698-25.391937,82.966431
		c-16.153732,22.222839-37.543839,34.461548-60.230194,34.461548c-22.686325,0-44.076584-12.238708-60.230484-34.461548
		C117.814278,246.136963,108.796288,216.672241,108.514381,185.309326z M213.900238,317.107422l-2.120148,2.353638
		l-17.00563,18.877869l-0.637039,0.707092l-0.637009-0.707092l-17.006165-18.877869l-2.119827-2.35321l2.937225,0.666321
		c5.519211,1.252014,11.180756,1.886902,16.827362,1.886902s11.306946-0.634827,16.823624-1.886841L213.900238,317.107422z
		 M93.799644,417.858948l9.650864,26.839661l0.492882,1.370728h-1.329582H21.973215
		c-3.706192,0-6.721334-3.346558-6.721334-7.459961v-52.03418c0-21.732544,13.265559-40.59198,32.259483-45.862671
		l41.449184-11.502991l1.513237-0.419922l-0.428497,1.664795l-10.842545,42.125977
		c-0.565468,2.193481-0.299721,4.584717,0.728928,6.560974c1.027832,1.974426,2.760788,3.424561,4.754585,3.978455
		l18.380898,5.100525l1.089523,0.302307l-0.502228,1.11499l-9.592415,21.296814
		C93.089409,413.092957,92.99379,415.616821,93.799644,417.858948z M171.783371,401.066162L165.944,445.2146l-0.113052,0.854736
		h-0.778259h-44.076622h-0.610443l-0.226265-0.629272l-10.756767-29.914062l-0.14978-0.416687l0.180733-0.401245
		l12.635933-28.052795c1.040527-2.309265,1.079842-4.978394,0.10788-7.323242
		c-0.972847-2.345825-2.824181-4.049988-5.079216-4.675354l-20.140793-5.588928l-0.903564-0.250732l0.255844-0.99408
		l11.123627-43.21875l0.142906-0.555359l0.504875-0.140076l6.363655-1.765686l0.701057-0.194458l0.323196,0.717468
		l27.940598,62.036133c1.294388,2.865112,2.632782,5.827515,6.490509,6.524658
		c0.408203,0.071472,0.825806,0.108093,1.236771,0.108093c2.004898,0,3.900223-0.866638,5.336975-2.440308
		c2.271759-2.488525,4.643356-4.917175,7.048767-7.218567l1.489044-1.424561v2.182068v0.436523
		c0,6.459412,2.381546,12.779541,6.534058,17.339905l0.323914,0.355713L171.783371,401.066162z M154.241379,368.175842
		l-0.875473,0.828918l-0.514816-1.142334c-4.295837-9.532288-11.949768-26.528564-25.144455-55.84021
		c-1.509933-3.353394-0.526482-7.452942,2.28775-9.535889l5.169052-3.825256l0.614456-0.454773l0.522247,0.579712
		l43.651276,48.455078l0.86644,0.961792l-1.085388,0.631165C173.74704,352.314575,164.465958,358.495483,154.241379,368.175842z
		 M205.969254,446.069336h-23.679947h-1.042786l0.151428-1.145264l4.867737-36.80957l0.112991-0.854736h0.77832h13.957764h0.778625
		l0.112778,0.855164l4.854446,36.80957l0.150986,1.144836H205.969254z M208.032272,368.575195v14.293945
		c0,4.113403-3.015137,7.459961-6.721329,7.459961h-14.347061c-3.705917,0-6.720886-3.346558-6.720886-7.459961v-14.293945
		v-0.561584l0.432007-0.292297c5.705612-3.860168,10.282257-6.21936,13.116776-7.518677l0.343826-0.157593l0.343811,0.157532
		c2.833801,1.298584,7.410355,3.657043,13.120728,7.518616l0.432129,0.292236V368.575195z M207.457016,348.202881l0.866394-0.961792
		l43.650787-48.455078l0.522186-0.579651l0.614502,0.454712l5.169449,3.825195
		c2.814117,2.082825,3.797455,6.182434,2.287354,9.536072c-13.192856,29.30957-20.848541,46.307739-25.144333,55.840088
		l-0.514877,1.142456l-0.875519-0.829102c-10.218475-9.676636-19.50209-15.859192-25.490585-19.341736L207.457016,348.202881z
		 M278.894104,415.525635l-10.745331,29.914062l-0.226166,0.629639h-0.610596h-44.106598h-0.77858l-0.112778-0.855103
		l-5.823151-44.149414l-0.065979-0.500305l0.323914-0.355591c4.152985-4.559448,6.534882-10.879578,6.534882-17.339783v-0.4375
		v-2.182251l1.489029,1.424805c2.404602,2.300781,4.77626,4.729797,7.04921,7.219482
		c1.436203,1.573853,3.336746,2.440491,5.351669,2.440491c0.40892,0,0.822342-0.036865,1.228897-0.109558
		c3.852402-0.69519,5.190735-3.659485,6.484955-6.526184l27.939728-62.034302l0.323181-0.717529l0.701111,0.194641
		l6.362396,1.765564l0.504761,0.140076l0.142975,0.555359l11.123627,43.219727l0.255829,0.994141l-0.903595,0.250732
		l-20.140198,5.588867c-2.255859,0.625183-4.106964,2.328796-5.078827,4.674255
		c-0.973358,2.345154-0.934296,5.014465,0.106842,7.324158l12.637726,28.053955l0.180725,0.401001L278.894104,415.525635z
		 M373.022552,438.609375c0,4.113403-3.014801,7.459961-6.72049,7.459961h-80.630432h-1.329102l0.492279-1.370361
		l9.642944-26.844727c0.804108-2.240112,0.708008-4.762756-0.263702-6.920837l-9.592804-21.296753l-0.502258-1.115051
		l1.089508-0.302307l18.381622-5.100586c1.991974-0.553589,3.724945-2.003906,4.754181-3.978882
		c1.027283-1.973206,1.29303-4.364746,0.729004-6.560974l-10.843719-42.125427l-0.428528-1.664856l1.513214,0.419983
		l41.449646,11.50293c18.993896,5.269775,32.25946,24.129211,32.25946,45.862732L373.022552,438.609375z"/>
</g>
<path id="Shape_28_copy" style="fill:#2A3038;" d="M394.890503,218.337006l-49.044739,55.036987
	c-3.071625,3.553497-8.127472,3.638519-11.29248,0.189911c-3.16507-3.448608-3.240784-9.124908-0.169159-12.678406
	c0.054199-0.062744,0.109253-0.124573,0.16507-0.185486L377.946106,212l-43.396027-48.699997
	c-3.14035-3.476929-3.175629-9.153748-0.078796-12.679535c3.096863-3.525787,8.153137-3.565399,11.293488-0.08847
	c0.027496,0.030441,0.05481,0.061111,0.081909,0.09201l49.045654,55.037994c3.117004,3.497864,3.118195,9.170395,0.002686,12.669937
	C394.893524,218.333633,394.892029,218.335312,394.890503,218.337006z"/>
<path id="Shape_28_copy_1_" style="fill:#2A3038;" d="M445.659637,218.337006l-49.044739,55.036987
	c-3.071625,3.553497-8.127472,3.638519-11.29248,0.189911c-3.16507-3.448608-3.240784-9.124908-0.169159-12.678406
	c0.054199-0.062744,0.109222-0.124573,0.16507-0.185486L428.71524,212l-43.396027-48.699997
	c-3.14035-3.476929-3.175629-9.153748-0.078796-12.679535c3.096863-3.525787,8.153137-3.565399,11.293488-0.08847
	c0.027496,0.030441,0.05481,0.061111,0.081909,0.09201l49.045654,55.037994c3.117004,3.497864,3.118195,9.170395,0.002686,12.669937
	C445.662659,218.333633,445.661163,218.335312,445.659637,218.337006z"/>
</svg>
