<?xml version="1.0" encoding="utf-8"?>
<!-- Generator: Adobe Illustrator 19.2.1, SVG Export Plug-In . SVG Version: 6.00 Build 0)  -->
<svg version="1.0" id="Слой_1" xmlns="http://www.w3.org/2000/svg" xmlns:xlink="http://www.w3.org/1999/xlink" x="0px" y="0px"
	 viewBox="0 0 329 451" style="enable-background:new 0 0 329 451;" xml:space="preserve">
<polygon style="fill:#B3DAF5;" points="164.5,319.5 128,293 94.5,301.364441 94.5,439.5 164.521744,398 234.5,443 234.5,299.5 
	212,293 201.5,293 183,305 "/>
<polygon style="opacity:0.1;fill:#2A3038;" points="96.422371,335 127,328.5 164.498962,356.5 201.5,328.5 233.5,336.5 234.5,299.5 
	201.5,293 178,311.758057 164.5,319.5 139.520828,301.364441 128,293 101.884033,297.5 94.5,301.364441 "/>
<polygon style="fill:#F36C6D;" points="298.5,241.5 293.5,199.5 320,164.639496 293.5,128.5 299,86 258,69.5 242.5,30 199,35 
	164.521744,9 128.5,35.5 87.5,30 69.5,70 28,87 34.5,129 10,162.5 34.5,198.5 28.5,241.5 69,260 86.5,301.364441 128,293 
	164.5,319.5 201.5,293 242,301.364441 257,261 "/>
<circle style="fill:#FFFFFF;" cx="165.106567" cy="165.547028" r="96.104042"/>
<g>
	<path style="fill:#F79899;" d="M273.636414,141.859558c-6.051788-29.145683-23.091293-54.190102-47.979691-70.519875
		c-7.420853-4.869064-15.423859-8.846245-23.786774-11.820995c-0.746002-0.252995-1.563904-0.389069-2.38707-0.389069
		c-3.237152,0-6.112228,2.061466-7.15416,5.129696c-1.324875,3.901077,0.662857,8.080162,4.52536,9.514114
		c50.042618,17.78183,76.310928,73.008522,58.513565,123.093941c-13.63356,38.367569-50.137161,64.145813-90.834457,64.145813
		c-10.978348,0-21.837219-1.880615-32.275024-5.589539c-24.262329-8.621292-43.715034-26.174942-54.774948-49.427292
		c-11.059784-23.252335-12.402695-49.419769-3.781326-73.682114c2.576134-7.249817,6.023033-14.187126,10.244972-20.619316
		l0.016136-0.02462l0.016655-0.024292c2.347305-3.438278,1.459755-8.145264-1.978455-10.492638
		c-1.26062-0.860626-2.729462-1.31559-4.247681-1.315659c-2.502014-0.000259-4.836617,1.231262-6.245026,3.294106
		c-0.046806,0.068535-0.092293,0.137527-0.136536,0.207306c-16.356823,24.930206-22.017197,54.688126-15.965385,83.83374
		c6.051807,29.145691,23.091309,54.190109,47.979706,70.519882c18.225334,11.958069,39.328583,18.278717,61.028412,18.278717
		c37.737488,0,72.609711-18.811249,93.28334-50.320099C274.027863,200.763046,279.688232,171.005188,273.636414,141.859558z"/>
	<path style="fill:#F79899;" d="M98.625565,91.775597c1.744881,0,3.438538-0.608025,4.77816-1.71196
		c17.186897-14.084244,38.880989-21.844719,61.09272-21.857422c4.16922,0,7.559555-3.39035,7.559555-7.557652
		c0-4.166706-3.389755-7.556793-7.556122-7.557781c-25.697678,0.017643-50.796272,8.997658-70.672546,25.285889
		c-3.218987,2.642891-3.688042,7.415321-1.043373,10.636612C94.225288,90.768631,96.354492,91.775528,98.625565,91.775597z"/>
</g>
<g>
	<path style="fill:#2A3038;" d="M265.68573,143.511536c-5.61084-27.021973-21.408752-50.241516-44.483643-65.381409
		c-6.880127-4.514282-14.299988-8.20166-22.053528-10.959656c-0.69165-0.234558-1.449951-0.360718-2.213135-0.360718
		c-3.001282,0-5.66687,1.911255-6.632874,4.75592c-1.228333,3.616821,0.614563,7.491394,4.195618,8.820862
		c46.39624,16.486145,70.750488,67.688721,54.249939,114.124634c-12.640137,35.571899-46.483887,59.471802-84.215759,59.471802
		c-10.178406,0-20.246033-1.743591-29.923279-5.182251c-22.494446-7.993103-40.529724-24.2677-50.783752-45.825745
		c-10.253906-21.558044-11.498962-45.818787-3.505798-68.313232c2.388428-6.721558,5.584167-13.153381,9.498474-19.116882
		l0.014954-0.022827l0.015442-0.022522c2.17627-3.187744,1.353394-7.551758-1.83429-9.728088
		c-1.168762-0.797913-2.530579-1.219727-3.938171-1.219788c-2.319702-0.000244-4.484192,1.141541-5.789978,3.054077
		c-0.043396,0.063538-0.085571,0.127502-0.126587,0.1922C62.994385,130.91156,57.74646,158.50116,63.3573,185.523071
		c5.61084,27.021973,21.408752,50.241516,44.483643,65.381409c16.897339,11.086731,36.462891,16.946838,56.581543,16.946838
		c34.987732,0,67.31897-17.440552,86.486206-46.653503C266.048645,198.122986,271.29657,170.533447,265.68573,143.511536z"/>
	<path style="fill:#2A3038;" d="M103.427124,97.076965c1.617737,0,3.187988-0.563721,4.429993-1.587219
		c15.93457-13.057983,36.047913-20.252991,56.641174-20.264771c3.865417,0,7.008728-3.143311,7.008728-7.006958
		c0-3.863098-3.142761-7.006165-7.005554-7.00708c-23.825195,0.016357-47.094971,8.342041-65.522949,23.44342
		c-2.984436,2.450317-3.419312,6.875-0.967346,9.861572C99.347473,96.143372,101.321533,97.076904,103.427124,97.076965z"/>
</g>
<path style="fill:#2A3038;" d="M325.870911,160.375916l-24.012878-31.398499l-0.752258-0.983643l0.160583-1.227905
	l5.128967-39.211975c0.411194-3.13623-1.341919-6.171692-4.263062-7.382629L265.632507,65.04541l-1.148315-0.475891
	l-0.47522-1.14856l-15.117004-36.533997c-1.085999-2.62854-3.621765-4.32605-6.460693-4.32605
	c-0.303162,0-0.610352,0.02002-0.912903,0.059692l-39.179688,5.132935l-1.229614,0.161133l-0.984436-0.754211L168.753662,3.12854
	c-1.231262-0.942993-2.702026-1.441589-4.253174-1.441589c-1.551025,0-3.021851,0.498596-4.253296,1.441772l-31.371765,24.033752
	l-0.984497,0.75415l-1.229736-0.161133l-39.179016-5.133972c-0.300171-0.039124-0.606689-0.059143-0.909241-0.059143
	c-2.839844-0.000244-5.376953,1.69751-6.463684,4.325134L64.995117,63.422791l-0.47522,1.148865l-1.148621,0.475891
	L26.867249,80.171509c-2.920715,1.211365-4.674072,4.248047-4.262756,7.384338l5.129211,39.21405l0.160583,1.227783
	l-0.752258,0.983704l-24.013,31.400024c-1.91803,2.507935-1.91803,6.011169,0,8.519104l24.013,31.400024l0.752319,0.983704
	l-0.160706,1.227905l-5.129028,39.205017c-0.411377,3.136841,1.341919,6.173157,4.263428,7.384644l36.503479,15.126709
	l1.148499,0.475891l0.475159,1.148804l15.113037,36.535034c0.924133,2.236694,2.899231,3.813599,5.283875,4.219238
	l2.496948,0.424744v2.532715v132.907043c-0.001953,3.861328,3.136658,7.003052,6.99646,7.005005
	c1.332642,0,2.628662-0.376221,3.751404-1.08783l64.255249-40.790894L164.5,406.577576l1.607849,1.020691l64.258972,40.791931
	c1.121887,0.710999,2.414307,1.087463,3.735779,1.087463c2.416809,0,4.630676-1.216553,5.922058-3.254272
	c0.711792-1.123108,1.087769-2.419678,1.087341-3.74939V309.562012v-2.530334l2.494202-0.426697
	c2.384155-0.407837,4.360352-1.985291,5.286438-4.219666l15.114258-36.532227l0.475281-1.148682l1.148438-0.475952l36.5-15.125
	c2.920898-1.211365,4.674194-4.248108,4.262878-7.384338l-5.12915-39.213074l-0.160583-1.227905l0.752258-0.983582
	l24.013977-31.400024C327.786133,166.387512,327.786682,162.884277,325.870911,160.375916z M227.114014,307.399963v116.877075
	v5.457886l-4.607788-2.92511l-54.259033-34.444031c-1.122681-0.713013-2.41864-1.089661-3.748169-1.089661
	s-2.625427,0.376648-3.747742,1.089417l-54.25946,34.444275l-4.607788,2.92511v-5.457886V307.399963v-2.633057l2.610779-0.341553
	l22.165039-2.900024l1.22937-0.160889l0.984192,0.754028l31.371948,24.03302c1.231628,0.943848,2.702209,1.442566,4.253174,1.442566
	s3.021545-0.498718,4.252625-1.4422l31.373474-24.033447l0.984253-0.753967l1.229309,0.160889l22.164978,2.900024l2.61084,0.341553
	V307.399963z M310.108765,166.464783l-21.870972,28.590942c-1.133789,1.482483-1.625061,3.31842-1.383057,5.169373
	l4.669983,35.699768l0.298218,2.28009l-2.124329,0.880432l-33.25,13.780029c-1.729309,0.716431-3.075195,2.063293-3.790161,3.792664
	l-13.765259,33.275635l-0.879822,2.126831l-2.282104-0.299011l-35.671997-4.674011
	c-0.297913-0.038879-0.602783-0.058655-0.904724-0.058655c-1.529968-0.000061-3.041504,0.512268-4.256348,1.442749
	l-28.573792,21.888916l-1.824341,1.397522l-1.824341-1.397522l-28.575012-21.888977
	c-1.213928-0.930237-2.724182-1.442383-4.252991-1.442566c-0.304016,0.000061-0.611694,0.019897-0.913635,0.059082
	l-35.669312,4.673523l-2.282349,0.299072l-0.879639-2.127136l-13.762024-33.276062
	c-0.715393-1.729553-2.061523-3.077209-3.790405-3.794556l-33.247681-13.775452l-2.124512-0.880249l0.298157-2.280334
	l4.669006-35.699951c0.242615-1.851196-0.248474-3.686584-1.382751-5.168762l-21.872559-28.600708l-1.393738-1.822449
	l1.393738-1.822449l21.872009-28.600037c1.133789-1.482544,1.625061-3.318237,1.38324-5.168945l-4.668945-35.699585
	l-0.298218-2.280396l2.124695-0.880188l33.249023-13.773987c1.728271-0.716248,3.073853-2.063232,3.788696-3.79248
	l13.766357-33.275818l0.879822-2.126648l2.282043,0.299011l35.672058,4.673889
	c0.300598,0.039368,0.606384,0.059387,0.909058,0.059387c1.528198,0,3.038025-0.512085,4.251221-1.441956l28.574768-21.886475
	l1.82428-1.3974l1.82428,1.397522l28.575012,21.890015c1.213928,0.930054,2.724304,1.4422,4.253052,1.4422
	c0.30249,0,0.60791-0.019958,0.907898-0.059204l35.672913-4.674072l2.282166-0.299072l0.879761,2.126953L252.65918,72.6203
	c0.71521,1.72998,2.061157,3.076843,3.790039,3.793091l33.24823,13.777039l2.124512,0.880432l-0.298279,2.280212
	l-4.669983,35.700012c-0.242859,1.851135,0.248047,3.68573,1.382324,5.167114l21.872986,28.601379l1.393982,1.822693
	L310.108765,166.464783z"/>
</svg>
