<?xml version="1.0" encoding="utf-8"?>
<!-- Generator: Adobe Illustrator 19.2.1, SVG Export Plug-In . SVG Version: 6.00 Build 0)  -->
<svg version="1.0" id="Слой_1" xmlns="http://www.w3.org/2000/svg" xmlns:xlink="http://www.w3.org/1999/xlink" x="0px" y="0px"
	 viewBox="0 0 512 512" style="enable-background:new 0 0 512 512;" xml:space="preserve">
<g>
	<circle style="fill:#B3DAF5;" cx="255.748703" cy="255.748703" r="248.584641"/>
	<circle style="fill:#FFFFFF;" cx="255.748703" cy="255.748688" r="217.024734"/>
	<path style="fill:#2A3038;" d="M256.000977,1.004395C187.887695,1.004883,123.851074,27.530273,75.687988,75.693848
		C27.524902,123.85791,1.000488,187.89502,1.001465,256.008301c0.000488,68.112793,26.525879,132.149902,74.689453,180.312988
		c48.164062,48.163086,112.201172,74.686523,180.314453,74.686523c68.112793-0.000977,132.149902-26.525391,180.312988-74.689453
		s74.686523-112.201172,74.686523-180.314453c-0.000977-68.11377-26.525391-132.149902-74.689453-180.312988
		S324.114258,1.003418,256.000977,1.004395z M426.416016,426.419922
		c-45.464844,45.573242-105.955078,70.713867-170.328613,70.791016c-0.098145,0-0.197266,0-0.29541,0
		c-64.263184,0-124.697754-24.989258-170.201172-70.384766c-45.573242-45.464844-70.713867-105.955078-70.790039-170.328613
		C14.724121,192.124023,39.720215,131.57373,85.18457,86.000977l0.408203-0.408203
		c45.501465-45.388184,105.937988-70.375977,170.192383-70.375977c0.105957,0,0.203125,0,0.309082,0.000488
		c64.373535,0.080078,124.862793,25.223633,170.324707,70.799316c45.382812,45.495605,70.375977,105.941406,70.375,170.202148
		C496.793945,320.479492,471.799805,380.924805,426.416016,426.419922z"/>
	<path style="fill:#2A3038;" d="M250.918945,464.953125c-49.594727-1.208008-97.271973-20.086914-134.248535-53.15918
		c-1.305176-1.1875-2.964355-1.828125-4.708984-1.828125c-0.112305,0-0.225098,0.00293-0.338379,0.007812
		c-1.867676,0.088867-3.588867,0.899414-4.847168,2.282227c-1.258789,1.382812-1.902832,3.172852-1.814941,5.041016
		c0.088379,1.867188,0.898438,3.588867,2.28125,4.847656l0.079102,0.070312
		c44.408691,39.723633,101.614746,59.772461,161.088867,56.459961c59.474609-3.3125,114.100586-29.586914,153.814453-73.984375
		c35.292969-39.455078,55.438477-90.329102,56.726562-143.25c1.289062-52.921875-16.358398-104.71582-49.69043-145.841309
		c-2.451172-2.973145-6.869141-3.400879-9.847656-0.949707c-2.9375,2.418457-3.394531,6.803223-1.018555,9.774902
		c35.144531,43.369141,51.297852,97.834961,45.481445,153.358887c-5.816406,55.524414-32.90625,105.459961-76.280273,140.608398
		C349.052734,449.625,300.507812,466.143555,250.918945,464.953125z"/>
	<path style="fill:#2A3038;" d="M256.069763,34.004272c-30.951111,0-60.962341,6.264526-89.200012,18.619629
		c-29.221863,12.785828-54.908936,31.423889-76.347656,55.396423c-35.124268,39.275696-55.174316,89.915161-56.456665,142.59021
		c-1.282288,52.674927,16.279907,104.230042,49.451416,145.168335c1.143921,1.40979,2.843933,2.218994,4.663452,2.218994
		c1.388733,0,2.694275-0.463684,3.775574-1.341003c1.244568-1.009766,2.021484-2.443787,2.187439-4.037842
		c0.166077-1.594055-0.298584-3.157349-1.308411-4.401917C62.665161,350.922546,46.032837,303.968201,46,256.001343
		C46,140.205627,140.205627,46,256,46l0.143494-0.000061c51.683044-0.000732,101.350403,18.988281,139.852783,53.469177
		c1.1203,1.02063,2.554565,1.576355,4.05127,1.576355c1.68573,0,3.303162-0.714111,4.437561-1.959167
		c2.228149-2.445557,2.05127-6.247925-0.394287-8.476074l-0.078186-0.070007
		c-40.767639-36.458496-93.298706-56.532593-147.929321-56.53595l-0.006775-0.999756
		c-0.002258,0-0.004517,0.000061-0.006775,0.000061V34.004272z"/>
</g>
<path style="fill:#FFFFFF;" d="M451.523438,353.621185L413.038086,349L384,360.5l-25.168945,21.752045L349,413v22.596191
	l9.831055,31.181488L381,486l23.428223,13.333344l27.852539,6.674469l19.242676-6.674469L474.331055,482l18.837891-22
	l6.164398-32.496094c0,0,5.333344-30.508179,0-34.506042S482,371,482,371L451.523438,353.621185z"/>
<polygon style="fill:#F36C6D;" points="404.428223,392.997864 404.428223,454.743774 418,454.743774 467.773438,425.998566 456,414 
	"/>
<path style="fill:#2A3038;" d="M502.372986,458.271912C506.770325,448.02063,509,437.145996,509,425.950195
	c0-11.136536-2.229614-21.980591-6.627014-32.231018c-8.765442-20.435181-23.571899-35.241272-44.008057-44.00708
	c-10.253235-4.398804-21.09729-6.629089-32.23114-6.629089c-11.135437,0-22.008423,2.229553-32.316833,6.626709
	c-20.62677,8.797546-35.523926,23.604431-44.277771,44.00946C345.200073,403.832581,343,414.676697,343,425.950195
	c0,11.331909,2.200134,22.206543,6.539246,32.321899c8.77948,20.464294,23.67804,35.304199,44.281738,44.107483
	C404.141907,506.772217,415.014404,509,426.133789,509c11.114807,0,21.960449-2.229248,32.235718-6.625854
	C478.775024,493.601013,493.580994,478.76239,502.372986,458.271912z M452.877686,489.748413
	c-8.500854,3.701477-17.250122,5.501587-26.743896,5.501587c-12.487061,0-24.18634-3.124634-34.772766-9.28717
	c-10.595764-6.187317-19.085144-14.677307-25.234741-25.235535c-6.167725-10.579956-9.295227-22.280945-9.295227-34.7771
	c0-12.422363,3.126831-24.06189,9.293579-34.595398c6.204834-10.601746,14.695068-19.091797,25.234558-25.234131
	c10.57489-6.167297,22.274963-9.294495,34.774597-9.294495c12.421997,0,24.06189,3.12677,34.596375,9.293518
	c10.538513,6.169495,18.998291,14.658325,25.144409,25.230591c6.167297,10.608459,9.294373,22.249512,9.294373,34.599915
	c-0.000977,9.364929-1.853821,18.427002-5.506958,26.934631c-3.697754,8.615906-8.649475,16.065613-14.717529,22.141724
	C468.87146,481.085449,461.447998,486.037781,452.877686,489.748413z"/>
<path style="fill:#2A3038;" d="M419.537659,462.712769l0.057739-0.032898c4.588135-2.617065,11.52179-6.572021,20.826904-11.969482
	l26.572266-15.413086c1.491943-0.864502,2.691956-2.05481,3.777161-3.746399c1.035156-1.609131,1.559326-3.492798,1.559326-5.600708
	c0-2.462646-0.7677-4.706299-2.220215-6.488403c-0.918945-1.12677-1.939697-2.005066-3.120178-2.684448
	c-0.631104-0.363586-1.90271-1.104614-3.816467-2.22052l-0.076599-0.044678
	c-4.492554-2.618958-12.01178-7.002319-22.942322-13.321716l-26.662903-15.411011
	c-1.753967-1.013489-3.565186-1.527405-5.383362-1.527405c-1.808838,0-3.640625,0.508057-5.444458,1.51001
	c-3.422607,1.901672-5.634277,5.577637-5.634277,9.364929v61.824219c0,4.069275,1.876099,7.301514,5.425476,9.34729
	c1.686035,0.973755,3.565857,1.446655,5.748352,1.446655c0.309814,0,0.626587-0.009583,0.947754-0.028687
	c1.391663-0.081055,2.811768-0.56958,4.223328-1.452271C414.030396,465.854675,415.938843,464.764832,419.537659,462.712769z
	 M411.038086,448.350586v-44.524414v-3.464661l3.000244,1.732727l12.866211,7.430664
	c5.391968,3.11377,9.994263,5.749268,13.796204,7.925964c3.655823,2.093689,6.532288,3.741028,8.694641,5.002197l3.135803,1.829102
	l2.961121,1.727295l-2.960876,1.727722l-1.71875,1.00293c-7.784729,4.541443-14.917847,8.666199-20.649353,11.98053
	l-0.055725,0.032227c-5.834167,3.374817-11.344788,6.562439-16.058716,9.323486l-3.010803,1.763489V448.350586z"/>
<g>
	<polygon style="fill:#B3DAF5;" points="188.68457,159.525879 118.053101,230.930618 153.368835,266.983398 231,193.957031 
		194.025879,163.102051 	"/>
	<polygon style="fill:#B3DAF5;" points="317.456055,151.5 278.417114,186.571579 356.831055,262.996094 393.466797,227.004883 	"/>
	<polygon style="fill:#F4CFB5;" points="235.333328,197.492737 156.333328,272.666656 188.68457,303.800781 178.333328,319 240,379 
		255.379562,368.814453 268.333344,380.666656 330.666656,317.333344 317,301.301239 352.333344,266.983246 343,249.515945 
		278.417114,190.666672 252.828125,215.333328 	"/>
	<path style="fill:#2A3038;" d="M396.461426,226.799927c-0.400574-4.227539-2.302307-8.431335-5.092407-11.252441
		l-62.37207-62.373047c-3.014038-3.014404-7.105286-4.6745-11.520386-4.6745h-0.027344
		c-4.404297,0.006104-8.477173,1.664795-11.465515,4.670471l-50.698425,50.697876l-1.414185,1.414246l-1.414185-1.414246
		l-47.151855-47.150879c-3.142212-3.142212-7.414612-4.872742-12.030273-4.872803
		c-4.624634-0.000122-8.918091,1.737305-12.089355,4.89209l-61.222351,62.338989
		c-6.52832,6.527954-6.526672,17.565918-0.009216,24.11615l58.543335,58.544373l1.248474,1.248413l-1.083923,1.393616
		c-0.33783,0.434387-0.57373,0.852295-0.824036,1.346191l-0.134033,0.264404l-0.204895,0.214172
		c-2.887878,3.018005-4.478271,6.952026-4.478271,11.077271c0,4.223022,1.686279,8.254883,4.748108,11.352844l50.649536,50.649963
		c2.92334,2.92334,7.270325,4.73938,11.344543,4.73938c4.223999,0,8.256165-1.686096,11.353882-4.747681l1.044556-1.045105
		l1.414124-1.414795l1.414551,1.414368l3.547363,3.546875c1.784241,1.784241,5.330933,3.690674,9.934509,3.690674
		c4.175171,0,7.888428-1.670837,11.351929-5.108093l50.253967-50.355469c3.99469-3.994324,5.923096-8.326904,5.733032-12.878784
		c-0.155701-3.729614-1.795654-7.560059-4.619202-10.792297l-2.2005-2.207153l-1.410339-1.414612l1.412842-1.412109
		l62.735352-62.703125c2.957092-2.957153,4.726868-7.312927,4.738953-11.659973L396.461426,226.799927z M155.411499,258.764038
		l-1.406616-1.406372l-24.486816-24.482422l-0.172974-0.172913l-0.126221-0.209534
		c-0.521118-0.865234-0.468994-2.376831,0.65387-3.47406l62.013367-62.01355c0.659668-0.65863,1.239319-0.903137,2.139771-0.903137
		c0.867249,0,1.437195,0.234985,2.102783,0.867126l0.018799,0.017761l0.01825,0.01825l24.4375,24.4375l1.421875,1.421875
		l-1.429504,1.414185l-63.77002,63.086426L155.411499,258.764038z M254.24408,355.864624l-13.414062,13.447205l-0.58606,0.587585
		h-0.829895h-0.031799l-0.057373-0.001587h-0.828064l-0.555664-0.584778l-50.670349-50.641602l-1.413757-1.412903l1.412048-1.414612
		l13.431641-13.456055l0.585999-0.587097h0.829468h0.827881l0.599854,0.585083l50.694336,50.647461l0.001648,0.001709
		l1.44519,1.384949L254.24408,355.864624z M320.740784,318.661621c-0.239014,0.329895-0.558533,0.695496-0.949585,1.086548
		l-50.147766,50.47583l-1.414551,1.423828l-1.418884-1.419495l-1.98822-1.989258l-1.272766-1.273499l1.133118-1.399109
		c0.165039-0.203796,0.309326-0.41748,0.44104-0.653259l0.135437-0.242371l0.196289-0.19635l0.777344-0.777344
		c0.2724-0.2724,0.425659-0.575134,0.4823-0.952759l0.064026-0.427002l0.234497-0.362549l0.11499-0.172852l0.031738-0.047119
		c0.190369-0.282166,0.384521-0.569885,0.571045-0.974609l0.037903-0.091919
		c2.285278-6.115234,0.850037-12.976135-3.660583-17.487671l-50.640076-51.098022
		c-0.705872-0.70636-1.378235-1.37915-2.421509-2.09375l-0.089905-0.061584l-0.082764-0.071045
		c-0.242432-0.208191-0.517944-0.332764-0.842346-0.380859l-0.435547-0.064697l-0.368103-0.241577l-0.127991-0.085571
		l-0.068115-0.045776c-0.301331-0.203186-0.597778-0.403198-1.018982-0.594055l-0.097961-0.044312h-0.154236l-0.414246-0.201477
		c-0.07605-0.036987-0.192505-0.090149-0.325562-0.124817l-0.15448-0.040222l-0.146179-0.06427
		c-0.604004-0.265442-0.974121-0.29187-1.735291-0.29187h-1.037598h-0.063293l-0.06311-0.003967
		c-0.244751-0.015503-0.470581-0.069824-0.813538-0.157288c-0.373901-0.095886-0.780518-0.200073-1.205078-0.200073h-3.182617
		c-0.948059,0-1.657471,0.270508-2.226379,0.535156l-0.401062,0.186523h-0.325134l-0.090271,0.036804
		c-1.647644,0.671448-3.294739,1.624634-4.895203,2.832825l-1.388794,1.048462l-1.230408-1.230408l-20.970215-20.969788
		l-1.425476-1.425415l1.436646-1.414124l63.400452-62.406738l1.414124-1.392029l1.403076,1.403198l9.241211,9.241699
		l1.414185,1.414185l-1.414185,1.414185l-33.666504,33.666077c-5.017151,5.017944-6.628113,13.566528,0.000549,20.196045
		l13.812927,13.812378c0.747498,0.747498,1.483276,1.115173,2.132568,1.439575l0.099487,0.049744l0.093323,0.060425
		c2.163696,1.400574,4.669861,2.140869,7.247681,2.140869c0.659241,0,1.340942,0,2.317017-0.282532l0.26886-0.077759
		l0.279846-0.001038c0.661499-0.002441,1.275696-0.253723,1.840942-0.524902l0.410156-0.196777h0.348145l0.632751-0.318115
		l0.110962-0.055969c0.395508-0.199524,0.786438-0.396423,1.184875-0.58429l0.162109-0.076477l0.173096-0.046387
		c0.177002-0.047424,0.328369-0.147156,0.437622-0.28833l0.188599-0.243652l0.253113-0.175598
		c0.587585-0.407593,1.137756-0.957886,1.720337-1.540405l21.264221-21.264648l1.414185-1.414246l1.414185,1.414246
		l53.484619,53.484497l0.102051,0.093323c0.057739,0.048218,0.108948,0.092346,0.154968,0.132996l1.361267,1.201965
		L320.740784,318.661621z M344.96283,265.14978l-26.225586,26.25293l-1.414246,1.41571l-1.414917-1.414917l-38.984375-38.984375
		l-1.414246-1.414246l1.414246-1.414185l4.269531-4.269592c1.685791-1.685059,1.918091-3.37323,1.918091-4.946594
		c0-2.062195-0.915955-3.599854-1.82666-4.833374l-0.139099-0.160461c-1.295288-1.270569-3.038025-1.969543-4.9151-1.969543
		c-1.900085,0-3.662537,0.716187-4.962524,2.016541l-37.210693,37.210205l-1.414185,1.414185l-1.414246-1.414185
		l-10.998962-10.999084l-1.414246-1.414185l1.414246-1.414246l59.195801-59.196289l1.414185-1.414185l1.414246,1.414185
		l62.707947,62.708008l1.413513,1.413452L344.96283,265.14978z M382.112427,227.567078l-0.040344,0.09491
		c-0.132874,0.313538-0.276123,0.65155-0.631042,1.006714l-24.086365,24.086304l-1.414246,1.414246l-1.414185-1.414246
		l-62.739258-62.739746l-1.414307-1.414307l1.414368-1.414185l24.072266-24.069336l0.537903-0.537842l0.759277-0.044434
		c0.119507-0.007019,0.301086-0.008972,0.453552-0.009216l0.894165-0.351685l0.926636,0.926697l62.258789,62.26123
		l0.959045,0.959045L382.112427,227.567078z"/>
</g>
</svg>
