<?xml version="1.0" encoding="utf-8"?>
<!-- Generator: Adobe Illustrator 19.2.1, SVG Export Plug-In . SVG Version: 6.00 Build 0)  -->
<svg version="1.0" id="Слой_1" xmlns="http://www.w3.org/2000/svg" xmlns:xlink="http://www.w3.org/1999/xlink" x="0px" y="0px"
	 viewBox="0 0 512 512" style="enable-background:new 0 0 512 512;" xml:space="preserve">
<g>
	<circle style="fill:#B3DAF5;" cx="255.748703" cy="255.748703" r="248.584641"/>
	<circle style="fill:#FFFFFF;" cx="255.748703" cy="255.748688" r="217.024734"/>
	<path style="fill:#2A3038;" d="M256.000977,1.004395C187.887695,1.004883,123.851074,27.530273,75.687988,75.693848
		C27.524902,123.85791,1.000488,187.89502,1.001465,256.008301c0.000488,68.112793,26.525879,132.149902,74.689453,180.312988
		c48.164062,48.163086,112.201172,74.686523,180.314453,74.686523c68.112793-0.000977,132.149902-26.525391,180.312988-74.689453
		s74.686523-112.201172,74.686523-180.314453c-0.000977-68.11377-26.525391-132.149902-74.689453-180.312988
		S324.114258,1.003418,256.000977,1.004395z M426.416016,426.419922
		c-45.464844,45.573242-105.955078,70.713867-170.328613,70.791016c-0.098145,0-0.197266,0-0.29541,0
		c-64.263184,0-124.697754-24.989258-170.201172-70.384766c-45.573242-45.464844-70.713867-105.955078-70.790039-170.328613
		C14.724121,192.124023,39.720215,131.57373,85.18457,86.000977l0.408203-0.408203
		c45.501465-45.388184,105.937988-70.375977,170.192383-70.375977c0.105957,0,0.203125,0,0.309082,0.000488
		c64.373535,0.080078,124.862793,25.223633,170.324707,70.799316c45.382812,45.495605,70.375977,105.941406,70.375,170.202148
		C496.793945,320.479492,471.799805,380.924805,426.416016,426.419922z"/>
	<path style="fill:#2A3038;" d="M250.918945,464.953125c-49.594727-1.208008-97.271973-20.086914-134.248535-53.15918
		c-1.305176-1.1875-2.964355-1.828125-4.708984-1.828125c-0.112305,0-0.225098,0.00293-0.338379,0.007812
		c-1.867676,0.088867-3.588867,0.899414-4.847168,2.282227c-1.258789,1.382812-1.902832,3.172852-1.814941,5.041016
		c0.088379,1.867188,0.898438,3.588867,2.28125,4.847656l0.079102,0.070312
		c44.408691,39.723633,101.614746,59.772461,161.088867,56.459961c59.474609-3.3125,114.100586-29.586914,153.814453-73.984375
		c35.292969-39.455078,55.438477-90.329102,56.726562-143.25c1.289062-52.921875-16.358398-104.71582-49.69043-145.841309
		c-2.451172-2.973145-6.869141-3.400879-9.847656-0.949707c-2.9375,2.418457-3.394531,6.803223-1.018555,9.774902
		c35.144531,43.369141,51.297852,97.834961,45.481445,153.358887c-5.816406,55.524414-32.90625,105.459961-76.280273,140.608398
		C349.052734,449.625,300.507812,466.143555,250.918945,464.953125z"/>
	<path style="fill:#2A3038;" d="M256.069763,34.004272c-30.951111,0-60.962341,6.264526-89.200012,18.619629
		c-29.221863,12.785828-54.908936,31.423889-76.347656,55.396423c-35.124268,39.275696-55.174316,89.915161-56.456665,142.59021
		c-1.282288,52.674927,16.279907,104.230042,49.451416,145.168335c1.143921,1.40979,2.843933,2.218994,4.663452,2.218994
		c1.388733,0,2.694275-0.463684,3.775574-1.341003c1.244568-1.009766,2.021484-2.443787,2.187439-4.037842
		c0.166077-1.594055-0.298584-3.157349-1.308411-4.401917C62.665161,350.922546,46.032837,303.968201,46,256.001343
		C46,140.205627,140.205627,46,256,46l0.143494-0.000061c51.683044-0.000732,101.350403,18.988281,139.852783,53.469177
		c1.1203,1.02063,2.554565,1.576355,4.05127,1.576355c1.68573,0,3.303162-0.714111,4.437561-1.959167
		c2.228149-2.445557,2.05127-6.247925-0.394287-8.476074l-0.078186-0.070007
		c-40.767639-36.458496-93.298706-56.532593-147.929321-56.53595l-0.006775-0.999756
		c-0.002258,0-0.004517,0.000061-0.006775,0.000061V34.004272z"/>
</g>
<path style="fill:#FFFFFF;" d="M451.523438,353.621185L413.038086,349L384,360.5l-25.168945,21.752045L349,413v22.596191
	l9.831055,31.181488L381,486l23.428223,13.333344l27.852539,6.674469l19.242676-6.674469L474.331055,482l18.837891-22
	l6.164398-32.496094c0,0,5.333344-30.508179,0-34.506042S482,371,482,371L451.523438,353.621185z"/>
<polygon style="fill:#F36C6D;" points="404.428223,392.997864 404.428223,454.743774 418,454.743774 467.773438,425.998566 456,414 
	"/>
<path style="fill:#2A3038;" d="M502.372986,458.271912C506.770325,448.02063,509,437.145996,509,425.950195
	c0-11.136536-2.229614-21.980591-6.627014-32.231018c-8.765442-20.435181-23.571899-35.241272-44.008057-44.00708
	c-10.253235-4.398804-21.09729-6.629089-32.23114-6.629089c-11.135437,0-22.008423,2.229553-32.316833,6.626709
	c-20.62677,8.797546-35.523926,23.604431-44.277771,44.00946C345.200073,403.832581,343,414.676697,343,425.950195
	c0,11.331909,2.200134,22.206543,6.539246,32.321899c8.77948,20.464294,23.67804,35.304199,44.281738,44.107483
	C404.141907,506.772217,415.014404,509,426.133789,509c11.114807,0,21.960449-2.229248,32.235718-6.625854
	C478.775024,493.601013,493.580994,478.76239,502.372986,458.271912z M452.877686,489.748413
	c-8.500854,3.701477-17.250122,5.501587-26.743896,5.501587c-12.487061,0-24.18634-3.124634-34.772766-9.28717
	c-10.595764-6.187317-19.085144-14.677307-25.234741-25.235535c-6.167725-10.579956-9.295227-22.280945-9.295227-34.7771
	c0-12.422363,3.126831-24.06189,9.293579-34.595398c6.204834-10.601746,14.695068-19.091797,25.234558-25.234131
	c10.57489-6.167297,22.274963-9.294495,34.774597-9.294495c12.421997,0,24.06189,3.12677,34.596375,9.293518
	c10.538513,6.169495,18.998291,14.658325,25.144409,25.230591c6.167297,10.608459,9.294373,22.249512,9.294373,34.599915
	c-0.000977,9.364929-1.853821,18.427002-5.506958,26.934631c-3.697754,8.615906-8.649475,16.065613-14.717529,22.141724
	C468.87146,481.085449,461.447998,486.037781,452.877686,489.748413z"/>
<path style="fill:#2A3038;" d="M419.537659,462.712769l0.057739-0.032898c4.588135-2.617065,11.52179-6.572021,20.826904-11.969482
	l26.572266-15.413086c1.491943-0.864502,2.691956-2.05481,3.777161-3.746399c1.035156-1.609131,1.559326-3.492798,1.559326-5.600708
	c0-2.462646-0.7677-4.706299-2.220215-6.488403c-0.918945-1.12677-1.939697-2.005066-3.120178-2.684448
	c-0.631104-0.363586-1.90271-1.104614-3.816467-2.22052l-0.076599-0.044678
	c-4.492554-2.618958-12.01178-7.002319-22.942322-13.321716l-26.662903-15.411011
	c-1.753967-1.013489-3.565186-1.527405-5.383362-1.527405c-1.808838,0-3.640625,0.508057-5.444458,1.51001
	c-3.422607,1.901672-5.634277,5.577637-5.634277,9.364929v61.824219c0,4.069275,1.876099,7.301514,5.425476,9.34729
	c1.686035,0.973755,3.565857,1.446655,5.748352,1.446655c0.309814,0,0.626587-0.009583,0.947754-0.028687
	c1.391663-0.081055,2.811768-0.56958,4.223328-1.452271C414.030396,465.854675,415.938843,464.764832,419.537659,462.712769z
	 M411.038086,448.350586v-44.524414v-3.464661l3.000244,1.732727l12.866211,7.430664
	c5.391968,3.11377,9.994263,5.749268,13.796204,7.925964c3.655823,2.093689,6.532288,3.741028,8.694641,5.002197l3.135803,1.829102
	l2.961121,1.727295l-2.960876,1.727722l-1.71875,1.00293c-7.784729,4.541443-14.917847,8.666199-20.649353,11.98053
	l-0.055725,0.032227c-5.834167,3.374817-11.344788,6.562439-16.058716,9.323486l-3.010803,1.763489V448.350586z"/>
<polygon style="fill:#B3DAF5;" points="220.023499,192.333328 204.442184,181 180.333328,205.235519 204.442184,229 229,205.236023 
	"/>
<polygon style="fill:#B3DAF5;" points="387.238647,181 363,205.236023 387.238647,229 411.038086,205.236023 "/>
<polygon style="fill:#B3DAF5;" points="204.666672,364.333344 180.333328,388.031982 204.442184,412.333344 229,388.333344 "/>
<ellipse style="fill:#F36C6D;" cx="112.929588" cy="296.392181" rx="12.929586" ry="12.058835"/>
<ellipse style="fill:#F36C6D;" cx="295.840302" cy="113.837509" rx="12.929586" ry="12.058835"/>
<path style="fill:#2A3038;" d="M416.745178,200.993011l-25.265015-25.264999c-1.125-1.125992-2.651001-1.758011-4.242004-1.758011
	c-1.59201,0-3.117004,0.632019-4.243011,1.758011l-9.878998,9.878998
	c-36.936005-25.753006-84.024994-30.930008-125.039001-15.520996l38.858002-38.858002
	c2.723999,1.397003,5.753998,2.150009,8.903015,2.150009c5.220001,0,10.127991-2.033005,13.819-5.725006
	c7.617004-7.617996,7.617004-20.014999-0.001007-27.632996c-3.688965-3.69101-8.595978-5.723007-13.814972-5.723007
	c-5.220001,0-10.127014,2.031998-13.817017,5.723999c-6.139008,6.138-7.322998,15.375-3.570007,22.719002l-61.380005,61.379005
	l-8.389999-8.389999c-2.341995-2.344009-6.14299-2.344009-8.483994,0l-25.264999,25.264999
	c-1.126007,1.125-1.758011,2.651001-1.758011,4.242004c0,1.591995,0.632004,3.116989,1.758011,4.242996l8.389999,8.388992
	l-61.378006,61.376984c-2.723999-1.39798-5.753998-2.149963-8.903-2.149963c-5.219002,0-10.125999,2.031982-13.817001,5.722992
	c-3.691986,3.689972-5.723984,8.596985-5.723984,13.816986s2.031998,10.127014,5.723999,13.815979
	c3.690002,3.69101,8.597,5.723999,13.815002,5.723999c5.220001,0,10.125999-2.031982,13.817001-5.723999
	c6.139999-6.138977,7.322998-15.375,3.569992-22.719971l38.861008-38.860016
	c-15.408005,41.016022-10.229996,88.103973,15.525009,125.037994l-9.880997,9.881042
	c-2.344009,2.342957-2.344009,6.141968,0,8.484009l25.264999,25.264954c1.17099,1.171997,2.707001,1.757996,4.241989,1.757996
	c1.535004,0,3.070999-0.585999,4.242004-1.757996l25.264999-25.265015c2.343994-2.342957,2.343994-6.141968,0-8.484009
	l-25.264999-25.265015c-2.341995-2.343994-6.14299-2.343994-8.483994,0l-6.738998,6.739014
	c-27.75-41.320984-27.75-95.938965-0.001007-137.260986l6.740005,6.738998c1.17099,1.171005,2.707001,1.757004,4.241989,1.757004
	c1.535004,0,3.070999-0.585999,4.242004-1.757004l25.264999-25.263992c1.126007-1.126007,1.757996-2.651001,1.757996-4.243011
	c0-1.591003-0.632004-3.117004-1.757996-4.242004l-6.740005-6.73999c41.319992-27.747009,95.935989-27.748001,137.261978,0
	l-6.739014,6.738998c-2.342987,2.343002-2.342987,6.141998,0,8.483994l25.264008,25.264999
	c1.126007,1.126007,2.651001,1.757996,4.243011,1.757996c1.591003,0,3.117004-0.632004,4.242004-1.757996l25.265015-25.264999
	C419.089172,207.13501,419.089172,203.336014,416.745178,200.993011z M204.443176,371.252991l16.779007,16.778992
	l-16.779007,16.778992l-16.779999-16.778992L204.443176,371.252991z M290.508179,108.505013
	c1.425018-1.424004,3.317993-2.208,5.333008-2.208c2.014008,0,3.907013,0.783997,5.330994,2.208
	c2.940002,2.940002,2.940002,7.723999,0.001007,10.664001c-1.424988,1.423996-3.319,2.209-5.333984,2.209
	c-2.011993,0-3.903015-0.782997-5.326996-2.204002l-0.003021-0.003998c-0.001007-0.000999-0.002991-0.001999-0.002991-0.001999
	C287.568176,116.227013,287.569183,111.444016,290.508179,108.505013z M118.375175,301.966003
	c-1.425003,1.425018-3.318001,2.209015-5.333,2.209015c-2.014,0-3.905998-0.783997-5.331001-2.209015
	c-1.423996-1.423981-2.208-3.316986-2.208-5.330994c0-2.014984,0.784004-3.908997,2.208-5.333008
	c1.425003-1.423981,3.318001-2.207977,5.332001-2.207977c2.012001,0,3.903999,0.78299,5.328003,2.203003l0.002998,0.003998
	c0.000999,0.001007,0.002998,0.002014,0.002998,0.002014C121.315178,294.244019,121.314178,299.027008,118.375175,301.966003z
	 M204.443176,222.015015l-8.388-8.386993c-0.000992-0.001007-0.000992-0.002014-0.000992-0.002014
	c-0.001999-0.001984-0.003006-0.002991-0.003998-0.002991l-8.388-8.388l16.778992-16.778992l8.375,8.373993
	c0.005005,0.005997,0.008011,0.011993,0.013,0.016998c0.005005,0.005005,0.011002,0.007996,0.016006,0.013l0.765991,0.765991
	c0.016006,0.016006,0.031006,0.031006,0.046997,0.046997l7.564011,7.564011L204.443176,222.015015z M387.238159,222.015015
	l-16.778015-16.778992l16.778015-16.779007l16.778992,16.779007L387.238159,222.015015z"/>
</svg>
