<?xml version="1.0" encoding="utf-8"?>
<!-- Generator: Adobe Illustrator 19.2.1, SVG Export Plug-In . SVG Version: 6.00 Build 0)  -->
<svg version="1.0" id="Capa_1" xmlns="http://www.w3.org/2000/svg" xmlns:xlink="http://www.w3.org/1999/xlink" x="0px" y="0px"
	 viewBox="0 0 426.770233 539.077026" style="enable-background:new 0 0 426.770233 539.077026;" xml:space="preserve">
<rect x="145.847198" y="12" style="fill:#FFE1AE;" width="87" height="224"/>
<path style="fill:#F36C6D;" d="M330.847198,12v34l-19.055054,33.943451L301.170197,91l14.838501,35.785881l20.916565,9.0196
	h19.921936c0,0,18-13.805481,18-17.805481s10-38.056549,10-38.056549l-11.910126-28.623646l-22.089874-28.85783L330.847198,12z"/>
<polygon style="fill:#F36C6D;" points="57.847202,126.785881 13.847204,109 26.312231,159 65.847206,135.805481 "/>
<polygon style="fill:#FFFFFF;" points="324.926178,134 258.847198,236 301.170197,233 336.925262,140 "/>
<polygon style="fill:#FFFFFF;" points="65.847206,135.805481 26.312231,169 65.847206,236 118.847206,236 "/>
<polygon style="fill:#D3EDFF;" points="324.926178,236 36.698215,236 31.847204,486 47.2822,511 70.577217,527 288.847198,527 
	314.46225,512 324.926178,490 "/>
<path style="fill:#B3DAF5;" d="M249.799271,261.998596c-0.194748-0.019531-0.273026-0.009766-0.409958,0h-19.759766H149.73175
	h-19.973999H69.833969h-9.987408v209.731903c0,16.52182,13.439587,29.961456,29.96146,29.961456h179.770447
	c16.521881,0,29.961456-13.439636,29.961456-29.961456V261.998596h-9.75351c-0.155609,0-0.312164,0-0.467773,0H249.799271z"/>
<path style="opacity:0.05;fill:#2A3038;" d="M140.868134,453.416016c-39.472099,0-76.376945-10.63623-107.823853-29.107422
	L31.847204,486L47.2822,511l23.295048,16h218.269958l25.615051-15l10.463928-22V346.063049
	C290.016571,409.908142,220.697601,453.416016,140.868134,453.416016z"/>
<path style="fill:#2A3038;" d="M348.155243,269.538025h-11.22998v-33.692017c0-6.208008-5.02301-11.231018-11.231018-11.231018
	h-6.208008l28.647034-75.862976c7.896973-1.217041,15.244995-4.562012,21.671997-10.013
	c18.205994-15.399048,25.817993-45.187012,18.973999-74.119019c-7.611023-32.091003-30.621033-55.002014-63.129028-62.866028
	c-4.497009-1.107971-9.146973,0.680054-11.822998,4.442017c-2.653992,3.77301-2.719971,8.785034-0.19696,12.63501
	c11.867004,18.085999,4.71698,28.789978-7.940002,44.77002c-4.82605,6.097961-9.410034,11.876953-12.174011,18.435974
	c-5.265015,12.492004-5.550049,25.620972-0.790039,36.960999c2.237,5.35199,5.549011,10.198975,9.760986,14.388977
	l-50.779968,91.228027h-4.629028V11.231018C247.078217,5.02301,242.055206,0,235.847198,0H146.00119
	c-6.20697,0-11.230957,5.02301-11.231018,11.231018V224.61499h-4.62616l-52.843803-95.130981
	c-0.251953-0.471985-0.536987-0.921021-0.865967-1.371033c0,0-0.010986,0-0.010986-0.010986l-0.011047-0.010986
	c-0.010986-0.010986-0.010986-0.022034-0.010986-0.022034c-0.010986-0.010986-0.010986-0.010986-0.010986-0.010986
	c-0.010986-0.010986-0.010986-0.021973-0.022034-0.021973c0-0.011047,0-0.011047,0-0.011047
	c-0.032959-0.032959-0.010986-0.032959-0.021973-0.032959c-0.054993-0.03302-0.022034-0.03302-0.03302-0.03302
	c-0.010986-0.010986-0.010986-0.021973-0.021973-0.032959c-0.932007-1.217041-2.084045-2.193054-3.345032-2.917053
	L17.011206,91.447998c-3.794983-2.281006-8.5-2.150024-12.096985,0.351013c-3.619019,2.45697-5.484009,6.799988-4.76001,11.120972
	l11.197998,67.176025c0.176025,1.227966,0.559998,2.43396,1.151978,3.563965L37.98209,224.61499h-4.287903
	c-6.207945,0-11.230955,5.02301-11.230955,11.231018v247.077026c0,30.972961,25.192991,56.153992,56.153992,56.153992h202.153015
	c30.972961,0,56.153992-25.182007,56.155029-56.154053v-56.153992h11.22998c43.343994,0,78.61499-35.27301,78.61499-78.615967
	C426.770233,304.809998,391.499237,269.538025,348.155243,269.538025z M314.222198,90.757996
	c1.557007-3.73999,5.219971-8.335022,9.080994-13.216003c8.53302-10.76001,20.114014-25.390015,18.84198-44.440979
	c12.394043,8.455994,21.080017,21.101013,24.765015,36.69696c4.80304,20.257019-0.088013,42.039001-11.604004,51.800049
	c-7.171997,6.042969-16.341003,6.820984-27.221008,2.258972c-1.447998-0.614014-2.829956-1.294006-4.10199-2.051025
	c-0.504944-0.394958-1.030945-0.756958-1.601013-1.073975c-0.153992-0.086975-0.328979-0.174988-0.482971-0.252014
	c-3.926025-2.730957-6.800049-6.174988-8.467041-10.155945C310.998199,104.510986,311.283173,97.744019,314.222198,90.757996z
	 M321.504181,145.40802c1.140991,0.437988,2.281006,0.843994,3.421997,1.205994l-29.458984,78.000977h-18.052979
	L321.504181,145.40802z M157.232208,22.461975h67.38501v22.460999h-33.692017c-6.208008,0-11.231018,5.02301-11.231018,11.231018
	s5.02301,11.231018,11.231018,11.231018h33.692017v22.457947H213.3862c-6.207947,0-11.230957,5.02301-11.230957,11.231018
	s5.022949,11.231018,11.230957,11.231018h11.231018v22.461975h-33.692017c-6.208008,0-11.231018,5.02301-11.231018,11.231018
	s5.02301,11.231018,11.231018,11.231018h33.692017v22.461975H213.3862c-6.207947,0-11.230957,5.02301-11.230957,11.231018
	s5.022949,11.231018,11.230957,11.231018h11.231018v22.461975h-67.38501V22.461975z M26.312231,123.219971L47.2822,135.810974
	l-16.779966,12.580017L26.312231,123.219971z M36.698215,171.817017l27.122986-20.334045l40.635014,73.132019H63.097202
	L36.698215,171.817017z M314.46225,482.922974c0,18.578979-15.112976,33.692017-33.692017,33.692017H78.616249
	c-18.579044,0-33.69202-15.113037-33.69202-33.692017V247.076965h11.230957h67.38501h22.460991h89.846008h22.220093
	c0.153992-0.010986,0.242004-0.021973,0.460999,0h44.440002c0.174988,0,0.351013,0,0.526001,0h10.967957V482.922974z
	 M348.155243,404.307007h-11.22998V292h11.22998c30.971985,0,56.153992,25.180054,56.153992,56.153015
	C404.309235,379.126038,379.127228,404.307007,348.155243,404.307007z"/>
</svg>
