<?xml version="1.0" encoding="utf-8"?>
<!-- Generator: Adobe Illustrator 19.2.1, SVG Export Plug-In . SVG Version: 6.00 Build 0)  -->
<svg version="1.0" id="Capa_1" xmlns="http://www.w3.org/2000/svg" xmlns:xlink="http://www.w3.org/1999/xlink" x="0px" y="0px"
	 viewBox="0 0 473 463" style="enable-background:new 0 0 473 463;" xml:space="preserve">
<g>
	<polygon style="fill:#B3DAF5;" points="222.26593,318.753906 199.623978,328.192871 174.762207,337.631836 153.896088,370.309235 
		156.559845,447.648438 183.049469,454.481781 453.125183,454.481781 465.556061,445.069336 465.556061,405.815094 
		461.116455,359.204651 417.164398,323.111328 387.243134,315.199921 338.583466,367.415039 304.39856,389.329102 
		269.941254,345.89566 250.042557,301.073792 	"/>
	<path style="fill:#FFFFFF;" d="M252.455215,289.648438l-11.11644,8l-10.488647,11.5l8.730255,63.037476l25.81076-11.05896
		l7.93808,93.354828l73.110199,2.666656l7.93808-100l24.052063,16.25l10.487213-69.25l-16.592346-14.5l-13.798126,12.088867
		l-16.391144,42.411133l-23.851929,31.897827l-8.398926,7.102173l-21.037506-23.943787c0,0-11.354736-26.993713-13.662079-29.024963
		S252.455215,289.648438,252.455215,289.648438z"/>
	<path style="fill:#F36C6D;" d="M245.351852,289.648438l-38.240799-18.5l-23.46965-25c0,0-1.331879-54.5,0-56.5
		s23.46965-112.5,23.46965-112.5l30.693481-43.5l49.534576-22.5h39.257446l59.046692,26.5l28.857391,38l17.521606,80
		l6.00827,87.869873l-34.628876,32.630127l-38.260193,13.5l23.77533-35.5c0,0,12.295441-38.5,11.836304-42
		c-0.459167-3.5-1.316681-45.5,0-47s-4.010834-24.042358-4.010834-24.042358s-78.781067-10.957642-78.459015-11.457642
		c0.322021-0.5-71.155533-22-71.155533-22l-8.879211-0.5c0,0-9.133835,21-11.004333,23s-8.263565,57.5-8.263565,57.5l19.711868,74
		L245.351852,289.648438z"/>
	<polygon style="fill:#F5D6CB;" points="392.442017,145.657303 322.68692,130.465897 265.391144,113.563644 237.01506,109.956703 
		225.099854,140.387787 218.980591,185.199142 229.369293,243.518311 254.626755,289.648438 283.08847,301.737305 
		315.941498,311.222534 352.346222,301.698059 372.550262,278.585999 393.4263,239.681931 399.695404,195.148438 
		399.695404,159.148438 397.778015,145.657303 	"/>
	<polygon style="fill:#F5D6CB;" points="261.778381,301.698059 288.846802,359.204651 309.884308,383.148438 338.139526,351.288483 
		359.449585,299.493164 339.027435,304.648438 315.053589,309.148438 282.644501,305.648438 263.55423,299.493164 	"/>
	<path style="fill:#2A3038;" d="M473,382.439636c0-22.489319-11.850555-42.76947-30.190796-51.665955l-48.316498-23.437256
		l-0.435608-0.211304l-0.086212-0.525269c-0.837036-5.097046-3.165924-9.855774-6.557617-13.399475l-1.11615-1.166077
		l1.450775-0.519958c9.200409-3.297058,22.560242-8.887024,33.958679-16.79364
		c15.262817-10.586609,23.001648-22.448059,23.001648-35.254944c0-42.510742-4.456085-86.352112-13.244385-130.306335
		c-6.178284-30.896118-21.726135-58.797607-43.779449-78.564697C365.674866,10.865417,338.044861,0,309.884125,0
		c-28.160248,0-55.790359,10.865417-77.800644,30.594666c-22.052765,19.766724-37.600525,47.668213-43.779114,78.564758
		c-8.788315,43.951843-13.244385,87.793274-13.244385,130.306335c0,12.807007,7.738571,24.668457,23.000778,35.254944
		c11.401245,7.907654,24.759888,13.497131,33.958725,16.79364l1.450455,0.519836l-1.115692,1.166077
		c-3.391266,3.544617-5.719894,8.303345-6.556931,13.399597l-0.086212,0.525269l-0.435623,0.211304L176.959,330.773682
		c-18.340225,8.896667-30.19075,29.176758-30.19075,51.665955v56.169617C146.76825,452.05835,156.483566,463,168.425293,463
		h282.917603C463.284637,463,473,452.05835,473,438.609253V382.439636z M388.041473,375.87793
		c0.096375-0.635498,0.159332-1.245544,0.225952-1.919983l4.687378-47.537598l0.132324-1.342346l1.10141,0.534302l9.363525,4.541992
		l0.38678,0.187561l0.115753,0.456055l9.388489,37.004883l0.252197,0.994202l-0.890686,0.250793l-19.868408,5.59314
		c-1.284241,0.362854-2.460785,1.097229-3.401703,2.123596l-1.949799,2.126953L388.041473,375.87793z M190.082382,239.465759
		c0-41.263916,4.332672-83.855164,12.877655-126.590759c5.428864-27.148926,19.094131-51.668701,38.47847-69.042664
		c19.36203-17.35553,43.6698-26.913696,68.445618-26.913696c24.775665,0,49.083618,9.558167,68.445984,26.913757
		c19.383698,17.375244,33.048767,41.89502,38.478058,69.042603c8.544983,42.737915,12.877655,85.329224,12.877655,126.590759
		c0,8.636169-9.937561,18.683228-27.264648,27.565063c-4.959259,2.541443-10.49234,4.979187-16.44574,7.245422l-2.612976,0.994629
		l1.607056-2.524658c15.717834-24.692627,24.374023-56.314575,24.374023-89.040649c0-14.20575-1.747925-28.570435-5.195282-42.69519
		c-0.836884-3.428528-3.514709-5.916626-6.663452-6.191406c-57.159821-4.984802-133.531677-26.751526-153.097839-38.316345
		c-1.041779-0.616699-2.266312-0.951904-3.541504-0.969788l-2.704178,0.014221
		c-2.52536,0.019531-4.858368,1.453613-6.238861,3.836121c-14.050858,24.25061-21.477707,53.408875-21.477707,84.322388
		c0,32.758362,8.671585,64.403931,24.417267,89.107239l1.615311,2.534302l-2.622467-1.004333
		C212.683533,266.242493,190.082382,252.826477,190.082382,239.465759z M348.786499,155.104919
		c-9.113098,0-18.185333,1.542358-26.964722,4.584229c-3.001709,1.039673-5.076599,3.985168-5.286011,7.504211l-0.072052,1.211487
		l-1.042023-0.311951c-1.793762-0.53717-3.656952-0.809509-5.537903-0.809509c-1.88092,0-3.743896,0.272339-5.537231,0.809509
		l-1.042175,0.312073l-0.07196-1.211731c-0.208984-3.518982-2.283478-6.464478-5.285034-7.504028
		c-8.77829-3.041931-17.85025-4.584351-26.96402-4.584351c-9.113251,0-18.185181,1.542419-26.963898,4.58429
		c-2.767822,0.958191-4.764282,3.543213-5.210526,6.746338l-0.117706,0.845032h-0.759537h-10.687561h-0.998138l0.116302-1.116455
		c1.949203-18.724548,6.954651-36.077637,14.877258-51.577332l0.3992-0.781006l0.731079,0.366211
		c14.505768,7.265259,39.368774,15.317688,70.008911,22.673889c27.438812,6.587952,56.570587,11.913574,77.92749,14.245972
		l0.637604,0.069641l0.142426,0.703491c0.947754,4.682617,1.700348,9.490723,2.236725,14.29071l0.125732,1.124878h-1.006714
		h-10.605072h-0.75943l-0.117706-0.844971c-0.446411-3.202759-2.44278-5.787781-5.210083-6.746338
		C366.971436,156.647278,357.89978,155.104919,348.786499,155.104919z M366.029358,174.246826v0.802124v21.087036v0.802124
		l-0.695251,0.174072c-5.467712,1.368774-11.035614,2.062866-16.548859,2.062866s-11.081055-0.694092-16.548828-2.062866
		l-0.695251-0.174072v-0.802124V175.04895v-0.802124l0.695251-0.174072c5.467499-1.368835,11.035339-2.062866,16.548828-2.062866
		c5.513519,0,11.08136,0.694031,16.548859,2.062866L366.029358,174.246826z M288.227051,174.246826v0.802124v21.087036v0.802124
		l-0.695282,0.174072c-5.46814,1.368774-11.036011,2.062866-16.548828,2.062866s-11.080627-0.694092-16.548843-2.062866
		l-0.695251-0.174072v-0.802124V175.04895v-0.802124l0.695251-0.174072c5.468002-1.368835,11.035812-2.062866,16.548843-2.062866
		c5.513092,0,11.080902,0.694031,16.548828,2.062866L288.227051,174.246826z M226.341492,184.199158h11.48703h0.887924v1v18.211731
		c0,3.737244,2.131134,6.986755,5.303024,8.085876c8.737427,3.027039,17.809296,4.56189,26.963348,4.56189
		c9.154144,0,18.226166-1.534851,26.964142-4.561951c3.171448-1.099609,5.30249-4.34906,5.30249-8.085815v-11.739624
		c0-4.120117,2.976288-7.472107,6.634674-7.472107c3.658325,0,6.634644,3.35199,6.634644,7.472107v11.739624
		c0,3.736816,2.131195,6.986267,5.303131,8.085876c8.737366,3.027039,17.809113,4.56189,26.963135,4.56189
		c9.154144,0,18.226318-1.534912,26.96463-4.561951c3.171234-1.100098,5.302094-4.349548,5.302094-8.085815v-18.211731v-1h0.887909
		h11.486603h0.89682l-0.008942,1.009949c-0.277679,31.377258-9.169861,60.856506-25.038391,83.007446
		c-15.929291,22.235718-37.021606,34.481506-59.391632,34.481506c-22.369843,0-43.462128-12.245789-59.391525-34.481506
		c-15.868698-22.151001-24.761017-51.630188-25.038971-83.007385l-0.008957-1.01001H226.341492z M206.255386,367.793152
		l9.048767-36.789978l0.113647-0.461914l0.390793-0.189575l9.769836-4.73938l1.101395-0.534302l0.132339,1.342346
		l4.687759,47.540649c0.061935,0.62085,0.125519,1.258606,0.225449,1.916687l0.457672,3.014648l-1.950623-2.127808
		c-0.940277-1.025635-2.116943-1.759705-3.402802-2.122864l-19.933823-5.611389l-0.88353-0.248718L206.255386,367.793152z
		 M203.884979,417.842651l9.502869,26.868652l0.484543,1.370056h-1.309433h-44.137665
		c-3.658386,0-6.634689-3.35199-6.634689-7.472107v-56.169617c0-15.725891,8.286209-29.906311,21.110153-36.126404
		l13.115417-6.362244l1.701538-0.825439l-0.494629,2.010864L189.47757,372.625
		c-0.537933,2.184753-0.264572,4.560791,0.749939,6.518921c1.014313,1.958557,2.715744,3.396973,4.668198,3.946533
		l18.132996,5.105042l1.073853,0.302307l-0.495056,1.11499l-9.462387,21.314575
		C203.18782,413.081909,203.093094,415.602356,203.884979,417.842651z M265.391174,446.08136h-34.746979h-0.602097
		l-0.222794-0.629944l-10.585678-29.930847l-0.147247-0.416382l0.177979-0.400879l12.462265-28.069702
		c0.65596-1.476685,0.915283-3.115051,0.749985-4.738342l-0.273727-2.687561l1.760071,1.840881
		c0.529099,0.553406,1.16951,1.038269,1.903564,1.441162c0.993988,0.544495,2.125076,0.832458,3.270523,0.832458
		c1.457077,0,2.854034-0.447876,4.03981-1.295166c5.34639-3.81842,10.865692-7.426819,16.404785-10.725159l1.188232-0.70752
		l0.111633,1.508545l5.394501,72.895386l0.0802,1.083069H265.391174z M270.285553,346.817383
		c-5.309357,2.515564-13.748505,6.857605-23.801376,13.257812l-1.170822,0.745361l-0.148651-1.505371
		c-1.054199-10.677856-2.64978-26.872986-4.662827-47.332031l-0.000702-0.007446l-0.000656-0.006531l-0.010788-0.127441
		c-0.270645-2.749207,0.847061-5.432922,2.918365-6.988892l6.142014-4.611084l0.836868-0.628296l0.449753,1.013184
		l19.898712,44.821838l0.42395,0.954895L270.285553,346.817383z M302.372894,387.168335v57.913025v1h-0.887909h-19.237305h-0.816986
		l-0.067871-0.916931l-6.039093-81.610901l-0.053375-0.721924l0.592468-0.282166
		c1.112274-0.529785,2.2005-1.033081,3.234406-1.495972l0.546844-0.244873l0.413269,0.471802l22.059753,25.185669l0.255798,0.292053
		V387.168335z M344.443115,363.553528l-6.03775,81.610901l-0.067841,0.916931h-0.816986h-19.237305h-0.887939v-1v-56.933838
		v-0.410217l0.255798-0.291992l22.673615-25.887695l0.41507-0.473938l0.54834,0.248413
		c0.86142,0.390137,1.735748,0.797913,2.616119,1.217407l0.592316,0.282227L344.443115,363.553528z M347.233582,311.669739
		l-15.776855,35.536682c-0.075989,0.171143-0.145782,0.346008-0.210327,0.521545l-0.066376,0.180603l-0.121887,0.13916
		l-20.11322,22.963745l-0.632111,0.721741l-0.632172-0.721741l-21.804169-24.895874l-0.098969-0.113037l-0.06308-0.141968
		l-15.179352-34.190857l-1.154114-2.599548l2.329956,1.249451c11.503998,6.169067,23.674438,9.297058,36.173218,9.297058
		c12.498566,0,24.669159-3.127991,36.173523-9.297058l2.329987-1.24939L347.233582,311.669739z M348.607544,346.405334
		l0.423981-0.954956l19.898651-44.821777l0.449738-1.013123l0.836945,0.628174l6.14389,4.612
		c2.07132,1.554871,3.188812,4.237549,2.916321,7.001343l-0.011566,0.113892
		c-2.014832,20.488892-3.608612,36.675293-4.662872,47.346313l-0.148712,1.505127l-1.170685-0.745239
		c-10.058319-6.402771-18.495239-10.743652-23.801849-13.257751L348.607544,346.405334z M400.518372,415.495911
		l-10.777802,29.960938l-0.22464,0.624512h-0.598297h-34.540161h-0.964935l0.080109-1.083069l5.392761-72.895386l0.111572-1.508362
		l1.188171,0.707275c5.526367,3.289856,11.045959,6.898315,16.405487,10.724976
		c1.185303,0.847473,2.581451,1.295288,4.038025,1.295288c1.145905,0,2.277832-0.28833,3.273712-0.833679
		c0.730652-0.400574,1.371185-0.885559,1.903412-1.441345l1.759369-1.836975l-0.27356,2.684326
		c-0.165283,1.622314,0.093872,3.260437,0.749542,4.737244l12.448456,28.041565l0.179321,0.403992L400.518372,415.495911z
		 M457.9776,438.609253c0,4.120117-2.976288,7.472107-6.634705,7.472107h-44.300812h-1.31781l0.494843-1.375549l9.647583-26.8172
		c0.809326-2.250916,0.720673-4.788391-0.243347-6.961487l-9.462646-21.31427l-0.495056-1.115051l1.073853-0.302307
		l18.13385-5.105042c1.962708-0.552979,3.669342-2.002197,4.682281-3.976013c1.012024-1.971863,1.273743-4.36145,0.717804-6.55603
		l-8.004425-31.547424l-0.514313-2.0271l1.719269,0.833862l13.392181,6.495483
		c12.824707,6.220032,21.11145,20.400452,21.11145,36.126404V438.609253z"/>
</g>
<g>
	<polygon style="fill:#9A7C6F;" points="278.806915,18.078613 200.078003,8.481771 162.785355,13.280192 136.117554,27.815104 
		114.245728,35.815105 91.751747,45.148438 85.240334,76.481773 101.370308,159.148438 117.20546,106.481773 136.117554,105.148438 
		204.153992,107.815102 246.576462,113.563644 274.850311,125.301758 281.895569,131.815109 289.461975,90.481773 
		289.461975,25.148438 	"/>
	<polygon style="fill:#F5D6CB;" points="281.324127,150.481766 269.335785,123.148438 221.980042,110.481773 146.802795,104.481773 
		117.20546,106.481773 101.370308,140.387787 101.370308,205.148438 126.063377,275.148438 164.561203,318.753906 
		188.806671,350.481781 220.796143,318.753906 246.576462,287.148438 264.600189,257.815094 281.895569,217.148438 
		286.934326,170.481766 	"/>
	<polygon style="fill:#B3DAF5;" points="265.784088,311.815094 332.674072,330.178711 358.127777,344.481781 374.110352,372.481781 
		374.110352,445.069336 359.311676,454.481781 15.920564,454.481781 7.695308,437.815094 10.063095,361.126953 
		32.557072,337.631836 89.975906,323.111328 118.9813,311.815094 132.097412,355.815094 146.210846,379.148438 
		168.801514,367.415039 172.2565,389.329102 168.801514,451.148438 214.257553,450.481781 205.956711,400.481781 
		219.020294,367.415039 231.293289,383.148438 	"/>
	<polygon style="fill:#FFFFFF;" points="188.806671,354.481781 160.417572,318.753906 132.097412,289.148438 119.573242,299.493164 
		147.986694,383.148438 193.122635,346.201111 234.410919,383.148438 265.784088,311.815094 250.595947,286.481781 
		231.293289,301.737305 	"/>
	<polygon style="fill:#F36C6D;" points="213.891632,454.481781 205.956711,400.481781 213.891632,367.415039 203.008545,355.047638 
		188.806671,354.481781 168.801514,367.415039 176.736862,404.481781 168.801514,457.148438 	"/>
	<path style="fill:#2A3038;" d="M382.693573,386.575195c0-29.515503-17.757263-55.129578-43.182373-62.288696l-66.613892-18.755798
		l-0.565643-0.159241l-0.095062-0.647827c-0.976501-6.654846-4.376831-12.604431-9.329041-16.323303l-4.143768-3.110229
		l-0.85257-0.639954l0.683655-0.859436c20.453003-25.710022,32.18335-62.156372,32.18335-99.993835
		c0-7.213196-0.426239-14.484009-1.266907-21.610474l-0.015167-0.128784l0.014465-0.128845
		c0.853455-7.57428,8.338043-75.779053,8.338043-137.389221c0-3.684753-2.091553-6.92218-5.204468-8.055847
		c-1.832672-0.666931-45.530609-16.335266-101.297409-16.335266c-12.574707,0-44.206223,2.30426-66.287102,23.647461
		l-0.249512,0.241211h-0.328796h-1.806625c-11.873871,0-23.322266,5.610962-31.409798,15.394287
		c-8.062164,9.752441-12.20137,22.963501-11.356094,36.245605c2.032883,31.955017,6.810493,71.20929,12.171394,100.004944
		l0.023254,0.124817l-0.005371,0.127441c-0.1241,2.972107-0.181931,5.470215-0.181931,7.861694
		c0,37.83783,11.73037,74.283813,32.183311,99.992859l0.683769,0.859436l-0.852638,0.639954l-4.143913,3.110352
		c-4.952713,3.719177-8.352867,9.669128-9.328423,16.323975l-0.095001,0.647949l-0.565735,0.159241l-66.613899,18.75592
		C17.757753,331.444519,0,357.058899,0,386.575195v52.03418C0,452.058411,9.715474,463,21.65736,463h339.379303
		c11.941681,0,21.656921-10.941589,21.656921-24.390625V386.575195z M100.20372,129.232178l-0.464722-3.793762
		c-2.169075-17.704163-3.841293-35.329773-4.835976-50.971497c-0.555382-8.736877,2.060249-17.082458,7.365227-23.499451
		c5.330017-6.448669,12.577209-10.000183,20.406502-10.000183h5.038338c1.939285,0,3.780106-0.829224,5.183319-2.334839
		c18.1371-19.453613,46.918091-21.553833,58.450378-21.553833c41.902481,0,77.445572,9.509521,90.782028,13.598145l0.661652,0.20282
		l-0.006989,0.772217c-0.286774,31.743042-2.454285,64.484375-4.222107,86.361145l-0.132446,1.638672l-1.23053-0.887085
		c-0.088013-0.063416-0.177612-0.125183-0.268768-0.184814c-15.987488-10.46936-54.863266-22.949036-149.279175-22.949951
		c-2.63282,0-5.298309,0.009705-8.017891,0.029358c-2.529686,0.019653-4.8647,1.454773-6.245735,3.838928
		c-4.705315,8.120483-8.723015,16.924866-11.94162,26.168762L100.20372,129.232178z M230.235626,155.196899
		c-9.109634-0.000305-18.179382,1.541809-26.957306,4.583557c-3.000351,1.038757-5.076324,3.982422-5.288879,7.49939
		l-0.073166,1.209717l-1.040573-0.311096c-1.797195-0.537354-3.657364-0.809875-5.528915-0.809875
		c-1.871658,0-3.731659,0.272522-5.528412,0.809875l-1.040588,0.311157l-0.073166-1.209778
		c-0.212601-3.516724-2.288086-6.460327-5.287582-7.499329c-8.776993-3.04126-17.846741-4.583252-26.957184-4.583252
		s-18.179871,1.541992-26.956482,4.583191c-2.767059,0.958252-4.764603,3.54248-5.213173,6.744019l-0.118248,0.844116h-0.758781
		h-10.668968h-0.998093l0.116241-1.116455c2.019501-19.393921,7.311905-37.291931,15.730179-53.196838l0.257538-0.486572
		l0.503029-0.001343c0.937454-0.002502,1.872147-0.003784,2.802498-0.003784c68.36731,0,117.989868,6.796387,139.726791,19.137207
		l0.304718,0.172913l0.123413,0.358337c3.731598,10.832275,6.256561,22.277832,7.504822,34.018677l0.119019,1.118896h-1.00058
		h-10.65332h-0.758728l-0.118347-0.844055c-0.448944-3.202393-2.44635-5.786926-5.212585-6.745056
		C248.415649,156.739258,239.346725,155.197144,230.235626,155.196899z M247.464386,174.349182v0.802185v21.063477v0.802185
		l-0.695267,0.174011c-5.463486,1.367371-11.026642,2.060669-16.535019,2.060669c-5.508423,0-11.071579-0.693298-16.535065-2.060669
		l-0.695312-0.174011v-0.802185v-21.063477v-0.802185l0.695312-0.17395c5.463211-1.367432,11.026428-2.06073,16.535065-2.06073
		c5.508591,0,11.071793,0.693298,16.535019,2.06073L247.464386,174.349182z M169.689423,174.349182v0.802185v21.063477v0.802185
		l-0.695312,0.174011c-5.46344,1.367371-11.026489,2.060669-16.534576,2.060669c-5.508102,0-11.071152-0.693298-16.534637-2.060669
		l-0.695267-0.174011v-0.802185v-21.063477v-0.802185l0.695267-0.17395c5.463211-1.367432,11.02626-2.06073,16.534637-2.06073
		c5.508362,0,11.071411,0.693298,16.534576,2.06073L169.689423,174.349182z M106.954544,185.309326l-0.008942-1.01001h0.896805
		h11.46666h0.887917v1v18.19574c0,3.739929,2.1325,6.991699,5.306442,8.091614
		c8.735207,3.025879,17.804909,4.56012,26.956978,4.56012s18.221329-1.534241,26.955765-4.560181
		c3.173798-1.100342,5.306335-4.352112,5.306335-8.091553v-11.735352c0-4.113647,2.971634-7.460388,6.624283-7.460388
		c3.652924,0,6.624725,3.346741,6.624725,7.460388v11.735352c0,3.739868,2.132645,6.991577,5.30687,8.091614
		c8.734772,3.025635,17.803925,4.559753,26.955444,4.559753c9.151535,0,18.221176-1.534119,26.95697-4.559814
		c3.173462-1.100525,5.305847-4.352295,5.305847-8.091553v-18.19574v-1h0.887939h11.465729h0.89679l-0.008942,1.009949
		c-0.277618,31.362976-9.16571,60.827698-25.026932,82.966431c-15.921539,22.222839-37.004181,34.461548-59.364441,34.461548
		c-22.360199,0-43.442993-12.238708-59.3647-34.461548C116.120758,246.136963,107.232399,216.672241,106.954544,185.309326z
		 M210.825531,317.107422l-2.089676,2.353638l-16.761169,18.877869l-0.627899,0.707092l-0.627838-0.707092L173.95723,319.46106
		l-2.089355-2.35321l2.89502,0.666321c5.439865,1.252014,11.020035,1.886902,16.585464,1.886902
		s11.144424-0.634827,16.581787-1.886841L210.825531,317.107422z M92.451324,417.858948l9.512138,26.839661l0.485794,1.370728
		h-1.310471H21.65736c-3.652914,0-6.624716-3.346558-6.624716-7.459961v-52.03418
		c0-21.732544,13.074873-40.59198,31.795767-45.862671l40.853374-11.502991l1.491486-0.419922l-0.42234,1.664795
		l-10.686684,42.125977c-0.557335,2.193481-0.295418,4.584717,0.718452,6.560974
		c1.013054,1.974426,2.7211,3.424561,4.686234,3.978455l18.116684,5.100525l1.07386,0.302307l-0.49501,1.11499l-9.454529,21.296814
		C91.751297,413.092957,91.657051,415.616821,92.451324,417.858948z M169.314072,401.066162L163.55864,445.2146l-0.11142,0.854736
		h-0.767075h-43.443047h-0.601669l-0.223007-0.629272l-10.60215-29.914062l-0.147629-0.416687l0.178139-0.401245
		l12.454292-28.052795c1.025574-2.309265,1.064323-4.978394,0.106331-7.323242
		c-0.958862-2.345825-2.783585-4.049988-5.006203-4.675354l-19.85128-5.588928l-0.890572-0.250732l0.252167-0.99408
		l10.96373-43.21875l0.140854-0.555359l0.497612-0.140076l6.272179-1.765686l0.690979-0.194458l0.318558,0.717468
		l27.538956,62.036133c1.275803,2.865112,2.59494,5.827515,6.397217,6.524658c0.402344,0.071472,0.81395,0.108093,1.218994,0.108093
		c1.976089,0,3.844162-0.866638,5.260269-2.440308c2.23909-2.488525,4.576599-4.917175,6.947433-7.218567l1.467636-1.424561
		v2.182068v0.436523c0,6.459412,2.347321,12.779541,6.44014,17.339905l0.31926,0.355713L169.314072,401.066162z
		 M152.024246,368.175842l-0.862885,0.828918l-0.507431-1.142334c-4.234085-9.532288-11.778-26.528564-24.783012-55.84021
		c-1.488235-3.353394-0.518913-7.452942,2.25486-9.535889l5.094757-3.825256l0.605621-0.454773l0.51474,0.579712
		l43.023804,48.455078l0.854004,0.961792l-1.069809,0.631165C171.249527,352.314575,162.101837,358.495483,152.024246,368.175842z
		 M203.008545,446.069336h-23.339554h-1.027802l0.149261-1.145264l4.797775-36.80957l0.111359-0.854736h0.76712h13.757126h0.767456
		l0.111145,0.855164l4.784653,36.80957l0.148819,1.144836H203.008545z M205.041916,368.575195v14.293945
		c0,4.113403-2.971802,7.459961-6.62471,7.459961h-14.140823c-3.652649,0-6.624283-3.346558-6.624283-7.459961v-14.293945v-0.561584
		l0.425797-0.292297c5.623596-3.860168,10.13446-6.21936,12.928223-7.518677l0.338882-0.157593l0.338882,0.157532
		c2.79306,1.298584,7.303818,3.657043,12.932114,7.518616l0.425919,0.292236V368.575195z M204.47493,348.202881l0.853943-0.961792
		l43.023315-48.455078l0.514694-0.579651l0.605667,0.454712l5.095139,3.825195
		c2.773682,2.082825,3.742889,6.182434,2.254486,9.536072c-13.003235,29.30957-20.548874,46.307739-24.782913,55.840088
		l-0.507477,1.142456l-0.86293-0.829102c-10.071594-9.676636-19.221756-15.859192-25.124176-19.341736L204.47493,348.202881z
		 M274.885162,415.525635l-10.590881,29.914062l-0.2229,0.629639h-0.601837h-43.472595h-0.76738l-0.11116-0.855103
		l-5.739456-44.149414l-0.065033-0.500305l0.31926-0.355591c4.093307-4.559448,6.440948-10.879578,6.440948-17.339783v-0.4375
		v-2.182251l1.467636,1.424805c2.370026,2.300781,4.707596,4.729797,6.947876,7.219482
		c1.415558,1.573853,3.288788,2.440491,5.274734,2.440491c0.403046,0,0.810532-0.036865,1.211243-0.109558
		c3.797028-0.69519,5.116119-3.659485,6.391739-6.526184l27.538101-62.034302l0.318542-0.717529l0.69104,0.194641l6.270935,1.765564
		l0.497498,0.140076l0.1409,0.555359l10.963745,43.219727l0.252167,0.994141l-0.890625,0.250732l-19.850677,5.588867
		c-2.22345,0.625183-4.047943,2.328796-5.005829,4.674255c-0.959351,2.345154-0.920868,5.014465,0.105286,7.324158
		l12.456085,28.053955l0.178131,0.401001L274.885162,415.525635z M367.660553,438.609375
		c0,4.113403-2.971466,7.459961-6.623901,7.459961h-79.471405h-1.309967l0.485199-1.370361l9.504333-26.844727
		c0.792542-2.240112,0.697784-4.762756-0.259918-6.920837l-9.454926-21.296753l-0.495056-1.115051l1.073853-0.302307
		l18.117401-5.100586c1.963348-0.553589,3.671387-2.003906,4.685852-3.978882
		c1.012512-1.973206,1.274445-4.364746,0.718506-6.560974l-10.687836-42.125427l-0.422394-1.664856l1.491486,0.419983
		l40.853821,11.50293c18.720886,5.269775,31.795776,24.129211,31.795776,45.862732L367.660553,438.609375z"/>
</g>
</svg>
