<?xml version="1.0" encoding="utf-8"?>
<!-- Generator: Adobe Illustrator 19.2.1, SVG Export Plug-In . SVG Version: 6.00 Build 0)  -->
<svg version="1.0" id="Слой_1" xmlns="http://www.w3.org/2000/svg" xmlns:xlink="http://www.w3.org/1999/xlink" x="0px" y="0px"
	 viewBox="0 0 512 512" style="enable-background:new 0 0 512 512;" xml:space="preserve">
<g>
	<circle style="fill:#B3DAF5;" cx="255.748703" cy="255.748703" r="248.584641"/>
	<circle style="fill:#FFFFFF;" cx="255.748703" cy="255.748688" r="217.024734"/>
	<path style="fill:#2A3038;" d="M256.000977,1.004395C187.887695,1.004883,123.851074,27.530273,75.687988,75.693848
		C27.524902,123.85791,1.000488,187.89502,1.001465,256.008301c0.000488,68.112793,26.525879,132.149902,74.689453,180.312988
		c48.164062,48.163086,112.201172,74.686523,180.314453,74.686523c68.112793-0.000977,132.149902-26.525391,180.312988-74.689453
		s74.686523-112.201172,74.686523-180.314453c-0.000977-68.11377-26.525391-132.149902-74.689453-180.312988
		S324.114258,1.003418,256.000977,1.004395z M426.416016,426.419922
		c-45.464844,45.573242-105.955078,70.713867-170.328613,70.791016c-0.098145,0-0.197266,0-0.29541,0
		c-64.263184,0-124.697754-24.989258-170.201172-70.384766c-45.573242-45.464844-70.713867-105.955078-70.790039-170.328613
		C14.724121,192.124023,39.720215,131.57373,85.18457,86.000977l0.408203-0.408203
		c45.501465-45.388184,105.937988-70.375977,170.192383-70.375977c0.105957,0,0.203125,0,0.309082,0.000488
		c64.373535,0.080078,124.862793,25.223633,170.324707,70.799316c45.382812,45.495605,70.375977,105.941406,70.375,170.202148
		C496.793945,320.479492,471.799805,380.924805,426.416016,426.419922z"/>
	<path style="fill:#2A3038;" d="M250.918945,464.953125c-49.594727-1.208008-97.271973-20.086914-134.248535-53.15918
		c-1.305176-1.1875-2.964355-1.828125-4.708984-1.828125c-0.112305,0-0.225098,0.00293-0.338379,0.007812
		c-1.867676,0.088867-3.588867,0.899414-4.847168,2.282227c-1.258789,1.382812-1.902832,3.172852-1.814941,5.041016
		c0.088379,1.867188,0.898438,3.588867,2.28125,4.847656l0.079102,0.070312
		c44.408691,39.723633,101.614746,59.772461,161.088867,56.459961c59.474609-3.3125,114.100586-29.586914,153.814453-73.984375
		c35.292969-39.455078,55.438477-90.329102,56.726562-143.25c1.289062-52.921875-16.358398-104.71582-49.69043-145.841309
		c-2.451172-2.973145-6.869141-3.400879-9.847656-0.949707c-2.9375,2.418457-3.394531,6.803223-1.018555,9.774902
		c35.144531,43.369141,51.297852,97.834961,45.481445,153.358887c-5.816406,55.524414-32.90625,105.459961-76.280273,140.608398
		C349.052734,449.625,300.507812,466.143555,250.918945,464.953125z"/>
	<path style="fill:#2A3038;" d="M256.069763,34.004272c-30.951111,0-60.962341,6.264526-89.200012,18.619629
		c-29.221863,12.785828-54.908936,31.423889-76.347656,55.396423c-35.124268,39.275696-55.174316,89.915161-56.456665,142.59021
		c-1.282288,52.674927,16.279907,104.230042,49.451416,145.168335c1.143921,1.40979,2.843933,2.218994,4.663452,2.218994
		c1.388733,0,2.694275-0.463684,3.775574-1.341003c1.244568-1.009766,2.021484-2.443787,2.187439-4.037842
		c0.166077-1.594055-0.298584-3.157349-1.308411-4.401917C62.665161,350.922546,46.032837,303.968201,46,256.001343
		C46,140.205627,140.205627,46,256,46l0.143494-0.000061c51.683044-0.000732,101.350403,18.988281,139.852783,53.469177
		c1.1203,1.02063,2.554565,1.576355,4.05127,1.576355c1.68573,0,3.303162-0.714111,4.437561-1.959167
		c2.228149-2.445557,2.05127-6.247925-0.394287-8.476074l-0.078186-0.070007
		c-40.767639-36.458496-93.298706-56.532593-147.929321-56.53595l-0.006775-0.999756
		c-0.002258,0-0.004517,0.000061-0.006775,0.000061V34.004272z"/>
</g>
<path style="fill:#F59899;" d="M298.5,136.657349L269,131.5h-30.5l-32,13.5L193,155.5L177,172l-11.181824,17.5L160,211v23.5
	l5.818176,23.199646L178,269.5l15,8c0,0,6-7,6-9s1.5-12.5,1.5-12.5L190,239c0,0-0.5-19.99762-0.5-23.49881S194,195.5,194.5,194
	s13-18,13-18l12.523499-11.5L244,156.5l21.5-1.5l14.5,3l18.5,8l14,13.5l7.5,25l-3.5,37l-9.5,26l-9,10l-17.5,11L261,285l-10-15
	l2-15.121201c0,0,11.5-37.376419,11.5-39.377609S263,199,262,197s-10.5-9-10.5-9l-17.5,0.5L220.023499,208L215,232.5
	l5.023499,22.378799L207.5,296.042908L199,339.5l3.5,41.5l12-7.89975c0,0,19.5-37.60025,19.5-39.10025s6-36,6-36l11.5,9l19.5,6
	l27.5-1.5l27-15.457092L339.5,278l13.5-30l3.5-32.49881l-3-20.00119c0,0-7-21.5-8.5-22.5s-18.5-18.5-18.5-18.5l-17-14
	L298.5,136.657349z"/>
<path style="fill:#F36C6D;" d="M210.939621,363.275146l2.770889-4.116119
	c5.296127-7.867279,12.281784-19.682465,15.485641-31.295319c1.388321-5.064178,7.438385-28.987305,9.259583-36.198822
	l0.089203-0.353027c0.360733-1.429779,1.316681-2.642273,2.622803-3.326691c0.752533-0.394257,1.560791-0.594208,2.402359-0.594147
	c1.939499,0.000214,3.702881,1.066071,4.601929,2.781769c3.488708,6.658508,15.187805,13.845215,28.005219,13.845215
	c19.187866,0,35.782288-8.329865,47.989349-24.08905C336.311523,264.250061,343,242.173416,343,217.765808
	c0-18.212143-7.85202-36.197586-21.542603-49.344666c-14.72998-14.147354-35.241455-21.938644-57.755676-21.938644
	c-34.838379,0-56.091263,14.099838-67.78566,25.928223C181.670319,186.821945,173.5,205.862274,173.5,224.649673
	c0,21.859619,7.997116,38.342514,21.940765,45.222336l1.915329,0.945007l0.526276-2.069916
	c0.219147-0.862091,0.462631-1.829803,0.714417-2.833099c0.541946-2.15686,1.102356-4.387177,1.443329-5.653564
	c0.048355-0.179932,0.087082-0.339417,0.118088-0.470093l0.189484-0.798645l-0.498795-0.651733
	c-0.152893-0.199738-0.370087-0.470917-0.678497-0.83609c-6.755356-7.958832-10.039185-17.60881-10.039246-29.515259
	c-0.144501-18.051636,6.652847-35.172684,19.135086-48.204315c13.020935-13.483017,31.404221-20.908432,51.76355-20.908432
	c18.494293,0,33.992279,5.557037,44.818634,16.070343c10.40155,10.100143,15.899536,24.022705,15.899536,40.262497
	c0,19.955002-4.391205,38.598846-12.364655,52.497162c-8.75296,15.256927-21.232056,23.659332-35.166931,23.659546
	c-0.148926,0.002411-0.296814,0.003693-0.445526,0.003693c-8.208923,0-15.880402-3.659058-21.034561-10.022949
	c-4.874908-6.166199-6.507172-14.003876-4.595932-22.070282c1.468796-6.217331,3.419479-12.546814,5.305939-18.667847
	l0.050522-0.163696c3.221939-10.454651,6.265182-20.329605,6.265182-27.339706c0-9.419464-4.661285-14.821762-12.788635-14.821762
	c-11.527802,0-20.557877,12.889145-20.55777,29.325043c-0.068542,6.470566,1.17215,12.774368,3.687607,18.736404l0.018356,0.043488
	l0.020706,0.042419c0.530029,1.086517,0.672668,2.333633,0.403885,3.502075
	c-0.146057,0.61879-14.639877,62.004379-17.179749,72.71434c-2.235321,9.438171-2.879944,22.110229-1.814987,35.681793
	L210.939621,363.275146z"/>
<path style="fill:#2A3038;" d="M196.665359,383.570312c0.409012,3.006622,2.551437,5.438019,5.461288,6.216217
	c0.665771,0.179779,1.348465,0.270508,2.033676,0.270782c2.357666,0,4.61644-1.114197,6.047729-2.98053l0.284042-0.363556
	c6.212891-7.916565,21.273926-28.555237,26.978653-49.234436c1.178864-4.308167,5.170517-20.006104,6.831863-26.555206
	l0.681992-2.688385l2.249725,1.622192c8.957138,6.458405,19.528305,9.890228,30.570816,9.924377
	c24.202179,0,45.967621-10.888519,61.281067-30.659698C353.862518,270.0578,362,243.521851,362,214.401855
	c0-22.927139-9.830353-45.517166-26.970551-61.977829c-18.185822-17.464111-43.3414-27.082047-70.832703-27.082047
	c-41.899628,0-67.706848,17.205582-81.978348,31.639252C164.602997,174.797363,154.5,198.462524,154.5,221.908737
	c0,29.609024,12.455139,52.359207,33.317398,60.856705l0.038498,0.015656l0.037766,0.017395
	c1.405167,0.645905,2.894547,0.97345,4.426697,0.97345c4.137711,0,7.927414-2.428192,9.65477-6.186005
	c0.31691-0.689362,0.560135-1.414612,0.722931-2.155609l0.009048-0.040924l0.010818-0.040466
	c0.333313-1.249664,0.895462-3.484314,1.439117-5.645325c0.573944-2.283661,1.167526-4.645386,1.542007-6.041412
	c1.612045-6.078918,0.236481-9.11145-3.250488-13.233902c-5.639404-6.644287-8.266998-14.54425-8.266998-24.859085
	c-0.157043-16.723343,6.124695-32.610641,17.688171-44.717606c12.231491-12.6633,28.938538-19.352737,48.322342-19.352737
	c16.522217,0,30.368286,4.65184,40.04126,13.452728c9.722992,8.846359,14.862244,21.52594,14.862244,36.667969
	c0,19.25827-4.055725,37.202728-11.420074,50.527802c-7.553619,13.667572-17.867157,21.199554-29.044403,21.211517
	c-0.1651,0.004456-0.330078,0.006622-0.49472,0.006622c-5.457031,0-10.590027-2.40509-14.082733-6.598572l-0.024933-0.029877
	l-0.023621-0.030914c-3.125153-4.083252-4.191574-9.481628-2.85556-14.446167
	c1.542297-6.496109,3.625244-13.252777,5.639771-19.787292c3.77179-12.238281,7.334412-23.798019,7.334412-33.151718
	c0-16.438675-10.153564-27.483414-25.26593-27.483414c-18.919357,0-33.739532,19.029022-33.739532,43.321381
	c-0.017731,7.898163,1.38501,15.646133,4.169312,23.03299l0.203033,0.538727l-0.132294,0.560181l-1.316162,5.573608
	c-4.382126,18.556793-14.644241,62.01355-16.850906,71.317291c-4.845093,20.455322-2.455414,44.42337-0.59967,56.889862
	L196.665359,383.570312z M208.207474,328.789185c2.770081-11.680725,18.577591-78.630356,18.736938-79.305222
	c0.293137-1.274353,0.137589-2.634552-0.440506-3.819519l-0.022568-0.046295l-0.020035-0.047424
	c-2.743484-6.502396-4.096603-13.377594-4.021881-20.434647c-0.000107-17.92569,9.848495-31.983109,22.421188-31.983109
	c8.864029,0,13.9478,5.891953,13.9478,16.165176c0,7.645569-3.319107,18.415527-6.833069,29.817825l-0.055084,0.178574
	c-2.057465,6.675842-4.184967,13.57901-5.786896,20.359924c-2.084457,8.797546-0.304245,17.345581,5.012497,24.070709
	c5.621384,6.940765,13.988144,10.931458,22.941177,10.931458c0.16217,0,0.323486-0.001404,0.485931-0.004059
	c15.197937-0.000214,28.808136-9.164246,38.354462-25.804047c8.696167-15.158081,13.485413-35.491821,13.485413-57.255585
	c0-17.711761-5.996307-32.896286-17.340698-43.911896c-11.807678-11.466232-28.710388-17.526978-48.881042-17.526978
	c-22.204712,0-42.254288,8.09845-56.455444,22.803604c-13.613617,14.21283-21.02713,32.885742-20.869507,52.573578
	c0.000061,12.985672,3.581543,23.510345,10.949234,32.190567c0.336365,0.398254,0.573257,0.694031,0.73996,0.911865
	l0.544022,0.710846l-0.206665,0.870972c-0.033798,0.142548-0.07605,0.316528-0.128784,0.512695
	c-0.371887,1.381226-0.983078,3.81366-1.574173,6.166046c-0.274597,1.094238-0.540161,2.149658-0.779175,3.089905
	l-0.573944,2.257507l-2.088943-1.030609c-15.20755-7.503448-23.929504-25.480377-23.929504-49.321396
	c0-20.490311,8.910904-41.256485,24.447891-56.973892c12.754379-12.900543,35.933655-28.278412,73.929764-28.278412
	c24.554962,0,46.925598,8.497498,62.990784,23.927185c14.931488,14.33873,23.495209,33.954437,23.495209,53.817322
	c0,26.619965-7.294769,50.697632-20.540466,67.797638c-13.313507,17.187622-31.412079,26.272552-52.339172,26.272552
	c-13.979218,0-26.738708-7.838135-30.54361-15.100128c-0.980545-1.871216-2.903748-3.033752-5.019058-3.033966
	c-0.917862-0.000061-1.799393,0.218018-2.620117,0.648041c-1.4245,0.746399-2.467102,2.068848-2.86058,3.628235l-0.09729,0.38501
	c-1.986237,7.865173-8.584717,33.956665-10.098846,39.479889c-3.494278,12.665436-11.113068,25.551575-16.889313,34.131989
	l-3.021988,4.489136l-0.423416-5.39502C205.066498,352.903473,205.769501,339.082855,208.207474,328.789185z"/>
</svg>
