<?xml version="1.0" encoding="utf-8"?>
<!-- Generator: Adobe Illustrator 19.2.1, SVG Export Plug-In . SVG Version: 6.00 Build 0)  -->
<svg version="1.0" id="Слой_1" xmlns="http://www.w3.org/2000/svg" xmlns:xlink="http://www.w3.org/1999/xlink" x="0px" y="0px"
	 viewBox="0 0 249 291" style="enable-background:new 0 0 249 291;" xml:space="preserve">
<path style="fill:#B3DAF5;" d="M159.666672,52.577942l-22,3.422058L124.5,98.75L109,125.5l-22.609215,30.25L76,165.5l-9.6875-2.75
	c0,0-22.3125-32.5-23.3125-33.25s-17.75-20.461029-17.75-20.461029L16,117.75L7,154v26.75l13,38l18.18692,26l31.56308,25l35.5,11.75
	h27.25l27.166672-1.5L181.5,269.75L215.25,243L232,214.75l10.75-37l-2-30.5l-12.5-37.75l-17.44191-24.714508L187,65.191986
	L159.666672,52.577942z"/>
<path style="opacity:0.05;fill:#2A3038;" d="M171.556976,59.799805L124.498032,285.25l39.251968-8.5l38-22.25
	c0,0,27.75-33.75,28-34.5s9.5-38.5,9.5-38.5l1.75-41.114044L228.25,109.5c0,0-17.43399-22.285492-17.437958-23.5
	C210.80809,84.785492,185.75,65.191986,185.75,65.191986L171.556976,59.799805z"/>
<path style="fill:#F59899;" d="M81.25,6.25l-26.540913,2.5L38.18692,19L24.25,32.5l-6.5,18.25L16,80.549896L29,110.25l14,23
	l19.644367,24.169006L76,165.5c0,0,12-8.5,12-9.5s23-30.5,23-30.5l11.25-21l6.885986-20.802254L132.25,56l-5.773979-18.5L99,10.5
	L81.25,6.25z"/>
<g>
	<path style="fill:#F36C6D;" d="M74.055923,54.622627c-0.094406-0.002319-0.188423-0.003479-0.282333-0.003479
		c-6.144852,0-11.266125,4.999176-11.416241,11.143921c-0.0005,0.020668-0.000832,0.041344-0.001106,0.062065
		c-0.067818,6.330566,5.027035,11.552048,11.357433,11.639488c0.020676,0.000282,0.041397,0.000443,0.06218,0.000443
		c6.251259,0.000557,11.267731-4.894432,11.420502-11.143921C85.350235,60.024464,80.352608,54.776505,74.055923,54.622627z"/>
	<path style="fill:#F36C6D;" d="M73.763588,18.010412c-26.319923,0.073179-47.721424,21.545595-47.70755,47.863251
		c0,33.952919,31.127478,68.902443,44.51046,82.352699c0.849808,0.854111,2.004822,1.334213,3.209694,1.334213
		c0.000938,0,0.002098,0,0.003036,0c1.205872-0.000839,2.361549-0.48259,3.210968-1.338531
		c13.38282-13.486053,44.509796-48.506836,44.509796-82.346115C121.51326,39.554348,100.109993,18.081989,73.763588,18.010412z
		 M73.776299,86.659325c-11.295803-0.000221-20.545887-9.190109-20.619953-20.485756
		c-0.036148-5.507896,2.074852-10.700138,5.943996-14.620354s9.033363-6.099033,14.540489-6.135071l0.13945-0.000496
		c11.294098,0,20.542793,9.189835,20.616753,20.464638C94.418808,77.286095,85.158943,86.606705,73.776299,86.659325z"/>
</g>
<path style="opacity:0.05;fill:#2A3038;" d="M99.25,14.75l-39,138.5l8.825089,8.059998L78.25,163l14.592941-15.88266L119.5,110.25
	c0,0,12.5-30.819862,12.75-32.784935c0.25-1.965065,0.863907-21.309181-1.068054-24.887123C129.25,49,120.25,29.75,120.25,29.75
	L99.25,14.75z"/>
<path style="fill:#FFFFFF;" d="M83.570007,49.5L69.75,48L60,53.75l-3,9L61.164543,75c0,0,6.835457,8,7.585457,8s11.5,0,11.5,0
	l8.25-7.25l2-11.75l-2-12.75L83.570007,49.5z"/>
<g>
	<path style="fill:#2A3038;" d="M215.110474,83.958435c-20.538147-22.608643-48.591919-36.684937-78.99353-39.635803
		c-1.852478-0.17981-3.451782-1.373718-4.150818-3.098633c-4.79071-11.820923-12.923767-21.7724-23.519897-28.778564
		C98.091248,5.598755,86.083313,1.979797,73.720581,1.979797c-8.081238,0-16.012207,1.553589-23.572632,4.617615
		c-11.662537,4.726501-21.536011,12.746216-28.552917,23.192139C14.578125,40.235535,10.88739,52.408386,10.921997,64.992188
		c0,11.105225,2.655396,23.057007,7.892517,35.537048c0.606873,1.446106,0.500061,3.093079-0.288452,4.448669
		C7.694092,123.600647,1.979431,144.831543,2,166.375244C2,233.99292,56.953247,289,124.5,289S247,233.99292,247,166.380005
		C246.973816,135.839844,235.64856,106.567078,215.110474,83.958435z M219.526001,111.442017
		c1.928711,0,3.649414,1.103516,4.47937,2.777466c6.829102,12.996582,10.980347,26.997192,12.340149,41.617493
		c0.13031,1.400574-0.335449,2.79126-1.282898,3.830872c-0.947449,1.039673-2.289001,1.632141-3.695618,1.632141h-50.776001
		c-2.703125,0-4.916809-2.148438-4.997742-4.850403c-0.391663-13.083435-1.724915-26.256348-3.962646-39.152771
		c-0.252258-1.453857,0.150574-2.944885,1.100525-4.073975c0.950073-1.129028,2.350281-1.780823,3.825867-1.780823H219.526001z
		 M155.723389,61.591309c0.968018-1.15686,2.382324-1.791504,3.83551-1.791504
		c0.549622-0.000061,1.104614,0.090698,1.643372,0.27832c18.731873,6.522827,35.467407,17.921082,48.3974,32.962463
		c1.273682,1.48175,1.567627,3.569702,0.75238,5.345459c-0.815186,1.775757-2.590088,2.91394-4.544006,2.91394h-33.761047
		c-2.255005,0-4.231018-1.50946-4.824036-3.685181c-1.492065-5.47467-3.290344-10.932312-5.344666-16.221497
		c-1.881775-4.851379-4.128357-9.608765-6.678223-14.14209C154.180908,65.43927,154.389282,63.18573,155.723389,61.591309z
		 M131.055176,94.577332c2.585571-7.044983,4.322449-14.398376,5.162231-21.855896
		c0.240845-2.138733,1.823425-3.883423,3.92865-4.331055c0.347168-0.073853,0.695984-0.10968,1.040894-0.10968
		c1.746521-0.000061,3.399597,0.917847,4.31012,2.467529c2.696716,4.590027,5.036194,9.435608,6.95343,14.4021
		c1.147034,2.935608,2.283142,6.18988,3.369385,9.653381c0.476257,1.518616,0.201111,3.173157-0.740845,4.455933
		c-0.942078,1.282715-2.438538,2.040344-4.030029,2.040344h-15.299988c-1.633728,0-3.164368-0.798096-4.099609-2.137573
		C130.714172,97.822876,130.492249,96.110962,131.055176,94.577332z M156.075989,111.451965
		c2.403564,0,4.46698,1.710144,4.913147,4.071899c2.524475,13.364014,4.017456,27.032776,4.4375,40.626709
		c0.001587,0.051453,0.00238,0.102905,0.00238,0.154419c0,2.761353-2.238586,5.005005-5,5.005005H97.843018
		c-1.970886,0-3.757874-1.157776-4.563354-2.956543s-0.479126-3.902893,0.833374-5.373169
		c11.537476-12.924377,20.981201-26.023804,28.069031-38.934509c0.878174-1.59967,2.558105-2.593811,4.382935-2.593811H156.075989z
		 M165.427612,176.613342c-0.419678,13.593689-1.91272,27.262207-4.4375,40.625854
		c-0.446167,2.361694-2.509583,4.071838-4.913086,4.071838H92.921021c-2.403564,0-4.46698-1.710144-4.913086-4.071899
		c-2.524475-13.363892-4.016785-27.032532-4.435547-40.62616c-0.041687-1.352173,0.46637-2.663452,1.408081-3.634583
		c0.941711-0.971252,2.236755-1.519348,3.589539-1.519348h71.859985c1.352905,0,2.647949,0.548157,3.589722,1.519409
		C164.961426,173.949707,165.46936,175.261108,165.427612,176.613342z M73.762085,12.151978
		c29.093567,0.079041,52.728577,23.790344,52.713928,52.856506c0,37.367737-34.37262,76.040161-49.150879,90.932434
		c-0.937988,0.94519-2.214172,1.477173-3.545776,1.478088c-0.001038,0-0.002319,0-0.003357,0
		c-1.330505,0-2.605957-0.530151-3.544373-1.473328c-14.778442-14.852722-49.151611-53.446472-49.151611-90.939697
		C21.064697,35.944153,44.697754,12.232788,73.762085,12.151978z M21.072388,122.511108
		c0.728455-1.713684,2.348755-2.880615,4.204956-3.028381c0.132935-0.010559,0.265747-0.015808,0.397644-0.015808
		c1.710327-0.000122,3.313965,0.877014,4.233398,2.341003c6.912415,11.007629,14.825012,21.489075,23.518005,31.153259
		c1.320312,1.467834,1.65332,3.575195,0.849792,5.378601c-0.803406,1.803406-2.592896,2.96521-4.5672,2.96521H17.632996
		c-1.406677,0-2.748352-0.592651-3.695862-1.632446c-0.947449-1.039795-1.413025-2.430603-1.282593-3.831238
		C13.725037,144.348145,16.55719,133.134216,21.072388,122.511108z M29.470032,221.304993
		c-1.855957,0-3.559204-1.028015-4.424011-2.670166c-6.859436-13.024963-11.028259-27.061279-12.390564-41.719177
		c-0.130127-1.400452,0.335632-2.791077,1.283081-3.830627c0.947449-1.039612,2.28894-1.63208,3.695496-1.63208h50.77301
		c2.703491,0,4.917297,2.148987,4.997742,4.851196c0.389404,13.081055,1.721924,26.251526,3.96051,39.145508
		c0.252441,1.453979-0.150269,2.945129-1.100281,4.07428c-0.950073,1.129211-2.350342,1.781067-3.825989,1.781067H29.470032z
		 M93.2724,271.164917c-0.968018,1.156738-2.382141,1.791321-3.835266,1.791321c-0.549561,0-1.104675-0.090759-1.643372-0.278381
		c-18.730774-6.5224-35.466492-17.919006-48.397949-32.957947c-1.273987-1.481628-1.568176-3.569702-0.752991-5.345581
		c0.815125-1.77594,2.590149-2.914307,4.544189-2.914307h33.762024c2.255249,0,4.231323,1.509766,4.824158,3.685669
		c1.491638,5.475098,3.2901,10.933105,5.345337,16.222351c1.882629,4.848755,4.129211,9.604858,6.677795,14.137329
		C94.815186,267.317383,94.606567,269.57074,93.2724,271.164917z M124.499023,278.847961
		c-9.958862,0-20.139893-11.375061-27.932678-31.208496c-1.167053-2.972473-2.307251-6.22998-3.389465-9.683167
		c-0.475891-1.518555-0.200623-3.172852,0.741455-4.455322c0.942078-1.282532,2.438354-2.039978,4.029663-2.039978h53.100037
		c1.59137,0,3.087708,0.757507,4.029785,2.0401s1.217285,2.937073,0.741272,4.455566
		c-1.090393,3.478027-2.230408,6.73584-3.388489,9.682983C144.632019,267.473328,134.451477,278.847961,124.499023,278.847961z
		 M209.603027,239.723022c-12.911743,15.015076-29.617126,26.398804-48.313965,32.924622
		c-0.549438,0.202881-1.135193,0.309814-1.730896,0.309814c-0.435059,0-0.875305-0.057007-1.31073-0.175415
		c-2.206726-0.599854-3.726257-2.618469-3.688843-4.904968l0.000061-0.003052c0.014648-0.891785,0.26532-1.739868,0.701538-2.473206
		c2.525024-4.499329,4.751221-9.218384,6.617432-14.027588c2.056213-5.291077,3.854187-10.748779,5.344971-16.223816
		c0.59259-2.17627,2.568848-3.686401,4.824402-3.686401h33.764954c1.954102,0,3.729126,1.138428,4.54425,2.914368
		S210.877136,238.241394,209.603027,239.723022z M224.008057,218.533325c-0.818665,1.645874-2.516846,2.77771-4.479065,2.77771
		h-42.971985c-1.475647,0-2.875916-0.651794-3.825867-1.780945c-0.950073-1.12915-1.352844-2.6203-1.100464-4.074158
		c2.238098-12.894287,3.571289-26.065002,3.962585-39.146423c0.080811-2.701965,2.294556-4.850464,4.997742-4.850464h50.776001
		c1.406616,0,2.74823,0.592468,3.695679,1.632141s1.413147,2.430359,1.282837,3.830933
		C234.98584,191.539551,230.834961,205.538879,224.008057,218.533325z"/>
	<path style="fill:#2A3038;" d="M73.776123,87.958984c12.569519-0.058105,22.794922-10.350586,22.770874-22.943481
		c-0.081665-12.450439-10.294739-22.598511-22.766479-22.598511l-0.153992,0.000549
		c-6.08136,0.039795-11.784058,2.445801-16.056641,6.77478s-6.603699,10.062622-6.563782,16.144836
		C51.087891,77.810608,61.30249,87.95874,73.776123,87.958984z M61.166504,64.88385
		c0.165771-6.785461,5.821045-12.305908,12.606628-12.305908c0.103699,0,0.20752,0.001282,0.311768,0.003845
		c6.953247,0.169922,12.471985,5.965088,12.302063,12.918335c-0.168701,6.901123-5.708252,12.306519-12.611328,12.305908
		c-0.022949,0-0.045837-0.000183-0.068665-0.000488c-6.990479-0.096558-12.616577-5.862488-12.541687-12.853149
		C61.165588,64.929504,61.165955,64.906677,61.166504,64.88385z"/>
</g>
</svg>
