<?xml version="1.0" encoding="utf-8"?>
<!-- Generator: Adobe Illustrator 19.2.1, SVG Export Plug-In . SVG Version: 6.00 Build 0)  -->
<svg version="1.0" id="Слой_1" xmlns="http://www.w3.org/2000/svg" xmlns:xlink="http://www.w3.org/1999/xlink" x="0px" y="0px"
	 viewBox="0 0 158 287" style="enable-background:new 0 0 158 287;" xml:space="preserve">
<polygon style="fill:#F36C6D;" points="29,178 30.666666,245 5.333333,271.333344 5.333333,195.333328 "/>
<path style="fill:#F36C6D;" d="M82,209.333328l-13,1.333344l-6.498962,9.666656v16L79,279.666656c0,0,9-15.333313,9-18
	c0-2.666656,8.218933-24.999985,8.218933-24.999985V217l-9.552269-7.666672H82z"/>
<path style="fill:#F36C6D;" d="M128,180v64.5c0,0,24.666672,25.111084,24.666672,24.805542s0-70.63887,0-70.63887l-18.333344-17
	L128,180z"/>
<path style="fill:#D3EDFF;" d="M79,4.666667L56,35L34.666668,79l-4.000002,36.335144V188l12.666666,25.632446l16.333336,11.021713
	l11.999996-13.987488L82,209.333328l10.755394,6.333344l5.91127,9L111.333336,217c0,0,14.666664-15,14.666664-16.333328
	c0-1.333344,2.333328-77.000008,2-79.333336c-0.333336-2.333336-2.333336-38-2.666664-39.333336
	c-0.333336-1.333336-15-35.666668-16-37.666668s-21-31-21-31L79,4.666667z"/>
<path style="fill:#B3DAF5;" d="M102.409447,202.498306c9.136597-7.070999,14.590981-18.189941,14.590553-29.743042v-55.845589
	c0-17.576241-4.345901-35.641853-12.916985-53.695084c-7.061958-14.87447-15.500069-26.564175-21.335167-33.751465
	l-3.378792-4.161753l-3.378952,4.161648c-5.834518,7.185963-14.271938,18.874233-21.334373,33.748543
	c-8.572258,18.054459-12.918793,36.121078-12.918793,53.698112v55.845528
	c-0.000053,11.553375,5.455124,22.671738,14.592781,29.741714l3.708614,2.8694l2.585579-3.911789
	c3.727528-5.639374,9.988781-9.009659,16.741421-9.015457c6.760612,0.00563,13.022026,3.376343,16.749184,9.016739
	l2.585732,3.913101L102.409447,202.498306z"/>
<path style="opacity:0.05;fill:#2A3038;" d="M65.607117,160.850281c-12.69281,0-24.536499-4.244202-34.57782-11.57196
	l2.304016,48.054993L50.9422,218.766907l8.724487,5.887268l12-13.987488l15-1.333374L99,220.666687l6.938538,1.911804
	c0,0,14.061462-12.911804,14.061462-13.245178C120,209,127.666687,188,127.666687,187
	c0-0.717407-0.729675-47.947083-1.14209-74.583923C116.851807,140.794373,93.23175,160.850281,65.607117,160.850281z"/>
<path style="fill:#2A3038;" d="M122.599976,247.032959c0.000061,1.289856,0.525635,2.55072,1.441895,3.458923l24.667542,24.45752
	c0.917358,0.909607,2.133789,1.410522,3.425354,1.410522c1.307434,0,2.534363-0.51123,3.454895-1.439514
	c0.9104-0.918152,1.411255-2.135864,1.410339-3.428833v-73.370605c-0.000732-1.287903-0.526978-2.549622-1.443665-3.458618
	L133.811584,173.1026l-1.479614-1.467041v-2.083557v-52.408997c0-65.537476-47.497131-113.695984-49.519104-115.71405
	c-0.922791-0.923035-2.144653-1.42926-3.444397-1.42926c-1.29425,0-2.511475,0.502136-3.429016,1.41394l-0.010254,0.010254
	C73.90686,3.44812,26.399963,51.751343,26.399963,117.143982v51.676025v2.083313l-1.479248,1.46698L2.441711,194.662231
	C1.525146,195.570923,0.999817,196.831543,1,198.121399v73.367554c-0.000977,2.684937,2.181152,4.868652,4.864319,4.869568
	c1.293091,0,2.509644-0.500671,3.427002-1.409912l24.664246-24.455139c0.917114-0.908875,1.442505-2.169312,1.442444-3.459045
	v-22.857422v-11.319214l8.36731,7.623108c3.175781,2.893311,6.700867,5.398804,10.477295,7.446838l2.085571,1.131042
	l0.442932,2.330811c2.605652,13.712524,13.519897,41.336487,18.091492,52.576721
	c0.750061,1.844849,2.520752,3.036438,4.511292,3.036438c0.624695,0,1.240112-0.121399,1.829285-0.360901
	c1.208679-0.491394,2.183594-1.466431,2.674988-2.674988c4.575562-11.252014,15.498169-38.901306,18.096436-52.599609
	l0.442139-2.331299l2.085571-1.131592c3.505432-1.9021,6.800598-4.202576,9.794067-6.837463l8.303589-7.309021v11.062134V247.032959
	z M132.335022,242.921997v-45.57605v-11.996704l8.52002,8.445801l4.934021,4.890991l1.479919,1.467041V202.237v45.573975v11.996765
	l-8.52002-8.443787l-4.934021-4.891052l-1.479919-1.467041V242.921997z M25.666016,197.345947v45.574036v2.083618l-1.479614,1.46698
	l-4.932983,4.890991l-8.520447,8.447876v-11.998474V202.237v-2.083618l1.479614-1.46698l4.932983-4.891052l8.520447-8.447815
	V197.345947z M92.754395,227.186401l-0.000854,0.035889c-0.09137,3.766052-3.011719,13.574951-8.679871,29.154175
	l-4.703918,12.929077l-4.694641-12.932434c-5.677002-15.638428-8.601257-25.439453-8.691589-29.130859l-0.000793-0.031189
	l-0.000366-0.031189c-0.042847-3.5755,1.309265-6.953735,3.807251-9.512268c2.497986-2.558655,5.842834-3.991333,9.418396-4.03418
	l0.162354-0.000977c7.292358-0.000671,13.296692,5.9328,13.384094,13.226685c0.00116,0.095825,0.001221,0.193542,0.000305,0.291321
	L92.754395,227.186401z M105.838196,215.469116l-4.261169,3.297791l-2.97052-4.495422
	c-4.281799-6.479736-11.474976-10.352051-19.241638-10.358521c-7.757507,0.006653-14.9505,3.878479-19.232727,10.357056
	l-2.970337,4.493896l-4.260498-3.296387c-10.497437-8.12207-16.764404-20.894958-16.764343-34.167603v-64.155945
	c0-20.192688,4.993347-40.947815,14.841248-61.688965c8.113403-17.087769,17.806396-30.515381,24.509155-38.770691
	l3.881775-4.780945l3.881592,4.781067c6.70343,8.256836,16.397217,21.686096,24.510071,38.774048
	c9.846558,20.739746,14.839172,41.493713,14.839172,61.685486v64.156006
	C122.600464,194.572327,116.334412,207.345886,105.838196,215.469116z"/>
<path style="fill:#2A3038;" d="M79.363632,84.905396h-0.003799c-14.650238,0-26.57328,11.919006-26.5784,26.569397
	c-0.002483,7.099342,2.759857,13.774765,7.778137,18.796616c5.018356,5.021698,11.691841,7.788681,18.791183,7.791092
	c14.659775,0,26.582741-11.91893,26.587784-26.569321C105.925583,96.849152,94.004166,84.92347,79.363632,84.905396z"/>
<path style="fill:#FFFFFF;" d="M79.362297,94.625h-0.002411c-9.29274,0-16.855602,7.560303-16.858849,16.853142
	c-0.001575,4.503159,1.750595,8.737419,4.933723,11.922813c3.183174,3.185295,7.416206,4.940414,11.919365,4.94194
	c9.298798,0,16.86161-7.560257,16.864807-16.853088C96.210716,102.201004,88.648888,94.636467,79.362297,94.625z"/>
</svg>
