<?xml version="1.0" encoding="utf-8"?>
<!-- Generator: Adobe Illustrator 19.2.1, SVG Export Plug-In . SVG Version: 6.00 Build 0)  -->
<svg version="1.0" id="Слой_1" xmlns="http://www.w3.org/2000/svg" xmlns:xlink="http://www.w3.org/1999/xlink" x="0px" y="0px"
	 viewBox="0 0 283.968994 284" style="enable-background:new 0 0 283.968994 284;" xml:space="preserve">
<ellipse style="fill:#B3DAF5;" cx="181.5" cy="102.166664" rx="90.833336" ry="93.166664"/>
<path style="fill:#CAE5F8;" d="M209.33638,136.678009c-1.421585,1.431183-2.201324,3.331604-2.19458,5.350143
	c0.006729,2.018585,0.799164,3.913727,2.231293,5.336319c1.4254,1.415787,3.316803,2.195526,5.325851,2.195526
	c2.010162,0,3.902313-0.780487,5.327835-2.197632c24.92392-24.97863,24.920181-65.622406-0.0112-90.599045
	c-1.42691-1.426922-3.324921-2.213146-5.34375-2.213146c-2.01889,0-3.916901,0.786224-5.344406,2.21373
	c-1.427567,1.427567-2.213791,3.325577-2.213791,5.344406s0.786224,3.916901,2.213791,5.344406
	C228.347305,86.53685,228.350815,117.590714,209.33638,136.678009z"/>
<path style="fill:#2A3038;" d="M215.763489,138.138733c-1.481567,1.491577-2.294189,3.472168-2.28717,5.575867
	c0.007019,2.10376,0.832886,4.078857,2.325439,5.561462c1.485535,1.475525,3.456726,2.288147,5.550537,2.288147
	c2.094971,0,4.066956-0.813416,5.552612-2.290344c25.975464-26.032471,25.971558-68.390991-0.011658-94.421387
	c-1.487122-1.487122-3.46521-2.306519-5.569214-2.306519c-2.104065,0-4.082153,0.819397-5.569885,2.307129
	c-1.487793,1.487793-2.30719,3.465881-2.30719,5.569885s0.819397,4.082153,2.30719,5.569885
	C235.576477,85.882141,235.580139,118.246155,215.763489,138.138733z"/>
<polygon style="fill:#F36C6D;" points="103,156.333328 9.666667,248.333328 9.666667,265 18.333334,276 32,273 
	129.666672,180.666672 "/>
<polygon style="opacity:0.1;fill:#2A3038;" points="83.333336,172.666672 110,201 129.666672,180.666672 103,154.666672 "/>
<path style="opacity:0.05;fill:#2A3038;" d="M229.066467,22.786438l-55.854248,172.15686
	c2.730225,0.253357,5.493225,0.390015,8.287781,0.390015c50.165894,0,90.833313-41.712097,90.833313-93.166626
	C272.333313,68.601318,255.025146,39.185852,229.066467,22.786438z"/>
<path style="fill:#2A3038;" d="M129.953247,189.236511l0.663879,0.381409
	c15.309692,8.796021,32.679504,13.445312,50.23175,13.445312c17.475464,0,34.751953-4.552002,49.961853-13.164001
	c15.663818-8.868958,28.709961-21.853394,37.728027-37.549622c13.442749-23.397461,16.969421-50.629333,9.930359-76.679321
	c-7.039062-26.049927-23.801208-47.799561-47.198608-61.242249C215.980408,5.643311,198.577759,1,180.943909,1h-0.057861
	l-0.147217-0.000061c-26.921265-0.000793-52.239624,10.475464-71.291321,29.498901
	c-19.053284,19.025024-29.567322,44.331787-29.605347,71.258484c-0.025085,17.731567,4.646606,35.221436,13.509949,50.578796
	l0.383545,0.66449l-0.542542,0.542542L7.476074,239.258118c-4.871094,4.813904-7.573792,11.230957-7.614258,18.073425
	c-0.040405,6.842407,2.586121,13.291077,7.395813,18.15802c4.850037,4.907715,11.321289,7.610474,18.221802,7.610474
	c6.784729,0,13.179138-2.626648,18.005432-7.396179l0.207153-0.207031l85.719849-85.718933L129.953247,189.236511z
	 M116.029114,180.887085l-83.464966,83.470032c-1.864746,1.866577-4.345215,2.894836-6.984192,2.894836
	c-2.635071,0-5.112915-1.025635-6.977173-2.888c-1.865662-1.863647-2.89386-4.342346-2.895203-6.97937
	c-0.001343-2.636963,1.024292-5.116699,2.888-6.9823l83.473267-83.487305l0.770508-0.77063l0.701721,0.833679
	c3.769836,4.478943,7.950439,8.663513,12.425598,12.4375l0.832153,0.701782L116.029114,180.887085z M95.575989,102.05896
	c0.000793-22.787903,8.875671-44.211609,24.989746-60.324524s37.53833-24.986267,60.326294-24.985413
	c47.0401,0.001587,85.309998,38.272827,85.309998,85.312988c-0.023438,22.779541-8.906982,44.194519-25.01416,60.301025
	c-16.107056,16.106567-37.522339,24.989319-60.300842,25.011963h-0.000488h-0.000549
	c-22.787903-0.000854-44.211609-8.875671-60.324524-24.989746C104.448486,146.271179,95.575195,124.846863,95.575989,102.05896z"/>
</svg>
