<?xml version="1.0" encoding="utf-8"?>
<!-- Generator: Adobe Illustrator 19.2.1, SVG Export Plug-In . SVG Version: 6.00 Build 0)  -->
<svg version="1.0" id="Слой_1" xmlns="http://www.w3.org/2000/svg" xmlns:xlink="http://www.w3.org/1999/xlink" x="0px" y="0px"
	 viewBox="0 0 289 297.218994" style="enable-background:new 0 0 289 297.218994;" xml:space="preserve">
<polygon style="fill:#D3EDFF;" points="85.666664,190 63.666668,190 29.666666,190 69.666664,288.666656 121,288.666656 
	116.506226,270.666656 "/>
<polygon style="fill:#D3EDFF;" points="87,100.666664 11,100.666664 11,190 85.666664,190 "/>
<polygon style="fill:#B3DAF5;" points="25.406828,110.666664 25.406828,115.334244 25.406828,180.336777 25.406828,185.004364 
	30.074408,185.004364 82.344688,185.004364 87.01226,185.004364 87.01226,180.336777 87.01226,115.334244 87.01226,110.666664 
	82.344688,110.666664 30.074408,110.666664 "/>
<polygon style="fill:#B3DAF5;" points="76.246689,273.377167 77.441223,276.258392 80.559868,276.258392 112.181694,276.258392 
	119.16745,276.258392 116.493965,269.804443 87.395325,199.559265 86.201759,196.677979 83.083107,196.677979 51.459351,196.677979 
	44.473537,196.677979 47.147137,203.131973 "/>
<polygon style="fill:#FFFFFF;" points="243,12.666667 217.666672,32 181.666672,62.666668 144.5,86 103,97.333336 87,100.666664 
	85.666664,190 109,193.333328 145.500031,206.666672 186.333328,232 215.666672,253.333328 243,276.258392 246.333328,266.985107 
	"/>
<rect x="244.380707" y="118.008118" style="fill:#F36C6D;" width="35.285965" height="52.65855"/>
<path style="opacity:0.05;fill:#2A3038;" d="M85.666687,190L109,193.333313l36.500061,13.333374L186.333313,232l29.333374,21.333313
	L243,276.258362l3.333313-9.273254l-0.691162-52.730713c-40.34668-35.53833-96.474792-59.131531-159.389648-63.504211L85.666687,190
	z"/>
<path style="fill:#2A3038;" d="M285.000061,171.496521v-53.818542c-0.000305-2.775513-2.259033-5.033997-5.035095-5.033997
	h-25.82196h-5v-5V10.044006c-0.000977-2.773438-2.259644-5.03125-5.034973-5.031372h-0.003662
	c-1.343018,0.000427-2.607117,0.524536-3.5578,1.47583C195.456787,51.6026,156.361389,73.157532,131.504272,83.295776
	c-26.882507,10.96405-43.616638,11.400146-44.315857,11.41333l-0.047119,0.000916h-0.047241H11.033997
	c-2.776123,0-5.033447,2.256897-5.033997,5.031006v89.692993c0.000305,2.773315,2.257202,5.029968,5.031006,5.029968h10.213989
	h3.34082l1.278564,3.086487l37.927979,91.561035c0.782043,1.887451,2.607727,3.1073,4.651123,3.107483h55.228394l0.381104-0.000732
	h0.095642c2.737061-0.046997,4.949097-2.288269,4.948608-5.036133c-0.000122-0.764465-0.178223-1.53125-0.514893-2.217407
	l-0.069946-0.142456l-0.06073-0.146667l-33.844971-81.700012l-3.577637-8.636108l9.169312,1.817993
	c11.664673,2.312744,30.635193,7.799133,54.768555,20.802429c28.604492,15.412415,57.399597,37.52594,85.58551,65.726501
	c0.950806,0.952087,2.213379,1.475586,3.55658,1.475586h0.130371c2.720093-0.056335,4.928101-2.306702,4.928589-5.030945
	c0-0.102112-0.002258-0.205322-0.009033-0.307007l-0.010925-0.165344v-0.16571v-96.962952v-5h5h25.820007
	C282.742676,176.529724,285.000305,174.271729,285.000061,171.496521z M21.068054,184.401978h-5v-5V109.77002v-5h5h55.99292h5v5
	v69.631958v5h-5H21.068054z M113.642334,275.241455l2.863892,6.913574h-7.483276H75.149048h-3.340759l-1.279602-3.086426
	l-31.171997-75.247986l-2.864014-6.913635h7.483337H77.85199h3.340759l1.278564,3.086487L113.642334,275.241455z
	 M239.074036,33.484009v138.034973v84.169006v11.297119l-8.362-7.59613
	c-27.698547-25.161743-55.832825-44.569153-83.621399-57.682922c-22.670227-10.698425-40.084412-14.836487-50.701111-16.424072
	l-4.260559-0.637024v-4.307983l0.000061-71.5v-4.30835l4.261047-0.636719c10.613403-1.585999,28.024597-5.722961,50.69928-16.4245
	c27.787292-13.114502,55.922058-32.522339,83.622803-57.684448l8.361877-7.595581V33.484009z M274.92804,127.70697v33.756042v5h-5
	h-15.785034h-5v-5V127.70697v-5h5h15.785034h5V127.70697z"/>
</svg>
