<?xml version="1.0" encoding="utf-8"?>
<!-- Generator: Adobe Illustrator 19.2.1, SVG Export Plug-In . SVG Version: 6.00 Build 0)  -->
<svg version="1.0" id="Слой_1" xmlns="http://www.w3.org/2000/svg" xmlns:xlink="http://www.w3.org/1999/xlink" x="0px" y="0px"
	 viewBox="0 0 1128.759033 834.100098" style="enable-background:new 0 0 1128.759033 834.100098;" xml:space="preserve">
<g>
	<path style="fill:#CFD5E9;" d="M984.519043,834.100098h-9.75c-0.552246,0-1-0.447754-1-1s0.447754-1,1-1h9.75
		c1.75,0,3.52002-0.030029,5.25-0.070068c0.549194-0.008789,1.005737,0.421143,1.030029,0.969971
		c0.016846,0.552002-0.416992,1.013184-0.969116,1.030029c-0.000244,0-0.00061,0-0.000854,0
		C988.069092,834.080078,986.279053,834.100098,984.519043,834.100098z"/>
	<path style="fill:#CFD5E9;" d="M954.718994,834.100098h-15.040039c-0.552246,0-1-0.447754-1-1s0.447754-1,1-1h15.040039
		c0.552246,0,1,0.447754,1,1S955.27124,834.100098,954.718994,834.100098z"/>
	<path style="fill:#CFD5E9;" d="M919.648987,834.100098h-15.032959c-0.552307,0-1-0.447754-1-1s0.447693-1,1-1h15.03302
		c0.552307,0,1,0.447754,1,1s-0.447693,1-1,1H919.648987z"/>
	<path style="fill:#CFD5E9;" d="M884.554993,834.100098h-15.064941c-0.552307,0-1-0.447754-1-1s0.447693-1,1-1h15.06897
		c0.552307,0,1,0.447754,1,1s-0.447693,1-1,1H884.554993z"/>
	<path style="fill:#CFD5E9;" d="M849.438965,834.100098h-15.037903c-0.552307,0-1-0.447754-1-1s0.447693-1,1-1h15.037964
		c0.552307,0,1,0.447754,1,1s-0.447693,1-1,1H849.438965z"/>
	<path style="fill:#CFD5E9;" d="M814.346985,834.100098h-15.03894c-0.552307,0-1-0.447754-1-1s0.447693-1,1-1h15.039001
		c0.552307,0,1,0.447754,1,1s-0.447693,1-1,1H814.346985z"/>
	<path style="fill:#CFD5E9;" d="M779.255981,834.100098h-15.03894c-0.552307,0-1-0.447754-1-1s0.447693-1,1-1h15.041992
		c0.552307,0,1,0.447754,1,1s-0.447693,1-1,1H779.255981z"/>
	<path style="fill:#CFD5E9;" d="M744.162964,834.100098h-15.039978c-0.552307,0-1-0.447754-1-1s0.447693-1,1-1h15.036072
		c0.552307,0,1,0.447754,1,1s-0.447693,1-1,1H744.162964z"/>
	<path style="fill:#CFD5E9;" d="M709.06897,834.100098h-15.040955c-0.552307,0-1-0.447754-1-1s0.447693-1,1-1h15.041016
		c0.552307,0,1,0.447754,1,1s-0.447693,1-1,1H709.06897z"/>
	<path style="fill:#CFD5E9;" d="M673.968994,834.100098H658.93103c-0.552307,0-1-0.447754-1-1s0.447693-1,1-1h15.041992
		c0.552307,0,1,0.447754,1,1s-0.447693,1-1,1H673.968994z"/>
	<path style="fill:#CFD5E9;" d="M638.869019,834.100098h-15.041016c-0.552307,0-1-0.447754-1-1s0.447693-1,1-1h15.044983
		c0.552307,0,1,0.447754,1,1c0.000061,0.552246-0.447632,1-0.999939,1H638.869019z"/>
	<path style="fill:#CFD5E9;" d="M603.769043,834.100098h-15.049011c-0.552307,0-1-0.447754-1-1s0.447693-1,1-1h15.049011
		c0.552307,0,1,0.447754,1,1S604.32135,834.100098,603.769043,834.100098z"/>
	<path style="fill:#CFD5E9;" d="M1009.749023,832.370117c-0.552246-0.000732-0.999512-0.44873-0.998901-1.001221
		c0.00061-0.497314,0.366577-0.918701,0.858887-0.98877c4.97998-0.709961,9.910034-1.639893,14.650024-2.780029
		c0.527588-0.163574,1.087769,0.131592,1.251221,0.65918s-0.131714,1.087646-0.659302,1.251221
		c-0.039917,0.012451-0.080688,0.022217-0.121948,0.029541c-4.810059,1.159912-9.800049,2.110107-14.839966,2.820068
		C1009.842773,832.368164,1009.795898,832.371338,1009.749023,832.370117z"/>
	<path style="fill:#CFD5E9;" d="M1043.578979,823.570068c-0.552246-0.00415-0.996582-0.455322-0.99231-1.007568
		c0.003174-0.407715,0.253296-0.772461,0.632324-0.922363c4.622803-1.822266,9.140015-3.9021,13.530029-6.22998
		c0.48877-0.259521,1.095459-0.07373,1.35498,0.415039s0.07373,1.095459-0.415039,1.35498l0,0
		c-4.457275,2.36377-9.044556,4.473877-13.73999,6.320068C1043.831421,823.547363,1043.705688,823.571045,1043.578979,823.570068z"
		/>
	<path style="fill:#CFD5E9;" d="M1074.109009,806.570068c-0.312988,0.002441-0.609131-0.141846-0.800049-0.389893
		c-0.329468-0.445801-0.240479-1.073486,0.199951-1.409912c3.970947-2.985596,7.760986-6.20459,11.349976-9.639893
		c0.398193-0.379639,1.02832-0.366211,1.410034,0.030029c0.381714,0.401123,0.368286,1.035156-0.030029,1.419922
		c-3.644775,3.490234-7.494995,6.759521-11.530029,9.790039C1074.537109,806.502441,1074.325684,806.572998,1074.109009,806.570068z
		"/>
	<path style="fill:#CFD5E9;" d="M1098.848999,781.910156c-0.216064-0.001953-0.425903-0.072021-0.599976-0.199951
		c-0.441162-0.332275-0.529419-0.959229-0.197144-1.400391c0.002319-0.003174,0.004761-0.006348,0.007202-0.009521
		c2.99939-3.958984,5.770508-8.085693,8.300049-12.360107c0.280762-0.475342,0.891846-0.635742,1.369995-0.360107
		c0.47229,0.28833,0.627808,0.901367,0.349976,1.379883c-2.569336,4.340088-5.383911,8.530273-8.430054,12.550049
		c-0.188843,0.251709-0.485352,0.399902-0.800049,0.399902V781.910156z"/>
	<path style="fill:#CFD5E9;" d="M1118.909058,648.530151c-0.428101-0.004639-0.807617-0.276367-0.949951-0.680054
		c-1.602051-4.710327-3.45813-9.330444-5.560059-13.839966c-0.265747-0.484131-0.088623-1.092041,0.39563-1.357788
		c0.484131-0.265625,1.092041-0.088501,1.357666,0.39563c0.021729,0.039429,0.040649,0.0802,0.056763,0.122192
		c2.131836,4.572754,4.017822,9.256104,5.650024,14.030029c0.174072,0.524536-0.107056,1.091309-0.630005,1.27002
		c-0.101929,0.040039-0.210571,0.060303-0.320068,0.059814V648.530151z"/>
	<path style="fill:#CFD5E9;" d="M1103.529053,617.120117c-0.334473-0.001709-0.645996-0.170654-0.829956-0.449951
		c-2.748657-4.144897-5.733521-8.128174-8.939941-11.930054c-0.356201-0.422485-0.30249-1.053833,0.119995-1.410034
		s1.053833-0.30249,1.410034,0.119995c3.253052,3.861816,6.284546,7.905029,9.079956,12.109985
		c0.302124,0.470825,0.165283,1.097534-0.305542,1.399658c-0.159668,0.102417-0.344849,0.157959-0.534546,0.160278V617.120117z"/>
	<path style="fill:#CFD5E9;" d="M1080.439087,590.860107c-0.238281-0.00061-0.468506-0.085571-0.650024-0.23999
		c-3.76416-3.245239-7.717773-6.263916-11.839966-9.040039c-0.458374-0.309326-0.579346-0.931641-0.27002-1.390015
		s0.931641-0.579346,1.390015-0.27002l0,0c4.182373,2.822876,8.195923,5.888184,12.02002,9.180054
		c0.419678,0.359009,0.468872,0.990234,0.109863,1.409912c-0.190063,0.222168-0.467651,0.349976-0.759888,0.349976V590.860107z"/>
	<path style="fill:#CFD5E9;" d="M1051.089111,571.910156c-0.145996,0.001221-0.290161-0.033081-0.420044-0.099976
		c-4.504272-2.106201-9.121216-3.96228-13.829956-5.560059c-0.515381-0.198486-0.772217-0.777222-0.57373-1.292603
		c0.188477-0.489014,0.72229-0.749634,1.223755-0.597412c4.776367,1.621826,9.460083,3.504639,14.030029,5.640015
		c0.502563,0.228882,0.724487,0.822021,0.495483,1.324585c-0.164795,0.361694-0.528198,0.591553-0.925659,0.585327
		L1051.089111,571.910156z"/>
	<path style="fill:#CFD5E9;" d="M1017.829102,561.170166c-0.067261,0.003296-0.134644-0.00354-0.199951-0.02002
		c-4.790039-0.930054-9.75-1.660034-14.76001-2.170044c-0.549561-0.057983-0.947998-0.550415-0.890015-1.099976
		s0.550415-0.947998,1.099976-0.890015l0,0c5.060059,0.51001,10.089966,1.25,14.939941,2.199951
		c0.54126,0.109863,0.890991,0.637695,0.781128,1.178955c-0.093994,0.462769-0.498901,0.796875-0.971191,0.801025
		L1017.829102,561.170166z"/>
	<path style="fill:#CFD5E9;" d="M982.979126,558.07019h-15.030029c-0.552246,0-1-0.447754-1-1s0.447754-1,1-1h15.030029
		c0.52063,0.184204,0.773315,0.812622,0.589111,1.333374c-0.100708,0.284668-0.324707,0.508667-0.589233,0.666382
		L982.979126,558.07019z"/>
	<path style="fill:#CFD5E9;" d="M947.87915,558.07019h-15.050049c-0.552246,0-1-0.447754-1-1s0.447754-1,1-1h15.050049
		c0.52063,0.184204,0.773315,0.812622,0.589111,1.333374c-0.100708,0.284668-0.324707,0.508667-0.589233,0.666382
		L947.87915,558.07019z"/>
	<path style="fill:#CFD5E9;" d="M912.759155,558.07019h-15.042114c-0.552307,0-1-0.447754-1-1s0.447693-1,1-1h15.041992
		c0.552246,0.008667,0.992859,0.463257,0.984253,1.015503c-0.008423,0.540039-0.444214,0.97583-0.984253,0.984253
		L912.759155,558.07019z"/>
	<path style="fill:#CFD5E9;" d="M877.653137,558.07019h-15.043091c-0.552307,0-1-0.447754-1-1s0.447693-1,1-1h15.04303
		c0.450867,0.31897,0.428101,1.126465,0.109192,1.577271c-0.065552,0.092651-0.146362,0.173462-0.109253,0.422485
		L877.653137,558.07019z"/>
	<path style="fill:#CFD5E9;" d="M842.553162,558.07019h-15.044128c-0.552307,0-1-0.447754-1-1s0.447693-1,1-1h15.041016
		c0.552246,0.008667,0.992859,0.463257,0.984253,1.015503c-0.008423,0.540039-0.444214,0.97583-0.984253,0.984253
		L842.553162,558.07019z"/>
	<path style="fill:#CFD5E9;" d="M807.453186,558.07019h-15.039978c-0.552307,0-1-0.447754-1-1s0.447693-1,1-1h15.039978
		c0.552307,0.000854,0.999268,0.449219,0.998413,1.001465s-0.44928,0.999268-1.001587,0.998291L807.453186,558.07019z"/>
	<path style="fill:#CFD5E9;" d="M772.35321,558.07019h-15.039978c-0.552307,0-1-0.447754-1-1s0.447693-1,1-1h15.039978
		c0.552124,0.012817,0.989319,0.470947,0.976562,1.023071c-0.012451,0.534912-0.443787,0.965332-0.97876,0.976685
		L772.35321,558.07019z"/>
	<path style="fill:#CFD5E9;" d="M737.253235,558.07019h-15.039978c-0.552307,0-1-0.447754-1-1s0.447693-1,1-1h15.045776
		c0.552246,0.008667,0.992859,0.463257,0.984253,1.015503c-0.008423,0.540039-0.444214,0.97583-0.984253,0.984253
		L737.253235,558.07019z"/>
	<path style="fill:#CFD5E9;" d="M702.153259,558.07019h-15.033203c-0.552307,0-1-0.447754-1-1s0.447693-1,1-1h15.039001
		c0.552246,0.008667,0.992859,0.463257,0.984253,1.015503c-0.008423,0.540039-0.444214,0.97583-0.984253,0.984253
		L702.153259,558.07019z"/>
	<path style="fill:#CFD5E9;" d="M667.053284,558.07019h-15.028259c-0.552307,0-1-0.447754-1-1s0.447693-1,1-1h15.039001
		c0.552246-0.008667,1.006897,0.432007,1.015503,0.984253s-0.432007,1.006836-0.984253,1.015503
		c-0.010437,0.000122-0.020813,0.000122-0.03125,0L667.053284,558.07019z"/>
	<path style="fill:#CFD5E9;" d="M631.958252,558.07019H616.93103c-0.552307,0-1-0.447754-1-1s0.447693-1,1-1h15.038025
		c0.552246,0.008667,0.992859,0.463257,0.984253,1.015503c-0.008423,0.540039-0.444214,0.97583-0.984253,0.984253
		L631.958252,558.07019z"/>
	<path style="fill:#CFD5E9;" d="M596.867249,558.07019H581.83905c-0.552307,0-1-0.447754-1-1s0.447693-1,1-1h15.039001
		c0.552246,0.008667,0.992859,0.463257,0.984253,1.015503c-0.008423,0.540039-0.444214,0.97583-0.984253,0.984253
		L596.867249,558.07019z"/>
	<path style="fill:#CFD5E9;" d="M561.731262,558.07019h-15.04425c-0.552307,0-1-0.447754-1-1s0.447693-1,1-1h15.054993
		c0.552246,0.008667,0.992859,0.463257,0.984253,1.015503c-0.008423,0.540039-0.444214,0.97583-0.984253,0.984253
		L561.731262,558.07019z"/>
	<path style="fill:#CFD5E9;" d="M526.631287,558.07019h-15.003265c-0.552307,0-1-0.447754-1-1s0.447693-1,1-1h15.013031
		c0.552246,0.008667,0.992859,0.463257,0.984253,1.015503c-0.008423,0.540039-0.444214,0.97583-0.984253,0.984253
		L526.631287,558.07019z"/>
	<path style="fill:#CFD5E9;" d="M491.62326,558.07019h-15.029236c-0.552307,0-1-0.447754-1-1s0.447693-1,1-1h15.039001
		c0.552246,0.008667,0.992859,0.463257,0.984253,1.015503c-0.008423,0.540039-0.444214,0.97583-0.984253,0.984253
		L491.62326,558.07019z"/>
	<path style="fill:#CFD5E9;" d="M456.529266,558.07019h-15.029236c-0.552307,0-1-0.447754-1-1s0.447693-1,1-1h15.039001
		c0.552246,0.008667,0.992859,0.463257,0.984253,1.015503c-0.008423,0.540039-0.444214,0.97583-0.984253,0.984253
		L456.529266,558.07019z"/>
	<path style="fill:#CFD5E9;" d="M421.429291,558.07019h-15.024292c-0.552277,0-1-0.447754-1-1s0.447723-1,1-1H421.444
		c0.552246-0.008667,1.006897,0.432007,1.015503,0.984253s-0.432007,1.006836-0.984253,1.015503
		c-0.010437,0.000122-0.020813,0.000122-0.03125,0L421.429291,558.07019z"/>
	<path style="fill:#CFD5E9;" d="M386.329285,558.07019H371.30899c-0.552277,0-1-0.447754-1-1s0.447723-1,1-1h15.039001
		c0.552216-0.008667,1.006866,0.432007,1.015503,0.984253s-0.432037,1.006836-0.984253,1.015503
		c-0.010406,0.000122-0.020844,0.000122-0.03125,0L386.329285,558.07019z"/>
	<path style="fill:#CFD5E9;" d="M351.229279,558.07019h-15.01828c-0.552277,0-1-0.447754-1-1s0.447723-1,1-1h15.040985
		c0.781158,0,1.414398,0.21875,1.414398,0.999878s-0.633209,1.414429-1.414368,0.999878L351.229279,558.07019z"/>
	<path style="fill:#CFD5E9;" d="M316.129272,558.07019H301.112c-0.552277,0-1-0.447754-1-1s0.447723-1,1-1h15.040985
		c0.781158,0,1.414398,0.21875,1.414398,0.999878s-0.633209,1.414429-1.414368,0.999878L316.129272,558.07019z"/>
	<path style="fill:#CFD5E9;" d="M281.029266,558.07019H266.01001c-0.552277,0-1-0.447754-1-1s0.447723-1,1-1h15.041992
		c0.552216,0.008667,0.992889,0.463257,0.984253,1.015503c-0.008453,0.540039-0.444214,0.97583-0.984253,0.984253
		L281.029266,558.07019z"/>
	<path style="fill:#CFD5E9;" d="M245.924255,558.07019h-15.02124c-0.552277,0-1-0.447754-1-1s0.447723-1,1-1h15.044006
		c0.781158,0,1.414368,0.21875,1.414368,0.999878s-0.63327,1.414429-1.414398,0.999878L245.924255,558.07019z"/>
	<path style="fill:#CFD5E9;" d="M210.816254,558.07019h-15.023254c-0.552277,0-1-0.447754-1-1s0.447723-1,1-1h15.04599
		c0.552216-0.008667,1.006866,0.432007,1.015503,0.984253s-0.432037,1.006836-0.984253,1.015503
		c-0.010406,0.000122-0.020844,0.000122-0.03125,0L210.816254,558.07019z"/>
	<path style="fill:#CFD5E9;" d="M175.70224,558.07019h-15.049988c-0.552307,0-1-0.447754-1-1s0.447693-1,1-1h15.049988
		c0.552277-0.000366,1.000305,0.447021,1.000671,0.999268c0.000397,0.543945-0.434082,0.988525-0.977905,1.000488
		L175.70224,558.07019z"/>
	<path style="fill:#CFD5E9;" d="M140.588257,558.030151h-0.02002c-5.092987-0.099976-10.161987-0.410034-15.066994-0.910034
		c-0.549515-0.055176-0.950226-0.545532-0.895004-1.094971c0.055237-0.549561,0.545486-0.950195,1.095001-0.89502
		c4.851006,0.48999,9.865013,0.800049,14.899986,0.900024c0.552277,0.002563,0.997894,0.452393,0.995331,1.004639
		c-0.002563,0.5448-0.440765,0.987305-0.985535,0.995239L140.588257,558.030151z"/>
	<path style="fill:#CFD5E9;" d="M105.85125,553.910156c-0.075333-0.000244-0.150299-0.010254-0.223007-0.030029
		c-4.91629-1.11145-9.772614-2.473145-14.550003-4.079956c-0.535019-0.136963-0.857666-0.681763-0.720657-1.216797
		c0.137024-0.535034,0.681808-0.857666,1.216827-0.720703c0.04805,0.012329,0.095123,0.028198,0.140823,0.047485
		c4.7146,1.581909,9.506424,2.923706,14.356995,4.02002c0.541168,0.110229,0.890457,0.638428,0.780167,1.179565
		c-0.094803,0.46521-0.503616,0.799561-0.978378,0.800293L105.85125,553.910156z"/>
	<path style="fill:#CFD5E9;" d="M72.959007,542.130005c-0.157898,0.002563-0.313843-0.035278-0.453003-0.109985
		c-4.497955-2.285767-8.861725-4.82666-13.069992-7.609985c-0.46582-0.296631-0.602936-0.914795-0.306244-1.380615
		c0.296677-0.46582,0.914825-0.603027,1.380646-0.306274c0.008621,0.005493,0.017151,0.011108,0.025604,0.016846
		c4.142319,2.745728,8.439819,5.25,12.871002,7.5c0.491562,0.251831,0.685944,0.85437,0.434174,1.345947
		C73.67141,541.917358,73.331444,542.127075,72.959007,542.130005z"/>
	<path style="fill:#CFD5E9;" d="M44.232002,522.23999c-0.250031,0.003174-0.491714-0.089966-0.675003-0.26001
		c-3.717697-3.416138-7.230164-7.049194-10.518997-10.880005c-0.374634-0.405762-0.349373-1.038452,0.056427-1.413086
		c0.405792-0.374634,1.038452-0.349365,1.413086,0.056396c0.016861,0.018311,0.033035,0.037231,0.048485,0.056641
		c3.240517,3.767944,6.697701,7.343994,10.353996,10.709961c0.404541,0.373657,0.430923,1.003906,0.059006,1.410034
		c-0.187241,0.206665-0.454102,0.323242-0.732986,0.320068H44.232002z"/>
	<path style="fill:#CFD5E9;" d="M21.976006,495.300049c-0.345154-0.00061-0.665932-0.177979-0.849998-0.469971
		c-2.657005-4.289429-5.074051-8.7229-7.239998-13.280029c-0.23748-0.499023-0.025482-1.096069,0.473503-1.333496
		c0.498993-0.237427,1.096016-0.025513,1.333496,0.473511c2.13092,4.489868,4.512001,8.856689,7.131996,13.079956
		c0.292519,0.468506,0.149895,1.085327-0.318558,1.377808c-0.001144,0.000732-0.002296,0.001465-0.003441,0.002197
		c-0.157448,0.09668-0.338264,0.148438-0.522995,0.150024H21.976006z"/>
	<path style="fill:#CFD5E9;" d="M13.517006,360.660034c-0.552284,0-0.999969-0.447754-0.999931-1.000122
		c0.000008-0.141235,0.029976-0.281006,0.087929-0.409912c2.067024-4.604736,4.387238-9.091553,6.949997-13.439941
		c0.307686-0.458618,0.928909-0.581055,1.38755-0.273315c0.419907,0.281738,0.563454,0.83252,0.33445,1.283325
		c-2.523643,4.287842-4.809753,8.711182-6.848,13.25c-0.160797,0.357666-0.515831,0.588379-0.90799,0.589966H13.517006z"/>
	<path style="fill:#CFD5E9;" d="M31.875008,330.900024c-0.231369-0.002197-0.455063-0.083252-0.634003-0.22998
		c-0.427612-0.349487-0.490913-0.979492-0.141388-1.407104c0.000793-0.000977,0.001595-0.001953,0.002388-0.00293
		c3.202713-3.904785,6.632301-7.61792,10.271004-11.119995c0.411926-0.36792,1.044083-0.332153,1.411972,0.079712
		c0.348618,0.390381,0.337296,0.983521-0.02597,1.360229c-3.581024,3.449341-6.956802,7.105591-10.110001,10.949951
		c-0.189018,0.231567-0.471123,0.367188-0.769997,0.370117H31.875008z"/>
	<path style="fill:#CFD5E9;" d="M57.535011,307.170044c-0.552292-0.000244-0.999802-0.44812-0.999573-1.000488
		c0.000153-0.326538,0.159775-0.632446,0.427567-0.819458c4.146133-2.876709,8.45314-5.514404,12.899994-7.900024
		c0.484467-0.262451,1.089951-0.083618,1.354004,0.400024c0.261536,0.488647,0.078659,1.09668-0.408997,1.359985
		c-4.379608,2.34668-8.62001,4.944336-12.699997,7.780029c-0.164917,0.120483-0.364777,0.183716-0.569,0.179932H57.535011z"/>
	<path style="fill:#CFD5E9;" d="M88.619011,291.210083c-0.552277-0.001831-0.998505-0.45105-0.996674-1.003296
		c0.001404-0.419434,0.26442-0.793457,0.658676-0.936646c4.744888-1.702759,9.573883-3.161377,14.468002-4.369995
		c0.530884-0.152222,1.084686,0.154663,1.236954,0.685547s-0.154648,1.084717-0.685532,1.236938
		c-0.023254,0.006714-0.046738,0.012451-0.070419,0.017456c-4.865997,1.209961-9.667999,2.660034-14.272995,4.310059
		c-0.107117,0.038818-0.220078,0.059082-0.334015,0.059814L88.619011,291.210083z"/>
	<path style="fill:#CFD5E9;" d="M122.678017,283.300049c-0.552139-0.012817-0.989334-0.470825-0.976501-1.022949
		c0.011383-0.489624,0.375595-0.898804,0.860504-0.967041c4.899994-0.589966,9.960014-0.969971,15.050987-1.160034
		c0.552307-0.019653,1.0159,0.412231,1.035522,0.964478c0.019592,0.552368-0.412231,1.015869-0.964508,1.035522
		c-5.036011,0.180054-10.044014,0.569946-14.885002,1.140015c-0.038467,0.007935-0.077744,0.01123-0.117004,0.01001H122.678017z"/>
	<path style="fill:#CFD5E9;" d="M980.015015,282.030029h-15.050049c-0.552246,0-1-0.447754-1-1s0.447754-1,1-1h15.050049
		c0.552246,0.005005,0.995972,0.456787,0.990967,1.009033c-0.005005,0.543701-0.443359,0.983765-0.986938,0.990967H980.015015z"/>
	<path style="fill:#CFD5E9;" d="M944.905029,282.030029h-15.046021c-0.552307,0-1-0.447754-1-1s0.447693-1,1-1h15.050049
		c0.552246,0,1,0.447754,1,1s-0.447754,1-1,1H944.905029z"/>
	<path style="fill:#CFD5E9;" d="M909.795044,282.030029h-15.036011c-0.552307,0-1-0.447754-1-1s0.447693-1,1-1h15.044983
		c0.552307,0.001343,0.998901,0.450195,0.997498,1.002441c-0.001404,0.552368-0.450195,0.998901-1.002502,0.997559H909.795044z"/>
	<path style="fill:#CFD5E9;" d="M874.689026,282.030029h-15.037964c-0.552307,0-1-0.447754-1-1s0.447693-1,1-1h15.041992
		c0.552307,0,1,0.447754,1,1s-0.447693,1-1,1H874.689026z"/>
	<path style="fill:#CFD5E9;" d="M839.58905,282.030029h-15.039978c-0.552307,0-1-0.447754-1-1s0.447693-1,1-1h15.039978
		c0.552246,0.005249,0.995667,0.457275,0.990417,1.009521c-0.005188,0.543701-0.443787,0.983643-0.987427,0.990479H839.58905z"/>
	<path style="fill:#CFD5E9;" d="M804.489075,282.030029h-15.030029c-0.552307,0-1-0.447754-1-1s0.447693-1,1-1h15.039001
		c0.552307,0.001343,0.998901,0.450195,0.997498,1.002441c-0.001404,0.552368-0.450195,0.998901-1.002502,0.997559H804.489075z"/>
	<path style="fill:#CFD5E9;" d="M769.389099,282.030029h-15.03009c-0.552307,0-1-0.447754-1-1s0.447693-1,1-1h15.039978
		c0.552307,0.000244,0.999756,0.448242,0.999512,1.000488s-0.448181,0.999756-1.000488,0.999512H769.389099z"/>
	<path style="fill:#CFD5E9;" d="M734.295105,282.030029h-15.039978c-0.552307,0-1-0.447754-1-1s0.447693-1,1-1h15.039978
		c0.552307-0.002441,1.002014,0.443237,1.004456,0.995483c0.002441,0.552368-0.443237,1.002075-0.995544,1.004517H734.295105z"/>
	<path style="fill:#CFD5E9;" d="M699.201111,282.030029h-15.03009c-0.552307,0-1-0.447754-1-1s0.447693-1,1-1h15.039001
		c0.552307,0,1,0.447754,1,1s-0.447693,1-1,1H699.201111z"/>
	<path style="fill:#CFD5E9;" d="M664.107117,282.030029h-15.03009c-0.552307,0-1-0.447754-1-1s0.447693-1,1-1h15.039001
		c0.552307,0,1,0.447754,1,1s-0.447693,1-1,1H664.107117z"/>
	<path style="fill:#CFD5E9;" d="M629.016113,282.030029h-15c-0.552307,0-1-0.447754-1-1s0.447693-1,1-1h15
		c0.552307-0.002441,1.002014,0.443237,1.004456,0.995483c0.002441,0.552368-0.443237,1.002075-0.995544,1.004517H629.016113z"/>
	<path style="fill:#CFD5E9;" d="M593.976135,282.030029h-15.036072c-0.552307,0-1-0.447754-1-1s0.447693-1,1-1h15.044983
		c0.552307,0,1,0.447754,1,1s-0.447693,1-1,1H593.976135z"/>
	<path style="fill:#CFD5E9;" d="M558.848145,282.030029h-15.076111c-0.552307,0-1-0.447754-1-1s0.447693-1,1-1h15.086975
		c0.552307,0,1,0.447754,1,1s-0.447693,1-1,1H558.848145z"/>
	<path style="fill:#CFD5E9;" d="M523.709167,282.030029h-15.029144c-0.552307,0-1-0.447754-1-1s0.447693-1,1-1h15.038055
		c0.552307,0,1,0.447754,0.999939,1c0,0.552368-0.447693,1-1,1H523.709167z"/>
	<path style="fill:#CFD5E9;" d="M488.617157,282.030029h-15.029175c-0.552307,0-1-0.447754-1-1s0.447693-1,1-1h15.038025
		c0.552307,0,1,0.447754,1,1s-0.447693,1-1,1H488.617157z"/>
	<path style="fill:#CFD5E9;" d="M453.523163,282.030029h-15.029175c-0.552307,0-1-0.447754-1-1s0.447693-1,1-1h15.038025
		c0.552307,0,1,0.447754,1,1s-0.447693,1-1,1H453.523163z"/>
	<path style="fill:#CFD5E9;" d="M418.430176,282.030029h-15.030182c-0.552277,0-1-0.447754-1-1s0.447723-1,1-1h15.039001
		c0.552307,0,1,0.447754,1,1s-0.447693,1-1,1H418.430176z"/>
	<path style="fill:#CFD5E9;" d="M383.336182,282.030029H368.306c-0.552277,0-1-0.447754-1-1s0.447723-1,1-1h15.039001
		c0.552277,0,1,0.447754,1,1s-0.447723,1-1,1H383.336182z"/>
	<path style="fill:#CFD5E9;" d="M348.236176,282.030029h-15.027161c-0.552277,0-1-0.447754-1-1s0.447723-1,1-1h15.040009
		c0.552277,0,1,0.447754,0.999969,1c0,0.552246-0.447723,1-1,1H348.236176z"/>
	<path style="fill:#CFD5E9;" d="M313.136169,282.030029h-15.040009c-0.552277,0-1-0.447754-1-1s0.447723-1,1-1h15.040009
		c0.552277-0.00415,1.003326,0.440308,1.007416,0.992554c0.004089,0.552368-0.440308,1.003296-0.992584,1.007446H313.136169z"/>
	<path style="fill:#CFD5E9;" d="M278.036163,282.030029h-15.025146c-0.552277,0-1-0.447754-1-1s0.447723-1,1-1h15.041016
		c0.552277,0,1,0.447754,0.999969,1c0,0.552246-0.447723,1-1,1H278.036163z"/>
	<path style="fill:#CFD5E9;" d="M242.936157,282.030029h-15.030151c-0.552277,0-1-0.447754-1-1s0.447723-1,1-1h15.044006
		c0.552277,0,1,0.447754,1,1s-0.447723,1-1,1H242.936157z"/>
	<path style="fill:#CFD5E9;" d="M207.828156,282.030029h-15.031158c-0.552277,0-1-0.447754-1-1s0.447723-1,1-1h15.045013
		c0.552277,0,1,0.447754,1,1s-0.447723,1-1,1H207.828156z"/>
	<path style="fill:#CFD5E9;" d="M172.716156,282.030029h-15.029144c-0.552307,0-1-0.447754-1-1s0.447693-1,1-1h15.042999
		c0.552277,0,1,0.447754,1,1s-0.447723,1-1,1H172.716156z"/>
	<path style="fill:#CFD5E9;" d="M1000.025146,281.400024c-0.551758-0.024414-0.979248-0.491455-0.954834-1.043213
		c0.021362-0.483276,0.385498-0.881958,0.864868-0.946777c5.02002-0.420044,10.01001-1.050049,14.810059-1.880005
		c0.541138-0.110352,1.069214,0.239014,1.179565,0.780151c0.110229,0.541138-0.239014,1.069214-0.780151,1.179565
		c-0.019653,0.004028-0.039551,0.007446-0.059448,0.010254c-4.859985,0.839966-9.900024,1.47998-14.97998,1.900024h-0.079956
		H1000.025146z"/>
	<path style="fill:#CFD5E9;" d="M1034.375122,274.849976c-0.552124,0.011353-1.009033-0.427002-1.020386-0.979126
		c-0.009399-0.452271,0.286011-0.854492,0.720337-0.980835c4.748535-1.477661,9.415161-3.206787,13.97998-5.180054
		c0.508057-0.21814,1.096802,0.016846,1.315063,0.524902c0.21814,0.508179-0.016968,1.096924-0.525024,1.315063
		c-4.626465,2.000977-9.356567,3.75354-14.170044,5.25c-0.092529,0.029907-0.188843,0.046753-0.286011,0.050049H1034.375122z"/>
	<path style="fill:#CFD5E9;" d="M1066.155151,260.319946c-0.344849-0.001953-0.665039-0.178955-0.849976-0.469971
		c-0.292969-0.46814-0.151123-1.085205,0.317017-1.378174c0.000977-0.00061,0.001953-0.001221,0.00293-0.001831
		c4.206055-2.643311,8.25293-5.531738,12.119995-8.650024c0.430786-0.3479,1.062134-0.280762,1.410034,0.150024
		s0.280762,1.062134-0.150024,1.410034c-3.929688,3.167358-8.043579,6.099243-12.319946,8.780029
		c-0.15271,0.102661-0.332153,0.158325-0.516113,0.159912H1066.155151z"/>
	<path style="fill:#CFD5E9;" d="M1092.905151,237.849976c-0.244385-0.003052-0.479248-0.095581-0.660034-0.26001
		c-0.411011-0.359741-0.452637-0.984497-0.092896-1.39563c0.004272-0.004761,0.008545-0.009644,0.012939-0.014404
		c3.33252-3.690186,6.444458-7.573608,9.319946-11.630005c0.318359-0.448853,0.939575-0.55603,1.390015-0.23999
		c0.45105,0.321411,0.558228,0.946655,0.23999,1.400024c-2.922119,4.116455-6.080688,8.059814-9.459961,11.810059
		c-0.18811,0.208496-0.455322,0.328247-0.736084,0.329956H1092.905151z"/>
	<path style="fill:#CFD5E9;" d="M1112.605103,208.97998c-0.15564,0.001465-0.30957-0.032715-0.449951-0.099976
		c-0.49292-0.252441-0.689453-0.855591-0.439941-1.349976c2.233887-4.441406,4.223511-9.001587,5.959961-13.660034
		c0.193237-0.519165,0.770874-0.783325,1.289917-0.589966c0.519165,0.193237,0.783325,0.770752,0.590088,1.289917
		c-1.765625,4.727051-3.788696,9.354004-6.060059,13.859985c-0.163818,0.334961-0.503296,0.548096-0.876099,0.550049H1112.605103z"
		/>
	<path style="fill:#CFD5E9;" d="M1109.965088,74.060059c-0.36377,0.00061-0.699707-0.194092-0.880005-0.51001
		c-2.41687-4.345947-5.081177-8.549438-7.97998-12.589966c-0.32312-0.450073-0.220093-1.076904,0.22998-1.400024
		s1.076904-0.220093,1.400024,0.22998c2.94104,4.105835,5.645386,8.376099,8.099976,12.790039
		c0.269287,0.478394,0.099609,1.084473-0.378784,1.35376c-0.003662,0.002075-0.007446,0.00415-0.01123,0.006226
		c-0.143799,0.07605-0.303467,0.117188-0.466064,0.119995H1109.965088z"/>
	<path style="fill:#CFD5E9;" d="M1089.025146,46.060059c-0.267822,0.001587-0.524536-0.106812-0.709961-0.300049
		c-3.496094-3.532959-7.195801-6.858643-11.079956-9.959961c-0.420288-0.358276-0.470459-0.989502-0.112183-1.40979
		c0.343018-0.402222,0.939819-0.46814,1.362183-0.150269c3.945801,3.149048,7.702393,6.52832,11.25,10.119995
		c0.38501,0.392822,0.380493,1.022705-0.01001,1.410034c-0.180298,0.185059-0.427734,0.289673-0.686157,0.290039H1089.025146z"/>
	<path style="fill:#CFD5E9;" d="M1061.295166,24.810059c-0.175171,0.000732-0.347412-0.044067-0.5-0.130005
		c-4.321289-2.457153-8.778442-4.667358-13.349976-6.619995c-0.508057-0.21814-0.743164-0.806885-0.525024-1.315063
		c0.218262-0.508057,0.807007-0.743042,1.315063-0.524902c4.639282,1.983887,9.163086,4.227417,13.550049,6.719971
		c0.480591,0.272217,0.649536,0.882446,0.377319,1.362915c-0.174561,0.30835-0.499268,0.501221-0.853516,0.50708H1061.295166z"/>
	<path style="fill:#CFD5E9;" d="M1028.935181,11.610107c-0.088257,0.001465-0.17627-0.012085-0.26001-0.040039
		c-4.719971-1.27002-9.619995-2.339966-14.579956-3.170044c-0.546753-0.093872-0.91394-0.613159-0.819946-1.159912
		c0.093872-0.546875,0.613159-0.91394,1.159912-0.820068l0,0c5.01001,0.849976,9.97998,1.930054,14.76001,3.219971
		c0.535645,0.134277,0.861084,0.67749,0.726807,1.213135c-0.111816,0.445923-0.513306,0.758179-0.973022,0.756836
		L1028.935181,11.610107z"/>
	<path style="fill:#CFD5E9;" d="M994.365234,6.250122h-0.050049c-3.219971-0.170044-6.52002-0.25-9.810059-0.25h-5.150024
		c-0.552246,0-1-0.447754-1-1s0.447754-1,1-1h5.150024c3.329956,0,6.660034,0.079956,9.920044,0.25
		c0.552246,0.012695,0.989624,0.470703,0.976929,1.023071c-0.012817,0.552246-0.470825,0.989502-1.023071,0.976807l0,0
		L994.365234,6.250122z"/>
	<path style="fill:#CFD5E9;" d="M959.255249,6.000122h-15.069946c-0.552246,0-1-0.447754-1-1s0.447754-1,1-1h15.069946
		c0.552246-0.008667,1.006836,0.432007,1.015503,0.984253s-0.432007,1.006836-0.984253,1.015503
		C959.28064,6,959.274902,6,959.269043,6L959.255249,6.000122z"/>
	<path style="fill:#CFD5E9;" d="M924.065247,6.000122h-15.059998c-0.552307,0-1-0.447754-1-1s0.447693-1,1-1h15.059998
		c0.552246-0.008667,1.006897,0.432007,1.015503,0.984253c0.008667,0.552246-0.432007,1.006836-0.984253,1.015503
		C924.090698,6,924.084839,6,924.079041,6L924.065247,6.000122z"/>
	<path style="fill:#CFD5E9;" d="M888.909241,6.000122h-15.043213c-0.552307,0-1-0.447754-1-1s0.447693-1,1-1h15.057007
		c0.552246,0.006104,0.994995,0.45874,0.988892,1.010986C889.905945,5.55481,889.466675,5.994019,888.923035,6L888.909241,6.000122z
		"/>
	<path style="fill:#CFD5E9;" d="M853.770264,6.000122h-15.037231c-0.552307,0-1-0.447754-1-1s0.447693-1,1-1h15.051025
		c0.552246-0.006104,1.004883,0.436646,1.010986,0.988892S854.358398,5.993896,853.806152,6
		c-0.007385,0.000122-0.014709,0.000122-0.022095,0L853.770264,6.000122z"/>
	<path style="fill:#CFD5E9;" d="M818.645264,6.000122h-15.034241c-0.552307,0-1-0.447754-1-1s0.447693-1,1-1h15.048035
		c0.552246-0.006104,1.004883,0.436646,1.010986,0.988892S819.233398,5.993896,818.681152,6
		c-0.007385,0.000122-0.014709,0.000122-0.022095,0L818.645264,6.000122z"/>
	<path style="fill:#CFD5E9;" d="M783.526245,6.000122h-15.032227c-0.552307,0-1-0.447754-1-1s0.447693-1,1-1h15.046021
		c0.552246,0.006104,0.994995,0.45874,0.988892,1.010986C784.522949,5.55481,784.083679,5.994019,783.540039,6L783.526245,6.000122z
		"/>
	<path style="fill:#CFD5E9;" d="M748.415222,6.000122h-15.029175c-0.552307,0-1-0.447754-1-1s0.447693-1,1-1h15.042969
		c0.552246-0.006104,1.004883,0.436646,1.010986,0.988892S749.003357,5.993896,748.451111,6
		c-0.007385,0.000122-0.014709,0.000122-0.022095,0L748.415222,6.000122z"/>
	<path style="fill:#CFD5E9;" d="M713.309204,6.000122h-15.029175c-0.552307,0-1-0.447754-1-1s0.447693-1,1-1h15.04303
		c0.552246,0.006104,0.994995,0.45874,0.988892,1.010986C714.305969,5.55481,713.866699,5.994019,713.323059,6L713.309204,6.000122z
		"/>
	<path style="fill:#CFD5E9;" d="M678.204224,6.000122h-15.027161c-0.552307,0-1-0.447754-1-1s0.447693-1,1-1h15.041016
		c0.41748,0.361572,0.251343,1.237183-0.110229,1.654663C678.076538,5.690918,678.042725,5.724731,678.218018,6L678.204224,6.000122
		z"/>
	<path style="fill:#CFD5E9;" d="M643.104248,6.000122H628.06427c-0.552307,0-1-0.447754-1-1s0.447693-1,1-1h15.039978
		c0.552307,0.001831,0.998535,0.450928,0.996704,1.003296C644.099182,5.548584,643.661133,5.991821,643.116028,6
		L643.104248,6.000122z"/>
	<path style="fill:#CFD5E9;" d="M608.004272,6.000122h-15.025269c-0.552307,0-1-0.447754-1-1s0.447693-1,1-1h15.039978
		c0.41748,0.361572,0.251404,1.237183-0.110168,1.654663C607.877563,5.690918,607.84375,5.724731,608.019043,6L608.004272,6.000122z
		"/>
	<path style="fill:#CFD5E9;" d="M572.904297,6.000122h-15.02124c-0.552307,0-1-0.447754-1-1s0.447693-1,1-1h15.039001
		c0.552246,0.006104,0.994995,0.45874,0.988892,1.010986C573.904968,5.55481,573.465698,5.994019,572.922058,6L572.904297,6.000122z
		"/>
	<path style="fill:#CFD5E9;" d="M537.804321,6.000122h-15.017273c-0.552307,0-1-0.447754-1-1s0.447693-1,1-1h15.039001
		c0.552246,0.006104,0.994995,0.45874,0.988892,1.010986C538.80896,5.55481,538.36969,5.994019,537.82605,6L537.804321,6.000122z"/>
	<path style="fill:#CFD5E9;" d="M502.711273,6.000122h-15.016296c-0.552307,0-1-0.447754-1-1s0.447693-1,1-1h15.038025
		c0.552246-0.006104,1.004883,0.436646,1.010986,0.988892S503.307343,5.993896,502.755096,6
		c-0.007385,0.000122-0.014709,0.000122-0.022095,0L502.711273,6.000122z"/>
	<path style="fill:#CFD5E9;" d="M467.618256,6.000122H452.60202c-0.552307,0-1-0.447754-1-1s0.447693-1,1-1h15.038025
		c0.41748,0.361572,0.251343,1.237183-0.110229,1.654663C467.498505,5.690918,467.464691,5.724731,467.639984,6L467.618256,6.000122
		z"/>
	<path style="fill:#CFD5E9;" d="M432.526276,6.000122h-15.015259c-0.552277,0-1-0.447754-1-1s0.447723-1,1-1h15.036987
		c0.552246,0.006104,0.994995,0.45874,0.988892,1.010986C433.530914,5.55481,433.091644,5.994019,432.548004,6L432.526276,6.000122z
		"/>
	<path style="fill:#CFD5E9;" d="M397.434265,6.000122h-15.015259c-0.552277,0-1-0.447754-1-1s0.447723-1,1-1h15.040009
		c0.552246-0.006104,1.004883,0.436646,1.010986,0.988892S398.033356,5.993896,397.48111,6
		c-0.007355,0.000122-0.01474,0.000122-0.022095,0L397.434265,6.000122z"/>
	<path style="fill:#CFD5E9;" d="M362.345276,6.000122h-15.015259c-0.552277,0-1-0.447754-1-1s0.447723-1,1-1h15.036987
		c0.552246,0.006104,0.994995,0.45874,0.988892,1.010986C363.349884,5.55481,362.910645,5.994019,362.367004,6L362.345276,6.000122z
		"/>
	<path style="fill:#CFD5E9;" d="M327.25528,6.000122H312.23999c-0.552277,0-1-0.447754-1-1s0.447723-1,1-1h15.036987
		c0.552277,0,1,0.447632,1,0.999878c0.000031,0.552368-0.447693,1-0.999969,1L327.25528,6.000122z"/>
	<path style="fill:#CFD5E9;" d="M292.167267,6.000122h-15.015259c-0.552277,0-1-0.447754-1-1s0.447723-1,1-1h15.036987
		c0.552246-0.006104,1.004883,0.436646,1.010986,0.988892S292.763336,5.993896,292.21109,6
		c-0.007355,0.000122-0.01474,0.000122-0.022095,0L292.167267,6.000122z"/>
	<path style="fill:#CFD5E9;" d="M257.078278,6.000122H242.05899c-0.552277,0-1-0.447754-1-1s0.447723-1,1-1h15.036987
		c0.552277,0.005005,0.995911,0.456787,0.990936,1.009033C258.082001,5.552734,257.643646,5.99292,257.100006,6L257.078278,6.000122
		z"/>
	<path style="fill:#CFD5E9;" d="M221.989288,6.000122h-15.015289c-0.552277,0-1-0.447754-1-1s0.447723-1,1-1h15.036987
		c0.552277,0,1,0.447632,1,0.999878c0.000031,0.552368-0.447693,1-0.999969,1L221.989288,6.000122z"/>
	<path style="fill:#CFD5E9;" d="M186.901276,6.000122h-15.014282c-0.552277,0-1-0.447754-1-1s0.447723-1,1-1h15.036011
		c0.552246,0.006104,0.994995,0.45874,0.988892,1.010986C187.905884,5.55481,187.466644,5.994019,186.923004,6L186.901276,6.000122z
		"/>
	<path style="fill:#CFD5E9;" d="M151.813293,6.000122h-15.014282c-0.552307,0-1-0.447754-1-1s0.447693-1,1-1h15.03598
		c0.552307,0,1,0.447632,1,0.999878c0.000031,0.552368-0.447693,1-0.999969,1L151.813293,6.000122z"/>
	<path style="fill:#CFD5E9;" d="M116.727287,6.000122h-15.014282c-0.552292,0-1-0.447754-1-1s0.447708-1,1-1h15.036011
		c0.552246,0.006104,0.994995,0.45874,0.988892,1.010986C117.731895,5.55481,117.292656,5.994019,116.749016,6L116.727287,6.000122z
		"/>
	<path style="fill:#CFD5E9;" d="M81.63929,6.000122H66.625008c-0.552292,0-1-0.447754-1-1s0.447708-1,1-1h15.033997
		c0.552246-0.006104,1.004883,0.436646,1.010986,0.988892S82.233345,5.993896,81.681099,6
		c-0.00737,0.000122-0.014725,0.000122-0.022095,0L81.63929,6.000122z"/>
	<path style="fill:#CFD5E9;" d="M46.551292,6.000122H31.53801c-0.552284,0-1-0.447754-1-1s0.447716-1,1-1h15.034996
		c0.552246-0.006104,1.004883,0.436646,1.010986,0.988892S47.147346,5.993896,46.5951,6
		c-0.00737,0.000122-0.014725,0.000122-0.022095,0L46.551292,6.000122z"/>
</g>
<g style="display:none;">
	<path style="display:inline;fill:#CFD5E9;" d="M1116.098999,751.510132c-0.130005,0.001099-0.258911-0.022705-0.380005-0.069946
		c-0.510132-0.207886-0.756104-0.789185-0.550049-1.300049c1.873901-4.610718,3.502808-9.317261,4.880005-14.099976
		c0.179565-0.522217,0.748535-0.800049,1.270874-0.620483c0.484131,0.166504,0.764282,0.671631,0.64917,1.170532
		c-1.39563,4.849731-3.044556,9.622925-4.939941,14.300049c-0.15625,0.37561-0.523193,0.620239-0.930054,0.619751V751.510132z"/>
	<path style="display:inline;fill:#CFD5E9;" d="M1125.218994,717.740112c-0.050171,0.001709-0.100464-0.001709-0.150024-0.01001
		c-0.546143-0.082031-0.922363-0.591309-0.840332-1.137451c0.000122-0.000854,0.000244-0.001709,0.000366-0.002563
		c0.709961-4.900024,1.170044-9.900024,1.390015-14.859985c-0.00293-0.52417,0.419556-0.951416,0.943604-0.954346
		c0.032227-0.000122,0.064453,0.001343,0.096436,0.004395c0.55188,0.021606,0.981689,0.486572,0.960083,1.038452
		c-0.000122,0.000488-0.000122,0.001099-0.000122,0.001587c-0.219971,5.030029-0.689941,10.089966-1.410034,15.060059
		c-0.069824,0.493164-0.491943,0.859619-0.98999,0.859741V717.740112z"/>
	<path style="display:inline;fill:#CFD5E9;" d="M1126.149048,682.760132c-0.519409-0.006348-0.950562-0.402954-1-0.920044
		c-0.445801-4.955078-1.139893-9.884644-2.079956-14.77002c-0.137207-0.535034,0.185303-1.079834,0.720215-1.217041
		c0.535034-0.137207,1.079956,0.185303,1.217163,0.720215c0.009766,0.038452,0.017334,0.077515,0.022583,0.116821
		c0.949951,4.920044,1.660034,9.949951,2.119995,14.969971c0.047974,0.551758-0.358521,1.038696-0.910034,1.089966
		c-0.030029,0-0.059937,0.01001-0.089966,0.01001V682.760132z"/>
	<path style="display:inline;fill:#CFD5E9;" d="M7.525002,463.470093c-0.439827-0.000854-0.827438-0.289062-0.955002-0.709961
		c-1.488365-4.81958-2.727013-9.712891-3.710991-14.660156c-0.107697-0.541748,0.244202-1.068359,0.785988-1.176025
		c0.541794-0.107666,1.068314,0.244263,1.17601,0.786011l0,0c0.970253,4.879761,2.191879,9.706177,3.660004,14.459961
		c0.16272,0.5271-0.132149,1.086426-0.658997,1.25c-0.094727,0.030762-0.193428,0.047607-0.293007,0.050049L7.525002,463.470093z"/>
	<path style="display:inline;fill:#CFD5E9;" d="M1.278,429.040039c-0.529655,0.000977-0.968193-0.411255-1-0.939941
		C0.094002,425.080078,0,422.010132,0,418.970093c0-1.98999,0.041-4.01001,0.120003-5.98999
		c0.007729-0.53894,0.45092-0.969604,0.989899-0.961914c0.01638,0.000244,0.032753,0.000854,0.049103,0.001953
		c0.551865,0.021606,0.981697,0.486572,0.960068,1.038452c-0.000023,0.000488-0.000046,0.001099-0.000069,0.001587
		C2.040001,415.010132,2,417.010132,2,418.970215c0,3,0.092003,6.030029,0.273003,9.01001
		c0.030861,0.550415-0.386978,1.023071-0.936996,1.060059H1.282013L1.278,429.040039z"/>
	<path style="display:inline;fill:#CFD5E9;" d="M3.273003,394.109985c-0.05912-0.001831-0.117989-0.008545-0.176003-0.02002
		c-0.543808-0.096436-0.906532-0.615356-0.81015-1.15918c0.000046-0.000244,0.000099-0.00061,0.000153-0.000854
		c0.878944-4.968506,2.013786-9.888428,3.400002-14.73999c0.167313-0.526367,0.729622-0.817383,1.255951-0.650024
		c0.504845,0.1604,0.796944,0.686768,0.666046,1.200073c-1.367638,4.786011-2.488449,9.639038-3.358002,14.540039
		c-0.085281,0.473511-0.492981,0.820923-0.973991,0.829956H3.273003z"/>
	<path style="display:inline;fill:#CFD5E9;" d="M1124.285156,176.02002c-0.074341-0.000854-0.148193-0.010864-0.219971-0.030029
		c-0.537964-0.119507-0.877808-0.651611-0.76001-1.189941c1.074951-4.857788,1.899292-9.767578,2.469971-14.709961
		c0.063477-0.549561,0.560425-0.943481,1.109985-0.880005s0.943481,0.560425,0.880005,1.109985
		c-0.580688,5.009033-1.415039,9.985474-2.5,14.910034c-0.102051,0.454102-0.500732,0.780151-0.966064,0.789917H1124.285156z"/>
	<path style="display:inline;fill:#CFD5E9;" d="M1127.735107,141.200073c-0.546875-0.003784-0.990723-0.443237-1-0.98999
		c-0.093262-4.974121-0.437012-9.94043-1.030029-14.880005c-0.071289-0.540405,0.309082-1.036255,0.849609-1.107544
		c0.006714-0.000854,0.01355-0.001709,0.020386-0.002441c0.547729-0.070435,1.04895,0.31665,1.119263,0.86438
		c0.000244,0.001831,0.000488,0.003784,0.000732,0.005615c0.589966,4.98999,0.949951,10.060059,1.040039,15.089966
		c0.011108,0.552124-0.427368,1.008789-0.979614,1.02002c-0.000122,0-0.000244,0-0.000366,0H1127.735107z"/>
	<path style="display:inline;fill:#CFD5E9;" d="M1122.955078,106.540039c-0.452881-0.003784-0.846802-0.311401-0.959961-0.75
		c-1.264038-4.812744-2.779541-9.555908-4.540039-14.209961c-0.192017-0.516235,0.066406-1.091064,0.579956-1.290039
		c0.509155-0.199341,1.083496,0.051758,1.282837,0.560913c0.002441,0.006348,0.004883,0.012695,0.007202,0.019043
		c1.786499,4.718872,3.321899,9.528931,4.599976,14.410034c0.139648,0.532837-0.177734,1.078247-0.709961,1.219971
		c-0.080322,0.022095-0.162842,0.035522-0.246094,0.040039H1122.955078z"/>
</g>
</svg>
