<?xml version="1.0" encoding="utf-8"?>
<!-- Generator: Adobe Illustrator 19.2.1, SVG Export Plug-In . SVG Version: 6.00 Build 0)  -->
<svg version="1.0" id="Слой_1" xmlns="http://www.w3.org/2000/svg" xmlns:xlink="http://www.w3.org/1999/xlink" x="0px" y="0px"
	 viewBox="0 0 295 246" style="enable-background:new 0 0 295 246;" xml:space="preserve">
<circle style="fill:#D1E9F9;" cx="40.358372" cy="206.004303" r="32.141628"/>
<circle style="fill:#B3DAF5;" cx="40.226654" cy="205.570709" r="20.306551"/>
<circle style="fill:#F59899;" cx="254.354004" cy="57.623962" r="32.141628"/>
<circle style="fill:#F36C6D;" cx="254.08905" cy="57.121197" r="20.173302"/>
<g>
	<path style="fill:#2A3038;" d="M254.243835,96.677856l0.077881,0.000061c21.836731,0,39.636292-17.766235,39.678223-39.603821
		L294,57c-0.00415-21.833313-17.770508-39.633484-39.604187-39.679016l-0.485413-0.000977
		c-21.650269,0.219299-39.228638,17.900085-39.270325,39.601746C214.598083,78.801331,232.364319,96.635864,254.243835,96.677856z
		 M235.767883,38.481323c4.945679-4.964539,11.528687-7.705933,18.536316-7.719238h0.001892l0.048889-0.000061
		c14.438049-0.000244,26.206604,11.746399,26.234009,26.185242v0.001892V57
		c-0.00354,14.435364-11.750061,26.20282-26.184937,26.231995h-0.002014l-0.049011,0.000061
		c-14.438049,0-26.206543-11.746643-26.233948-26.185242C228.105774,50.039185,230.822144,43.445862,235.767883,38.481323z"/>
	<path style="fill:#2A3038;" d="M131.05603,244.976379c1.790955,0,3.475464-0.696777,4.743164-1.961975l22.62323-22.667236
		l1.415588-1.418335l1.415588,1.418335l22.625,22.669006c1.264893,1.26239,2.949402,1.959229,4.740356,1.959229
		c1.795959,0,3.483765-0.700073,4.752441-1.971252c1.266968-1.269409,1.963745-2.956238,1.961975-4.749695
		s-0.701782-3.478882-1.971191-4.74585l-22.627747-22.671753l-1.410095-1.412842l1.410095-1.412842l22.625-22.669006
		c2.614502-2.621765,2.614502-6.88855-0.00061-9.510925l-0.068115-0.068298c-1.258057-1.226135-2.914429-1.900269-4.674683-1.900269
		c-1.787964,0-3.469299,0.695801-4.734436,1.959167l-22.630981,22.674988l-1.415588,1.418335l-1.415527-1.418274
		l-22.626038-22.669006c-1.264404-1.26123-2.948486-1.95752-4.738953-1.957642
		c-1.796692-0.000061-3.484985,0.7005-4.754028,1.972656c-1.266663,1.269836-1.962952,2.95697-1.960693,4.750549
		s0.70282,3.478943,1.972656,4.745544l22.629089,22.672119l1.410217,1.412842l-1.410156,1.412903l-22.625977,22.669983
		c-1.272217,1.269714-1.972229,2.9552-1.973999,4.748657c-0.001709,1.793457,0.695007,3.480286,1.961975,4.749695
		C127.572266,244.276367,129.260071,244.976379,131.05603,244.976379z"/>
	<path style="fill:#2A3038;" d="M73.490784,0.846741c-1.79071-0.000122-3.475159,0.696655-4.742981,1.961914L46.12561,25.475769
		l-1.415588,1.418457l-1.415588-1.418396L20.668396,2.805847c-1.264893-1.262451-2.949341-1.959229-4.740356-1.959229
		c-1.796021,0-3.483765,0.700073-4.752441,1.971191c-2.615417,2.620544-2.611267,6.880188,0.009216,9.495605l22.630737,22.673706
		l1.410278,1.412964l-1.410339,1.412903L11.187439,60.480957c-2.610657,2.620239-2.610657,6.885864,0.001343,9.507446
		c1.264221,1.265869,2.947876,1.963928,4.739197,1.963928c1.787964,0,3.469299-0.695801,4.734436-1.959167l22.632141-22.672119
		l1.415466-1.417969l1.415466,1.417969l22.625977,22.666016c1.234802,1.195129,2.893066,1.866455,4.64502,1.866455
		c1.835083,0,3.548462-0.72583,4.824463-2.043762c2.539673-2.623047,2.536377-6.729309-0.007568-9.348267L55.60553,37.812927
		l-1.410339-1.412842l1.410217-1.412903L78.231445,12.3172c2.623535-2.618286,2.627869-6.878174,0.012451-9.498901
		C76.97522,1.547058,75.287231,0.846863,73.490784,0.846741z"/>
	<path style="fill:#2A3038;" d="M194.135193,53.622131l-0.685181-0.597778v-0.004089L159.029419,23.0401
		c-1.218201-1.05658-2.779663-1.640015-4.393677-1.640015c-1.950073,0-3.800537,0.843933-5.076904,2.31543
		c-2.426392,2.797302-2.124634,7.047241,0.672668,9.473633l18.621155,16.219727l3.34613,2.914673l-4.399963,0.576477
		c-54.922424,7.196167-86.996521,36.330811-104.232056,59.504578c-11.677124,15.743713-20.394897,33.266296-25.909546,52.078918
		l-0.371948,1.269104l-1.313477,0.154663c-21.685791,2.552673-37.251709,22.272095-34.699036,43.957886
		c2.347046,19.938782,19.2323,34.974609,39.27655,34.974609c1.55304,0,3.128052-0.092712,4.681335-0.275574
		c21.685791-2.552673,37.251709-22.272095,34.699036-43.957886c-1.803284-15.319946-12.450867-28.290344-27.125977-33.04364
		l-1.894897-0.61377l0.605957-1.8974c5.198792-16.277405,13.013062-31.477112,23.225708-45.176819
		c22.934082-30.521423,54.897339-48.589172,95.006348-53.707581l5.196777-0.663208l-3.432739,3.957581l-17.348022,20
		c-1.211182,1.358826-1.811768,3.081848-1.709106,4.872009s0.896301,3.433167,2.234802,4.626404
		c1.231323,1.097778,2.81665,1.702332,4.464111,1.702332c1.91394,0,3.741394-0.818604,5.013855-2.245911l0.101929-0.117004
		l30.530823-35.194885C197.220947,60.308777,196.923462,56.054504,194.135193,53.622131z M66.786011,205.299316
		c-0.025024,14.419189-11.772522,26.146667-26.187073,26.146667H40.59613h-0.045776
		c-14.437866-0.025085-26.165344-11.793396-26.140259-26.233459c0.025024-14.416199,11.773804-26.143677,26.190063-26.142517
		C55.036194,179.100952,66.781311,190.867432,66.786011,205.299316z"/>
</g>
</svg>
