<?xml version="1.0" encoding="utf-8"?>
<!-- Generator: Adobe Illustrator 19.2.1, SVG Export Plug-In . SVG Version: 6.00 Build 0)  -->
<svg version="1.0" id="Слой_1" xmlns="http://www.w3.org/2000/svg" xmlns:xlink="http://www.w3.org/1999/xlink" x="0px" y="0px"
	 viewBox="0 0 512 512" style="enable-background:new 0 0 512 512;" xml:space="preserve">
<g>
	<circle style="fill:#B3DAF5;" cx="255.748703" cy="255.748703" r="248.584641"/>
	<circle style="fill:#FFFFFF;" cx="255.748703" cy="255.748688" r="217.024734"/>
	<path style="fill:#2A3038;" d="M256.000977,1.004395C187.887695,1.004883,123.851074,27.530273,75.687988,75.693848
		C27.524902,123.85791,1.000488,187.89502,1.001465,256.008301c0.000488,68.112793,26.525879,132.149902,74.689453,180.312988
		c48.164062,48.163086,112.201172,74.686523,180.314453,74.686523c68.112793-0.000977,132.149902-26.525391,180.312988-74.689453
		s74.686523-112.201172,74.686523-180.314453c-0.000977-68.11377-26.525391-132.149902-74.689453-180.312988
		S324.114258,1.003418,256.000977,1.004395z M426.416016,426.419922
		c-45.464844,45.573242-105.955078,70.713867-170.328613,70.791016c-0.098145,0-0.197266,0-0.29541,0
		c-64.263184,0-124.697754-24.989258-170.201172-70.384766c-45.573242-45.464844-70.713867-105.955078-70.790039-170.328613
		C14.724121,192.124023,39.720215,131.57373,85.18457,86.000977l0.408203-0.408203
		c45.501465-45.388184,105.937988-70.375977,170.192383-70.375977c0.105957,0,0.203125,0,0.309082,0.000488
		c64.373535,0.080078,124.862793,25.223633,170.324707,70.799316c45.382812,45.495605,70.375977,105.941406,70.375,170.202148
		C496.793945,320.479492,471.799805,380.924805,426.416016,426.419922z"/>
	<path style="fill:#2A3038;" d="M250.918945,464.953125c-49.594727-1.208008-97.271973-20.086914-134.248535-53.15918
		c-1.305176-1.1875-2.964355-1.828125-4.708984-1.828125c-0.112305,0-0.225098,0.00293-0.338379,0.007812
		c-1.867676,0.088867-3.588867,0.899414-4.847168,2.282227c-1.258789,1.382812-1.902832,3.172852-1.814941,5.041016
		c0.088379,1.867188,0.898438,3.588867,2.28125,4.847656l0.079102,0.070312
		c44.408691,39.723633,101.614746,59.772461,161.088867,56.459961c59.474609-3.3125,114.100586-29.586914,153.814453-73.984375
		c35.292969-39.455078,55.438477-90.329102,56.726562-143.25c1.289062-52.921875-16.358398-104.71582-49.69043-145.841309
		c-2.451172-2.973145-6.869141-3.400879-9.847656-0.949707c-2.9375,2.418457-3.394531,6.803223-1.018555,9.774902
		c35.144531,43.369141,51.297852,97.834961,45.481445,153.358887c-5.816406,55.524414-32.90625,105.459961-76.280273,140.608398
		C349.052734,449.625,300.507812,466.143555,250.918945,464.953125z"/>
	<path style="fill:#2A3038;" d="M256.069763,34.004272c-30.951111,0-60.962341,6.264526-89.200012,18.619629
		c-29.221863,12.785828-54.908936,31.423889-76.347656,55.396423c-35.124268,39.275696-55.174316,89.915161-56.456665,142.59021
		c-1.282288,52.674927,16.279907,104.230042,49.451416,145.168335c1.143921,1.40979,2.843933,2.218994,4.663452,2.218994
		c1.388733,0,2.694275-0.463684,3.775574-1.341003c1.244568-1.009766,2.021484-2.443787,2.187439-4.037842
		c0.166077-1.594055-0.298584-3.157349-1.308411-4.401917C62.665161,350.922546,46.032837,303.968201,46,256.001343
		C46,140.205627,140.205627,46,256,46l0.143494-0.000061c51.683044-0.000732,101.350403,18.988281,139.852783,53.469177
		c1.1203,1.02063,2.554565,1.576355,4.05127,1.576355c1.68573,0,3.303162-0.714111,4.437561-1.959167
		c2.228149-2.445557,2.05127-6.247925-0.394287-8.476074l-0.078186-0.070007
		c-40.767639-36.458496-93.298706-56.532593-147.929321-56.53595l-0.006775-0.999756
		c-0.002258,0-0.004517,0.000061-0.006775,0.000061V34.004272z"/>
</g>
<path style="fill:#FFFFFF;" d="M451.523438,353.621185L413.038086,349L384,360.5l-25.168945,21.752045L349,413v22.596191
	l9.831055,31.181488L381,486l23.428223,13.333344l27.852539,6.674469l19.242676-6.674469L474.331055,482l18.837891-22
	l6.164398-32.496094c0,0,5.333344-30.508179,0-34.506042S482,371,482,371L451.523438,353.621185z"/>
<polygon style="fill:#F36C6D;" points="404.428223,392.997864 404.428223,454.743774 418,454.743774 467.773438,425.998566 456,414 
	"/>
<path style="fill:#2A3038;" d="M502.372986,458.271912C506.770325,448.02063,509,437.145996,509,425.950195
	c0-11.136536-2.229614-21.980591-6.627014-32.231018c-8.765442-20.435181-23.571899-35.241272-44.008057-44.00708
	c-10.253235-4.398804-21.09729-6.629089-32.23114-6.629089c-11.135437,0-22.008423,2.229553-32.316833,6.626709
	c-20.62677,8.797546-35.523926,23.604431-44.277771,44.00946C345.200073,403.832581,343,414.676697,343,425.950195
	c0,11.331909,2.200134,22.206543,6.539246,32.321899c8.77948,20.464294,23.67804,35.304199,44.281738,44.107483
	C404.141907,506.772217,415.014404,509,426.133789,509c11.114807,0,21.960449-2.229248,32.235718-6.625854
	C478.775024,493.601013,493.580994,478.76239,502.372986,458.271912z M452.877686,489.748413
	c-8.500854,3.701477-17.250122,5.501587-26.743896,5.501587c-12.487061,0-24.18634-3.124634-34.772766-9.28717
	c-10.595764-6.187317-19.085144-14.677307-25.234741-25.235535c-6.167725-10.579956-9.295227-22.280945-9.295227-34.7771
	c0-12.422363,3.126831-24.06189,9.293579-34.595398c6.204834-10.601746,14.695068-19.091797,25.234558-25.234131
	c10.57489-6.167297,22.274963-9.294495,34.774597-9.294495c12.421997,0,24.06189,3.12677,34.596375,9.293518
	c10.538513,6.169495,18.998291,14.658325,25.144409,25.230591c6.167297,10.608459,9.294373,22.249512,9.294373,34.599915
	c-0.000977,9.364929-1.853821,18.427002-5.506958,26.934631c-3.697754,8.615906-8.649475,16.065613-14.717529,22.141724
	C468.87146,481.085449,461.447998,486.037781,452.877686,489.748413z"/>
<path style="fill:#2A3038;" d="M419.537659,462.712769l0.057739-0.032898c4.588135-2.617065,11.52179-6.572021,20.826904-11.969482
	l26.572266-15.413086c1.491943-0.864502,2.691956-2.05481,3.777161-3.746399c1.035156-1.609131,1.559326-3.492798,1.559326-5.600708
	c0-2.462646-0.7677-4.706299-2.220215-6.488403c-0.918945-1.12677-1.939697-2.005066-3.120178-2.684448
	c-0.631104-0.363586-1.90271-1.104614-3.816467-2.22052l-0.076599-0.044678
	c-4.492554-2.618958-12.01178-7.002319-22.942322-13.321716l-26.662903-15.411011
	c-1.753967-1.013489-3.565186-1.527405-5.383362-1.527405c-1.808838,0-3.640625,0.508057-5.444458,1.51001
	c-3.422607,1.901672-5.634277,5.577637-5.634277,9.364929v61.824219c0,4.069275,1.876099,7.301514,5.425476,9.34729
	c1.686035,0.973755,3.565857,1.446655,5.748352,1.446655c0.309814,0,0.626587-0.009583,0.947754-0.028687
	c1.391663-0.081055,2.811768-0.56958,4.223328-1.452271C414.030396,465.854675,415.938843,464.764832,419.537659,462.712769z
	 M411.038086,448.350586v-44.524414v-3.464661l3.000244,1.732727l12.866211,7.430664
	c5.391968,3.11377,9.994263,5.749268,13.796204,7.925964c3.655823,2.093689,6.532288,3.741028,8.694641,5.002197l3.135803,1.829102
	l2.961121,1.727295l-2.960876,1.727722l-1.71875,1.00293c-7.784729,4.541443-14.917847,8.666199-20.649353,11.98053
	l-0.055725,0.032227c-5.834167,3.374817-11.344788,6.562439-16.058716,9.323486l-3.010803,1.763489V448.350586z"/>
<g>
	<polygon style="fill:#CFEEFF;" points="343,313.360992 343,145.666672 183.666672,145.666672 163,157 158.333328,185 
		158.333328,331 182.333328,313.360992 264.333344,317 	"/>
	<polygon style="fill:#FFFFFF;" points="343,317.666656 204.333328,315.666656 167.973328,317.666656 158.333328,335.666656 
		167.973328,359.588013 224.48233,367 343,367 	"/>
	<g>
		<path style="fill:#B3DAF5;" d="M325.720856,298.518005v-95.80484V164h-84.65062v49.141556
			c0,3.622192-2.935684,6.558746-6.558746,6.558746h-0.00351c-1.74025,0-3.408752-0.690842-4.638306-1.921249l-8.661026-8.663635
			l-8.658417,8.662735c-1.230453,1.231308-2.898972,1.92215-4.639267,1.92215c-3.623001,0-6.563965-2.936554-6.563965-6.558746V164
			h-6.739746c-8.861282,0.002609-16.072433,7.214615-16.072433,16.075912v123.285049
			c4.612091-3.05545,10.136322-4.841187,16.070679-4.842957H325.720856z"/>
		<path style="fill:#B3DAF5;" d="M225.845245,195.200348l2.106659,2.107574V164h-13.488281v33.306152l2.10405-2.104904
			c1.230408-1.230453,2.898972-1.922134,4.639206-1.922134C222.947128,193.279114,224.615692,193.96994,225.845245,195.200348z"/>
	</g>
	<polygon style="fill:#F36C6D;" points="199.666672,145.666672 199.666672,205.666672 216.77034,192.087997 231,208.333328 
		231,145.666672 	"/>
	<path style="fill:#2A3038;" d="M343.781342,139H231.98233h-30.423004h-15.209
		c-18.404999,0.005005-33.376999,14.979996-33.376999,33.382996v168.822998c0,18.403015,14.973007,33.377991,33.379013,33.382019
		h157.429977c4.143005,0,7.5-3.358032,7.5-7.5v-51.766022V198.268997V146.5C351.281342,142.358002,347.924347,139,343.781342,139z
		 M224.48233,154v38.087997l-2.408997-2.409988c-1.405991-1.407013-3.313995-2.197006-5.304001-2.197006
		c-1.98999,0-3.897995,0.791-5.304993,2.197998l-2.406006,2.406998V154H224.48233z M186.352341,154h7.707001v56.194
		c0,4.141998,3.362991,7.5,7.505997,7.5c1.98999,0,3.897995-0.790009,5.304993-2.197998l9.901001-9.906006l9.904007,9.907013
		c1.405991,1.406982,3.313995,2.196991,5.304001,2.196991h0.003998c4.14299,0,7.5-3.358002,7.5-7.5V154h96.799011v44.268997
		v109.554001H186.350327c-6.785995,0.002014-13.102997,2.044006-18.376999,5.537994V172.382996
		C167.973328,162.25,176.21933,154.003006,186.352341,154z M186.35434,359.588013
		c-10.136002-0.002014-18.381012-8.248016-18.381012-18.382019s8.246002-18.380981,18.378998-18.384003h149.929993v10.884003
		H186.352341c-4.143005,0-7.5,3.358002-7.5,7.5s3.356995,7.5,7.5,7.5h149.929977v10.882019H186.35434z"/>
</g>
</svg>
