<?xml version="1.0" encoding="utf-8"?>
<!-- Generator: Adobe Illustrator 19.2.1, SVG Export Plug-In . SVG Version: 6.00 Build 0)  -->
<svg version="1.0" id="Слой_1" xmlns="http://www.w3.org/2000/svg" xmlns:xlink="http://www.w3.org/1999/xlink" x="0px" y="0px"
	 viewBox="0 0 512 512" style="enable-background:new 0 0 512 512;" xml:space="preserve">
<g>
	<circle style="fill:#B3DAF5;" cx="255.748703" cy="255.748703" r="248.584641"/>
	<circle style="fill:#FFFFFF;" cx="255.748703" cy="255.748688" r="217.024734"/>
	<path style="fill:#2A3038;" d="M256.000977,1.004395C187.887695,1.004883,123.851074,27.530273,75.687988,75.693848
		C27.524902,123.85791,1.000488,187.89502,1.001465,256.008301c0.000488,68.112793,26.525879,132.149902,74.689453,180.312988
		c48.164062,48.163086,112.201172,74.686523,180.314453,74.686523c68.112793-0.000977,132.149902-26.525391,180.312988-74.689453
		s74.686523-112.201172,74.686523-180.314453c-0.000977-68.11377-26.525391-132.149902-74.689453-180.312988
		S324.114258,1.003418,256.000977,1.004395z M426.416016,426.419922
		c-45.464844,45.573242-105.955078,70.713867-170.328613,70.791016c-0.098145,0-0.197266,0-0.29541,0
		c-64.263184,0-124.697754-24.989258-170.201172-70.384766c-45.573242-45.464844-70.713867-105.955078-70.790039-170.328613
		C14.724121,192.124023,39.720215,131.57373,85.18457,86.000977l0.408203-0.408203
		c45.501465-45.388184,105.937988-70.375977,170.192383-70.375977c0.105957,0,0.203125,0,0.309082,0.000488
		c64.373535,0.080078,124.862793,25.223633,170.324707,70.799316c45.382812,45.495605,70.375977,105.941406,70.375,170.202148
		C496.793945,320.479492,471.799805,380.924805,426.416016,426.419922z"/>
	<path style="fill:#2A3038;" d="M250.918945,464.953125c-49.594727-1.208008-97.271973-20.086914-134.248535-53.15918
		c-1.305176-1.1875-2.964355-1.828125-4.708984-1.828125c-0.112305,0-0.225098,0.00293-0.338379,0.007812
		c-1.867676,0.088867-3.588867,0.899414-4.847168,2.282227c-1.258789,1.382812-1.902832,3.172852-1.814941,5.041016
		c0.088379,1.867188,0.898438,3.588867,2.28125,4.847656l0.079102,0.070312
		c44.408691,39.723633,101.614746,59.772461,161.088867,56.459961c59.474609-3.3125,114.100586-29.586914,153.814453-73.984375
		c35.292969-39.455078,55.438477-90.329102,56.726562-143.25c1.289062-52.921875-16.358398-104.71582-49.69043-145.841309
		c-2.451172-2.973145-6.869141-3.400879-9.847656-0.949707c-2.9375,2.418457-3.394531,6.803223-1.018555,9.774902
		c35.144531,43.369141,51.297852,97.834961,45.481445,153.358887c-5.816406,55.524414-32.90625,105.459961-76.280273,140.608398
		C349.052734,449.625,300.507812,466.143555,250.918945,464.953125z"/>
	<path style="fill:#2A3038;" d="M256.069763,34.004272c-30.951111,0-60.962341,6.264526-89.200012,18.619629
		c-29.221863,12.785828-54.908936,31.423889-76.347656,55.396423c-35.124268,39.275696-55.174316,89.915161-56.456665,142.59021
		c-1.282288,52.674927,16.279907,104.230042,49.451416,145.168335c1.143921,1.40979,2.843933,2.218994,4.663452,2.218994
		c1.388733,0,2.694275-0.463684,3.775574-1.341003c1.244568-1.009766,2.021484-2.443787,2.187439-4.037842
		c0.166077-1.594055-0.298584-3.157349-1.308411-4.401917C62.665161,350.922546,46.032837,303.968201,46,256.001343
		C46,140.205627,140.205627,46,256,46l0.143494-0.000061c51.683044-0.000732,101.350403,18.988281,139.852783,53.469177
		c1.1203,1.02063,2.554565,1.576355,4.05127,1.576355c1.68573,0,3.303162-0.714111,4.437561-1.959167
		c2.228149-2.445557,2.05127-6.247925-0.394287-8.476074l-0.078186-0.070007
		c-40.767639-36.458496-93.298706-56.532593-147.929321-56.53595l-0.006775-0.999756
		c-0.002258,0-0.004517,0.000061-0.006775,0.000061V34.004272z"/>
</g>
<path style="fill:#F59899;" d="M365,187.813202L343,195l-16.666656-10.666672l-21.333344-4l-22,7.333344l-14.386902,16.666656
	l-2.584076,16v12L243,229l-18-4c0,0-16.666672-6.330948-18.666672-9.49881S187,199,187,199l-12-7.333328l-4.666672,23.834518
	L181,243l-10.666672,4.666672l7.375305,19.9879l17.958038,18.012085l-6,6.666687l12,14.666656l18.356827,10l-14.356827,9.333344
	l-24,8.666656l2.666656,8.666656c0,0,18.666672,10,21.333344,10c2.666656,0,37.333328,0,37.333328,0l34-10L309,325
	l20.666656-21.333344L347,270.333344l7.349396-32.666672v-15.333344L365,209V187.813202z"/>
<path style="fill:#F36C6D;" d="M311.411743,305.141876c17.405304-19.746704,27.388123-45.858124,27.388123-71.640564
	c0-1.697266-0.034882-3.264938-0.112549-4.793854c-0.103638-2.100952,0.863556-4.111435,2.569641-5.341782
	c1.516968-1.094269,2.986908-2.240082,4.409698-3.437317c-1.006866,0.154755-2.015747,0.29158-3.026733,0.410568
	c-2.427032,0.285019-4.795563-0.880127-6.050964-2.97673c-1.761566-2.941879-0.804718-6.754807,2.137146-8.516357
	c1.270203-0.759323,2.488739-1.601959,3.647614-2.522247c-2.296722,0.655518-4.621338,1.213303-6.973907,1.673218
	c-2.092651,0.408859-4.248627-0.284744-5.710449-1.837006c-8.127289-8.645798-20.239838-12.31601-31.799133-9.635483
	c-17.923401,4.156448-29.08374,22.055573-24.927338,39.978973c0.131592,0.563568,0.183746,1.142853,0.154907,1.720947
	c-0.170807,3.424698-3.085571,6.062469-6.510284,5.891632c-29.984222-1.529251-58.272278-14.374695-79.156219-35.944427
	c-3.539062,13.717361,1.971237,28.173965,13.742966,36.055435c1.787247,1.192612,2.830826,3.224609,2.759003,5.372055
	c-0.114639,3.427017-2.985748,6.112228-6.412827,5.997589c-3.439011-0.116562-6.854034-0.619202-10.180725-1.498596
	c3.437317,11.940033,13.218491,20.985168,25.390472,23.479706c2.306351,0.466095,4.150955,2.195953,4.764206,4.467621
	c0.8936,3.310455-1.065643,6.718597-4.376144,7.612213c-3.021805,0.816711-6.118774,1.324005-9.24321,1.514099
	c6.092239,8.832642,16.067856,14.187805,26.795944,14.384796c1.865845,0.034882,3.617004,0.907227,4.768829,2.375549
	c2.116409,2.697876,1.644989,6.600677-1.052933,8.717041c-10.889465,8.589325-23.722641,14.371216-37.37088,16.837219
	c11.432648,4.082275,23.482681,6.166229,35.622375,6.160553C272.610504,339.646729,297.539215,320.882507,311.411743,305.141876z"/>
<path style="fill:#2A3038;" d="M379.161774,195.727448c-1.959747-1.307693-4.452057-1.522659-6.60675-0.569763
	c-0.17215,0.077423-0.351196,0.154922-0.526764,0.230667c1.629578-2.923355,2.964508-6.001434,3.985046-9.188873
	c1.159485-3.621735-0.836639-7.497681-4.458405-8.657135c-1.875397-0.600403-3.918152-0.36911-5.611816,0.635376
	c-6.888672,4.10022-14.352142,7.146393-22.142426,9.037384c-20.729889-18.831543-52.800751-17.292694-71.632355,3.43718
	c-8.46579,9.319168-13.162109,21.454361-13.175232,34.044708c0,0.798706,0.018066,1.595169,0.054199,2.389313
	c-30.177155-3.707367-57.75293-18.937134-76.961395-42.504959c-2.402176-2.947998-6.73941-3.390472-9.687469-0.988251
	c-0.641312,0.522598-1.183258,1.156525-1.599792,1.871338c-8.856445,15.269638-9.155563,34.041077-0.790085,49.585098
	c-3.617966,0.240173-6.429749,3.24501-6.429474,6.870956v0.547394c0.024902,14.802353,6.504532,28.857651,17.744263,38.489731
	c-2.092819,1.804199-2.904404,4.684631-2.061401,7.315979c4.613922,14.409363,15.431747,25.999146,29.489395,31.593781
	c-11.30249,5.664429-23.778152,8.592926-36.420609,8.549377c-3.22438,0.001434-6.446182-0.18338-9.649338-0.553436
	c-3.777344-0.439453-7.195724,2.266479-7.635101,6.043823c-0.303955,2.613007,0.907394,5.170898,3.121613,6.591278
	c21.137115,13.573975,45.731796,20.783356,70.852127,20.768738c49.450821,0,80.410233-23.346527,97.67421-42.931824
	c21.490021-24.380249,33.815277-56.657471,33.815277-88.557648c0-0.786697-0.006042-1.549255-0.018982-2.303223
	c8.000336-6.252899,14.947296-13.747009,20.576874-22.19754C383.178162,202.113739,382.325012,197.838287,379.161774,195.727448z
	 M349.458954,218.536896c-1.892151,1.364502-2.964783,3.594223-2.849823,5.92421
	c0.08609,1.695618,0.124817,3.434204,0.124817,5.316574c0,28.593384-11.071259,57.551727-30.374207,79.451416
	c-15.38501,17.456726-43.031647,38.266846-87.339737,38.266846c-13.463242,0.006226-26.827087-2.304901-39.50621-6.832245
	c15.136307-2.734894,29.368683-9.147186,41.445358-18.672943c2.992081-2.347137,3.514877-6.675446,1.167755-9.66745
	c-1.27739-1.628448-3.219482-2.595886-5.288773-2.634613c-11.897736-0.218414-22.960999-6.15744-29.717438-15.953094
	c3.465088-0.210815,6.899689-0.773438,10.250931-1.679199c3.671448-0.991058,5.844315-4.770752,4.853271-8.442139
	c-0.680084-2.519318-2.72583-4.437775-5.283615-4.954712c-13.499054-2.766541-24.346664-12.797852-28.158737-26.039703
	c3.689407,0.975281,7.476715,1.532761,11.29068,1.662048c3.80072,0.127136,6.984848-2.850861,7.11203-6.651535
	c0.079636-2.381577-1.077713-4.635101-3.059845-5.957779c-13.055145-8.740768-19.166229-24.773544-15.241318-39.986511
	c23.160889,23.921478,54.533127,38.16745,87.786469,39.863434c3.798096,0.189438,7.03067-2.735931,7.220093-6.534012
	c0.032013-0.641113-0.025848-1.283539-0.171783-1.908585c-4.609558-19.877518,7.767609-39.72821,27.645142-44.337769
	c12.81958-2.972794,26.252777,1.097565,35.266144,10.68602c1.621155,1.721512,4.012268,2.490692,6.333069,2.037277
	c2.60907-0.510086,5.187103-1.128662,7.734222-1.855667c-1.285217,1.02066-2.636566,1.95517-4.045288,2.797272
	c-3.262634,1.953598-4.323792,6.182251-2.370209,9.44487c1.392303,2.32518,4.019043,3.617386,6.710754,3.301285
	c1.121216-0.131958,2.240112-0.283722,3.356689-0.455353C352.771454,216.052612,351.141327,217.323334,349.458954,218.536896z"/>
</svg>
