<?xml version="1.0" encoding="utf-8"?>
<!-- Generator: Adobe Illustrator 19.2.1, SVG Export Plug-In . SVG Version: 6.00 Build 0)  -->
<svg version="1.0" id="Слой_1" xmlns="http://www.w3.org/2000/svg" xmlns:xlink="http://www.w3.org/1999/xlink" x="0px" y="0px"
	 viewBox="0 0 207 230" style="enable-background:new 0 0 207 230;" xml:space="preserve">
<polygon style="fill:#CEEBFF;" points="151.666672,77 55.333332,77 55.333332,164.333328 66.333336,191.666672 
	79.351379,200.666672 103.496506,177 126.333336,200.666672 137.333328,193.462616 147.778198,180.333328 153.333328,163 "/>
<g>
	<path style="fill:#B3DAF5;" d="M80.500549,185.552628l1.756981,1.38179l0.292854,0.230301l0.263397-0.263443l1.580482-1.580536
		l14.874626-14.874573l0.737572-0.737579l0.12291-0.122955v-0.173843v-1.043137V92.943863v-2.518272v-0.419716h-0.419708h-2.518272
		H69.267097h-2.518272h-0.419716v0.419716v2.518272v62.216965l-0.001022,0.001038v0.176956l0.000206,1.043289
		C66.330032,167.838333,71.495636,178.470551,80.500549,185.552628z"/>
	<path style="fill:#B3DAF5;" d="M124.444923,187.163589l0.292801-0.23024l1.756775-1.381485
		c9.005424-7.081833,14.171394-17.714096,14.173241-29.170578l0.000153-6.080246l-0.000977-1.012283h-0.000046V92.943863v-2.518272
		v-0.419716h-0.419724h-2.518265h-27.923424h-2.51828h-0.419708v0.419716v2.518272v75.428177v1.043228v0.173843l0.122963,0.122955
		l0.737724,0.737625l14.872887,14.870377l1.580482,1.580185L124.444923,187.163589z"/>
</g>
<polygon style="fill:#F36C6D;" points="140.667892,75 135.949036,62.333332 125.666664,47.666668 107.512024,40.666668 91,42 
	74.666664,53 69.666664,65 67.666664,77 "/>
<polygon style="fill:#F36C6D;" points="103.496506,177 79.351379,200.666672 93.666664,207.666672 107.512024,207.666672 
	127.645111,202.333328 116,189 "/>
<path style="fill:#2A3038;" d="M178.919922,131.177429l0.878601,0.878418l20.105042,20.099976
	c0.758606,0.758484,1.766968,1.176208,2.839417,1.176208c1.072693,0,2.081116-0.417725,2.8396-1.176208
	c0.758301-0.758545,1.175964-1.766968,1.175903-2.839478c0-1.026733-0.386658-2.003052-1.088806-2.749207l-0.085571-0.085205
	l-22.306091-22.307068c-0.757385-0.757629-1.764465-1.174805-2.835815-1.174866h-21.137207h-3h-0.5v-0.5v-3v-15.466003v-1.242859
	v-0.207153l0.146484-0.146423l0.878967-0.878723l26.447083-26.440002c0.757507-0.757874,1.174622-1.76593,1.1745-2.838318V30.780029
	c-0.025085-2.163513-1.825378-3.928528-4.013123-3.928711l-0.049438,0.000366
	c-2.161316,0.02478-3.941833,1.805115-3.966675,3.968506l0.000183,38.347839v1.243042v0.207153l-0.146545,0.146423
	l-0.879211,0.878845l-13.622925,13.616028l-5.12085,5.118103l-0.853455,0.852966v-1.206604v-7.23999v-6.083984
	c0-2.213379-1.800659-4.014038-4.013977-4.014038h-5.050964h-2.517639h-0.419556l-0.072876-0.413269l-0.436829-2.47937
	c-2.46228-13.974243-12.239441-25.765564-25.516113-30.772461l-4.35083-1.640808l-0.725098-0.273438l0.548035-0.547974
	l3.288208-3.28772L142.725342,7.08197c0.73877-0.750671,1.142517-1.756226,1.134155-2.828552
	c-0.008484-1.072388-0.434021-2.077332-1.198303-2.829651c-0.755737-0.744019-1.756104-1.153748-2.816772-1.153809
	c-1.060852-0.000061-2.06134,0.409973-2.817383,1.154541l-30.896179,30.895386l-2.121521,2.121521l-0.353638,0.353577
	l-0.353516-0.353638l-2.121277-2.121704L70.54187,1.674622c-0.757629-0.757263-1.76532-1.174377-2.837463-1.174377
	c-1.072632-0.000061-2.081055,0.417786-2.839478,1.176514c-1.564941,1.565735-1.564331,4.112732,0.001343,5.677795
	L90.78186,33.270142l3.287842,3.28772l0.547974,0.547974l-0.725098,0.273438l-4.350586,1.640625
	C76.264771,44.026611,66.486816,55.817993,64.023865,69.79248l-0.436951,2.479309l-0.072815,0.413208h-0.419617h-2.517517h-5.376953
	c-2.211304,0.00116-4.010254,1.802124-4.01001,4.014587v6.085388v7.241516v1.206909l-0.853516-0.853333l-5.121094-5.119934
	L31.595398,71.643127l-0.878906-0.878723l-0.146484-0.146484v-0.207092V69.16803v-38.388
	c0-2.213623-1.800903-4.014526-4.014526-4.014526c-2.213562,0-4.014465,1.800903-4.014465,4.014526v41.5
	c-0.000183,1.072754,0.417236,2.081177,1.175354,2.839661l26.446167,26.439148l0.878967,0.878723l0.146484,0.146423v0.207153
	v1.242859V119.5v3v0.5h-0.5h-3H26.555969c-1.072205-0.000061-2.080322,0.417358-2.838562,1.175354L1.408752,146.481995
	c-1.565369,1.565125-1.565674,4.112-0.000671,5.677368c0.75824,0.758362,1.766479,1.176025,2.838928,1.176025
	c1.072144,0,2.080139-0.41748,2.838379-1.175476l20.107117-20.100281l0.878601-0.878296l0.146423-0.146362h0.207092h1.242371
	h18.021973h3h0.5v0.5v3v7.330017v1.018311v0.169678l-0.103271,0.134644l-0.619934,0.807983l-27.100037,35.317993
	c-0.535034,0.697144-0.829712,1.564941-0.829712,2.443542v43.724854c0,2.213623,1.800903,4.014465,4.014465,4.014465
	c2.213623,0,4.014526-1.800842,4.014526-4.014465v-41.182007v-1.018433v-0.169739l0.103333-0.134644l0.619995-0.807922
	l13.987976-18.228027l4.516296-5.885254l0.752686-0.980835l0.140747,1.228394l0.844238,7.370117
	c1.853455,16.180542,11.323914,30.798706,25.333496,39.103577l0.053955,0.031982l0.070007,0.045105
	c0.118774,0.077271,0.243469,0.149231,0.370422,0.213806l0.069092,0.035034l0.090027,0.051086
	c7.892395,4.5401,16.876709,6.939941,25.98175,6.939941c9.113037,0,18.104126-2.403687,26.001404-6.951233l0.057556-0.033203
	l0.079346-0.041565c0.085815-0.044495,0.169373-0.096375,0.252869-0.148254l0.005188-0.003235l0.068115-0.041077
	c14.105286-8.290405,23.638489-22.944275,25.501282-39.199097l0.844543-7.370239l0.140808-1.228394l0.752625,0.980957
	l4.515991,5.885559l13.984009,18.224976l0.619934,0.807922l0.103333,0.134644v0.169739v1.018311v41.174011
	c0.025085,2.163696,1.825195,3.92865,4.012695,3.92865l0.050415-0.000305c2.160706-0.024841,3.941223-1.805176,3.966125-3.968506
	l-0.000244-43.681824c0.000061-0.878052-0.294373-1.745056-0.829102-2.441406l-27.100647-35.317932l-0.619934-0.807922
	l-0.103333-0.134644v-0.169739V141.862v-7.330994v-3v-0.5h0.5h3h18.021973h1.242432h0.207092L178.919922,131.177429z
	 M71.54187,72.053528l1.032227-3.788574c3.809021-13.980835,16.5896-23.759521,31.080017-23.779968
	c14.497498,0.019531,27.281982,9.798218,31.09082,23.78009l1.032104,3.788513l0.171997,0.631409h-0.654419h-3.926575H75.950989
	h-3.926697h-0.654419L71.54187,72.053528z M78.857056,196.143738l-0.313782,0.313843l-0.348877-0.274353l-2.093079-1.646118
	c-10.727478-8.436829-16.881226-21.102905-16.883301-34.75061l-0.000244-1.242859v-0.210815l0.001221-0.001221V84.213013v-3v-0.5
	h0.5h3h33.265991h3h0.5v0.5v3v89.852966v1.242676v0.207092l-0.146423,0.146484l-0.878662,0.878662l-17.720032,17.719971
	L78.857056,196.143738z M120.546143,200.954224l-4.895203,1.404114c-3.951721,1.133484-8.039795,1.708191-12.150452,1.708191
	c-4.110596,0-8.198669-0.574707-12.150513-1.708191l-0.448608-0.128662l-0.074707-0.021484l-0.064697-0.043091l-0.388367-0.25885
	l-3.04541-2.030273l-0.50708-0.338013l0.430603-0.431274l2.585571-2.589661l11.188293-11.184326l2.121277-2.120605
	l0.353577-0.353394l0.353516,0.353455l2.120911,2.120972l11.186035,11.185974l3.600952,3.600952l0.600098,0.600159
	L120.546143,200.954224z M147.778015,159.785522c-0.002197,13.64801-6.156372,26.314148-16.88446,34.750671l-2.092834,1.645752
	l-0.348816,0.274292l-0.313782-0.313721l-1.882812-1.882446l-17.717957-17.714966l-0.878845-0.878723l-0.146484-0.146484v-0.207092
	v-1.242798V84.213013v-3v-0.5h0.5h3h33.264954h3h0.5v0.5v3v67.12323h0.000061l0.00116,1.205933L147.778015,159.785522z"/>
</svg>
