<?xml version="1.0" encoding="utf-8"?>
<!-- Generator: Adobe Illustrator 19.2.1, SVG Export Plug-In . SVG Version: 6.00 Build 0)  -->
<svg version="1.0" id="Слой_1" xmlns="http://www.w3.org/2000/svg" xmlns:xlink="http://www.w3.org/1999/xlink" x="0px" y="0px"
	 viewBox="0 0 512 512" style="enable-background:new 0 0 512 512;" xml:space="preserve">
<g>
	<circle style="fill:#B3DAF5;" cx="255.748703" cy="255.748703" r="248.584641"/>
	<circle style="fill:#FFFFFF;" cx="255.748703" cy="255.748688" r="217.024734"/>
	<path style="fill:#2A3038;" d="M256.000977,1.004395C187.887695,1.004883,123.851074,27.530273,75.687988,75.693848
		C27.524902,123.85791,1.000488,187.89502,1.001465,256.008301c0.000488,68.112793,26.525879,132.149902,74.689453,180.312988
		c48.164062,48.163086,112.201172,74.686523,180.314453,74.686523c68.112793-0.000977,132.149902-26.525391,180.312988-74.689453
		s74.686523-112.201172,74.686523-180.314453c-0.000977-68.11377-26.525391-132.149902-74.689453-180.312988
		S324.114258,1.003418,256.000977,1.004395z M426.416016,426.419922
		c-45.464844,45.573242-105.955078,70.713867-170.328613,70.791016c-0.098145,0-0.197266,0-0.29541,0
		c-64.263184,0-124.697754-24.989258-170.201172-70.384766c-45.573242-45.464844-70.713867-105.955078-70.790039-170.328613
		C14.724121,192.124023,39.720215,131.57373,85.18457,86.000977l0.408203-0.408203
		c45.501465-45.388184,105.937988-70.375977,170.192383-70.375977c0.105957,0,0.203125,0,0.309082,0.000488
		c64.373535,0.080078,124.862793,25.223633,170.324707,70.799316c45.382812,45.495605,70.375977,105.941406,70.375,170.202148
		C496.793945,320.479492,471.799805,380.924805,426.416016,426.419922z"/>
	<path style="fill:#2A3038;" d="M250.918945,464.953125c-49.594727-1.208008-97.271973-20.086914-134.248535-53.15918
		c-1.305176-1.1875-2.964355-1.828125-4.708984-1.828125c-0.112305,0-0.225098,0.00293-0.338379,0.007812
		c-1.867676,0.088867-3.588867,0.899414-4.847168,2.282227c-1.258789,1.382812-1.902832,3.172852-1.814941,5.041016
		c0.088379,1.867188,0.898438,3.588867,2.28125,4.847656l0.079102,0.070312
		c44.408691,39.723633,101.614746,59.772461,161.088867,56.459961c59.474609-3.3125,114.100586-29.586914,153.814453-73.984375
		c35.292969-39.455078,55.438477-90.329102,56.726562-143.25c1.289062-52.921875-16.358398-104.71582-49.69043-145.841309
		c-2.451172-2.973145-6.869141-3.400879-9.847656-0.949707c-2.9375,2.418457-3.394531,6.803223-1.018555,9.774902
		c35.144531,43.369141,51.297852,97.834961,45.481445,153.358887c-5.816406,55.524414-32.90625,105.459961-76.280273,140.608398
		C349.052734,449.625,300.507812,466.143555,250.918945,464.953125z"/>
	<path style="fill:#2A3038;" d="M256.069763,34.004272c-30.951111,0-60.962341,6.264526-89.200012,18.619629
		c-29.221863,12.785828-54.908936,31.423889-76.347656,55.396423c-35.124268,39.275696-55.174316,89.915161-56.456665,142.59021
		c-1.282288,52.674927,16.279907,104.230042,49.451416,145.168335c1.143921,1.40979,2.843933,2.218994,4.663452,2.218994
		c1.388733,0,2.694275-0.463684,3.775574-1.341003c1.244568-1.009766,2.021484-2.443787,2.187439-4.037842
		c0.166077-1.594055-0.298584-3.157349-1.308411-4.401917C62.665161,350.922546,46.032837,303.968201,46,256.001343
		C46,140.205627,140.205627,46,256,46l0.143494-0.000061c51.683044-0.000732,101.350403,18.988281,139.852783,53.469177
		c1.1203,1.02063,2.554565,1.576355,4.05127,1.576355c1.68573,0,3.303162-0.714111,4.437561-1.959167
		c2.228149-2.445557,2.05127-6.247925-0.394287-8.476074l-0.078186-0.070007
		c-40.767639-36.458496-93.298706-56.532593-147.929321-56.53595l-0.006775-0.999756
		c-0.002258,0-0.004517,0.000061-0.006775,0.000061V34.004272z"/>
</g>
<path style="fill:#F59899;" d="M263.666656,194.333328L236.333328,191L215,194.333328l-6,3.885498l11.023499,17.282364v16.165482
	v24.082031L213,263.126129l-12.666672-7.377426L189.666672,231L177,208.333328l-8-10.114502h-25.333328L121.666664,201
	l8.355309,17.333328l20.311356,44.792801l42.333344,50.540527L233,333l30.666656,2L271,322.333344V307l10-6.666656
	l15.333344,13.333313L313,331l22,4h23.333344l11.333313-2.666656L375,321c0,0-14-17.333344-16-18s-25.333344-26-25.333344-26
	v-9.333344L363,225l12-17.333328l-4-9.447845h-19.333344h-34l-9.333313,17.282364L295,243l-14,13.213867l-8,4.119476l-4-12.666672
	v-42L263.666656,194.333328z"/>
<path style="fill:#F36C6D;" d="M359.276093,319.554901c-0.361481-1.261475-0.885651-2.472382-1.555145-3.594208
	c-4.104797-6.936279-9.616486-12.8526-14.96106-18.212585c-2.18631-2.193146-4.452454-4.40506-6.643951-6.544098l-0.052948-0.051727
	l-0.030701-0.029968c-3.129608-3.053558-6.365753-6.211121-9.483246-9.423401
	c-5.102112-5.259705-5.83371-11.429779-2.127594-17.822876c1.454468-2.422119,3.049561-4.797607,4.756195-7.081146
	l0.682251-0.945084c2.61554-3.636703,5.279846-7.318771,7.920013-10.945511l0.162659-0.224136
	c5.268341-7.259659,10.716125-14.766388,15.92218-22.227234c3.144897-4.504898,4.966553-8.485947,5.732788-12.528824
	l0.272919-1.43988l-1.42688-0.334213c-1.132782-0.265366-2.29718-0.399887-3.460785-0.399887l-0.222839,0.001755
	c-6.73938,0.038528-13.511017,0.116531-20.059784,0.191986c-5.403076,0.062759-10.806183,0.118515-16.177979,0.16745
	l-0.300568-0.001709c-0.878815,0-1.767548,0.044861-2.641693,0.133316l-0.819824,0.083008l-0.381714,0.730255
	c-0.449585,0.860214-0.852142,1.75676-1.189331,2.646042c-4.388763,11.133087-9.863068,21.902802-16.267303,32.00444
	l-0.670654,1.047638l-0.021118,0.032974c-4.059052,6.339645-8.256317,12.895065-14.54541,18.106308
	c-2.350891,1.948364-4.798889,2.936218-7.276215,2.936218c-0.759094,0-1.499268-0.094513-2.201447-0.281281
	c-1.735016-0.459564-4.915192-1.948578-6.721893-6.764252c-1.018616-2.681885-1.562622-5.496231-1.616547-8.351883
	c-0.060455-5.791306,0.025482-11.620056,0.108551-17.256989c0.03064-2.091522,0.058899-4.180695,0.08493-6.269852
	c0.02002-1.827438,0.080841-3.664948,0.13974-5.441971l0.002747-0.093399c0.202362-3.847031,0.195526-7.748047-0.022186-11.624695
	c-0.38739-5.114014-1.062531-5.918732-5.566467-6.624939c-6.000793-0.903214-12.120346-1.361176-18.18869-1.361176
	c-6.152786,0-12.356537,0.470734-18.438934,1.399155l-3.588654,0.547729l2.898575,2.185547
	c3.188721,2.404404,5.268738,5.884781,6.18042,10.335251c2.014862,10.160095,2.372757,20.521652,1.061844,30.811157
	c-0.054718,0.464508-0.104523,0.932053-0.154007,1.397766l-0.036545,0.342651
	c-0.407379,3.861771-0.869034,8.238861-3.192566,12.384735c-1.885895,3.367432-4.779022,5.221893-8.146408,5.221893
	c-1.255646,0-2.555038-0.259033-3.849167-0.764618c-1.677002-0.673126-3.239624-1.590637-4.639542-2.723053
	c-4.918274-4.01297-8.835144-8.934387-11.65567-14.655136c-6.459763-12.463333-12.566254-24.688049-18.150009-36.335144
	c-1.691376-3.524734-3.662308-4.232758-6.29425-4.232758h-0.090103c-3.942688,0.021469-7.884888,0.041061-11.82692,0.058777
	c-5.820435,0.027634-11.640976,0.058304-17.45256,0.091766c-0.677734,0-1.390884,0.04866-2.145966,0.100174l-0.164474,0.01123
	l-0.659912,0.044312l-2.178772,0.146301l0.882019,1.997574c13.368179,30.277679,26.711533,53.876694,41.992249,74.267563
	c8.592972,11.467926,17.622482,20.398041,27.604675,27.300781c11.822067,8.173492,25.750381,12.146729,42.580673,12.146729
	c3.195358,0,6.570999-0.142517,10.033371-0.423401c0.567566-0.015961,1.118866-0.140015,1.639435-0.369019l0.574402-0.252625
	l0.231476-0.583313c0.269806-0.679901,0.4133-1.394775,0.426758-2.125549c0.040771-0.627167,0.065826-1.257233,0.090759-1.886658
	l0.016724-0.418671c0.056244-1.499268,0.11438-3.049561,0.309509-4.662323c0.484497-3.999329,1.386261-11.443634,7.171844-16.66571
	c2.257568-2.04303,4.652832-3.078949,7.090179-3.079224c1.821777,0.034668,3.6315,0.511963,5.233368,1.380157l0.027557,0.014984
	l0.028198,0.013794c1.498199,0.734161,2.873077,1.687134,4.063934,2.81073c2.156036,2.119843,4.338562,4.35965,6.264648,6.336365
	c1.030396,1.056458,2.062134,2.111115,3.097717,3.166687c1.274689,1.292969,2.551422,2.632446,3.790161,3.932007
	c2.96524,3.109497,5.766052,6.04657,8.810181,8.689911c3.264587,2.904297,7.468842,4.508301,11.857941,4.516571
	c5.015656-0.0047,10.135162-0.14801,15.084717-0.286621l4.623962-0.124573c1.219482-0.031372,2.440674-0.049255,3.662506-0.067139
	l0.621216-0.009186c3.695679-0.048431,7.18689-0.094177,10.652588-0.438385c0.76651-0.053497,1.517303-0.223999,2.231842-0.506836
	l0.606628-0.240082l0.369446-0.785095l-0.009857-0.431915C359.55014,320.726227,359.449921,320.113159,359.276093,319.554901z"/>
<path style="fill:#2A3038;" d="M346.671631,340.755402c1.701996-0.048035,3.401886-0.094116,5.099121-0.138245
	c1.487671-0.037231,2.968414-0.057556,4.611145-0.078491c4.15152-0.054749,8.438538-0.111237,12.727631-0.537933
	c6.140656-0.611176,9.20816-3.346802,10.700195-5.534149c1.456146-2.130829,2.861816-5.850006,1.293884-11.473633
	c-0.639862-2.252777-1.573029-4.424225-2.771362-6.446167c-5.12207-8.648254-11.747589-15.779144-18.144379-22.19696
	c-2.445831-2.449921-4.952057-4.896118-7.375824-7.26178l-0.15506-0.151306
	c-3.254425-3.174561-6.94342-6.773132-10.352173-10.286133c-2.080322-2.147461-2.884735-4.078033-0.843109-7.594086
	c1.371185-2.363251,2.990845-4.603241,4.705536-6.974701l0.770386-1.068359c2.912201-4.03775,5.831055-8.070953,8.756653-12.09996
	c5.928741-8.16861,12.05835-16.613983,17.944519-25.04776c4.392609-6.294006,7.042847-12.289505,8.102051-18.329147
	c1.141266-6.515533-1.667175-11.118179-7.907898-12.959732c-2.352478-0.672714-4.800171-1.015823-7.261322-1.015823
	l-0.331116,0.002121c-7.375702,0.044556-14.764374,0.126907-22.316315,0.2146
	c-5.959778,0.075516-11.992401,0.137421-17.928619,0.184052c-8.932648,0.068481-11.92392,2.100189-15.241608,10.351929
	c-4.624329,11.744827-10.399231,23.117722-17.159851,33.791443l-0.755737,1.180527
	c-4.16037,6.501389-8.087097,12.637726-13.599457,17.363419l-1.92514,1.650406l-0.790314-2.409409
	c-0.520386-1.586472-0.80545-3.237091-0.847198-4.906113c-0.06662-6.278778,0.027008-12.672424,0.117584-18.855499
	l0.000793-0.048126c0.037292-2.330414,0.068573-4.658249,0.094086-6.985657c0.022461-1.982285,0.090363-3.998154,0.156006-5.947617
	c0.238037-4.664566,0.220276-9.363647-0.051453-13.996323c-0.789276-10.397476-4.919891-15.059448-14.730621-16.598663
	c-7.181564-1.083221-14.516037-1.63327-21.78978-1.633331h-0.000046c-7.67955-0.000153-15.419495,0.612793-23.004837,1.821838
	c-4.885254,0.73938-9.374664,3.170929-12.654297,6.848648c-1.135803,1.228302-3.74649,4.050629-2.582794,7.671097
	c1.039642,3.234558,4.167252,4.224976,6.429352,4.688583c4.473923,0.916504,6.652176,3.01442,7.518356,7.241135
	c2.011276,10.222168,2.356613,20.631195,1.028931,30.950989c-0.076492,0.657913-0.147873,1.33606-0.219299,2.014999
	c-0.358231,3.393646-0.667389,6.322556-1.829071,8.898315l-0.786697,1.744186l-1.637207-0.990265
	c-0.454391-0.274841-0.895233-0.58255-1.310333-0.914581c-4.328842-3.581497-7.754395-7.936584-10.203125-12.961441
	c-7.08493-13.672089-13.805374-27.125748-19.975555-39.989258c-3.379059-7.047928-8.670746-10.473877-16.177567-10.473877h-0.134003
	c-4.359848,0.023132-8.729019,0.044876-13.098343,0.065262c-6.459305,0.027069-12.918106,0.061035-19.377213,0.101715
	c-1.106934,0.007248-2.157593,0.078262-3.173676,0.146896c-0.366051,0.024628-0.720444,0.048447-1.074837,0.069717
	c-4.317673,0.156677-8.206512,2.427872-10.442932,6.077423L116,199.168167v6.058273l0.810654,1.756409l0.069153,0.148453
	c0.192238,0.412674,0.384056,0.824829,0.567802,1.241653c15.154213,34.340652,30.334267,61.173309,47.77227,84.443451
	c10.197632,13.609772,20.980988,24.253876,32.966141,32.54071c15.079422,10.426056,31.882339,15.282013,52.879776,15.282013
	c3.868393,0,7.947754-0.172607,12.124847-0.513092c7.416138-0.605103,11.958252-5.39093,12.461548-13.13031
	c0.060242-0.931976,0.098175-1.891235,0.134949-2.873932c0.05719-1.520294,0.111206-2.955933,0.276428-4.324158
	c0.699951-5.781464,1.651337-9.430817,4.669434-12.156036c0.092499-0.083038,0.17215-0.151672,0.243774-0.212219l0.856201-0.723541
	l1.001251,0.504059l0.09198,0.046326c0.721375,0.330872,1.393829,0.759003,1.999207,1.272919l0.046875,0.039825l0.043915,0.043121
	c2.253113,2.212708,4.512543,4.531097,6.69754,6.773132l0.095978,0.098389c1.154236,1.193817,2.309387,2.377197,3.470154,3.554871
	c1.32959,1.349365,2.655365,2.739471,3.937531,4.083832l0.144745,0.151764l0.11618,0.121826
	c3.270172,3.429108,6.651672,6.974945,10.362549,10.190979c5.424866,4.800659,12.374268,7.454163,19.596832,7.493103
	l0.205536-0.00296C335.368042,341.07196,341.114441,340.911041,346.671631,340.755402z M316.501068,325.892487
	c-3.375488-2.931152-6.48114-6.187897-9.769226-9.635895c-1.373596-1.44104-2.789246-2.926331-4.202759-4.360077
	c-1.148285-1.170441-2.292328-2.339935-3.434906-3.511414c-2.135742-2.191833-4.555847-4.675507-6.946564-7.026123
	c-1.320496-1.245911-2.845062-2.302582-4.506378-3.116638l-0.031219-0.015381l-0.030609-0.016541
	c-1.776276-0.962738-3.78299-1.491974-5.80304-1.530426c-2.702667,0.000305-5.358704,1.148987-7.862,3.414398
	c-6.415436,5.790588-7.415375,14.045227-7.952576,18.479919c-0.216339,1.78833-0.280853,3.507416-0.343201,5.169891
	l-0.018555,0.464233c-0.027618,0.697906-0.05542,1.396606-0.100647,2.092041
	c-0.014923,0.810303-0.174042,1.602997-0.473206,2.356934l-0.256653,0.64679l-0.636963,0.280182
	c-0.577209,0.253876-1.188538,0.391449-1.817841,0.409149c-3.839294,0.311493-7.582443,0.469452-11.125641,0.469452
	c-18.662415,0-34.106903-4.405701-47.215958-13.468994c-11.068848-7.654114-21.081299-17.556366-30.60968-30.272675
	c-16.944122-22.610565-31.740005-48.77858-46.563484-82.352203l-0.977997-2.215057l2.415916-0.162262l0.731781-0.049118
	l0.182404-0.012421c0.83725-0.057144,1.628036-0.111069,2.379532-0.111069c6.444244-0.03717,12.898392-0.071121,19.352432-0.101761
	c4.371124-0.019669,8.742462-0.041412,13.11438-0.065216h0.099945c2.918396,0,5.103943,0.785126,6.979385,4.693542
	c6.19162,12.914993,12.962845,26.470474,20.125824,40.290543c3.127563,6.343491,7.470795,11.80069,12.924484,16.250488
	c1.552307,1.255676,3.285065,2.273071,5.144562,3.01944c1.435028,0.560669,2.875916,0.84787,4.268188,0.84787
	c3.733978,0,6.942032-2.056335,9.033203-5.790314c2.576477-4.597168,3.08844-9.45076,3.540146-13.732971l0.040527-0.379913
	c0.054855-0.516403,0.110092-1.034882,0.170746-1.549927c1.453613-11.409592,1.056778-22.899094-1.177414-34.165192
	c-1.010925-4.934952-3.317368-8.794235-6.85321-11.460373l-3.214096-2.423416l3.979309-0.607407
	c6.744507-1.029434,13.623596-1.551437,20.446152-1.551437c6.728928,0,13.514648,0.507812,20.168732,1.509369
	c4.994171,0.783066,5.742859,1.6754,6.172394,7.3461c0.241425,4.298676,0.248962,8.624313,0.024597,12.890106l-0.003052,0.103622
	c-0.065308,1.970428-0.132751,4.007996-0.154968,6.034317c-0.02887,2.316605-0.060181,4.633194-0.094208,6.952438
	c-0.092072,6.250565-0.187347,12.71376-0.120331,19.135544c0.059845,3.166489,0.663025,6.287216,1.792542,9.261047
	c2.003387,5.339935,5.529694,6.991058,7.453613,7.50061c0.778595,0.207092,1.599365,0.311859,2.441101,0.311859
	c2.746979,0,5.461517-1.095367,8.068268-3.255829c6.973755-5.778503,11.627899-13.047546,16.128815-20.077301l0.023438-0.036606
	l0.743683-1.161682c7.101318-11.201248,13.17157-23.143341,18.038086-35.488373
	c0.373932-0.986115,0.820282-1.980209,1.318848-2.934082l0.423218-0.809784l0.909119-0.092026
	c0.969238-0.098083,1.954742-0.147827,2.929199-0.147827l0.333344,0.001923c5.956512-0.054291,11.947845-0.11615,17.939087-0.185715
	c7.261688-0.083649,14.770416-0.170135,22.2435-0.212891l0.24704-0.001907c1.290253,0,2.58139,0.14917,3.837555,0.44342
	l1.582184,0.37059l-0.302582,1.596634c-0.849701,4.482925-2.869659,8.897385-6.356903,13.892685
	c-5.772766,8.272964-11.813599,16.596909-17.655487,24.646851l-0.180328,0.248489
	c-2.927551,4.021606-5.881897,8.104431-8.782166,12.13707l-0.756531,1.047958
	c-1.892365,2.532135-3.661133,5.166229-5.273926,7.851959c-4.109589,7.089081-3.29834,13.930847,2.359222,19.763092
	c3.456787,3.561981,7.045258,7.063232,10.515533,10.449249l0.034058,0.033173l0.058746,0.057343
	c2.430054,2.371918,4.942871,4.824585,7.367157,7.2565c5.926361,5.943481,12.038055,12.503845,16.589722,20.19519
	c0.742401,1.243988,1.323608,2.58667,1.724426,3.985474c0.192749,0.619049,0.303894,1.298859,0.31955,1.984558l0.026978,1.181
	l-1.098389,0.434723c-0.792267,0.313599-1.624786,0.502686-2.474762,0.562012
	c-3.842987,0.381653-7.714233,0.432373-11.812164,0.486115l-0.688873,0.010132
	c-1.354858,0.019897-2.708984,0.039703-4.061188,0.074493l-5.12735,0.138153
	c-5.488373,0.153656-11.165192,0.312622-16.726837,0.31781C324.783051,330.891541,320.121063,329.112946,316.501068,325.892487z"/>
</svg>
