<?xml version="1.0" encoding="utf-8"?>
<!-- Generator: Adobe Illustrator 19.2.1, SVG Export Plug-In . SVG Version: 6.00 Build 0)  -->
<svg version="1.0" id="Слой_1" xmlns="http://www.w3.org/2000/svg" xmlns:xlink="http://www.w3.org/1999/xlink" x="0px" y="0px"
	 viewBox="0 0 572 555" style="enable-background:new 0 0 572 555;" xml:space="preserve">
<path style="fill:#FFFFFF;" d="M557,134.666672H13v374l7.838013,22.666656l15.923275,10H495h40.237732l15.923279-14.666626
	c0,0,13.172302-17.333344,11.172302-19.333344s0-362.863373,0-362.863373L557,134.666672z"/>
<polygon style="fill:#CEEBFF;" points="537,13.333333 42.333332,13.333333 20.838013,25.333334 8.333333,56.576012 13,134.666672 
	557,134.666672 562.333313,96.666664 558.333313,40.666668 550.161011,16.666666 "/>
<path style="fill:#B3DAF5;" d="M36.76244,114.137611h0.943447h10.378578h475.831177h10.378601h0.943481v-0.778557v-8.564148
	V54.187916c-0.015991-11.486073-11.358765-20.841373-25.28598-20.854584H62.035114
	C48.114006,33.345688,36.77626,42.705551,36.761288,54.1987v50.596252l0.001095,8.564148L36.76244,114.137611z"/>
<path style="opacity:0.05;fill:#2A3038;" d="M508.375,13.333333l-367.375,532h305.375l81.291687-2.666626L547,531.333313
	L562.333313,504V394.666656V125.628967c0,0-2.666626-75.628967-3.333313-80.295639s-8.838989-28.666666-8.838989-28.666666
	L508.375,13.333333z"/>
<path style="fill:#2A3038;" d="M570,48.641968C569.971558,22.953796,549.043213,2.029785,523.347229,2H48.638
	C22.950623,2.030212,2.028381,22.959656,2,48.655212v457.702759C2.028442,532.045776,22.956421,552.969788,48.651978,553h474.709045
	C549.04895,552.970215,569.971619,532.04071,570,506.344788V48.641968z M21.838013,48.641968
	c0.015869-14.762085,12.032471-26.784119,26.787109-26.799988h474.735901
	c14.761108,0.016968,26.78302,12.033142,26.799988,26.786133v65.000854v11v1h-1h-11H33.839172h-11h-0.999939l-0.000061-0.999939
	l-0.00116-11V48.641968z M551.161011,145.469971v11v349.888c-0.016235,15.312927-12.481445,27.783508-27.786987,27.800049H48.638
	h-0.000549h-0.013123c-15.304016-0.017517-27.768921-12.482422-27.786316-27.786377V156.469971v-11v-1h1h11h506.322998h11h1
	V145.469971z"/>
<path style="fill:#2A3038;" d="M490.588196,56.576015c-9.824768-0.001415-17.790466,7.962002-17.791901,17.786793
	c-0.001404,9.824783,7.962006,17.790489,17.786804,17.791901c9.824799,0.001419,17.790497-7.962006,17.791901-17.786789
	c0-0.001137,0-0.002281,0-0.003418C508.363159,64.545753,500.406952,56.588776,490.588196,56.576015z"/>
<path style="fill:#2A3038;" d="M428.588196,56.576015c-9.824768-0.001415-17.790466,7.962002-17.791901,17.786793
	c-0.001404,9.824783,7.962006,17.790489,17.786804,17.791901c9.824799,0.001419,17.790497-7.962006,17.791901-17.786789
	c0-0.001137,0-0.002281,0-0.003418C446.363159,64.545753,438.406952,56.588776,428.588196,56.576015z"/>
<path style="fill:#2A3038;" d="M366.588196,56.576015c-9.824768-0.001415-17.790466,7.962002-17.791901,17.786793
	c-0.001404,9.824783,7.962006,17.790489,17.786804,17.791901c9.824799,0.001419,17.790497-7.962006,17.791901-17.786789
	c0-0.001137,0-0.002281,0-0.003418C384.363159,64.545753,376.406952,56.588776,366.588196,56.576015z"/>
<polygon style="fill:#F59899;" points="384.375,257.333344 286,250.666672 191,254 171,277.5 171,399.333344 195.666672,424 
	274.333344,427.333344 366.585663,424 389.666656,420.21463 400.333344,398 403,289.333344 394.698639,267.333344 "/>
<path style="fill:#F36C6D;" d="M359.266907,405.682404c3.799591-0.395111,9.003143-0.936798,13.892151-6.393219
	c0.012878-0.017151,0.068542-0.078857,0.125977-0.138c3.225342-3.479889,5.411011-12.982758,5.964661-17.060913
	c0.110596-0.975372,1.907074-17.135437,1.992828-33.316925l-0.000854-17.84259c0-16.717163-1.916534-33.808044-1.997955-34.528015
	c-0.70282-5.1427-3.033325-13.894714-5.99469-17.09436l-0.089966-0.100281
	c-4.904419-5.471375-10.112274-5.998474-13.915283-6.383331c-0.465393-0.04718-0.898254-0.091736-1.292511-0.138
	c-28.07486-2.164215-70.732635-2.189484-71.160309-2.189484h-0.096863c-0.427734,0-43.08551,0.025269-71.240463,2.198029
	c-0.308594,0.03772-0.740555,0.082275-1.206375,0.129456c-3.803482,0.385712-9.009171,0.914093-13.916992,6.386383
	l-0.078857,0.086121c-3.271606,3.539429-5.460251,13.081268-6.00885,17.148315
	c-0.075806,0.672791-1.992355,17.75-1.992355,34.476624v16.652008c0,16.337524,1.793976,32.716156,1.998398,34.529785
	c0.702408,5.136719,3.031189,13.877563,5.988647,17.068604l0.086563,0.096008
	c4.416718,4.924957,10.120392,5.657837,14.703857,6.246643c1.049088,0.135437,2.003036,0.25885,2.922302,0.42514
	c15.579788,1.529083,63.399155,2.071625,68.810104,2.128204l0.099854,2.194733l-0.007263-2.193878
	c4.446686-0.014587,44.201447-0.197998,71.126862-2.244781C358.372986,405.776703,358.803223,405.730408,359.266907,405.682404z"/>
<polygon style="fill:#FFFFFF;" points="333,335.333344 262.333344,298 262.333344,379.333344 "/>
<g>
	<path style="fill:#2A3038;" d="M411.591248,287.942139c-0.00589-0.075409-0.013702-0.155701-0.024475-0.239899
		c-0.455322-3.391846-3.164673-20.786743-11.76178-30.127045c-10.581848-11.775467-22.537506-12.987183-28.284241-13.569794
		l-0.266327-0.026932c-0.348572-0.03476-0.673676-0.067062-0.969391-0.104279
		c-0.147827-0.019089-0.296661-0.033783-0.445496-0.045532c-32.906921-2.55072-82.536041-2.580109-83.033447-2.580109h-0.110657
		c-0.497406,0-50.126526,0.029388-83.026077,2.580109c-0.149826,0.011749-0.299149,0.026443-0.432312,0.043579
		c-0.259476,0.031815-0.540009,0.060211-0.83963,0.091064l-0.408813,0.042099
		c-5.743301,0.581635-17.694046,1.791885-28.263672,13.546783c-8.846298,9.615448-11.508163,28.078125-11.782822,30.152008
		l2.485138,0.32901l0,0l-2.507172-0.15274c-1.506927,13.783722-2.319153,27.806396-2.415115,41.694916v19.045807
		c0.094986,13.853241,0.905731,27.8573,2.408752,41.625397c0.006363,0.083221,0.016159,0.163513,0.027908,0.235962
		c0.454819,3.390869,3.159286,20.776978,11.767639,30.111389c9.813705,10.911835,22.064087,12.488312,28.651917,13.336273
		c1.056046,0.136078,1.976456,0.257507,2.534576,0.366211c0.29718,0.058746,0.596802,0.10379,0.903778,0.136078
		c18.985092,1.943665,78.422058,2.547821,80.967407,2.572296c0.486145,0,50.099121-0.113586,83.057892-2.637878
		c0.165497-0.012726,0.332916-0.030365,0.489594-0.050934c0.332916-0.043091,0.699127-0.081268,1.094727-0.122375l0.193848-0.020569
		c5.731079-0.599243,17.657349-1.845734,28.174591-13.552673c8.847748-9.600739,11.510132-28.058044,11.778412-30.08786
		l0.028381-0.21933c1.506958-13.793549,2.319672-27.818176,2.415619-41.700806v-19.04776
		C413.904053,315.711334,413.093292,301.707275,411.591248,287.942139z M286.876099,420.21463l-0.114075-2.507294
		c-6.181488-0.064606-60.810242-0.684448-78.608582-2.431274c-1.050156-0.189941-2.139969-0.330963-3.33847-0.485657
		c-5.236099-0.672699-11.751968-1.509888-16.797623-7.136169l-0.098892-0.10968
		c-3.378616-3.645447-6.039017-13.630981-6.841446-19.499146c-0.233536-2.07193-2.282928-20.782837-2.282928-39.446747v-19.023285
		c0-19.108459,2.189423-38.617401,2.276077-39.386047c0.626663-4.646149,3.126968-15.546753,6.864456-19.59021l0.090073-0.098419
		c5.60672-6.251495,11.553696-6.855164,15.898758-7.295776c0.532181-0.053864,1.025681-0.104767,1.378174-0.147858
		c32.1642-2.482178,80.896408-2.511078,81.385025-2.511078h0.110626c0.488617,0,49.220825,0.0289,81.293457,2.501282
		c0.450409,0.052887,0.944916,0.10379,1.476593,0.157654c4.344574,0.439636,10.293976,1.04184,15.89679,7.292358l0.102814,0.114563
		c3.383026,3.655243,6.04538,13.653503,6.848297,19.528534c0.093018,0.822479,2.28244,20.347107,2.28244,39.444794
		l0.000977,20.383331c-0.0979,18.485718-2.150238,36.94693-2.27655,38.061249
		c-0.632568,4.658875-3.129425,15.514893-6.814026,19.490326c-0.065613,0.067566-0.129272,0.138062-0.143951,0.157654
		c-5.585175,6.233368-11.529694,6.852203-15.870361,7.303589c-0.529724,0.05484-1.021271,0.107727-1.470703,0.162567
		c-30.759583,2.338226-76.175354,2.547791-81.25528,2.564423L286.876099,420.21463L286.876099,420.21463z"/>
	<path style="fill:#2A3038;" d="M339.365234,331.711548l-73.522095-44.115356c-1.342468-0.806213-2.87616-1.2323-4.435669-1.2323
		c-3.029785,0-5.877075,1.608215-7.430725,4.197021c-0.806763,1.344055-1.233154,2.88269-1.233154,4.449829v88.228882
		c-0.000488,2.310303,0.898926,4.482178,2.532471,6.115784c1.63324,1.634094,3.804993,2.533936,6.115234,2.533936
		c1.568909,0,3.108032-0.426331,4.450989-1.232971l73.521179-44.112732c4.089111-2.452209,5.420166-7.775513,2.967407-11.866699
		C341.603333,333.464966,340.577759,332.439392,339.365234,331.711548z M316.673096,339.984619l-45.121521,27.073059
		l-1.514465,0.908691v-1.766235v-54.146973v-1.766235l1.514526,0.908752l45.121521,27.073975l1.429077,0.857483
		L316.673096,339.984619z"/>
</g>
</svg>
