<?xml version="1.0" encoding="utf-8"?>
<!-- Generator: Adobe Illustrator 19.2.1, SVG Export Plug-In . SVG Version: 6.00 Build 0)  -->
<svg version="1.0" id="Слой_1" xmlns="http://www.w3.org/2000/svg" xmlns:xlink="http://www.w3.org/1999/xlink" x="0px" y="0px"
	 viewBox="0 0 572 555" style="enable-background:new 0 0 572 555;" xml:space="preserve">
<path style="fill:#FFFFFF;" d="M557,134.666672H13v374l7.838013,22.666656l15.923275,10H495h40.237732l15.923279-14.666626
	c0,0,13.172302-17.333344,11.172302-19.333344s0-362.863373,0-362.863373L557,134.666672z"/>
<polygon style="fill:#CEEBFF;" points="537,13.333333 42.333332,13.333333 20.838013,25.333334 8.333333,56.576012 13,134.666672 
	557,134.666672 562.333313,96.666664 558.333313,40.666668 550.161011,16.666666 "/>
<path style="fill:#B3DAF5;" d="M36.76244,114.137611h0.943447h10.378578h475.831177h10.378601h0.943481v-0.778557v-8.564148
	V54.187916c-0.015991-11.486073-11.358765-20.841373-25.28598-20.854584H62.035114
	C48.114006,33.345688,36.77626,42.705551,36.761288,54.1987v50.596252l0.001095,8.564148L36.76244,114.137611z"/>
<path style="opacity:0.05;fill:#2A3038;" d="M508.375,13.333333l-367.375,532h305.375l81.291687-2.666626L547,531.333313
	L562.333313,504V394.666656V125.628967c0,0-2.666626-75.628967-3.333313-80.295639s-8.838989-28.666666-8.838989-28.666666
	L508.375,13.333333z"/>
<path style="fill:#2A3038;" d="M570,48.641968C569.971558,22.953796,549.043213,2.029785,523.347229,2H48.638
	C22.950623,2.030212,2.028381,22.959656,2,48.655212v457.702759C2.028442,532.045776,22.956421,552.969788,48.651978,553h474.709045
	C549.04895,552.970215,569.971619,532.04071,570,506.344788V48.641968z M21.838013,48.641968
	c0.015869-14.762085,12.032471-26.784119,26.787109-26.799988h474.735901
	c14.761108,0.016968,26.78302,12.033142,26.799988,26.786133v65.000854v11v1h-1h-11H33.839172h-11h-0.999939l-0.000061-0.999939
	l-0.00116-11V48.641968z M551.161011,145.469971v11v349.888c-0.016235,15.312927-12.481445,27.783508-27.786987,27.800049H48.638
	h-0.000549h-0.013123c-15.304016-0.017517-27.768921-12.482422-27.786316-27.786377V156.469971v-11v-1h1h11h506.322998h11h1
	V145.469971z"/>
<path style="fill:#2A3038;" d="M490.588196,56.576015c-9.824768-0.001415-17.790466,7.962002-17.791901,17.786793
	c-0.001404,9.824783,7.962006,17.790489,17.786804,17.791901c9.824799,0.001419,17.790497-7.962006,17.791901-17.786789
	c0-0.001137,0-0.002281,0-0.003418C508.363159,64.545753,500.406952,56.588776,490.588196,56.576015z"/>
<path style="fill:#2A3038;" d="M428.588196,56.576015c-9.824768-0.001415-17.790466,7.962002-17.791901,17.786793
	c-0.001404,9.824783,7.962006,17.790489,17.786804,17.791901c9.824799,0.001419,17.790497-7.962006,17.791901-17.786789
	c0-0.001137,0-0.002281,0-0.003418C446.363159,64.545753,438.406952,56.588776,428.588196,56.576015z"/>
<path style="fill:#2A3038;" d="M366.588196,56.576015c-9.824768-0.001415-17.790466,7.962002-17.791901,17.786793
	c-0.001404,9.824783,7.962006,17.790489,17.786804,17.791901c9.824799,0.001419,17.790497-7.962006,17.791901-17.786789
	c0-0.001137,0-0.002281,0-0.003418C384.363159,64.545753,376.406952,56.588776,366.588196,56.576015z"/>
<ellipse style="fill:#F59899;" cx="284.539368" cy="298.85434" rx="57.460632" ry="72.883636"/>
<ellipse style="fill:#F36C6D;" cx="284.539368" cy="298.85434" rx="36.460632" ry="46.247028"/>
<polygon style="fill:#F59899;" points="284.539368,371.737976 359,383.5 384.375,404.5 392,431 392,449 366.585663,457 230.5,454 
	185,452 175.5,430.5 188,403.5 217.333984,382.5 "/>
<path style="fill:#F36C6D;" d="M210.066345,437.253082h149.86734c1.877228-0.003082,3.397888-1.524841,3.399658-3.402069
	c-0.015869-20.976593-17.008118-37.982056-37.984711-38.014343c-4.493591,0-12.848633,0.91333-39.29007-25.304993
	C259.125,396.375,249.144943,395.83667,244.651352,395.83667c-20.976578,0.032288-37.968781,17.03775-37.98468,38.014343
	C206.667984,435.728424,208.188934,437.250458,210.066345,437.253082z"/>
<g>
	<path style="fill:#2A3038;" d="M285,380.226013c37.311035,0,67.666016-36.835999,67.666016-82.113037
		C352.666016,252.835999,322.311035,216,285,216c-18.513,0-35.771973,8.839966-48.596008,24.891968
		c-12.296997,15.374023-19.070007,35.697998-19.070007,57.228027C217.333984,343.393982,247.689026,380.226013,285,380.226013z
		 M285,236.304993c26.127991,0,47.384033,27.72998,47.384033,61.815002c0,34.084961-21.259033,61.815002-47.384033,61.815002
		s-47.391968-27.72998-47.391968-61.815002C237.608032,264.035034,258.868042,236.304993,285,236.304993z"/>
	<path style="fill:#2A3038;" d="M335.333984,371.737976c-5.605652,0-10.149963,4.544312-10.149963,10.150024
		c0,5.605652,4.544312,10.149963,10.149963,10.149963c26.167786,0.040283,47.365234,21.254211,47.38501,47.421997
		c-0.002197,2.341797-1.89917,4.240173-4.240967,4.244019H191.522034c-2.342041-0.003296-4.23938-1.901978-4.241028-4.244019
		c0.019836-26.167786,21.217224-47.381714,47.38501-47.421997c5.605652,0,10.149963-4.544312,10.149963-10.149963
		c0-5.605713-4.544312-10.150024-10.149963-10.150024C197.297791,371.795349,167.027527,402.089722,167,439.458008
		c0.009949,13.542236,10.979736,24.521057,24.522034,24.541992h186.955994
		c13.54248-0.020386,24.512634-10.999512,24.521973-24.541992C402.973022,402.089539,372.702454,371.794739,335.333984,371.737976z"
		/>
</g>
</svg>
