<?xml version="1.0" encoding="utf-8"?>
<!-- Generator: Adobe Illustrator 19.2.1, SVG Export Plug-In . SVG Version: 6.00 Build 0)  -->
<svg version="1.0" id="Слой_1" xmlns="http://www.w3.org/2000/svg" xmlns:xlink="http://www.w3.org/1999/xlink" x="0px" y="0px"
	 viewBox="0 0 572 555" style="enable-background:new 0 0 572 555;" xml:space="preserve">
<path style="fill:#FFFFFF;" d="M557,134.666672H13v374l7.838013,22.666656l15.923275,10H495h40.237732l15.923279-14.666626
	c0,0,13.172302-17.333344,11.172302-19.333344s0-362.863373,0-362.863373L557,134.666672z"/>
<polygon style="fill:#CEEBFF;" points="537,13.333333 42.333332,13.333333 20.838013,25.333334 8.333333,56.576012 13,134.666672 
	557,134.666672 562.333313,96.666664 558.333313,40.666668 550.161011,16.666666 "/>
<path style="fill:#B3DAF5;" d="M36.76244,114.137611h0.943447h10.378578h475.831177h10.378601h0.943481v-0.778557v-8.564148
	V54.187916c-0.015991-11.486073-11.358765-20.841373-25.28598-20.854584H62.035114
	C48.114006,33.345688,36.77626,42.705551,36.761288,54.1987v50.596252l0.001095,8.564148L36.76244,114.137611z"/>
<path style="opacity:0.05;fill:#2A3038;" d="M508.375,13.333333l-367.375,532h305.375l81.291687-2.666626L547,531.333313
	L562.333313,504V394.666656V125.628967c0,0-2.666626-75.628967-3.333313-80.295639s-8.838989-28.666666-8.838989-28.666666
	L508.375,13.333333z"/>
<polygon style="fill:#F59899;" points="297.666656,224.666672 268.333344,224.666672 257.444,250.666672 241.666672,257.333344 
	216.333328,248.666672 194.333328,266 201.666672,298 198.333328,313.333344 172.333328,324.666656 172.333328,352 
	198.333328,364.146637 201.666672,385.486633 199,410.666656 212.333328,425.333344 249,420 269.666656,452 292.333344,452 
	305.666656,441.739655 313.562012,426.666656 329.666656,421.333344 348.796295,429.333344 366.585663,423.333344 
	375.666656,401.333344 366.585663,380.666656 375.666656,368.666656 393,358 396.333344,336.086639 396.333344,317.333344 
	374.333344,314 370.333344,292.666656 375,277.5 357,251.333328 348.796295,244.421082 320.333344,257.333344 313.562012,248 
	305,224.666672 "/>
<g>
	<path style="fill:#F36C6D;" d="M285.50589,311.946014c-13.510406-0.001434-24.463928,10.949738-24.465363,24.460083
		c-0.001434,13.510437,10.949738,24.463928,24.460114,24.465393c13.504669-0.014923,24.449036-10.958099,24.465363-24.462708
		C309.966003,322.899353,299.015259,311.947449,285.50589,311.946014z"/>
	<path style="fill:#F36C6D;" d="M353.141754,358.643097c0.841125-2.855804,3.000336-5.135254,5.806396-6.129852l16.041718-5.706116
		c0.598633-5.45813,0.599823-10.96524,0.003479-16.423553l-16.041748-5.705261
		c-2.806061-0.994598-4.96524-3.274048-5.806366-6.129852c-1.387207-4.730438-3.267944-9.30188-5.611145-13.639008
		c-1.424255-2.612549-1.511139-5.749268-0.233673-8.436707l7.278076-15.305023
		c-3.516113-4.223846-7.410156-8.118195-11.633728-11.634552l-15.303314,7.273651
		c-2.686584,1.286926-5.828552,1.201263-8.441071-0.230164c-4.339264-2.343719-8.913452-4.223602-13.646759-5.608521
		c-2.852112-0.843628-5.128967-2.999969-6.126404-5.802032l-5.70871-16.049545c-5.45752-0.599854-10.964325-0.599854-16.421844,0
		l-5.708801,16.049545c-0.99707,2.802246-3.274078,4.958679-6.126343,5.802032
		c-4.731323,1.384277-9.303284,3.264221-13.639816,5.608521c-2.61412,1.426575-5.754028,1.512207-8.44194,0.230164
		l-15.309372-7.273651c-4.223633,3.516357-8.117661,7.410706-11.633728,11.634552l7.27803,15.305023
		c1.277039,2.687531,1.190201,5.823975-0.233658,8.436707c-2.342102,4.339752-4.222778,8.913086-5.611099,13.64505
		c-0.843033,2.852203-3.000214,5.128632-5.802917,6.123749l-16.048706,5.71048c-0.597519,5.456512-0.597519,10.961884,0,16.418396
		l16.041733,5.706116c2.803711,0.99469,4.962173,3.271057,5.806381,6.123749
		c1.385117,4.731171,3.265915,9.302795,5.611145,13.638977c1.423904,2.614838,1.510757,5.753174,0.233658,8.44278
		l-7.278076,15.305023c3.516541,4.22345,7.410568,8.117767,11.633728,11.634613l15.303253-7.274567
		c2.686798-1.28656,5.82872-1.200531,8.441086,0.231049c4.339264,2.34375,8.913513,4.223633,13.64679,5.60849
		c2.85199,0.843903,5.128784,3.000153,6.126404,5.802063l5.70874,16.049561c5.457886,0.592834,10.963928,0.592834,16.421844,0
		l5.708771-16.049561c0.995178-2.803497,3.272949-4.960663,6.126343-5.802063c4.732819-1.386444,9.306854-3.266235,13.64682-5.60849
		c2.61377-1.426453,5.753204-1.51239,8.441071-0.231049l15.303314,7.268463c4.225555-3.511993,8.119843-7.40451,11.633728-11.62851
		l-7.278076-15.305023c-1.277527-2.689514-1.190674-5.828033,0.233643-8.44278
		C349.876312,367.942169,351.757172,363.372467,353.141754,358.643097z M285.500641,379.47641
		c-23.786072,0-43.068542-19.28244-43.068542-43.068542c0-23.786072,19.282471-43.068481,43.068542-43.068481
		c23.774353,0.02832,43.040161,19.294189,43.068542,43.068481C328.569183,360.19397,309.286743,379.47641,285.500641,379.47641z"/>
</g>
<circle style="fill:#FFFFFF;" cx="285.022827" cy="336.356171" r="36.356174"/>
<path style="fill:#2A3038;" d="M408.432007,319.707642c-0.589508-3.886871-3.270142-7.133972-6.975006-8.449005l-19.618011-6.973999
	c-1.148468-3.255676-2.461823-6.450806-3.934998-9.572998l8.927002-18.785004
	c1.684204-3.54837,1.283997-7.734985-1.041992-10.899994c-7.499084-10.208771-16.50943-19.215729-26.721008-26.710999
	c-3.164642-2.328186-7.353699-2.725952-10.899994-1.035004l-18.774994,8.919998
	c-3.124908-1.472626-6.322693-2.785324-9.580994-3.932999l-6.977997-19.617996
	c-1.31485-3.696945-4.553528-6.373306-8.432007-6.968002c-12.513916-2.119003-25.295074-2.119003-37.80899,0
	c-3.877716,0.596359-7.115662,3.272095-8.432007,6.968002l-6.977997,19.617996
	c-3.257523,1.147156-6.454346,2.459854-9.578003,3.932999l-18.781998-8.919998
	c-3.544739-1.68808-7.73056-1.290405-10.893997,1.035004c-10.211655,7.495499-19.22229,16.502426-26.722,26.710999
	c-2.326294,3.164978-2.726181,7.351929-1.041,10.899994l8.927002,18.785004c-1.472687,3.122559-2.786362,6.317627-3.936005,9.572998
	l-19.619995,6.981995c-3.70105,1.315155-6.379654,4.558167-6.972,8.44101c-2.094666,12.50589-2.094666,25.273102,0,37.778992
	c0.589233,3.88678,3.270035,7.133698,6.975006,8.447998l19.617004,6.975006c1.151184,3.256744,2.464828,6.453766,3.936005,9.57901
	l-8.927002,18.778992c-1.684509,3.545563-1.2854,7.729828,1.039001,10.893005
	c7.49971,10.211548,16.511047,19.221191,26.723999,26.718994c3.163605,2.331055,7.354492,2.728638,10.899994,1.033997
	l18.770981-8.919006c3.12471,1.473053,6.32254,2.785767,9.580994,3.933014l6.977997,19.618011
	c1.314301,3.69693,4.552734,6.373383,8.431,6.967987c12.515198,2.104004,25.293793,2.104004,37.80899,0
	c3.878174-0.594818,7.116486-3.27121,8.431-6.967987l6.977997-19.618011c3.258453-1.147247,6.456268-2.459961,9.580994-3.933014
	l18.776001,8.920013c3.546021,1.691681,7.735321,1.294281,10.899994-1.033997
	c10.212036-7.497864,19.222382-16.507538,26.721008-26.718994c2.324402-3.163177,2.723511-7.347443,1.039001-10.893005
	l-8.924988-18.779999c1.473328-3.124298,2.787018-6.321411,3.936005-9.57901l19.617004-6.975006
	c3.705383-1.313995,6.386597-4.560974,6.976013-8.447998C410.522675,344.980743,410.523682,332.213867,408.432007,319.707642z
	 M388.144989,348.014648l-18.399994,6.545013c-3.218567,1.140808-5.69519,3.755371-6.660004,7.031006
	c-1.588135,5.424622-3.745453,10.666107-6.436005,15.636993c-1.633728,2.999146-1.733368,6.59906-0.268005,9.68399
	l8.347992,17.554993c-4.030457,4.844971-8.497223,9.309723-13.343994,13.338013l-17.553009-8.337006
	c-3.083038-1.469696-6.68399-1.371155-9.682007,0.265015c-4.977997,2.686584-10.224457,4.842743-15.653015,6.433014
	c-3.272888,0.965057-5.885529,3.439362-7.027008,6.654999l-6.548004,18.408997c-6.260254,0.679993-12.575745,0.679993-18.835999,0
	l-6.548004-18.408997c-1.144287-3.213806-3.755768-5.687042-7.027008-6.654999c-5.429169-1.58847-10.675827-3.74472-15.653-6.433014
	c-2.996429-1.642029-6.600235-1.740692-9.682007-0.265015l-17.552994,8.343994
	c-4.844025-4.033875-9.310486-8.500671-13.343994-13.345001l8.347992-17.554993
	c1.464859-3.085022,1.365234-6.684692-0.268005-9.68399c-2.689957-4.973602-4.84726-10.217346-6.436005-15.644012
	c-0.968353-3.272034-3.444077-5.883057-6.660004-7.023987l-18.399994-6.545013c-0.685364-6.258636-0.685364-12.573364,0-18.832001
	l18.408005-6.549988c3.214752-1.141449,5.689041-3.752502,6.656006-7.023987
	c1.592438-5.427612,3.749557-10.673279,6.436005-15.651001c1.633148-2.996826,1.732773-6.594391,0.268005-9.677002
	l-8.348007-17.554993c4.032974-4.844818,8.499481-9.311646,13.343994-13.345001l17.559998,8.342987
	c3.083115,1.47052,6.684601,1.372314,9.682999-0.264008c4.97406-2.688965,10.218124-4.845276,15.645004-6.433014
	c3.271576-0.967377,5.883301-3.440826,7.027008-6.654999l6.548004-18.408997c6.259827-0.688049,12.576172-0.688049,18.835999,0
	l6.548004,18.408997c1.144012,3.213989,3.755615,5.687347,7.027008,6.654999c5.429169,1.58847,10.675812,3.74472,15.652985,6.433014
	c2.996552,1.641876,6.600433,1.740143,9.682007,0.264008l17.553009-8.342987
	c4.844513,4.033356,9.311005,8.500183,13.343994,13.345001l-8.347992,17.554993
	c-1.465271,3.08252-1.365631,6.680328,0.268005,9.677002c2.687683,4.974701,4.844879,10.218201,6.436005,15.644012
	c0.964813,3.275635,3.441437,5.890198,6.660004,7.031006l18.399994,6.544006
	C388.832977,335.437469,388.831635,341.754181,388.144989,348.014648z M285.5,286.686646
	c-27.282867,0-49.400009,22.117126-49.400009,49.399994S258.217133,385.486633,285.5,385.486633
	s49.399994-22.117126,49.399994-49.399994l0,0C334.867493,308.817261,312.769379,286.719147,285.5,286.686646z M285.5,364.146637
	c-15.496552-0.001648-28.057648-12.56546-28.056-28.062012c0.001678-15.496552,12.56546-28.057648,28.062012-28.056
	c15.495392,0.001678,28.056,12.563629,28.056,28.059021C313.543274,351.577606,300.98996,364.129547,285.5,364.146637z"/>
<path style="fill:#2A3038;" d="M570,48.641968C569.971558,22.953796,549.043213,2.029785,523.347229,2H48.638
	C22.950623,2.030212,2.028381,22.959656,2,48.655212v457.702759C2.028442,532.045776,22.956421,552.969788,48.651978,553h474.709045
	C549.04895,552.970215,569.971619,532.04071,570,506.344788V48.641968z M21.838013,48.641968
	c0.015869-14.762085,12.032471-26.784119,26.787109-26.799988h474.735901
	c14.761108,0.016968,26.78302,12.033142,26.799988,26.786133v65.000854v11v1h-1h-11H33.839172h-11h-0.999939l-0.000061-0.999939
	l-0.00116-11V48.641968z M551.161011,145.469971v11v349.888c-0.016235,15.312927-12.481445,27.783508-27.786987,27.800049H48.638
	h-0.000549h-0.013123c-15.304016-0.017517-27.768921-12.482422-27.786316-27.786377V156.469971v-11v-1h1h11h506.322998h11h1
	V145.469971z"/>
<path style="fill:#2A3038;" d="M490.588196,56.576015c-9.824768-0.001415-17.790466,7.962002-17.791901,17.786793
	c-0.001404,9.824783,7.962006,17.790489,17.786804,17.791901c9.824799,0.001419,17.790497-7.962006,17.791901-17.786789
	c0-0.001137,0-0.002281,0-0.003418C508.363159,64.545753,500.406952,56.588776,490.588196,56.576015z"/>
<path style="fill:#2A3038;" d="M428.588196,56.576015c-9.824768-0.001415-17.790466,7.962002-17.791901,17.786793
	c-0.001404,9.824783,7.962006,17.790489,17.786804,17.791901c9.824799,0.001419,17.790497-7.962006,17.791901-17.786789
	c0-0.001137,0-0.002281,0-0.003418C446.363159,64.545753,438.406952,56.588776,428.588196,56.576015z"/>
<path style="fill:#2A3038;" d="M366.588196,56.576015c-9.824768-0.001415-17.790466,7.962002-17.791901,17.786793
	c-0.001404,9.824783,7.962006,17.790489,17.786804,17.791901c9.824799,0.001419,17.790497-7.962006,17.791901-17.786789
	c0-0.001137,0-0.002281,0-0.003418C384.363159,64.545753,376.406952,56.588776,366.588196,56.576015z"/>
</svg>
