<?xml version="1.0" encoding="utf-8"?>
<!-- Generator: Adobe Illustrator 19.2.1, SVG Export Plug-In . SVG Version: 6.00 Build 0)  -->
<svg version="1.0" id="Слой_1" xmlns="http://www.w3.org/2000/svg" xmlns:xlink="http://www.w3.org/1999/xlink" x="0px" y="0px"
	 viewBox="0 0 572 555" style="enable-background:new 0 0 572 555;" xml:space="preserve">
<path style="fill:#FFFFFF;" d="M557,134.666672H13v374l7.838013,22.666656l15.923275,10H495h40.237732l15.923279-14.666626
	c0,0,13.172302-17.333344,11.172302-19.333344s0-362.863373,0-362.863373L557,134.666672z"/>
<polygon style="fill:#CEEBFF;" points="537,13.333333 42.333332,13.333333 20.838013,25.333334 8.333333,56.576012 13,134.666672 
	557,134.666672 562.333313,96.666664 558.333313,40.666668 550.161011,16.666666 "/>
<path style="fill:#B3DAF5;" d="M36.76244,114.137611h0.943447h10.378578h475.831177h10.378601h0.943481v-0.778557v-8.564148
	V54.187916c-0.015991-11.486073-11.358765-20.841373-25.28598-20.854584H62.035114
	C48.114006,33.345688,36.77626,42.705551,36.761288,54.1987v50.596252l0.001095,8.564148L36.76244,114.137611z"/>
<path style="opacity:0.05;fill:#2A3038;" d="M508.375,13.333333l-367.375,532h305.375l81.291687-2.666626L547,531.333313
	L562.333313,504V394.666656V125.628967c0,0-2.666626-75.628967-3.333313-80.295639s-8.838989-28.666666-8.838989-28.666666
	L508.375,13.333333z"/>
<path style="fill:#2A3038;" d="M570,48.641968C569.971558,22.953796,549.043213,2.029785,523.347229,2H48.638
	C22.950623,2.030212,2.028381,22.959656,2,48.655212v457.702759C2.028442,532.045776,22.956421,552.969788,48.651978,553h474.709045
	C549.04895,552.970215,569.971619,532.04071,570,506.344788V48.641968z M21.838013,48.641968
	c0.015869-14.762085,12.032471-26.784119,26.787109-26.799988h474.735901
	c14.761108,0.016968,26.78302,12.033142,26.799988,26.786133v65.000854v11v1h-1h-11H33.839172h-11h-0.999939l-0.000061-0.999939
	l-0.00116-11V48.641968z M551.161011,145.469971v11v349.888c-0.016235,15.312927-12.481445,27.783508-27.786987,27.800049H48.638
	h-0.000549h-0.013123c-15.304016-0.017517-27.768921-12.482422-27.786316-27.786377V156.469971v-11v-1h1h11h506.322998h11h1
	V145.469971z"/>
<path style="fill:#2A3038;" d="M490.588196,56.576015c-9.824768-0.001415-17.790466,7.962002-17.791901,17.786793
	c-0.001404,9.824783,7.962006,17.790489,17.786804,17.791901c9.824799,0.001419,17.790497-7.962006,17.791901-17.786789
	c0-0.001137,0-0.002281,0-0.003418C508.363159,64.545753,500.406952,56.588776,490.588196,56.576015z"/>
<path style="fill:#2A3038;" d="M428.588196,56.576015c-9.824768-0.001415-17.790466,7.962002-17.791901,17.786793
	c-0.001404,9.824783,7.962006,17.790489,17.786804,17.791901c9.824799,0.001419,17.790497-7.962006,17.791901-17.786789
	c0-0.001137,0-0.002281,0-0.003418C446.363159,64.545753,438.406952,56.588776,428.588196,56.576015z"/>
<path style="fill:#2A3038;" d="M366.588196,56.576015c-9.824768-0.001415-17.790466,7.962002-17.791901,17.786793
	c-0.001404,9.824783,7.962006,17.790489,17.786804,17.791901c9.824799,0.001419,17.790497-7.962006,17.791901-17.786789
	c0-0.001137,0-0.002281,0-0.003418C384.363159,64.545753,376.406952,56.588776,366.588196,56.576015z"/>
<polygon style="fill:#F36C6D;" points="230.333328,228.666672 207.666672,234.666672 187,261.333344 187,291.333344 
	198.333328,339.479034 246.333328,404.666656 296.716064,435.333344 337,449.333344 358.333344,449.333344 376.333344,449.333344 
	397.411957,434.666656 406.333344,421.333344 406.333344,401.333344 380.333344,376.666656 366.585663,368.666656 343,381.333344 
	327,393.333344 296.64151,379.333344 270.333344,360 252.333328,334 242.333328,308.666656 253.666672,289.333344 
	266.333344,273.333344 256.333344,252 "/>
<path style="fill:#2A3038;" d="M411.195007,392.878052l-25.831848-25.852234
	c-5.337158-5.340088-12.812317-7.887573-21.029602-7.168762c-8.064636,0.704224-15.89386,4.479248-22.045166,10.629578
	l-7.708618,7.698914c-11.244324,11.22876-35.872925-5.429626-53.548767-23.107361
	c-10.852844-10.864014-18.524963-20.964478-22.803833-30.02124c-3.572205-7.562683-4.001648-12.796753-3.728333-15.921021
	c0.176514-2.880188,1.401672-5.585205,3.455017-7.625977l7.688171-7.688171c6.692139-6.68335,10.526001-15.747925,10.518738-24.8703
	c-0.005859-7.228088-2.508118-13.696533-7.042358-18.209839l-25.826965-25.821594
	c-5.327454-5.364929-12.796265-7.916748-21.079224-7.191162c-8.340393,0.866211-16.151611,4.655334-21.967834,10.642761
	l-7.715393,7.700317c-9.91272,9.910278-15.882202,23.457031-17.262451,39.174805
	c-3.347473,38.082397,19.348389,86.516785,59.229309,126.401123c27.971802,27.973694,60.279358,47.763184,90.972717,55.723694
	c9.83197,2.549438,19.195129,3.810059,27.941589,3.810059c18.976318,0,35.041321-5.93634,46.624207-17.521118l7.675476-7.675537
	c6.007385-5.855652,9.792114-13.676086,10.660767-22.059753C419.092346,405.709839,416.542908,398.235657,411.195007,392.878052z
	 M233.663269,310.163086c-1.553406,17.681641,9.092224,38.090698,31.642212,60.660095
	c20.093445,20.106567,38.645142,30.749817,55.140076,31.632996c14.410461,0.78302,23.67926-6.24176,27.927063-10.490479
	l7.689148-7.688171c2.290649-2.289734,5.258362-3.602905,8.144348-3.602905c0.003906,0,0.007751,0,0.011658,0
	c1.504761,0.001953,3.660278,0.368652,5.393616,2.109802l25.826965,25.830872
	c3.15155,3.169067,2.438538,9.636475-1.495056,13.568115l-7.690125,7.682312
	c-11.675232,11.666504-32.935425,13.767517-58.329529,5.762268c-26.319153-8.297058-53.905762-25.963135-77.678406-49.742615
	c-35.695923-35.71344-56.94104-79.519714-54.125061-111.600159c0.912354-10.380066,4.342102-18.601318,10.19574-24.437927
	l7.712036-7.703247c1.94928-1.998413,4.552185-3.256104,7.376892-3.546936c0.311768-0.037964,0.622559-0.056946,0.931396-0.056946
	c1.955078,0,3.828491,0.751892,5.230652,2.112244l25.829895,25.850281c1.462891,1.46637,2.176392,3.749268,1.957031,6.262695
	c-0.233459,2.675415-1.491638,5.330872-3.455017,7.287964l-7.675537,7.675476
	C238.149292,293.707031,234.398621,301.675354,233.663269,310.163086z"/>
</svg>
