<?xml version="1.0" encoding="utf-8"?>
<!-- Generator: Adobe Illustrator 19.2.1, SVG Export Plug-In . SVG Version: 6.00 Build 0)  -->
<svg version="1.0" id="Слой_1" xmlns="http://www.w3.org/2000/svg" xmlns:xlink="http://www.w3.org/1999/xlink" x="0px" y="0px"
	 viewBox="0 0 512 512" style="enable-background:new 0 0 512 512;" xml:space="preserve">
<g>
	<circle style="fill:#B3DAF5;" cx="255.748703" cy="255.748703" r="248.584641"/>
	<circle style="fill:#FFFFFF;" cx="255.748703" cy="255.748688" r="217.024734"/>
	<path style="fill:#2A3038;" d="M256.000977,1.004395C187.887695,1.004883,123.851074,27.530273,75.687988,75.693848
		C27.524902,123.85791,1.000488,187.89502,1.001465,256.008301c0.000488,68.112793,26.525879,132.149902,74.689453,180.312988
		c48.164062,48.163086,112.201172,74.686523,180.314453,74.686523c68.112793-0.000977,132.149902-26.525391,180.312988-74.689453
		s74.686523-112.201172,74.686523-180.314453c-0.000977-68.11377-26.525391-132.149902-74.689453-180.312988
		S324.114258,1.003418,256.000977,1.004395z M426.416016,426.419922
		c-45.464844,45.573242-105.955078,70.713867-170.328613,70.791016c-0.098145,0-0.197266,0-0.29541,0
		c-64.263184,0-124.697754-24.989258-170.201172-70.384766c-45.573242-45.464844-70.713867-105.955078-70.790039-170.328613
		C14.724121,192.124023,39.720215,131.57373,85.18457,86.000977l0.408203-0.408203
		c45.501465-45.388184,105.937988-70.375977,170.192383-70.375977c0.105957,0,0.203125,0,0.309082,0.000488
		c64.373535,0.080078,124.862793,25.223633,170.324707,70.799316c45.382812,45.495605,70.375977,105.941406,70.375,170.202148
		C496.793945,320.479492,471.799805,380.924805,426.416016,426.419922z"/>
	<path style="fill:#2A3038;" d="M250.918945,464.953125c-49.594727-1.208008-97.271973-20.086914-134.248535-53.15918
		c-1.305176-1.1875-2.964355-1.828125-4.708984-1.828125c-0.112305,0-0.225098,0.00293-0.338379,0.007812
		c-1.867676,0.088867-3.588867,0.899414-4.847168,2.282227c-1.258789,1.382812-1.902832,3.172852-1.814941,5.041016
		c0.088379,1.867188,0.898438,3.588867,2.28125,4.847656l0.079102,0.070312
		c44.408691,39.723633,101.614746,59.772461,161.088867,56.459961c59.474609-3.3125,114.100586-29.586914,153.814453-73.984375
		c35.292969-39.455078,55.438477-90.329102,56.726562-143.25c1.289062-52.921875-16.358398-104.71582-49.69043-145.841309
		c-2.451172-2.973145-6.869141-3.400879-9.847656-0.949707c-2.9375,2.418457-3.394531,6.803223-1.018555,9.774902
		c35.144531,43.369141,51.297852,97.834961,45.481445,153.358887c-5.816406,55.524414-32.90625,105.459961-76.280273,140.608398
		C349.052734,449.625,300.507812,466.143555,250.918945,464.953125z"/>
	<path style="fill:#2A3038;" d="M256.069763,34.004272c-30.951111,0-60.962341,6.264526-89.200012,18.619629
		c-29.221863,12.785828-54.908936,31.423889-76.347656,55.396423c-35.124268,39.275696-55.174316,89.915161-56.456665,142.59021
		c-1.282288,52.674927,16.279907,104.230042,49.451416,145.168335c1.143921,1.40979,2.843933,2.218994,4.663452,2.218994
		c1.388733,0,2.694275-0.463684,3.775574-1.341003c1.244568-1.009766,2.021484-2.443787,2.187439-4.037842
		c0.166077-1.594055-0.298584-3.157349-1.308411-4.401917C62.665161,350.922546,46.032837,303.968201,46,256.001343
		C46,140.205627,140.205627,46,256,46l0.143494-0.000061c51.683044-0.000732,101.350403,18.988281,139.852783,53.469177
		c1.1203,1.02063,2.554565,1.576355,4.05127,1.576355c1.68573,0,3.303162-0.714111,4.437561-1.959167
		c2.228149-2.445557,2.05127-6.247925-0.394287-8.476074l-0.078186-0.070007
		c-40.767639-36.458496-93.298706-56.532593-147.929321-56.53595l-0.006775-0.999756
		c-0.002258,0-0.004517,0.000061-0.006775,0.000061V34.004272z"/>
</g>
<path style="fill:#F59899;" d="M375,224.631897C374,221.5,369.78064,195.5,369.78064,195.5L361.5,180l-16-7H181l-32,12l-9,30.50116
	v93.384277L154,338l38.5,8.5h99.485046H345.5l14-9L373,315C373,315,376,227.763794,375,224.631897z M229,302.5v-86.99884
	l71,43.836548L229,302.5z"/>
<path style="fill:#F36C6D;" d="M360,268.01181l-0.00412-3.393646v-14.003906c0-17.682938-2.026154-35.750107-2.116974-36.547134
	c-0.783112-5.743073-3.36731-15.820496-7.276581-20.044281h-0.000061l-0.05249-0.058182
	c-6.137543-6.848663-12.976776-7.540314-17.062225-7.953461c-0.46402-0.04715-0.895142-0.091171-1.287964-0.137482
	l-0.032806-0.003891l-0.03299-0.002563c-29.568207-2.281326-74.279083-2.307693-74.727234-2.307693h-0.101196
	c-0.448212,0-45.158997,0.026367-74.720764,2.307693l-0.032776,0.002563l-0.032654,0.003845
	c-0.393753,0.046356-0.824341,0.090332-1.291763,0.137909c-4.084198,0.414322-10.919754,1.107819-17.051895,7.945282
	l-0.059357,0.06514c-4.39241,4.752121-6.741608,16.080276-7.280411,20.078278
	c-0.086212,0.75975-2.112427,18.809921-2.112427,36.505005v17.39505c0,17.298492,1.896103,34.594482,2.11705,36.547638
	c0.784378,5.73941,3.368469,15.807281,7.256561,20.002838l0.071274,0.079132
	c5.579407,6.222076,12.627121,7.127655,17.77182,7.788849l0.05484,0.007019c1.029739,0.133118,2.002411,0.25882,2.885651,0.421173
	l0.066605,0.012177l0.067307,0.006714c16.809052,1.667511,70.11615,2.229492,72.377243,2.252625l0.016449-0.816498
	c0.001434,0,0.004181,0.000061,0.005615,0.000061c0.000671,0,0.001678,0,0.00235,0l-0.008423,0.816589l0.012054,0.000122h0.011963
	l0.042755-0.000244c4.6586-0.014374,46.331482-0.203003,74.647217-2.360443l0.037445-0.002838l0.037201-0.004578
	c0.404419-0.049591,0.848083-0.096619,1.326111-0.14682c4.080688-0.424469,10.910553-1.134918,17.029053-7.962891l0.033722-0.036621
	l0.020447-0.024719c4.392731-4.739258,6.742828-16.060516,7.281921-20.056885C357.973785,303.763855,360,285.733551,360,268.01181z
	 M300.257141,263.540009l-67.227936,40.336426c-0.761322,0.45694-1.633133,0.698456-2.521057,0.698395
	c-1.308258-0.000092-2.538223-0.509705-3.463257-1.434906c-0.925034-0.92514-1.434357-2.155182-1.434311-3.463593v-80.676712
	c0.000061-0.887695,0.241577-1.759293,0.69841-2.520386c0.893936-1.489304,2.46611-2.378403,4.205734-2.378342
	c0.882736,0.000061,1.752274,0.241898,2.514648,0.699463l67.225296,40.338715l0.097412,0.058014
	c0.646179,0.408127,1.193176,0.967316,1.586426,1.622986C303.327698,259.13623,302.573547,262.150726,300.257141,263.540009z"/>
<path style="fill:#2A3038;" d="M341.671814,350.280121l0.225159-0.02356c5.208557-0.544586,16.042084-1.677124,25.492126-12.195496
	c7.971832-8.649414,10.459534-25.905823,10.71701-27.845062l0.005829-0.045959l0.00943-0.074646
	c1.488159-13.623749,2.293518-27.522675,2.388702-41.268616l-0.000061-19.046661
	c-0.094666-13.734589-0.900055-27.633728-2.393707-41.298889l-0.010681-0.097748l0.000031-0.019424
	c-0.288666-2.132965-2.823456-19.259567-10.696625-27.813049c-9.501953-10.573303-20.358887-11.67366-25.576416-12.202469
	l-0.278625-0.028091c-0.385132-0.038589-0.743713-0.074875-1.072845-0.116852
	c-0.073517-0.009216-0.150909-0.016968-0.228943-0.022858c-32.797974-2.542374-82.335876-2.571732-82.832428-2.571732h-0.110901
	c-0.496552,0-50.034363,0.029358-82.821411,2.571396c-0.081314,0.00618-0.158752,0.01387-0.235596,0.023529
	c-0.292892,0.036118-0.60434,0.068161-0.937057,0.102097l-0.403076,0.041641
	c-5.22226,0.528595-16.074341,1.62709-25.570007,12.187027c-7.976593,8.669983-10.459534,25.927887-10.716461,27.867233
	l-0.011612,0.090973c-1.492722,13.659775-2.297623,27.55246-2.392349,41.29245v19.044815
	c0.094299,13.733948,0.899673,27.633057,2.393707,41.29895l0.004196,0.038696c0.003555,0.02417,0.006607,0.047516,0.009232,0.070831
	c0.256271,1.907898,2.77124,19.202271,10.701721,27.801575c8.778854,9.761383,20.020035,11.206909,26.05925,11.983521
	c1.130783,0.145569,2.120407,0.276703,2.823959,0.412811c0.175446,0.034851,0.345444,0.060455,0.51445,0.077911
	c18.930603,1.938629,78.157822,2.529877,80.669861,2.554047c0.46817-0.000061,49.996033-0.113068,82.845154-2.62973
	c0.087128-0.006561,0.171417-0.015442,0.255676-0.026794C340.863251,350.365112,341.252258,350.324188,341.671814,350.280121z
	 M339.327484,339.746216l-0.040833,0.005035l-0.040985,0.003113c-31.013977,2.362976-76.657928,2.56958-81.760468,2.585358
	l-0.046814,0.000214h-0.013153l-0.013153-0.000092l0.009216-0.894409c-0.000763,0-0.001862,0-0.002625,0
	c-0.001526,0-0.004517-0.000031-0.006104-0.000031l-0.018005,0.894257c-2.476562-0.025299-60.863419-0.6409-79.274277-2.467255
	l-0.07373-0.007385l-0.072906-0.013367c-0.967407-0.177734-2.032761-0.315491-3.160675-0.461243l-0.060028-0.007751
	c-5.634995-0.724121-13.354279-1.716034-19.465363-8.531036l-0.078033-0.08667
	c-4.258621-4.595337-7.088913-15.62265-7.948044-21.908966c-0.242035-2.139221-2.318848-21.083435-2.318848-40.030273v-19.052689
	c0-19.381317,2.219299-39.15152,2.313766-39.983643c0.590149-4.378952,3.163193-16.786606,7.974197-21.991577l0.064987-0.071381
	c6.716461-7.488983,14.20343-8.248581,18.676788-8.702408c0.511993-0.052109,0.983612-0.10025,1.414902-0.151047l0.035751-0.004211
	l0.035904-0.002777c32.378738-2.498718,81.350128-2.527588,81.841034-2.527588h0.110809
	c0.490906,0,49.462341,0.02887,81.848175,2.527588l0.036133,0.002777l0.03598,0.004257
	c0.430176,0.050751,0.902466,0.098938,1.410675,0.15062c4.474731,0.452515,11.965698,1.210037,18.68811,8.711365l0.057495,0.063675
	h0.000061c4.28183,4.626343,7.112213,15.664062,7.970001,21.954361c0.099487,0.873001,2.318726,20.661804,2.318726,40.0298
	v15.338379l0.004486,3.717041c0,19.410461-2.21933,39.158936-2.313782,39.990143
	c-0.590485,4.377136-3.16449,16.777252-7.97583,21.968109l-0.02243,0.0271l-0.036896,0.040131
	c-6.701538,7.478607-14.182251,8.256744-18.651794,8.721649C340.256348,339.64035,339.770386,339.691925,339.327484,339.746216z"/>
<path style="fill:#2A3038;" d="M306.18634,256.580017c-0.430725-0.718124-1.029816-1.330643-1.73764-1.777649l-0.106689-0.063522
	l-73.631348-44.182724c-0.835007-0.501129-1.787354-0.766037-2.754272-0.766083
	c-1.905334-0.000061-3.62738,0.97374-4.606461,2.604965c-0.500381,0.833649-0.764893,1.788284-0.764938,2.760605v88.364502
	c-0.000122,1.433136,0.557785,2.780365,1.570969,3.793671c1.013199,1.013367,2.360321,1.571533,3.793289,1.571625
	c0.972534,0.000061,1.927383-0.264435,2.761261-0.764923l73.634247-44.180176
	C306.881866,262.41861,307.707886,259.116882,306.18634,256.580017z M288.60025,260.872528l-52.581146,31.54892l-2.708267,1.625
	v-3.158386v-63.097778v-3.158386l2.708267,1.625015l52.581146,31.548813l2.555634,1.533417L288.60025,260.872528z"/>
</svg>
